# This file uses centimeters as units for non-parametric coordinates.

v 258.182588 160.801329 69.587063
v 258.401825 174.304324 70.436665
v 255.635739 174.285883 69.874738
v 255.850875 164.103790 70.766037
v 256.253866 160.795646 70.514822
v 257.447788 160.222274 68.757153
v 256.965836 174.300758 70.646417
v 258.100716 169.420799 68.035732
v 256.401060 169.387762 70.520453
v 257.417525 164.133150 67.850510
v 258.505153 164.226353 68.273089
v 255.865038 169.333445 68.301239
v 257.437681 174.296858 67.664313
v 259.077596 174.296858 67.932366
v 255.611282 172.213732 70.111249
v 256.937876 164.046297 71.579651
v 258.220123 164.096158 71.181626
v 258.164479 169.380743 70.731208
v 255.948215 161.577264 70.800165
v 257.135143 160.538598 70.988453
v 258.064387 160.774699 70.980636
v 256.336595 160.782387 68.935237
v 256.137006 164.216047 68.477113
v 255.985123 174.293404 67.912982
v 257.502335 161.246678 68.261594
v 258.399559 161.613755 69.285395
v 257.213736 169.299573 67.717054
v 257.386634 172.260696 67.865256
v 258.429350 172.289610 68.701676
v 256.986642 172.325376 70.792393
v 256.981399 169.390659 71.108644
v 258.138631 172.436574 70.160156
v 257.011878 161.454924 71.962263
v 258.088750 161.536930 71.406994
v 256.180135 161.483336 68.573864
v 255.987265 172.181086 67.932724
v 266.082177 176.577088 62.973946
v 259.218464 173.867553 58.952570
v 251.697181 176.599930 60.692439
v 263.634079 196.145618 64.842791
v 258.943122 196.121774 61.513698
v 253.428694 196.149462 63.337673
v 260.881266 208.653066 67.183369
v 258.293703 210.715803 65.363135
v 255.068471 208.783652 66.045087
v 261.112670 210.527223 70.461518
v 257.325556 215.781835 70.054752
v 253.805794 210.478197 69.613717
v 259.775671 208.621757 73.468217
v 256.829646 210.387668 73.954378
v 254.401043 211.135971 72.571073
v 261.899793 198.982730 76.184010
v 256.226751 196.071077 78.317282
v 251.470021 196.120882 75.594445
v 263.270697 176.578760 79.292299
v 255.565052 173.896300 81.066002
v 248.671010 176.588119 77.588376
v 266.927559 173.793403 71.574565
v 257.181071 168.802468 70.368619
v 247.791112 173.807442 68.768806
v 250.350203 196.033751 69.251886
v 264.697296 196.073250 70.705669
vt 0.612557 0.525539
vt 0.641254 0.547619
vt 0.613428 0.570882
vt 0.645270 0.579162
vt 0.649287 0.610706
vt 0.614313 0.629139
vt 0.584671 0.547619
vt 0.581871 0.579162
vt 0.579071 0.610706
vt 0.616380 0.823625
vt 0.644565 0.837820
vt 0.654252 0.894598
vt 0.654808 0.951377
vt 0.616792 0.894598
vt 0.616933 0.951377
vt 0.588712 0.837820
vt 0.584306 0.894598
vt 0.579899 0.951377
vt 0.900947 0.525539
vt 0.896217 0.582317
vt 0.863914 0.525539
vt 0.863655 0.582317
vt 0.891487 0.639095
vt 0.863195 0.653290
vt 0.897606 0.866209
vt 0.861384 0.847776
vt 0.824881 0.866209
vt 0.835326 0.639095
vt 0.826880 0.525539
vt 0.831103 0.582317
vt 0.889485 0.929297
vt 0.859985 0.951377
vt 0.893545 0.897753
vt 0.860661 0.906033
vt 0.827942 0.897753
vt 0.831003 0.929297
vt 0.739915 0.525539
vt 0.731293 0.547619
vt 0.667841 0.525539
vt 0.670910 0.547619
vt 0.746140 0.547619
vt 0.808932 0.547619
vt 0.811253 0.525539
vt 0.732185 0.579162
vt 0.669614 0.579162
vt 0.733078 0.610706
vt 0.668318 0.610706
vt 0.717980 0.837820
vt 0.715128 0.894598
vt 0.662828 0.837820
vt 0.712275 0.951377
vt 0.811525 0.610706
vt 0.743852 0.610706
vt 0.810229 0.579162
vt 0.744996 0.579162
vt 0.759595 0.837820
vt 0.815671 0.837820
vt 0.823119 0.951377
vt 0.762829 0.951377
vt 0.819395 0.894598
vt 0.761212 0.894598
vt 0.413989 0.967619
vt 0.416083 0.657293
vt 0.535670 0.958350
vt 0.479886 0.657298
vt 0.295585 0.958350
vt 0.354105 0.657298
vt 0.447024 0.532647
vt 0.414451 0.530005
vt 0.382755 0.532647
vt 0.460112 0.529060
vt 0.412424 0.432226
vt 0.369125 0.529060
vt 0.228300 0.964083
vt 0.229396 0.866304
vt 0.275988 0.867249
vt 0.261928 0.863663
vt 0.185001 0.867249
vt 0.198004 0.863663
vt 0.295078 0.739012
vt 0.231959 0.739017
vt 0.169719 0.739012
vt 0.347917 0.437960
vt 0.226386 0.428690
vt 0.109118 0.437960
vt 0.100097 0.228079
vt 0.263255 0.228942
vt 0.147550 0.349610
vt 0.264990 0.402486
vt 0.145094 0.110811
vt 0.264591 0.061959
vt 0.383326 0.353240
vt 0.437329 0.231558
vt 0.385970 0.113154
vt 0.931436 0.366222
vt 0.918851 0.485719
vt 0.617764 0.368383
vt 0.617799 0.436770
vt 0.918851 0.244842
vt 0.617799 0.300253
vt 0.489561 0.363194
vt 0.493148 0.395183
vt 0.493148 0.330702
vt 0.467822 0.178163
vt 0.781494 0.165357
vt 0.480408 0.295602
vt 0.781459 0.232884
vt 0.480407 0.059826
vt 0.781459 0.112991
vt 0.909697 0.175427
vt 0.906110 0.206865
vt 0.906110 0.143750
vn 0.175806 -0.889001 -0.422810
vn -0.678430 -0.649310 -0.343700
vn 0.226670 -0.322448 -0.919047
vn -0.792571 -0.250037 -0.556159
vn -0.841300 -0.039427 -0.539128
vn 0.050198 -0.099322 -0.993788
vn 0.845015 -0.523758 -0.107827
vn 0.942377 -0.195169 -0.271726
vn 0.902278 -0.051532 -0.428064
vn 0.053290 -0.002540 -0.998576
vn -0.848786 -0.048559 -0.526501
vn -0.770876 -0.062312 -0.633930
vn -0.719055 -0.033587 -0.694141
vn 0.142521 -0.073058 -0.987092
vn 0.134316 -0.170110 -0.976228
vn 0.880356 0.016259 -0.474035
vn 0.900486 -0.138808 -0.412136
vn 0.877910 -0.300608 -0.372704
vn -0.918672 0.044512 0.392506
vn -0.901230 -0.004674 0.433316
vn -0.086507 0.016640 0.996112
vn -0.086107 0.055452 0.994741
vn -0.893712 0.007095 0.448585
vn -0.141274 0.096201 0.985285
vn -0.925254 0.032593 0.377945
vn -0.189877 0.090417 0.977636
vn 0.813839 0.061999 0.577774
vn 0.826596 0.060591 0.559524
vn 0.739878 -0.144189 0.657108
vn 0.793543 -0.051654 0.606317
vn -0.732222 -0.653240 0.192688
vn -0.086295 -0.893205 0.441292
vn -0.923627 -0.240561 0.298403
vn -0.188271 -0.317354 0.929430
vn 0.816122 -0.193601 0.544484
vn 0.677950 -0.633558 0.372810
vn 0.128402 -0.468952 -0.873840
vn 0.156930 0.203354 -0.966447
vn 0.833242 -0.225647 -0.504768
vn 0.844071 0.196664 -0.498866
vn -0.636755 -0.212261 -0.741275
vn -0.651139 0.190536 -0.734652
vn 0.814155 0.355757 -0.458900
vn 0.142131 0.499716 -0.854449
vn -0.641357 0.345977 -0.684807
vn 0.891520 0.430657 0.140450
vn 0.033858 0.998020 0.053014
vn -0.882700 0.452340 -0.127392
vn -0.085622 0.505562 0.858531
vn 0.603568 0.373574 0.704377
vn -0.753478 0.405858 0.517252
vn 0.647481 0.217212 0.730471
vn -0.112392 0.220422 0.968908
vn -0.814959 0.212296 0.539232
vn 0.639610 -0.217076 0.737413
vn -0.108844 -0.454475 0.884084
vn -0.819674 -0.212933 0.531784
vn -0.003758 -0.999961 0.007983
vn 0.898142 -0.414798 0.145890
vn -0.902187 -0.405233 -0.147801
vn -0.971331 0.180189 -0.155076
vn 0.973410 0.186712 0.132712
f 6/1/1 22/2/2 25/3/3
f 25/3/3 22/2/2 35/4/4
f 23/5/5 10/6/6 35/4/4
f 35/4/4 10/6/6 25/3/3
f 6/1/1 25/3/3 1/7/7
f 1/7/7 25/3/3 26/8/8
f 25/3/3 10/6/6 26/8/8
f 26/8/8 10/6/6 11/9/9
f 10/6/6 23/5/5 27/10/10
f 27/10/10 23/5/5 12/11/11
f 36/12/12 24/13/13 28/14/14
f 28/14/14 24/13/13 13/15/15
f 12/11/11 36/12/12 27/10/10
f 27/10/10 36/12/12 28/14/14
f 27/10/10 28/14/14 8/16/16
f 8/16/16 28/14/14 29/17/17
f 28/14/14 13/15/15 29/17/17
f 29/17/17 13/15/15 14/18/18
f 10/6/6 27/10/10 11/9/9
f 11/9/9 27/10/10 8/16/16
f 3/19/19 15/20/20 7/21/21
f 7/21/21 15/20/20 30/22/22
f 15/20/20 9/23/23 30/22/22
f 30/22/22 9/23/23 31/24/24
f 9/23/23 4/25/25 31/24/24
f 31/24/24 4/25/25 16/26/26
f 16/26/26 17/27/27 31/24/24
f 31/24/24 17/27/27 18/28/28
f 2/29/29 7/21/21 32/30/30
f 32/30/30 7/21/21 30/22/22
f 31/24/24 18/28/28 30/22/22
f 30/22/22 18/28/28 32/30/30
f 5/31/31 20/32/32 19/33/33
f 19/33/33 20/32/32 33/34/34
f 4/25/25 19/33/33 16/26/26
f 16/26/26 19/33/33 33/34/34
f 17/27/27 16/26/26 34/35/35
f 34/35/35 16/26/26 33/34/34
f 33/34/34 20/32/32 34/35/35
f 34/35/35 20/32/32 21/36/36
f 20/37/32 5/38/31 6/39/1
f 6/39/1 5/38/31 22/40/2
f 21/41/36 20/37/32 1/42/7
f 1/42/7 20/37/32 6/43/1
f 5/38/31 19/44/33 22/40/2
f 22/40/2 19/44/33 35/45/4
f 19/44/33 4/46/25 35/45/4
f 35/45/4 4/46/25 23/47/5
f 9/48/23 15/49/20 12/50/11
f 12/50/11 15/49/20 36/12/12
f 15/49/20 3/51/19 36/12/12
f 36/12/12 3/51/19 24/13/13
f 4/46/25 9/48/23 23/47/5
f 23/47/5 9/48/23 12/50/11
f 11/52/9 17/53/27 26/54/8
f 26/54/8 17/53/27 34/55/35
f 34/55/35 21/41/36 26/54/8
f 26/54/8 21/41/36 1/42/7
f 17/53/27 11/52/9 18/56/28
f 18/56/28 11/52/9 8/57/16
f 14/58/18 2/59/29 29/60/17
f 29/60/17 2/59/29 32/61/30
f 32/61/30 18/56/28 29/60/17
f 29/60/17 18/56/28 8/57/16
f 38/62/37 41/63/38 37/64/39
f 37/64/39 41/63/38 40/65/40
f 38/62/37 39/66/41 41/63/38
f 41/63/38 39/66/41 42/67/42
f 40/65/40 41/63/38 43/68/43
f 43/68/43 41/63/38 44/69/44
f 42/67/42 45/70/45 41/63/38
f 41/63/38 45/70/45 44/69/44
f 43/68/43 44/69/44 46/71/46
f 46/71/46 44/69/44 47/72/47
f 45/70/45 48/73/48 44/69/44
f 44/69/44 48/73/48 47/72/47
f 47/74/47 50/75/49 46/76/46
f 46/76/46 50/75/49 49/77/50
f 47/74/47 48/78/48 50/75/49
f 50/75/49 48/78/48 51/79/51
f 49/77/50 50/75/49 52/80/52
f 52/80/52 50/75/49 53/81/53
f 51/79/51 54/82/54 50/75/49
f 50/75/49 54/82/54 53/81/53
f 52/80/52 53/81/53 55/83/55
f 55/83/55 53/81/53 56/84/56
f 54/82/54 57/85/57 53/81/53
f 53/81/53 57/85/57 56/84/56
f 56/86/56 59/87/58 55/88/55
f 55/88/55 59/87/58 58/89/59
f 56/86/56 57/90/57 59/87/58
f 59/87/58 57/90/57 60/91/60
f 58/89/59 59/87/58 37/92/39
f 37/92/39 59/87/58 38/93/37
f 60/91/60 39/94/41 59/87/58
f 59/87/58 39/94/41 38/93/37
f 60/95/60 57/96/57 61/97/61
f 61/97/61 57/96/57 54/98/54
f 60/95/60 61/97/61 39/99/41
f 39/99/41 61/97/61 42/100/42
f 61/97/61 54/98/54 48/101/48
f 48/101/48 54/98/54 51/102/51
f 42/100/42 61/97/61 45/103/45
f 45/103/45 61/97/61 48/101/48
f 58/104/59 62/105/62 55/106/55
f 55/106/55 62/105/62 52/107/52
f 58/104/59 37/108/39 62/105/62
f 62/105/62 37/108/39 40/109/40
f 62/105/62 46/110/46 52/107/52
f 52/107/52 46/110/46 49/111/50
f 40/109/40 43/112/43 62/105/62
f 62/105/62 43/112/43 46/110/46
