# This file uses centimeters as units for non-parametric coordinates.

v -323.408571 127.517084 -231.632587
v -322.808612 140.643431 -231.983404
v -323.019880 140.625506 -228.964527
v -322.389424 130.727428 -229.316768
v -322.599940 127.511560 -229.710432
v -323.957767 126.954181 -230.736329
v -322.555008 140.639965 -230.485662
v -324.526607 135.896126 -231.330595
v -322.606280 135.864011 -229.867716
v -324.612426 130.755969 -230.578527
v -324.383289 130.846573 -231.793496
v -324.176003 135.811208 -228.990314
v -324.748739 140.636175 -230.574166
v -324.670642 140.636175 -232.354933
v -322.846812 138.611154 -228.971287
v -321.876965 130.671539 -230.585237
v -322.256077 130.720009 -231.893429
v -322.578435 135.857187 -231.771859
v -322.371592 128.271376 -229.424987
v -322.319212 127.261682 -230.713067
v -322.390656 127.491197 -231.699989
v -323.750096 127.498671 -229.579542
v -324.067847 130.836554 -229.303850
v -324.465770 140.632817 -229.064192
v -324.320627 127.950011 -230.725658
v -323.642468 128.306849 -231.821483
v -324.694679 135.778281 -230.343365
v -324.599556 138.656808 -230.547732
v -324.067441 138.684915 -231.772287
v -322.450731 138.719684 -230.528010
v -322.221258 135.866827 -230.566252
v -322.990293 138.827780 -231.665248
v -321.605028 128.152448 -230.716938
v -322.083513 128.232167 -231.784979
v -324.000810 128.180068 -229.363111
v -324.451619 138.579418 -229.069211
v -328.758526 142.852801 -239.115492
v -331.185857 140.218844 -231.260531
v -329.393015 142.875005 -223.504642
v -327.231379 161.875492 -236.771506
v -329.311003 161.852313 -231.322630
v -327.599296 161.879229 -225.712174
v -325.340921 174.034063 -234.168895
v -326.476382 176.039262 -231.165488
v -325.754041 174.161005 -227.830771
v -322.982509 175.855942 -234.869134
v -323.009093 180.963984 -230.786154
v -323.079430 175.808284 -226.982686
v -320.709716 174.003627 -233.864169
v -320.148978 175.720280 -230.799183
v -320.979166 176.447710 -228.025334
v -318.892677 164.633467 -236.498909
v -316.945676 161.803031 -230.762664
v -318.581456 161.851447 -225.327846
v -316.737982 142.854425 -238.387178
v -314.907576 140.246789 -230.439962
v -316.938848 142.863524 -222.628086
v -322.587817 140.146762 -241.205988
v -322.771491 135.295043 -230.676020
v -323.265731 140.160410 -220.470559
v -323.096931 161.766746 -223.258423
v -323.059393 161.805143 -238.714289
vt 0.612557 0.525539
vt 0.641254 0.547619
vt 0.645270 0.579162
vt 0.613428 0.570882
vt 0.645270 0.579162
vt 0.649287 0.610706
vt 0.614313 0.629139
vt 0.613428 0.570882
vt 0.584671 0.547619
vt 0.612557 0.525539
vt 0.613428 0.570882
vt 0.581871 0.579162
vt 0.613428 0.570882
vt 0.614313 0.629139
vt 0.579071 0.610706
vt 0.581871 0.579162
vt 0.614313 0.629139
vt 0.649287 0.610706
vt 0.644565 0.837820
vt 0.616380 0.823625
vt 0.649266 0.894598
vt 0.653966 0.951377
vt 0.616933 0.951377
vt 0.616792 0.894598
vt 0.616380 0.823625
vt 0.644565 0.837820
vt 0.649266 0.894598
vt 0.616792 0.894598
vt 0.588712 0.837820
vt 0.616380 0.823625
vt 0.616792 0.894598
vt 0.584306 0.894598
vt 0.616792 0.894598
vt 0.616933 0.951377
vt 0.579899 0.951377
vt 0.584306 0.894598
vt 0.579071 0.610706
vt 0.614313 0.629139
vt 0.616380 0.823625
vt 0.588712 0.837820
vt 0.863914 0.525539
vt 0.900947 0.525539
vt 0.896217 0.582317
vt 0.863655 0.582317
vt 0.896217 0.582317
vt 0.891487 0.639095
vt 0.863195 0.653290
vt 0.863655 0.582317
vt 0.891487 0.639095
vt 0.897606 0.866209
vt 0.861385 0.847776
vt 0.863195 0.653290
vt 0.863195 0.653290
vt 0.861385 0.847776
vt 0.824881 0.866209
vt 0.835326 0.639095
vt 0.826880 0.525539
vt 0.863914 0.525539
vt 0.863655 0.582317
vt 0.831103 0.582317
vt 0.863655 0.582317
vt 0.863195 0.653290
vt 0.835326 0.639095
vt 0.831103 0.582317
vt 0.893546 0.897753
vt 0.889485 0.929297
vt 0.859985 0.951377
vt 0.860661 0.906033
vt 0.861385 0.847776
vt 0.897606 0.866209
vt 0.893546 0.897753
vt 0.860661 0.906033
vt 0.824881 0.866209
vt 0.861385 0.847776
vt 0.860661 0.906033
vt 0.827942 0.897753
vt 0.860661 0.906033
vt 0.859985 0.951377
vt 0.831003 0.929297
vt 0.827942 0.897753
vt 0.738442 0.525539
vt 0.731293 0.547619
vt 0.670910 0.547619
vt 0.667841 0.525539
vt 0.746140 0.547619
vt 0.740652 0.525539
vt 0.811253 0.525539
vt 0.808932 0.547619
vt 0.670910 0.547619
vt 0.731293 0.547619
vt 0.732185 0.579162
vt 0.669614 0.579162
vt 0.732185 0.579162
vt 0.733078 0.610706
vt 0.668318 0.610706
vt 0.669614 0.579162
vt 0.662828 0.837820
vt 0.717980 0.837820
vt 0.715128 0.894598
vt 0.659239 0.894598
vt 0.715128 0.894598
vt 0.712275 0.951377
vt 0.655650 0.951377
vt 0.659239 0.894598
vt 0.668318 0.610706
vt 0.733078 0.610706
vt 0.717980 0.837820
vt 0.662828 0.837820
vt 0.811525 0.610706
vt 0.743852 0.610706
vt 0.744996 0.579162
vt 0.810228 0.579162
vt 0.744996 0.579162
vt 0.746140 0.547619
vt 0.808932 0.547619
vt 0.810228 0.579162
vt 0.759595 0.837820
vt 0.743852 0.610706
vt 0.811525 0.610706
vt 0.815671 0.837820
vt 0.823119 0.951377
vt 0.762829 0.951377
vt 0.761212 0.894598
vt 0.819395 0.894598
vt 0.761212 0.894598
vt 0.759595 0.837820
vt 0.815671 0.837820
vt 0.819395 0.894598
vt 0.535670 0.958350
vt 0.413989 0.967619
vt 0.416083 0.657293
vt 0.479886 0.657298
vt 0.295585 0.958350
vt 0.354105 0.657298
vt 0.414451 0.530005
vt 0.447024 0.532647
vt 0.382755 0.532647
vt 0.412424 0.432226
vt 0.460112 0.529060
vt 0.369125 0.529060
vt 0.275988 0.867249
vt 0.228300 0.964083
vt 0.229396 0.866304
vt 0.261928 0.863663
vt 0.185001 0.867249
vt 0.198004 0.863663
vt 0.231959 0.739017
vt 0.295078 0.739012
vt 0.169719 0.739012
vt 0.226386 0.428690
vt 0.347917 0.437960
vt 0.109118 0.437960
vt 0.147550 0.349610
vt 0.100097 0.228079
vt 0.263255 0.228942
vt 0.264990 0.402486
vt 0.145094 0.110811
vt 0.264591 0.061959
vt 0.437329 0.231558
vt 0.383326 0.353240
vt 0.385970 0.113154
vt 0.931436 0.366222
vt 0.918851 0.485719
vt 0.617799 0.436770
vt 0.617764 0.368383
vt 0.918851 0.244842
vt 0.617799 0.300253
vt 0.493148 0.395183
vt 0.489561 0.363194
vt 0.493148 0.330702
vt 0.480408 0.295602
vt 0.467822 0.178163
vt 0.781494 0.165357
vt 0.781459 0.232884
vt 0.480407 0.059826
vt 0.781459 0.112991
vt 0.909697 0.175427
vt 0.906110 0.206865
vt 0.906110 0.143750
vn -0.549803 -0.827611 -0.113032
vn -0.347196 -0.666452 0.659770
vn -0.964271 -0.247378 -0.094792
vn -0.597922 -0.249143 0.761851
vn -0.575810 -0.039893 0.816609
vn -0.996698 -0.074687 0.031847
vn -0.300214 -0.544500 -0.783193
vn -0.524081 -0.195663 -0.828888
vn -0.680492 -0.048503 -0.731148
vn -0.999548 -0.001906 0.029996
vn -0.560521 -0.049392 0.826666
vn -0.683722 -0.060272 0.727249
vn -0.745549 -0.031475 0.665707
vn -0.998016 -0.054718 -0.031147
vn -0.991410 -0.128083 -0.026457
vn -0.719438 0.014995 -0.694395
vn -0.664537 -0.131481 -0.735597
vn -0.619895 -0.288717 -0.729639
vn 0.648821 0.042552 0.759751
vn 0.685348 -0.004390 0.728202
vn 0.999895 0.012465 -0.007324
vn 0.999108 0.041565 -0.007509
vn 0.698381 0.006618 0.715696
vn 0.996931 0.072114 0.030450
vn 0.635452 0.031354 0.771503
vn 0.995655 0.067781 0.063850
vn 0.621372 0.061636 -0.781088
vn 0.600143 0.060742 -0.797583
vn 0.708452 -0.137498 -0.692236
vn 0.653598 -0.050665 -0.755144
vn 0.384204 -0.657447 0.648191
vn 0.557003 -0.829721 0.036206
vn 0.549987 -0.238445 0.800412
vn 0.967696 -0.242957 0.067352
vn 0.583328 -0.194533 -0.788597
vn 0.384812 -0.646823 -0.658437
vn -0.928871 -0.369141 -0.030566
vn -0.987227 0.153524 -0.042592
vn -0.738131 -0.204943 -0.642776
vn -0.734910 0.179152 -0.654073
vn -0.791065 -0.192504 0.580654
vn -0.784811 0.173676 0.594902
vn -0.692291 0.328986 -0.642262
vn -0.917186 0.396241 -0.041975
vn -0.738645 0.320789 0.592873
vn 0.034795 0.465912 -0.884147
vn 0.064353 0.997306 -0.035219
vn -0.017688 0.488352 0.872468
vn 0.915745 0.401758 0.001240
vn 0.758297 0.341674 -0.555198
vn 0.734559 0.365589 0.571636
vn 0.781094 0.198184 -0.592128
vn 0.985924 0.166755 0.012098
vn 0.764914 0.189882 0.615509
vn 0.787539 -0.197262 -0.583841
vn 0.934093 -0.356675 0.015909
vn 0.759355 -0.191091 0.621984
vn 0.011226 -0.999933 0.002689
vn 0.041415 -0.449382 -0.892379
vn -0.043437 -0.439379 0.897251
vn -0.041523 0.198137 0.979294
vn 0.008540 0.205203 -0.978682
f 6/1/1 22/2/2 25/4/3
f 25/4/3 22/2/2 35/3/4
f 23/6/5 10/7/6 35/5/4
f 35/5/4 10/7/6 25/8/3
f 6/10/1 25/11/3 1/9/7
f 1/9/7 25/11/3 26/12/8
f 25/13/3 10/14/6 26/16/8
f 26/16/8 10/14/6 11/15/9
f 10/17/6 23/18/5 27/20/10
f 27/20/10 23/18/5 12/19/11
f 36/21/12 24/22/13 28/24/14
f 28/24/14 24/22/13 13/23/15
f 12/26/11 36/27/12 27/25/10
f 27/25/10 36/27/12 28/28/14
f 27/30/10 28/31/14 8/29/16
f 8/29/16 28/31/14 29/32/17
f 28/33/14 13/34/15 29/36/17
f 29/36/17 13/34/15 14/35/18
f 10/38/6 27/39/10 11/37/9
f 11/37/9 27/39/10 8/40/16
f 3/42/19 15/43/20 7/41/21
f 7/41/21 15/43/20 30/44/22
f 15/45/20 9/46/23 30/48/22
f 30/48/22 9/46/23 31/47/24
f 9/49/23 4/50/25 31/52/24
f 31/52/24 4/50/25 16/51/26
f 16/54/26 17/55/27 31/53/24
f 31/53/24 17/55/27 18/56/28
f 2/57/29 7/58/21 32/60/30
f 32/60/30 7/58/21 30/59/22
f 31/62/24 18/63/28 30/61/22
f 30/61/22 18/63/28 32/64/30
f 5/66/31 20/67/32 19/65/33
f 19/65/33 20/67/32 33/68/34
f 4/70/25 19/71/33 16/69/26
f 16/69/26 19/71/33 33/72/34
f 17/73/27 16/74/26 34/76/35
f 34/76/35 16/74/26 33/75/34
f 33/77/34 20/78/32 34/80/35
f 34/80/35 20/78/32 21/79/36
f 20/81/32 5/82/31 6/84/1
f 6/84/1 5/82/31 22/83/2
f 21/85/36 20/86/32 1/88/7
f 1/88/7 20/86/32 6/87/1
f 5/90/31 19/91/33 22/89/2
f 22/89/2 19/91/33 35/92/4
f 19/93/33 4/94/25 35/96/4
f 35/96/4 4/94/25 23/95/5
f 9/98/23 15/99/20 12/97/11
f 12/97/11 15/99/20 36/100/12
f 15/101/20 3/102/19 36/104/12
f 36/104/12 3/102/19 24/103/13
f 4/106/25 9/107/23 23/105/5
f 23/105/5 9/107/23 12/108/11
f 11/109/9 17/110/27 26/112/8
f 26/112/8 17/110/27 34/111/35
f 34/113/35 21/114/36 26/116/8
f 26/116/8 21/114/36 1/115/7
f 17/118/27 11/119/9 18/117/28
f 18/117/28 11/119/9 8/120/16
f 14/121/18 2/122/29 29/124/17
f 29/124/17 2/122/29 32/123/30
f 32/125/30 18/126/28 29/128/17
f 29/128/17 18/126/28 8/127/16
f 38/130/37 41/131/38 37/129/39
f 37/129/39 41/131/38 40/132/40
f 38/130/37 39/133/41 41/131/38
f 41/131/38 39/133/41 42/134/42
f 40/132/40 41/131/38 43/136/43
f 43/136/43 41/131/38 44/135/44
f 42/134/42 45/137/45 41/131/38
f 41/131/38 45/137/45 44/135/44
f 43/136/43 44/135/44 46/139/46
f 46/139/46 44/135/44 47/138/47
f 45/137/45 48/140/48 44/135/44
f 44/135/44 48/140/48 47/138/47
f 47/142/47 50/143/49 46/141/46
f 46/141/46 50/143/49 49/144/50
f 47/142/47 48/145/48 50/143/49
f 50/143/49 48/145/48 51/146/51
f 49/144/50 50/143/49 52/148/52
f 52/148/52 50/143/49 53/147/53
f 51/146/51 54/149/54 50/143/49
f 50/143/49 54/149/54 53/147/53
f 52/148/52 53/147/53 55/151/55
f 55/151/55 53/147/53 56/150/56
f 54/149/54 57/152/57 53/147/53
f 53/147/53 57/152/57 56/150/56
f 56/154/56 59/155/58 55/153/55
f 55/153/55 59/155/58 58/156/59
f 56/154/56 57/157/57 59/155/58
f 59/155/58 57/157/57 60/158/60
f 58/156/59 59/155/58 37/160/39
f 37/160/39 59/155/58 38/159/37
f 60/158/60 39/161/41 59/155/58
f 59/155/58 39/161/41 38/159/37
f 60/162/60 57/163/57 61/165/61
f 61/165/61 57/163/57 54/164/54
f 60/162/60 61/165/61 39/166/41
f 39/166/41 61/165/61 42/167/42
f 61/165/61 54/164/54 48/169/48
f 48/169/48 54/164/54 51/168/51
f 42/167/42 61/165/61 45/170/45
f 45/170/45 61/165/61 48/169/48
f 58/172/59 62/173/62 55/171/55
f 55/171/55 62/173/62 52/174/52
f 58/172/59 37/175/39 62/173/62
f 62/173/62 37/175/39 40/176/40
f 62/173/62 46/177/46 52/174/52
f 52/174/52 46/177/46 49/178/50
f 40/176/40 43/179/43 62/173/62
f 62/173/62 43/179/43 46/177/46
