# This file uses centimeters as units for non-parametric coordinates.

v 451.957118 42.101607 -89.948951
v 451.086796 54.968122 -89.716789
v 451.540022 54.950551 -92.389739
v 450.626291 45.248403 -92.160460
v 450.905481 42.096192 -91.779444
v 452.782968 41.549847 -90.676180
v 450.802331 54.964724 -91.091774
v 453.561167 50.314787 -90.066785
v 450.906519 50.283308 -91.637819
v 453.721242 45.276378 -90.728145
v 453.334053 45.365189 -89.672049
v 453.181585 50.231551 -92.209028
v 453.915167 54.961008 -90.713467
v 453.713921 54.961008 -89.130413
v 451.293762 52.976073 -92.407281
v 449.833778 45.193620 -91.095109
v 450.306198 45.241130 -89.872648
v 450.770441 50.276620 -89.937494
v 450.595465 42.840968 -92.066037
v 450.455743 41.851260 -90.920407
v 450.507240 42.076232 -90.027415
v 452.546500 42.083558 -91.739770
v 453.012002 45.355368 -91.943175
v 453.589601 54.957717 -92.103401
v 453.299136 42.525964 -90.636255
v 452.279921 42.875738 -89.748009
v 453.850045 50.199276 -90.927391
v 453.704509 53.020823 -90.757464
v 452.886312 53.048374 -89.734096
v 450.652007 53.082454 -91.068095
v 450.323991 50.286069 -91.065153
v 451.361085 53.188411 -89.976750
v 449.440684 42.724394 -91.014321
v 450.066480 42.802535 -89.993234
v 452.913738 42.751467 -91.899281
v 453.569239 52.944965 -92.100840
v 459.180181 57.133757 -82.522660
v 463.027589 54.551939 -89.221541
v 460.873063 57.155522 -96.407145
v 457.128887 75.779900 -84.828641
v 460.360261 75.757179 -89.421590
v 458.212275 75.783562 -94.676072
v 454.574447 87.697794 -87.415611
v 456.340193 89.663301 -89.948708
v 455.482768 87.822224 -93.031610
v 451.187632 89.483610 -87.110482
v 451.432366 94.490540 -90.760935
v 451.725105 89.436896 -94.155276
v 448.008911 87.667961 -88.319763
v 447.367459 89.350633 -91.139232
v 448.687759 90.063664 -93.508511
v 445.293330 78.483281 -86.209532
v 442.817378 75.708873 -91.608671
v 445.417324 75.756330 -96.249550
v 442.135773 57.135349 -84.813398
v 439.937567 54.579331 -92.175358
v 443.220000 57.144268 -98.889674
v 450.305564 54.481284 -81.493105
v 451.100313 49.725603 -90.891899
v 452.319927 54.494661 -99.957928
v 451.938749 75.673306 -97.485931
v 451.101983 75.710943 -83.658763
vt 0.612557 0.525539
vt 0.641254 0.547619
vt 0.645270 0.579162
vt 0.613428 0.570882
vt 0.645270 0.579162
vt 0.649287 0.610706
vt 0.614313 0.629139
vt 0.613428 0.570882
vt 0.584671 0.547619
vt 0.612557 0.525539
vt 0.613428 0.570882
vt 0.581871 0.579162
vt 0.613428 0.570882
vt 0.614313 0.629139
vt 0.579071 0.610706
vt 0.581871 0.579162
vt 0.614313 0.629139
vt 0.649287 0.610706
vt 0.644565 0.837820
vt 0.616380 0.823625
vt 0.649266 0.894598
vt 0.653966 0.951377
vt 0.616933 0.951377
vt 0.616792 0.894598
vt 0.616380 0.823625
vt 0.644565 0.837820
vt 0.649266 0.894598
vt 0.616792 0.894598
vt 0.588712 0.837820
vt 0.616380 0.823625
vt 0.616792 0.894598
vt 0.584306 0.894598
vt 0.616792 0.894598
vt 0.616933 0.951377
vt 0.579899 0.951377
vt 0.584306 0.894598
vt 0.579071 0.610706
vt 0.614313 0.629139
vt 0.616380 0.823625
vt 0.588712 0.837820
vt 0.863914 0.525539
vt 0.900947 0.525539
vt 0.896217 0.582317
vt 0.863655 0.582317
vt 0.896217 0.582317
vt 0.891487 0.639095
vt 0.863195 0.653290
vt 0.863655 0.582317
vt 0.891487 0.639095
vt 0.897606 0.866209
vt 0.861385 0.847776
vt 0.863195 0.653290
vt 0.863195 0.653290
vt 0.861385 0.847776
vt 0.824881 0.866209
vt 0.835326 0.639095
vt 0.826880 0.525539
vt 0.863914 0.525539
vt 0.863655 0.582317
vt 0.831103 0.582317
vt 0.863655 0.582317
vt 0.863195 0.653290
vt 0.835326 0.639095
vt 0.831103 0.582317
vt 0.893546 0.897753
vt 0.889485 0.929297
vt 0.859985 0.951377
vt 0.860661 0.906033
vt 0.861385 0.847776
vt 0.897606 0.866209
vt 0.893546 0.897753
vt 0.860661 0.906033
vt 0.824881 0.866209
vt 0.861385 0.847776
vt 0.860661 0.906033
vt 0.827942 0.897753
vt 0.860661 0.906033
vt 0.859985 0.951377
vt 0.831003 0.929297
vt 0.827942 0.897753
vt 0.738442 0.525539
vt 0.731293 0.547619
vt 0.670910 0.547619
vt 0.667841 0.525539
vt 0.746140 0.547619
vt 0.740652 0.525539
vt 0.811253 0.525539
vt 0.808932 0.547619
vt 0.670910 0.547619
vt 0.731293 0.547619
vt 0.732185 0.579162
vt 0.669614 0.579162
vt 0.732185 0.579162
vt 0.733078 0.610706
vt 0.668318 0.610706
vt 0.669614 0.579162
vt 0.662828 0.837820
vt 0.717980 0.837820
vt 0.715128 0.894598
vt 0.659239 0.894598
vt 0.715128 0.894598
vt 0.712275 0.951377
vt 0.655650 0.951377
vt 0.659239 0.894598
vt 0.668318 0.610706
vt 0.733078 0.610706
vt 0.717980 0.837820
vt 0.662828 0.837820
vt 0.811525 0.610706
vt 0.743852 0.610706
vt 0.744996 0.579162
vt 0.810228 0.579162
vt 0.744996 0.579162
vt 0.746140 0.547619
vt 0.808932 0.547619
vt 0.810228 0.579162
vt 0.759595 0.837820
vt 0.743852 0.610706
vt 0.811525 0.610706
vt 0.815671 0.837820
vt 0.823119 0.951377
vt 0.762829 0.951377
vt 0.761212 0.894598
vt 0.819395 0.894598
vt 0.761212 0.894598
vt 0.759595 0.837820
vt 0.815671 0.837820
vt 0.819395 0.894598
vt 0.535670 0.958350
vt 0.413989 0.967619
vt 0.416083 0.657293
vt 0.479886 0.657298
vt 0.295585 0.958350
vt 0.354105 0.657298
vt 0.414451 0.530005
vt 0.447024 0.532647
vt 0.382755 0.532647
vt 0.412424 0.432226
vt 0.460112 0.529060
vt 0.369125 0.529060
vt 0.275988 0.867249
vt 0.228300 0.964083
vt 0.229396 0.866304
vt 0.261928 0.863663
vt 0.185001 0.867249
vt 0.198004 0.863663
vt 0.231959 0.739017
vt 0.295078 0.739012
vt 0.169719 0.739012
vt 0.226386 0.428690
vt 0.347917 0.437960
vt 0.109118 0.437960
vt 0.147550 0.349610
vt 0.100097 0.228079
vt 0.263255 0.228942
vt 0.264990 0.402486
vt 0.145094 0.110811
vt 0.264591 0.061959
vt 0.437329 0.231558
vt 0.383326 0.353240
vt 0.385970 0.113154
vt 0.931436 0.366222
vt 0.918851 0.485719
vt 0.617799 0.436770
vt 0.617764 0.368383
vt 0.918851 0.244842
vt 0.617799 0.300253
vt 0.493148 0.395183
vt 0.489561 0.363194
vt 0.493148 0.330702
vt 0.480408 0.295602
vt 0.467822 0.178163
vt 0.781494 0.165357
vt 0.781459 0.232884
vt 0.480407 0.059826
vt 0.781459 0.112991
vt 0.909697 0.175427
vt 0.906110 0.206865
vt 0.906110 0.143750
vn 0.398830 -0.903360 0.157719
vn 0.301798 -0.654820 -0.692913
vn 0.916410 -0.347888 0.197908
vn 0.501842 -0.255246 -0.826441
vn 0.484191 -0.040208 -0.874038
vn 0.994128 -0.108056 0.005839
vn 0.120555 -0.528913 0.840070
vn 0.277786 -0.199153 0.939773
vn 0.428057 -0.053176 0.902186
vn 0.999956 -0.002766 0.008946
vn 0.471803 -0.049481 -0.880315
vn 0.578778 -0.063997 -0.812970
vn 0.640385 -0.034687 -0.767271
vn 0.991201 -0.079590 0.105760
vn 0.977936 -0.184907 0.097220
vn 0.472850 0.016841 0.880982
vn 0.412306 -0.143023 0.899749
vn 0.372957 -0.308512 0.875056
vn -0.393709 0.045808 -0.918093
vn -0.433205 -0.004825 -0.901283
vn -0.998827 0.018129 -0.044904
vn -0.997181 0.060399 -0.044527
vn -0.448039 0.007334 -0.893984
vn -0.988995 0.104763 -0.104463
vn -0.379712 0.033506 -0.924497
vn -0.982638 0.098466 -0.157246
vn -0.522438 0.063395 0.850317
vn -0.504336 0.061875 0.861288
vn -0.602630 -0.148389 0.784103
vn -0.550929 -0.052931 0.832872
vn -0.196780 -0.660602 -0.724488
vn -0.413975 -0.907831 -0.066834
vn -0.302724 -0.245798 -0.920837
vn -0.926344 -0.342630 -0.156496
vn -0.489955 -0.197487 0.849083
vn -0.329162 -0.639701 0.694575
vn 0.860375 -0.500889 0.094156
vn 0.967674 0.220793 0.121895
vn 0.501785 -0.234135 0.832702
vn 0.496285 0.204001 0.843851
vn 0.690657 -0.220337 -0.688799
vn 0.683454 0.197631 -0.702732
vn 0.455278 0.367263 0.811073
vn 0.839457 0.532320 0.109306
vn 0.633008 0.357047 -0.686890
vn -0.108171 0.433407 0.894683
vn -0.047875 0.998208 0.035897
vn 0.096304 0.455165 -0.885184
vn -0.841390 0.538159 -0.049473
vn -0.653864 0.386338 0.650542
vn -0.511192 0.420718 -0.749452
vn -0.679271 0.225204 0.698480
vn -0.968176 0.239131 -0.073836
vn -0.535849 0.220976 -0.814884
vn -0.686608 -0.225238 0.691257
vn -0.870910 -0.485980 -0.073067
vn -0.528491 -0.221489 -0.819536
vn -0.007421 -0.999967 -0.003365
vn -0.113050 -0.417491 0.901621
vn 0.114725 -0.407890 -0.905795
vn 0.119896 0.181559 -0.976044
vn -0.099154 0.188133 0.977126
f 6/1/1 22/2/2 25/4/3
f 25/4/3 22/2/2 35/3/4
f 23/6/5 10/7/6 35/5/4
f 35/5/4 10/7/6 25/8/3
f 6/10/1 25/11/3 1/9/7
f 1/9/7 25/11/3 26/12/8
f 25/13/3 10/14/6 26/16/8
f 26/16/8 10/14/6 11/15/9
f 10/17/6 23/18/5 27/20/10
f 27/20/10 23/18/5 12/19/11
f 36/21/12 24/22/13 28/24/14
f 28/24/14 24/22/13 13/23/15
f 12/26/11 36/27/12 27/25/10
f 27/25/10 36/27/12 28/28/14
f 27/30/10 28/31/14 8/29/16
f 8/29/16 28/31/14 29/32/17
f 28/33/14 13/34/15 29/36/17
f 29/36/17 13/34/15 14/35/18
f 10/38/6 27/39/10 11/37/9
f 11/37/9 27/39/10 8/40/16
f 3/42/19 15/43/20 7/41/21
f 7/41/21 15/43/20 30/44/22
f 15/45/20 9/46/23 30/48/22
f 30/48/22 9/46/23 31/47/24
f 9/49/23 4/50/25 31/52/24
f 31/52/24 4/50/25 16/51/26
f 16/54/26 17/55/27 31/53/24
f 31/53/24 17/55/27 18/56/28
f 2/57/29 7/58/21 32/60/30
f 32/60/30 7/58/21 30/59/22
f 31/62/24 18/63/28 30/61/22
f 30/61/22 18/63/28 32/64/30
f 5/66/31 20/67/32 19/65/33
f 19/65/33 20/67/32 33/68/34
f 4/70/25 19/71/33 16/69/26
f 16/69/26 19/71/33 33/72/34
f 17/73/27 16/74/26 34/76/35
f 34/76/35 16/74/26 33/75/34
f 33/77/34 20/78/32 34/80/35
f 34/80/35 20/78/32 21/79/36
f 20/81/32 5/82/31 6/84/1
f 6/84/1 5/82/31 22/83/2
f 21/85/36 20/86/32 1/88/7
f 1/88/7 20/86/32 6/87/1
f 5/90/31 19/91/33 22/89/2
f 22/89/2 19/91/33 35/92/4
f 19/93/33 4/94/25 35/96/4
f 35/96/4 4/94/25 23/95/5
f 9/98/23 15/99/20 12/97/11
f 12/97/11 15/99/20 36/100/12
f 15/101/20 3/102/19 36/104/12
f 36/104/12 3/102/19 24/103/13
f 4/106/25 9/107/23 23/105/5
f 23/105/5 9/107/23 12/108/11
f 11/109/9 17/110/27 26/112/8
f 26/112/8 17/110/27 34/111/35
f 34/113/35 21/114/36 26/116/8
f 26/116/8 21/114/36 1/115/7
f 17/118/27 11/119/9 18/117/28
f 18/117/28 11/119/9 8/120/16
f 14/121/18 2/122/29 29/124/17
f 29/124/17 2/122/29 32/123/30
f 32/125/30 18/126/28 29/128/17
f 29/128/17 18/126/28 8/127/16
f 38/130/37 41/131/38 37/129/39
f 37/129/39 41/131/38 40/132/40
f 38/130/37 39/133/41 41/131/38
f 41/131/38 39/133/41 42/134/42
f 40/132/40 41/131/38 43/136/43
f 43/136/43 41/131/38 44/135/44
f 42/134/42 45/137/45 41/131/38
f 41/131/38 45/137/45 44/135/44
f 43/136/43 44/135/44 46/139/46
f 46/139/46 44/135/44 47/138/47
f 45/137/45 48/140/48 44/135/44
f 44/135/44 48/140/48 47/138/47
f 47/142/47 50/143/49 46/141/46
f 46/141/46 50/143/49 49/144/50
f 47/142/47 48/145/48 50/143/49
f 50/143/49 48/145/48 51/146/51
f 49/144/50 50/143/49 52/148/52
f 52/148/52 50/143/49 53/147/53
f 51/146/51 54/149/54 50/143/49
f 50/143/49 54/149/54 53/147/53
f 52/148/52 53/147/53 55/151/55
f 55/151/55 53/147/53 56/150/56
f 54/149/54 57/152/57 53/147/53
f 53/147/53 57/152/57 56/150/56
f 56/154/56 59/155/58 55/153/55
f 55/153/55 59/155/58 58/156/59
f 56/154/56 57/157/57 59/155/58
f 59/155/58 57/157/57 60/158/60
f 58/156/59 59/155/58 37/160/39
f 37/160/39 59/155/58 38/159/37
f 60/158/60 39/161/41 59/155/58
f 59/155/58 39/161/41 38/159/37
f 60/162/60 57/163/57 61/165/61
f 61/165/61 57/163/57 54/164/54
f 60/162/60 61/165/61 39/166/41
f 39/166/41 61/165/61 42/167/42
f 61/165/61 54/164/54 48/169/48
f 48/169/48 54/164/54 51/168/51
f 42/167/42 61/165/61 45/170/45
f 45/170/45 61/165/61 48/169/48
f 58/172/59 62/173/62 55/171/55
f 55/171/55 62/173/62 52/174/52
f 58/172/59 37/175/39 62/173/62
f 62/173/62 37/175/39 40/176/40
f 62/173/62 46/177/46 52/174/52
f 52/174/52 46/177/46 49/178/50
f 40/176/40 43/179/43 62/173/62
f 62/173/62 43/179/43 46/177/46
