# This file uses centimeters as units for non-parametric coordinates.

v 485.798072 38.444551 -43.890942
v 486.414731 49.830377 -43.540235
v 483.631456 49.814829 -42.184255
v 484.264912 41.229211 -41.807334
v 484.506544 38.439759 -42.194451
v 484.723860 37.956288 -43.918096
v 485.216523 49.827371 -42.550892
v 484.960681 45.712552 -44.724238
v 484.642713 45.684696 -42.280421
v 484.250401 41.253967 -44.415752
v 485.443981 41.332557 -44.834174
v 483.065166 45.638895 -43.218686
v 484.177067 49.824083 -44.533933
v 485.795148 49.824083 -45.374892
v 483.725647 48.067575 -42.034835
v 485.650298 41.180733 -42.002829
v 486.616551 41.222776 -43.006181
v 486.344534 45.678777 -43.228813
v 484.369919 39.098826 -41.846883
v 485.538229 38.223014 -42.458804
v 486.376532 38.422097 -43.026218
v 483.804426 38.428579 -43.143547
v 483.398165 41.323867 -43.283359
v 482.982988 49.821170 -43.512402
v 484.529499 38.820073 -44.233176
v 485.846298 39.129595 -44.194076
v 484.000057 45.610334 -44.368243
v 484.229660 48.107175 -44.388646
v 485.586130 48.131556 -44.544331
v 485.307194 48.161714 -42.480419
v 485.458024 45.687139 -42.297257
v 486.040174 48.255477 -43.538152
v 485.905593 38.995667 -41.829909
v 486.608363 39.064815 -42.798329
v 483.484850 39.019625 -43.254424
v 482.994642 48.040047 -43.502464
v 489.703863 51.746790 -52.440439
v 481.505110 49.462090 -50.570834
v 475.544722 51.766050 -45.023999
v 488.404615 68.247120 -49.893703
v 482.515550 68.227015 -48.946426
v 478.415296 68.250361 -44.567543
v 487.061287 78.793494 -46.893885
v 483.820768 80.532809 -46.362190
v 481.233321 78.903605 -44.020125
v 488.883722 80.373797 -45.168410
v 485.251452 84.804526 -43.105552
v 481.844616 80.332459 -41.224167
v 489.151213 78.767094 -42.647233
v 486.720483 80.256123 -40.585750
v 483.838975 80.887098 -39.901692
v 492.412309 70.639394 -42.388478
v 488.320472 68.184267 -37.737472
v 482.670049 68.226263 -36.405316
v 495.183876 51.748199 -41.450020
v 489.073052 49.486329 -35.772236
v 481.114318 51.756091 -33.574794
v 494.701172 49.399565 -48.057800
v 485.274919 45.191171 -42.839390
v 475.978012 49.411403 -38.061134
v 478.534903 68.152793 -39.336584
v 492.252483 68.186099 -47.201142
vt 0.612557 0.525539
vt 0.641254 0.547619
vt 0.645270 0.579162
vt 0.613428 0.570882
vt 0.645270 0.579162
vt 0.649287 0.610706
vt 0.614313 0.629139
vt 0.613428 0.570882
vt 0.584671 0.547619
vt 0.612557 0.525539
vt 0.613428 0.570882
vt 0.581871 0.579162
vt 0.613428 0.570882
vt 0.614313 0.629139
vt 0.579071 0.610706
vt 0.581871 0.579162
vt 0.614313 0.629139
vt 0.649287 0.610706
vt 0.644565 0.837820
vt 0.616380 0.823625
vt 0.649266 0.894598
vt 0.653966 0.951377
vt 0.616933 0.951377
vt 0.616792 0.894598
vt 0.616380 0.823625
vt 0.644565 0.837820
vt 0.649266 0.894598
vt 0.616792 0.894598
vt 0.588712 0.837820
vt 0.616380 0.823625
vt 0.616792 0.894598
vt 0.584306 0.894598
vt 0.616792 0.894598
vt 0.616933 0.951377
vt 0.579899 0.951377
vt 0.584306 0.894598
vt 0.579071 0.610706
vt 0.614313 0.629139
vt 0.616380 0.823625
vt 0.588712 0.837820
vt 0.863914 0.525539
vt 0.900947 0.525539
vt 0.896217 0.582317
vt 0.863655 0.582317
vt 0.896217 0.582317
vt 0.891487 0.639095
vt 0.863195 0.653290
vt 0.863655 0.582317
vt 0.891487 0.639095
vt 0.897606 0.866209
vt 0.861385 0.847776
vt 0.863195 0.653290
vt 0.863195 0.653290
vt 0.861385 0.847776
vt 0.824881 0.866209
vt 0.835326 0.639095
vt 0.826880 0.525539
vt 0.863914 0.525539
vt 0.863655 0.582317
vt 0.831103 0.582317
vt 0.863655 0.582317
vt 0.863195 0.653290
vt 0.835326 0.639095
vt 0.831103 0.582317
vt 0.893546 0.897753
vt 0.889485 0.929297
vt 0.859985 0.951377
vt 0.860661 0.906033
vt 0.861385 0.847776
vt 0.897606 0.866209
vt 0.893546 0.897753
vt 0.860661 0.906033
vt 0.824881 0.866209
vt 0.861385 0.847776
vt 0.860661 0.906033
vt 0.827942 0.897753
vt 0.860661 0.906033
vt 0.859985 0.951377
vt 0.831003 0.929297
vt 0.827942 0.897753
vt 0.738442 0.525539
vt 0.731293 0.547619
vt 0.670910 0.547619
vt 0.667841 0.525539
vt 0.746140 0.547619
vt 0.740652 0.525539
vt 0.811253 0.525539
vt 0.808932 0.547619
vt 0.670910 0.547619
vt 0.731293 0.547619
vt 0.732185 0.579162
vt 0.669614 0.579162
vt 0.732185 0.579162
vt 0.733078 0.610706
vt 0.668318 0.610706
vt 0.669614 0.579162
vt 0.662828 0.837820
vt 0.717980 0.837820
vt 0.715128 0.894598
vt 0.659239 0.894598
vt 0.715128 0.894598
vt 0.712275 0.951377
vt 0.655650 0.951377
vt 0.659239 0.894598
vt 0.668318 0.610706
vt 0.733078 0.610706
vt 0.717980 0.837820
vt 0.662828 0.837820
vt 0.811525 0.610706
vt 0.743852 0.610706
vt 0.744996 0.579162
vt 0.810228 0.579162
vt 0.744996 0.579162
vt 0.746140 0.547619
vt 0.808932 0.547619
vt 0.810228 0.579162
vt 0.759595 0.837820
vt 0.743852 0.610706
vt 0.811525 0.610706
vt 0.815671 0.837820
vt 0.823119 0.951377
vt 0.762829 0.951377
vt 0.761212 0.894598
vt 0.819395 0.894598
vt 0.761212 0.894598
vt 0.759595 0.837820
vt 0.815671 0.837820
vt 0.819395 0.894598
vt 0.535670 0.958350
vt 0.413989 0.967619
vt 0.416083 0.657293
vt 0.479886 0.657298
vt 0.295585 0.958350
vt 0.354105 0.657298
vt 0.414451 0.530005
vt 0.447024 0.532647
vt 0.382755 0.532647
vt 0.412424 0.432226
vt 0.460112 0.529060
vt 0.369125 0.529060
vt 0.275988 0.867249
vt 0.228300 0.964083
vt 0.229396 0.866304
vt 0.261928 0.863663
vt 0.185001 0.867249
vt 0.198004 0.863663
vt 0.231959 0.739017
vt 0.295078 0.739012
vt 0.169719 0.739012
vt 0.226386 0.428690
vt 0.347917 0.437960
vt 0.109118 0.437960
vt 0.147550 0.349610
vt 0.100097 0.228079
vt 0.263255 0.228942
vt 0.264990 0.402486
vt 0.145094 0.110811
vt 0.264591 0.061959
vt 0.437329 0.231558
vt 0.383326 0.353240
vt 0.385970 0.113154
vt 0.931436 0.366222
vt 0.918851 0.485719
vt 0.617799 0.436770
vt 0.617764 0.368383
vt 0.918851 0.244842
vt 0.617799 0.300253
vt 0.493148 0.395183
vt 0.489561 0.363194
vt 0.493148 0.330702
vt 0.480408 0.295602
vt 0.467822 0.178163
vt 0.781494 0.165357
vt 0.781459 0.232884
vt 0.480407 0.059826
vt 0.781459 0.112991
vt 0.909697 0.175427
vt 0.906110 0.206865
vt 0.906110 0.143750
vn -0.157588 -0.866221 -0.474159
vn -0.687902 -0.725345 0.025782
vn -0.395187 -0.287497 -0.872452
vn -0.947130 -0.290055 -0.137162
vn -0.994625 -0.046992 -0.092261
vn -0.524770 -0.087716 -0.846713
vn 0.499637 -0.607737 -0.617267
vn 0.451571 -0.228840 -0.862390
vn 0.291744 -0.057088 -0.954791
vn -0.525153 -0.002240 -0.851005
vn -0.995563 -0.058176 -0.073962
vn -0.970522 -0.070940 -0.230337
vn -0.948461 -0.037054 -0.314721
vn -0.471317 -0.064294 -0.879617
vn -0.470864 -0.150115 -0.869340
vn 0.240558 0.017653 -0.970474
vn 0.302710 -0.154316 -0.940507
vn 0.315878 -0.334670 -0.887816
vn -0.332386 0.050096 0.941812
vn -0.286894 -0.005169 0.957949
vn 0.505732 0.014655 0.862566
vn 0.505346 0.048852 0.861533
vn -0.269542 0.007793 0.962957
vn 0.471179 0.084699 0.877961
vn -0.349309 0.036921 0.936280
vn 0.441784 0.079618 0.893582
vn 0.986104 0.072561 0.149447
vn 0.989849 0.071516 0.122817
vn 0.949696 -0.161337 0.268417
vn 0.979900 -0.059652 0.190364
vn -0.341079 -0.716840 0.608117
vn 0.219724 -0.867953 0.445398
vn -0.412731 -0.277862 0.867437
vn 0.420467 -0.282471 0.862217
vn 0.967309 -0.227543 0.111974
vn 0.707222 -0.706973 0.005022
vn -0.426584 -0.423113 -0.799376
vn -0.454275 0.179687 -0.872552
vn 0.185063 -0.239318 -0.953141
vn 0.196725 0.209602 -0.957792
vn -0.891241 -0.225002 -0.393781
vn -0.901591 0.203272 -0.381857
vn 0.204822 0.379459 -0.902252
vn -0.409750 0.452473 -0.792069
vn -0.865041 0.370380 -0.338412
vn 0.752016 0.527578 -0.395137
vn 0.053244 0.998052 0.032523
vn -0.731256 0.550866 0.402258
vn 0.442863 0.458410 0.770540
vn 0.840479 0.393437 0.372561
vn -0.123675 0.419613 0.899238
vn 0.895803 0.231553 0.379368
vn 0.479455 0.195017 0.855623
vn -0.148542 0.221956 0.963676
vn 0.891925 -0.230485 0.389034
vn 0.442194 -0.409498 0.797982
vn -0.156852 -0.223355 0.962034
vn 0.002795 -0.999952 0.009411
vn 0.764133 -0.510254 -0.394641
vn -0.770413 -0.499701 0.395931
vn -0.862480 0.231918 0.449826
vn 0.845085 0.240056 -0.477707
f 6/1/1 22/2/2 25/4/3
f 25/4/3 22/2/2 35/3/4
f 23/6/5 10/7/6 35/5/4
f 35/5/4 10/7/6 25/8/3
f 6/10/1 25/11/3 1/9/7
f 1/9/7 25/11/3 26/12/8
f 25/13/3 10/14/6 26/16/8
f 26/16/8 10/14/6 11/15/9
f 10/17/6 23/18/5 27/20/10
f 27/20/10 23/18/5 12/19/11
f 36/21/12 24/22/13 28/24/14
f 28/24/14 24/22/13 13/23/15
f 12/26/11 36/27/12 27/25/10
f 27/25/10 36/27/12 28/28/14
f 27/30/10 28/31/14 8/29/16
f 8/29/16 28/31/14 29/32/17
f 28/33/14 13/34/15 29/36/17
f 29/36/17 13/34/15 14/35/18
f 10/38/6 27/39/10 11/37/9
f 11/37/9 27/39/10 8/40/16
f 3/42/19 15/43/20 7/41/21
f 7/41/21 15/43/20 30/44/22
f 15/45/20 9/46/23 30/48/22
f 30/48/22 9/46/23 31/47/24
f 9/49/23 4/50/25 31/52/24
f 31/52/24 4/50/25 16/51/26
f 16/54/26 17/55/27 31/53/24
f 31/53/24 17/55/27 18/56/28
f 2/57/29 7/58/21 32/60/30
f 32/60/30 7/58/21 30/59/22
f 31/62/24 18/63/28 30/61/22
f 30/61/22 18/63/28 32/64/30
f 5/66/31 20/67/32 19/65/33
f 19/65/33 20/67/32 33/68/34
f 4/70/25 19/71/33 16/69/26
f 16/69/26 19/71/33 33/72/34
f 17/73/27 16/74/26 34/76/35
f 34/76/35 16/74/26 33/75/34
f 33/77/34 20/78/32 34/80/35
f 34/80/35 20/78/32 21/79/36
f 20/81/32 5/82/31 6/84/1
f 6/84/1 5/82/31 22/83/2
f 21/85/36 20/86/32 1/88/7
f 1/88/7 20/86/32 6/87/1
f 5/90/31 19/91/33 22/89/2
f 22/89/2 19/91/33 35/92/4
f 19/93/33 4/94/25 35/96/4
f 35/96/4 4/94/25 23/95/5
f 9/98/23 15/99/20 12/97/11
f 12/97/11 15/99/20 36/100/12
f 15/101/20 3/102/19 36/104/12
f 36/104/12 3/102/19 24/103/13
f 4/106/25 9/107/23 23/105/5
f 23/105/5 9/107/23 12/108/11
f 11/109/9 17/110/27 26/112/8
f 26/112/8 17/110/27 34/111/35
f 34/113/35 21/114/36 26/116/8
f 26/116/8 21/114/36 1/115/7
f 17/118/27 11/119/9 18/117/28
f 18/117/28 11/119/9 8/120/16
f 14/121/18 2/122/29 29/124/17
f 29/124/17 2/122/29 32/123/30
f 32/125/30 18/126/28 29/128/17
f 29/128/17 18/126/28 8/127/16
f 38/130/37 41/131/38 37/129/39
f 37/129/39 41/131/38 40/132/40
f 38/130/37 39/133/41 41/131/38
f 41/131/38 39/133/41 42/134/42
f 40/132/40 41/131/38 43/136/43
f 43/136/43 41/131/38 44/135/44
f 42/134/42 45/137/45 41/131/38
f 41/131/38 45/137/45 44/135/44
f 43/136/43 44/135/44 46/139/46
f 46/139/46 44/135/44 47/138/47
f 45/137/45 48/140/48 44/135/44
f 44/135/44 48/140/48 47/138/47
f 47/142/47 50/143/49 46/141/46
f 46/141/46 50/143/49 49/144/50
f 47/142/47 48/145/48 50/143/49
f 50/143/49 48/145/48 51/146/51
f 49/144/50 50/143/49 52/148/52
f 52/148/52 50/143/49 53/147/53
f 51/146/51 54/149/54 50/143/49
f 50/143/49 54/149/54 53/147/53
f 52/148/52 53/147/53 55/151/55
f 55/151/55 53/147/53 56/150/56
f 54/149/54 57/152/57 53/147/53
f 53/147/53 57/152/57 56/150/56
f 56/154/56 59/155/58 55/153/55
f 55/153/55 59/155/58 58/156/59
f 56/154/56 57/157/57 59/155/58
f 59/155/58 57/157/57 60/158/60
f 58/156/59 59/155/58 37/160/39
f 37/160/39 59/155/58 38/159/37
f 60/158/60 39/161/41 59/155/58
f 59/155/58 39/161/41 38/159/37
f 60/162/60 57/163/57 61/165/61
f 61/165/61 57/163/57 54/164/54
f 60/162/60 61/165/61 39/166/41
f 39/166/41 61/165/61 42/167/42
f 61/165/61 54/164/54 48/169/48
f 48/169/48 54/164/54 51/168/51
f 42/167/42 61/165/61 45/170/45
f 45/170/45 61/165/61 48/169/48
f 58/172/59 62/173/62 55/171/55
f 55/171/55 62/173/62 52/174/52
f 58/172/59 37/175/39 62/173/62
f 62/173/62 37/175/39 40/176/40
f 62/173/62 46/177/46 52/174/52
f 52/174/52 46/177/46 49/178/50
f 40/176/40 43/179/43 62/173/62
f 62/173/62 43/179/43 46/177/46
