# This file uses centimeters as units for non-parametric coordinates.

v 150.682376 108.499375 209.198747
v 151.090335 119.845181 208.453342
v 152.584919 119.829687 210.396373
v 153.022903 111.274247 209.622605
v 152.587360 108.494600 209.584209
v 150.634340 108.012827 210.214913
v 152.194144 119.842186 209.093661
v 149.723091 115.741830 210.383661
v 152.491956 115.714072 209.498642
v 150.061868 111.298916 210.897683
v 149.606040 111.377230 209.985561
v 151.401666 115.668431 211.425431
v 149.926547 119.838909 211.023314
v 148.997905 119.838909 209.919171
v 152.756024 118.088575 210.236168
v 152.823196 111.225939 208.423567
v 151.699770 111.267834 208.006607
v 151.442699 115.708173 208.368276
v 152.979694 109.151350 209.543684
v 152.303821 108.278617 208.748740
v 151.673181 108.476999 208.240411
v 151.498797 108.483459 210.698819
v 151.333590 111.368570 211.145777
v 151.066953 119.836007 211.644216
v 150.273581 108.873577 210.548779
v 150.339057 109.182010 209.300329
v 150.111786 115.639971 211.108460
v 150.092310 118.128036 210.903935
v 149.937311 118.152331 209.712657
v 152.275590 118.182383 208.974916
v 152.485907 115.716506 208.745500
v 151.086705 118.275817 208.802066
v 153.023561 109.048554 208.101563
v 151.935571 109.117459 207.913727
v 151.367822 109.072427 211.050842
v 151.078420 118.061144 211.628528
v 141.040443 121.754858 209.686642
v 143.031287 119.478188 216.437882
v 149.231993 121.774050 219.320639
v 143.910427 138.197192 209.668088
v 144.891326 138.177157 214.708780
v 149.796100 138.200422 216.419527
v 147.293987 148.706497 209.471575
v 147.845594 150.439698 212.240216
v 150.462611 148.816221 213.523493
v 149.281754 150.281245 206.935406
v 151.565107 154.696401 209.329306
v 153.646081 150.240052 211.600477
v 152.147814 148.680190 205.466306
v 154.448850 150.163985 206.738955
v 155.179164 150.792742 209.098677
v 152.493768 140.581057 202.296166
v 157.707552 138.134560 203.867454
v 159.129153 138.176408 208.499169
v 153.603406 121.756262 199.254386
v 159.950338 119.502342 202.214282
v 162.317148 121.764126 208.582858
v 146.095220 119.415883 202.900868
v 151.867602 115.222282 209.178667
v 157.142442 119.427680 215.548562
v 155.735647 138.103197 213.777963
v 147.028376 138.136385 204.772984
vt 0.612557 0.525539
vt 0.641254 0.547619
vt 0.645270 0.579162
vt 0.613428 0.570882
vt 0.645270 0.579162
vt 0.649287 0.610706
vt 0.614313 0.629139
vt 0.613428 0.570882
vt 0.584671 0.547619
vt 0.612557 0.525539
vt 0.613428 0.570882
vt 0.581871 0.579162
vt 0.613428 0.570882
vt 0.614313 0.629139
vt 0.579071 0.610706
vt 0.581871 0.579162
vt 0.614313 0.629139
vt 0.649287 0.610706
vt 0.644565 0.837820
vt 0.616380 0.823625
vt 0.649266 0.894598
vt 0.653966 0.951377
vt 0.616933 0.951377
vt 0.616792 0.894598
vt 0.616380 0.823625
vt 0.644565 0.837820
vt 0.649266 0.894598
vt 0.616792 0.894598
vt 0.588712 0.837820
vt 0.616380 0.823625
vt 0.616792 0.894598
vt 0.584306 0.894598
vt 0.616792 0.894598
vt 0.616933 0.951377
vt 0.579899 0.951377
vt 0.584306 0.894598
vt 0.579071 0.610706
vt 0.614313 0.629139
vt 0.616380 0.823625
vt 0.588712 0.837820
vt 0.863914 0.525539
vt 0.900947 0.525539
vt 0.896217 0.582317
vt 0.863655 0.582317
vt 0.896217 0.582317
vt 0.891487 0.639095
vt 0.863195 0.653290
vt 0.863655 0.582317
vt 0.891487 0.639095
vt 0.897606 0.866209
vt 0.861385 0.847776
vt 0.863195 0.653290
vt 0.863195 0.653290
vt 0.861385 0.847776
vt 0.824881 0.866209
vt 0.835326 0.639095
vt 0.826880 0.525539
vt 0.863914 0.525539
vt 0.863655 0.582317
vt 0.831103 0.582317
vt 0.863655 0.582317
vt 0.863195 0.653290
vt 0.835326 0.639095
vt 0.831103 0.582317
vt 0.893546 0.897753
vt 0.889485 0.929297
vt 0.859985 0.951377
vt 0.860661 0.906033
vt 0.861385 0.847776
vt 0.897606 0.866209
vt 0.893546 0.897753
vt 0.860661 0.906033
vt 0.824881 0.866209
vt 0.861385 0.847776
vt 0.860661 0.906033
vt 0.827942 0.897753
vt 0.860661 0.906033
vt 0.859985 0.951377
vt 0.831003 0.929297
vt 0.827942 0.897753
vt 0.738442 0.525539
vt 0.731293 0.547619
vt 0.670910 0.547619
vt 0.667841 0.525539
vt 0.746140 0.547619
vt 0.740652 0.525539
vt 0.811253 0.525539
vt 0.808932 0.547619
vt 0.670910 0.547619
vt 0.731293 0.547619
vt 0.732185 0.579162
vt 0.669614 0.579162
vt 0.732185 0.579162
vt 0.733078 0.610706
vt 0.668318 0.610706
vt 0.669614 0.579162
vt 0.662828 0.837820
vt 0.717980 0.837820
vt 0.715128 0.894598
vt 0.659239 0.894598
vt 0.715128 0.894598
vt 0.712275 0.951377
vt 0.655650 0.951377
vt 0.659239 0.894598
vt 0.668318 0.610706
vt 0.733078 0.610706
vt 0.717980 0.837820
vt 0.662828 0.837820
vt 0.811525 0.610706
vt 0.743852 0.610706
vt 0.744996 0.579162
vt 0.810228 0.579162
vt 0.744996 0.579162
vt 0.746140 0.547619
vt 0.808932 0.547619
vt 0.810228 0.579162
vt 0.759595 0.837820
vt 0.743852 0.610706
vt 0.811525 0.610706
vt 0.815671 0.837820
vt 0.823119 0.951377
vt 0.762829 0.951377
vt 0.761212 0.894598
vt 0.819395 0.894598
vt 0.761212 0.894598
vt 0.759595 0.837820
vt 0.815671 0.837820
vt 0.819395 0.894598
vt 0.535670 0.958350
vt 0.413989 0.967619
vt 0.416083 0.657293
vt 0.479886 0.657298
vt 0.295585 0.958350
vt 0.354105 0.657298
vt 0.414451 0.530005
vt 0.447024 0.532647
vt 0.382755 0.532647
vt 0.412424 0.432226
vt 0.460112 0.529060
vt 0.369125 0.529060
vt 0.275988 0.867249
vt 0.228300 0.964083
vt 0.229396 0.866304
vt 0.261928 0.863663
vt 0.185001 0.867249
vt 0.198004 0.863663
vt 0.231959 0.739017
vt 0.295078 0.739012
vt 0.169719 0.739012
vt 0.226386 0.428690
vt 0.347917 0.437960
vt 0.109118 0.437960
vt 0.147550 0.349610
vt 0.100097 0.228079
vt 0.263255 0.228942
vt 0.264990 0.402486
vt 0.145094 0.110811
vt 0.264591 0.061959
vt 0.437329 0.231558
vt 0.383326 0.353240
vt 0.385970 0.113154
vt 0.931436 0.366222
vt 0.918851 0.485719
vt 0.617799 0.436770
vt 0.617764 0.368383
vt 0.918851 0.244842
vt 0.617799 0.300253
vt 0.493148 0.395183
vt 0.489561 0.363194
vt 0.493148 0.330702
vt 0.480408 0.295602
vt 0.467822 0.178163
vt 0.781494 0.165357
vt 0.781459 0.232884
vt 0.480407 0.059826
vt 0.781459 0.112991
vt 0.909697 0.175427
vt 0.906110 0.206865
vt 0.906110 0.143750
vn -0.366494 -0.914521 0.171269
vn 0.310039 -0.665539 0.678921
vn -0.761862 -0.370906 0.531032
vn 0.283619 -0.263212 0.922106
vn 0.330260 -0.041496 0.942978
vn -0.673338 -0.116169 0.730152
vn -0.687951 -0.539653 -0.485282
vn -0.870338 -0.205434 -0.447558
vn -0.946614 -0.055256 -0.317597
vn -0.680290 -0.002977 0.732937
vn 0.342714 -0.051041 0.938052
vn 0.225151 -0.066313 0.972065
vn 0.151951 -0.036063 0.987730
vn -0.748753 -0.085660 0.657291
vn -0.731635 -0.198564 0.652137
vn -0.962252 0.017541 -0.271595
vn -0.933384 -0.148430 -0.326745
vn -0.886060 -0.318915 -0.336438
vn 0.934585 0.047525 0.352552
vn 0.949607 -0.005016 0.313402
vn 0.707338 0.019516 -0.706606
vn 0.705752 0.065000 -0.705470
vn 0.954542 0.007629 0.297980
vn 0.745996 0.112710 -0.656344
vn 0.929680 0.034742 0.366727
vn 0.782227 0.105940 -0.613920
vn -0.288530 0.065522 -0.955226
vn -0.308093 0.063903 -0.949208
vn -0.188513 -0.153885 -0.969939
vn -0.257578 -0.054777 -0.964704
vn 0.650917 -0.672316 0.352560
vn 0.310490 -0.919004 -0.242955
vn 0.872788 -0.253630 0.417030
vn 0.737432 -0.365505 -0.567979
vn -0.307977 -0.203679 -0.929336
vn -0.294150 -0.650863 -0.699895
vn -0.639397 -0.528880 0.558084
vn -0.742786 0.236832 0.626242
vn -0.945133 -0.243820 -0.217431
vn -0.949930 0.212463 -0.229110
vn 0.061211 -0.229540 0.971372
vn 0.076234 0.205833 0.975613
vn -0.894474 0.380627 -0.234606
vn -0.635399 0.560674 0.530955
vn 0.096872 0.370026 0.923957
vn -0.581661 0.442237 -0.682713
vn 0.004374 0.998378 -0.056766
vn 0.582048 0.464213 0.667627
vn 0.591391 0.566478 -0.573898
vn -0.056537 0.400690 -0.914468
vn 0.886576 0.436697 0.152571
vn -0.075765 0.234429 -0.969176
vn 0.705838 0.256307 -0.660378
vn 0.956052 0.230586 0.181091
vn -0.065656 -0.234574 -0.969879
vn 0.631169 -0.513693 -0.581159
vn 0.954312 -0.231026 0.189515
vn 0.007043 -0.999971 -0.002862
vn -0.583793 -0.426143 -0.691077
vn 0.585877 -0.416427 0.695224
vn 0.635851 0.185989 0.749067
vn -0.649909 0.192715 -0.735172
f 6/1/1 22/2/2 25/4/3
f 25/4/3 22/2/2 35/3/4
f 23/6/5 10/7/6 35/5/4
f 35/5/4 10/7/6 25/8/3
f 6/10/1 25/11/3 1/9/7
f 1/9/7 25/11/3 26/12/8
f 25/13/3 10/14/6 26/16/8
f 26/16/8 10/14/6 11/15/9
f 10/17/6 23/18/5 27/20/10
f 27/20/10 23/18/5 12/19/11
f 36/21/12 24/22/13 28/24/14
f 28/24/14 24/22/13 13/23/15
f 12/26/11 36/27/12 27/25/10
f 27/25/10 36/27/12 28/28/14
f 27/30/10 28/31/14 8/29/16
f 8/29/16 28/31/14 29/32/17
f 28/33/14 13/34/15 29/36/17
f 29/36/17 13/34/15 14/35/18
f 10/38/6 27/39/10 11/37/9
f 11/37/9 27/39/10 8/40/16
f 3/42/19 15/43/20 7/41/21
f 7/41/21 15/43/20 30/44/22
f 15/45/20 9/46/23 30/48/22
f 30/48/22 9/46/23 31/47/24
f 9/49/23 4/50/25 31/52/24
f 31/52/24 4/50/25 16/51/26
f 16/54/26 17/55/27 31/53/24
f 31/53/24 17/55/27 18/56/28
f 2/57/29 7/58/21 32/60/30
f 32/60/30 7/58/21 30/59/22
f 31/62/24 18/63/28 30/61/22
f 30/61/22 18/63/28 32/64/30
f 5/66/31 20/67/32 19/65/33
f 19/65/33 20/67/32 33/68/34
f 4/70/25 19/71/33 16/69/26
f 16/69/26 19/71/33 33/72/34
f 17/73/27 16/74/26 34/76/35
f 34/76/35 16/74/26 33/75/34
f 33/77/34 20/78/32 34/80/35
f 34/80/35 20/78/32 21/79/36
f 20/81/32 5/82/31 6/84/1
f 6/84/1 5/82/31 22/83/2
f 21/85/36 20/86/32 1/88/7
f 1/88/7 20/86/32 6/87/1
f 5/90/31 19/91/33 22/89/2
f 22/89/2 19/91/33 35/92/4
f 19/93/33 4/94/25 35/96/4
f 35/96/4 4/94/25 23/95/5
f 9/98/23 15/99/20 12/97/11
f 12/97/11 15/99/20 36/100/12
f 15/101/20 3/102/19 36/104/12
f 36/104/12 3/102/19 24/103/13
f 4/106/25 9/107/23 23/105/5
f 23/105/5 9/107/23 12/108/11
f 11/109/9 17/110/27 26/112/8
f 26/112/8 17/110/27 34/111/35
f 34/113/35 21/114/36 26/116/8
f 26/116/8 21/114/36 1/115/7
f 17/118/27 11/119/9 18/117/28
f 18/117/28 11/119/9 8/120/16
f 14/121/18 2/122/29 29/124/17
f 29/124/17 2/122/29 32/123/30
f 32/125/30 18/126/28 29/128/17
f 29/128/17 18/126/28 8/127/16
f 38/130/37 41/131/38 37/129/39
f 37/129/39 41/131/38 40/132/40
f 38/130/37 39/133/41 41/131/38
f 41/131/38 39/133/41 42/134/42
f 40/132/40 41/131/38 43/136/43
f 43/136/43 41/131/38 44/135/44
f 42/134/42 45/137/45 41/131/38
f 41/131/38 45/137/45 44/135/44
f 43/136/43 44/135/44 46/139/46
f 46/139/46 44/135/44 47/138/47
f 45/137/45 48/140/48 44/135/44
f 44/135/44 48/140/48 47/138/47
f 47/142/47 50/143/49 46/141/46
f 46/141/46 50/143/49 49/144/50
f 47/142/47 48/145/48 50/143/49
f 50/143/49 48/145/48 51/146/51
f 49/144/50 50/143/49 52/148/52
f 52/148/52 50/143/49 53/147/53
f 51/146/51 54/149/54 50/143/49
f 50/143/49 54/149/54 53/147/53
f 52/148/52 53/147/53 55/151/55
f 55/151/55 53/147/53 56/150/56
f 54/149/54 57/152/57 53/147/53
f 53/147/53 57/152/57 56/150/56
f 56/154/56 59/155/58 55/153/55
f 55/153/55 59/155/58 58/156/59
f 56/154/56 57/157/57 59/155/58
f 59/155/58 57/157/57 60/158/60
f 58/156/59 59/155/58 37/160/39
f 37/160/39 59/155/58 38/159/37
f 60/158/60 39/161/41 59/155/58
f 59/155/58 39/161/41 38/159/37
f 60/162/60 57/163/57 61/165/61
f 61/165/61 57/163/57 54/164/54
f 60/162/60 61/165/61 39/166/41
f 39/166/41 61/165/61 42/167/42
f 61/165/61 54/164/54 48/169/48
f 48/169/48 54/164/54 51/168/51
f 42/167/42 61/165/61 45/170/45
f 45/170/45 61/165/61 48/169/48
f 58/172/59 62/173/62 55/171/55
f 55/171/55 62/173/62 52/174/52
f 58/172/59 37/175/39 62/173/62
f 62/173/62 37/175/39 40/176/40
f 62/173/62 46/177/46 52/174/52
f 52/174/52 46/177/46 49/178/50
f 40/176/40 43/179/43 62/173/62
f 62/173/62 43/179/43 46/177/46
