# This file uses centimeters as units for non-parametric coordinates.

v -305.515227 123.641848 -302.107783
v -305.877753 137.309608 -302.746309
v -303.050392 137.290943 -302.702657
v -303.416043 126.984607 -303.374668
v -303.770684 123.636097 -303.118278
v -304.647112 123.055728 -301.559264
v -304.496184 137.305999 -303.119234
v -305.167646 132.366494 -300.895852
v -303.916966 132.333055 -303.101455
v -304.461333 127.014325 -300.848435
v -305.607728 127.108666 -301.024655
v -303.006194 132.278074 -301.428278
v -304.449218 137.302052 -300.698643
v -306.114267 137.302052 -300.673182
v -303.066914 135.193507 -302.892750
v -304.629053 126.926412 -303.859450
v -305.826472 126.976882 -303.360218
v -305.694088 132.325949 -303.012941
v -303.518005 124.427252 -303.387527
v -304.722141 123.375912 -303.364581
v -305.638162 123.614894 -303.224168
v -303.580745 123.622676 -301.860279
v -303.304928 127.098233 -301.527724
v -303.057979 137.298556 -301.104654
v -304.615746 124.092632 -301.160464
v -305.677552 124.464188 -301.838462
v -304.237203 132.243789 -300.772601
v -304.433376 135.241044 -300.864536
v -305.606593 135.270311 -301.373690
v -304.541825 135.306513 -303.231380
v -304.591029 132.335987 -303.481605
v -305.570373 135.419068 -302.566215
v -304.767903 124.303419 -304.150575
v -305.735533 124.386426 -303.556978
v -303.364142 124.332178 -301.597815
v -303.063492 135.160463 -301.119919
v -312.176715 139.610106 -295.749798
v -304.709236 136.867509 -293.569158
v -297.583248 139.633226 -296.028245
v -310.081257 159.417412 -297.577712
v -304.877807 159.393277 -295.629266
v -299.747490 159.421303 -297.864776
v -307.766093 172.077478 -299.821763
v -304.898606 174.165384 -298.759700
v -301.831855 172.209657 -299.763603
v -308.558227 173.974503 -302.374279
v -304.749568 179.293233 -302.600528
v -301.198951 173.924879 -302.761119
v -307.755325 172.045787 -304.939255
v -304.930544 173.833245 -305.748367
v -302.295118 174.590679 -305.008019
v -310.319289 162.289143 -306.774724
v -305.085571 159.341962 -309.277128
v -299.921432 159.392375 -307.816430
v -312.207154 139.611797 -309.028628
v -304.904977 136.896606 -311.541038
v -297.501055 139.621271 -309.793711
v -314.490194 136.792453 -302.412230
v -304.660900 131.740618 -302.868993
v -295.115852 136.806664 -302.963555
v -297.725305 159.304180 -302.974918
v -312.139024 159.344161 -302.049006
vt 0.612557 0.525539
vt 0.641254 0.547619
vt 0.645270 0.579162
vt 0.613428 0.570882
vt 0.645270 0.579162
vt 0.649287 0.610706
vt 0.614313 0.629139
vt 0.613428 0.570882
vt 0.584671 0.547619
vt 0.612557 0.525539
vt 0.613428 0.570882
vt 0.581871 0.579162
vt 0.613428 0.570882
vt 0.614313 0.629139
vt 0.579071 0.610706
vt 0.581871 0.579162
vt 0.614313 0.629139
vt 0.649287 0.610706
vt 0.644565 0.837820
vt 0.616380 0.823625
vt 0.649266 0.894598
vt 0.653966 0.951377
vt 0.616933 0.951377
vt 0.616792 0.894598
vt 0.616380 0.823625
vt 0.644565 0.837820
vt 0.649266 0.894598
vt 0.616792 0.894598
vt 0.588712 0.837820
vt 0.616380 0.823625
vt 0.616792 0.894598
vt 0.584306 0.894598
vt 0.616792 0.894598
vt 0.616933 0.951377
vt 0.579899 0.951377
vt 0.584306 0.894598
vt 0.579071 0.610706
vt 0.614313 0.629139
vt 0.616380 0.823625
vt 0.588712 0.837820
vt 0.863914 0.525539
vt 0.900947 0.525539
vt 0.896217 0.582317
vt 0.863655 0.582317
vt 0.896217 0.582317
vt 0.891487 0.639095
vt 0.863195 0.653290
vt 0.863655 0.582317
vt 0.891487 0.639095
vt 0.897606 0.866209
vt 0.861385 0.847776
vt 0.863195 0.653290
vt 0.863195 0.653290
vt 0.861385 0.847776
vt 0.824881 0.866209
vt 0.835326 0.639095
vt 0.826880 0.525539
vt 0.863914 0.525539
vt 0.863655 0.582317
vt 0.831103 0.582317
vt 0.863655 0.582317
vt 0.863195 0.653290
vt 0.835326 0.639095
vt 0.831103 0.582317
vt 0.893546 0.897753
vt 0.889485 0.929297
vt 0.859985 0.951377
vt 0.860661 0.906033
vt 0.861385 0.847776
vt 0.897606 0.866209
vt 0.893546 0.897753
vt 0.860661 0.906033
vt 0.824881 0.866209
vt 0.861385 0.847776
vt 0.860661 0.906033
vt 0.827942 0.897753
vt 0.860661 0.906033
vt 0.859985 0.951377
vt 0.831003 0.929297
vt 0.827942 0.897753
vt 0.738442 0.525539
vt 0.731293 0.547619
vt 0.670910 0.547619
vt 0.667841 0.525539
vt 0.746140 0.547619
vt 0.740652 0.525539
vt 0.811253 0.525539
vt 0.808932 0.547619
vt 0.670910 0.547619
vt 0.731293 0.547619
vt 0.732185 0.579162
vt 0.669614 0.579162
vt 0.732185 0.579162
vt 0.733078 0.610706
vt 0.668318 0.610706
vt 0.669614 0.579162
vt 0.662828 0.837820
vt 0.717980 0.837820
vt 0.715128 0.894598
vt 0.659239 0.894598
vt 0.715128 0.894598
vt 0.712275 0.951377
vt 0.655650 0.951377
vt 0.659239 0.894598
vt 0.668318 0.610706
vt 0.733078 0.610706
vt 0.717980 0.837820
vt 0.662828 0.837820
vt 0.811525 0.610706
vt 0.743852 0.610706
vt 0.744996 0.579162
vt 0.810228 0.579162
vt 0.744996 0.579162
vt 0.746140 0.547619
vt 0.808932 0.547619
vt 0.810228 0.579162
vt 0.759595 0.837820
vt 0.743852 0.610706
vt 0.811525 0.610706
vt 0.815671 0.837820
vt 0.823119 0.951377
vt 0.762829 0.951377
vt 0.761212 0.894598
vt 0.819395 0.894598
vt 0.761212 0.894598
vt 0.759595 0.837820
vt 0.815671 0.837820
vt 0.819395 0.894598
vt 0.535670 0.958350
vt 0.413989 0.967619
vt 0.416083 0.657293
vt 0.479886 0.657298
vt 0.295585 0.958350
vt 0.354105 0.657298
vt 0.414451 0.530005
vt 0.447024 0.532647
vt 0.382755 0.532647
vt 0.412424 0.432226
vt 0.460112 0.529060
vt 0.369125 0.529060
vt 0.275988 0.867249
vt 0.228300 0.964083
vt 0.229396 0.866304
vt 0.261928 0.863663
vt 0.185001 0.867249
vt 0.198004 0.863663
vt 0.231959 0.739017
vt 0.295078 0.739012
vt 0.169719 0.739012
vt 0.226386 0.428690
vt 0.347917 0.437960
vt 0.109118 0.437960
vt 0.147550 0.349610
vt 0.100097 0.228079
vt 0.263255 0.228942
vt 0.264990 0.402486
vt 0.145094 0.110811
vt 0.264591 0.061959
vt 0.437329 0.231558
vt 0.383326 0.353240
vt 0.385970 0.113154
vt 0.931436 0.366222
vt 0.918851 0.485719
vt 0.617799 0.436770
vt 0.617764 0.368383
vt 0.918851 0.244842
vt 0.617799 0.300253
vt 0.493148 0.395183
vt 0.489561 0.363194
vt 0.493148 0.330702
vt 0.480408 0.295602
vt 0.467822 0.178163
vt 0.781494 0.165357
vt 0.781459 0.232884
vt 0.480407 0.059826
vt 0.781459 0.112991
vt 0.909697 0.175427
vt 0.906110 0.206865
vt 0.906110 0.143750
vn -0.092451 -0.840859 0.533300
vn 0.721332 -0.635819 0.274617
vn -0.046906 -0.260856 0.964237
vn 0.838768 -0.235986 0.490693
vn 0.885631 -0.037384 0.462883
vn 0.104152 -0.078989 0.991420
vn -0.801277 -0.511802 0.309862
vn -0.838629 -0.184545 0.512488
vn -0.746561 -0.046996 0.663655
vn 0.102204 -0.002016 0.994761
vn 0.892990 -0.046171 0.447703
vn 0.815949 -0.057691 0.575238
vn 0.764827 -0.030553 0.643510
vn 0.030144 -0.057937 0.997865
vn 0.035198 -0.135505 0.990151
vn -0.710782 0.014657 0.703260
vn -0.750878 -0.127148 0.648086
vn -0.745420 -0.278539 0.605612
vn 0.773918 0.040943 -0.631961
vn 0.743715 -0.004257 -0.668483
vn -0.075576 0.013195 -0.997053
vn -0.075733 0.043995 -0.996157
vn 0.731601 0.006437 -0.681702
vn -0.030889 0.076346 -0.996603
vn 0.785037 0.030081 -0.618718
vn 0.008541 0.071754 -0.997386
vn -0.858548 0.058252 -0.509413
vn -0.871170 0.057180 -0.487640
vn -0.785906 -0.132579 -0.603965
vn -0.838386 -0.048182 -0.542943
vn 0.671075 -0.633048 -0.385886
vn 0.005142 -0.844068 -0.536212
vn 0.812410 -0.226348 -0.537360
vn 0.014490 -0.256343 -0.966477
vn -0.861454 -0.183275 -0.473610
vn -0.723078 -0.617853 -0.308894
vn 0.025988 -0.387733 0.921405
vn 0.015918 0.162355 0.986604
vn -0.659467 -0.202165 0.724039
vn -0.670803 0.176392 0.720353
vn 0.686914 -0.189956 0.701474
vn 0.700355 0.170935 0.693026
vn -0.659280 0.323310 0.678838
vn 0.011864 0.415685 0.909431
vn 0.693186 0.314785 0.648385
vn -0.903989 0.427164 0.018297
vn -0.043260 0.997347 -0.058550
vn 0.893072 0.448737 -0.032512
vn -0.059288 0.421260 -0.905000
vn -0.657752 0.337579 -0.673352
vn 0.586989 0.363972 -0.723165
vn -0.697184 0.195083 -0.689838
vn -0.051693 0.176276 -0.982983
vn 0.631729 0.188461 -0.751932
vn -0.689686 -0.194508 -0.697495
vn -0.043486 -0.374811 -0.926081
vn 0.638347 -0.189398 -0.746084
vn 0.002282 -0.999940 -0.010740
vn -0.911372 -0.411377 0.013008
vn 0.915629 -0.401859 -0.011519
vn 0.983794 0.178457 -0.017376
vn -0.981710 0.184898 0.045359
f 6/1/1 22/2/2 25/4/3
f 25/4/3 22/2/2 35/3/4
f 23/6/5 10/7/6 35/5/4
f 35/5/4 10/7/6 25/8/3
f 6/10/1 25/11/3 1/9/7
f 1/9/7 25/11/3 26/12/8
f 25/13/3 10/14/6 26/16/8
f 26/16/8 10/14/6 11/15/9
f 10/17/6 23/18/5 27/20/10
f 27/20/10 23/18/5 12/19/11
f 36/21/12 24/22/13 28/24/14
f 28/24/14 24/22/13 13/23/15
f 12/26/11 36/27/12 27/25/10
f 27/25/10 36/27/12 28/28/14
f 27/30/10 28/31/14 8/29/16
f 8/29/16 28/31/14 29/32/17
f 28/33/14 13/34/15 29/36/17
f 29/36/17 13/34/15 14/35/18
f 10/38/6 27/39/10 11/37/9
f 11/37/9 27/39/10 8/40/16
f 3/42/19 15/43/20 7/41/21
f 7/41/21 15/43/20 30/44/22
f 15/45/20 9/46/23 30/48/22
f 30/48/22 9/46/23 31/47/24
f 9/49/23 4/50/25 31/52/24
f 31/52/24 4/50/25 16/51/26
f 16/54/26 17/55/27 31/53/24
f 31/53/24 17/55/27 18/56/28
f 2/57/29 7/58/21 32/60/30
f 32/60/30 7/58/21 30/59/22
f 31/62/24 18/63/28 30/61/22
f 30/61/22 18/63/28 32/64/30
f 5/66/31 20/67/32 19/65/33
f 19/65/33 20/67/32 33/68/34
f 4/70/25 19/71/33 16/69/26
f 16/69/26 19/71/33 33/72/34
f 17/73/27 16/74/26 34/76/35
f 34/76/35 16/74/26 33/75/34
f 33/77/34 20/78/32 34/80/35
f 34/80/35 20/78/32 21/79/36
f 20/81/32 5/82/31 6/84/1
f 6/84/1 5/82/31 22/83/2
f 21/85/36 20/86/32 1/88/7
f 1/88/7 20/86/32 6/87/1
f 5/90/31 19/91/33 22/89/2
f 22/89/2 19/91/33 35/92/4
f 19/93/33 4/94/25 35/96/4
f 35/96/4 4/94/25 23/95/5
f 9/98/23 15/99/20 12/97/11
f 12/97/11 15/99/20 36/100/12
f 15/101/20 3/102/19 36/104/12
f 36/104/12 3/102/19 24/103/13
f 4/106/25 9/107/23 23/105/5
f 23/105/5 9/107/23 12/108/11
f 11/109/9 17/110/27 26/112/8
f 26/112/8 17/110/27 34/111/35
f 34/113/35 21/114/36 26/116/8
f 26/116/8 21/114/36 1/115/7
f 17/118/27 11/119/9 18/117/28
f 18/117/28 11/119/9 8/120/16
f 14/121/18 2/122/29 29/124/17
f 29/124/17 2/122/29 32/123/30
f 32/125/30 18/126/28 29/128/17
f 29/128/17 18/126/28 8/127/16
f 38/130/37 41/131/38 37/129/39
f 37/129/39 41/131/38 40/132/40
f 38/130/37 39/133/41 41/131/38
f 41/131/38 39/133/41 42/134/42
f 40/132/40 41/131/38 43/136/43
f 43/136/43 41/131/38 44/135/44
f 42/134/42 45/137/45 41/131/38
f 41/131/38 45/137/45 44/135/44
f 43/136/43 44/135/44 46/139/46
f 46/139/46 44/135/44 47/138/47
f 45/137/45 48/140/48 44/135/44
f 44/135/44 48/140/48 47/138/47
f 47/142/47 50/143/49 46/141/46
f 46/141/46 50/143/49 49/144/50
f 47/142/47 48/145/48 50/143/49
f 50/143/49 48/145/48 51/146/51
f 49/144/50 50/143/49 52/148/52
f 52/148/52 50/143/49 53/147/53
f 51/146/51 54/149/54 50/143/49
f 50/143/49 54/149/54 53/147/53
f 52/148/52 53/147/53 55/151/55
f 55/151/55 53/147/53 56/150/56
f 54/149/54 57/152/57 53/147/53
f 53/147/53 57/152/57 56/150/56
f 56/154/56 59/155/58 55/153/55
f 55/153/55 59/155/58 58/156/59
f 56/154/56 57/157/57 59/155/58
f 59/155/58 57/157/57 60/158/60
f 58/156/59 59/155/58 37/160/39
f 37/160/39 59/155/58 38/159/37
f 60/158/60 39/161/41 59/155/58
f 59/155/58 39/161/41 38/159/37
f 60/162/60 57/163/57 61/165/61
f 61/165/61 57/163/57 54/164/54
f 60/162/60 61/165/61 39/166/41
f 39/166/41 61/165/61 42/167/42
f 61/165/61 54/164/54 48/169/48
f 48/169/48 54/164/54 51/168/51
f 42/167/42 61/165/61 45/170/45
f 45/170/45 61/165/61 48/169/48
f 58/172/59 62/173/62 55/171/55
f 55/171/55 62/173/62 52/174/52
f 58/172/59 37/175/39 62/173/62
f 62/173/62 37/175/39 40/176/40
f 62/173/62 46/177/46 52/174/52
f 52/174/52 46/177/46 49/178/50
f 40/176/40 43/179/43 62/173/62
f 62/173/62 43/179/43 46/177/46
