# This file uses centimeters as units for non-parametric coordinates.

v 467.496712 54.812352 -20.336478
v 467.390943 68.143536 -19.612369
v 465.257143 68.125331 -21.248960
v 465.133689 58.072794 -20.495875
v 465.558293 54.806742 -20.503361
v 467.162286 54.240665 -21.273766
v 466.111969 68.140016 -20.091741
v 467.957585 63.322149 -21.518022
v 465.680130 63.289533 -20.434192
v 467.446417 58.101779 -21.956525
v 468.216583 58.193797 -21.164150
v 465.987214 63.235906 -22.309437
v 467.526942 68.136166 -22.085097
v 468.814221 68.136166 -21.162877
v 465.155826 66.079545 -21.085144
v 465.769804 58.016032 -19.415061
v 466.983802 58.065258 -19.142600
v 467.090816 63.282603 -19.499732
v 465.203877 55.578415 -20.427685
v 466.137530 54.552964 -19.764430
v 466.921490 54.786061 -19.359779
v 466.167207 54.793652 -21.633066
v 466.155826 58.183622 -22.059464
v 466.220750 68.132756 -22.543057
v 467.377358 55.252035 -21.615557
v 467.782144 55.614441 -20.463377
v 467.320645 63.202465 -22.145070
v 467.415409 66.125912 -21.959281
v 468.006507 66.154457 -20.881196
v 466.079619 66.189768 -19.974773
v 465.967227 63.292393 -19.743597
v 467.264068 66.299552 -19.932765
v 465.701380 55.457631 -19.099887
v 466.796393 55.538594 -19.034229
v 466.159051 55.485682 -21.968980
v 466.215811 66.047314 -22.527536
v 476.396611 70.387383 -21.730050
v 471.998855 67.712323 -27.730654
v 465.081022 70.409933 -29.768029
v 473.700171 89.706924 -21.431498
v 470.892844 89.683383 -25.961325
v 465.633615 89.710719 -27.050224
v 470.586459 102.055229 -20.919244
v 469.032416 104.091719 -23.406027
v 466.087849 102.184153 -24.327030
v 469.661682 103.905538 -18.396706
v 466.616444 109.093292 -20.369705
v 463.807689 103.857137 -22.249919
v 467.510907 102.024318 -16.767308
v 464.867947 103.767759 -17.709552
v 463.298360 104.506541 -19.803528
v 468.369506 92.507936 -13.824003
v 462.871310 89.633332 -14.754599
v 459.801677 89.682503 -18.865860
v 468.460796 70.389033 -10.923588
v 461.376401 67.740704 -13.017409
v 456.767476 70.398273 -18.629951
v 474.170669 67.639116 -15.006626
v 466.387791 62.711686 -20.201783
v 459.039164 67.652977 -25.530272
v 461.025852 89.596480 -24.043313
v 472.592197 89.635477 -16.633204
vt 0.612557 0.525539
vt 0.641254 0.547619
vt 0.645270 0.579162
vt 0.613428 0.570882
vt 0.645270 0.579162
vt 0.649287 0.610706
vt 0.614313 0.629139
vt 0.613428 0.570882
vt 0.584671 0.547619
vt 0.612557 0.525539
vt 0.613428 0.570882
vt 0.581871 0.579162
vt 0.613428 0.570882
vt 0.614313 0.629139
vt 0.579071 0.610706
vt 0.581871 0.579162
vt 0.614313 0.629139
vt 0.649287 0.610706
vt 0.644565 0.837820
vt 0.616380 0.823625
vt 0.649266 0.894598
vt 0.653966 0.951377
vt 0.616933 0.951377
vt 0.616792 0.894598
vt 0.616380 0.823625
vt 0.644565 0.837820
vt 0.649266 0.894598
vt 0.616792 0.894598
vt 0.588712 0.837820
vt 0.616380 0.823625
vt 0.616792 0.894598
vt 0.584306 0.894598
vt 0.616792 0.894598
vt 0.616933 0.951377
vt 0.579899 0.951377
vt 0.584306 0.894598
vt 0.579071 0.610706
vt 0.614313 0.629139
vt 0.616380 0.823625
vt 0.588712 0.837820
vt 0.863914 0.525539
vt 0.900947 0.525539
vt 0.896217 0.582317
vt 0.863655 0.582317
vt 0.896217 0.582317
vt 0.891487 0.639095
vt 0.863195 0.653290
vt 0.863655 0.582317
vt 0.891487 0.639095
vt 0.897606 0.866209
vt 0.861385 0.847776
vt 0.863195 0.653290
vt 0.863195 0.653290
vt 0.861385 0.847776
vt 0.824881 0.866209
vt 0.835326 0.639095
vt 0.826880 0.525539
vt 0.863914 0.525539
vt 0.863655 0.582317
vt 0.831103 0.582317
vt 0.863655 0.582317
vt 0.863195 0.653290
vt 0.835326 0.639095
vt 0.831103 0.582317
vt 0.893546 0.897753
vt 0.889485 0.929297
vt 0.859985 0.951377
vt 0.860661 0.906033
vt 0.861385 0.847776
vt 0.897606 0.866209
vt 0.893546 0.897753
vt 0.860661 0.906033
vt 0.824881 0.866209
vt 0.861385 0.847776
vt 0.860661 0.906033
vt 0.827942 0.897753
vt 0.860661 0.906033
vt 0.859985 0.951377
vt 0.831003 0.929297
vt 0.827942 0.897753
vt 0.738442 0.525539
vt 0.731293 0.547619
vt 0.670910 0.547619
vt 0.667841 0.525539
vt 0.746140 0.547619
vt 0.740652 0.525539
vt 0.811253 0.525539
vt 0.808932 0.547619
vt 0.670910 0.547619
vt 0.731293 0.547619
vt 0.732185 0.579162
vt 0.669614 0.579162
vt 0.732185 0.579162
vt 0.733078 0.610706
vt 0.668318 0.610706
vt 0.669614 0.579162
vt 0.662828 0.837820
vt 0.717980 0.837820
vt 0.715128 0.894598
vt 0.659239 0.894598
vt 0.715128 0.894598
vt 0.712275 0.951377
vt 0.655650 0.951377
vt 0.659239 0.894598
vt 0.668318 0.610706
vt 0.733078 0.610706
vt 0.717980 0.837820
vt 0.662828 0.837820
vt 0.811525 0.610706
vt 0.743852 0.610706
vt 0.744996 0.579162
vt 0.810228 0.579162
vt 0.744996 0.579162
vt 0.746140 0.547619
vt 0.808932 0.547619
vt 0.810228 0.579162
vt 0.759595 0.837820
vt 0.743852 0.610706
vt 0.811525 0.610706
vt 0.815671 0.837820
vt 0.823119 0.951377
vt 0.762829 0.951377
vt 0.761212 0.894598
vt 0.819395 0.894598
vt 0.761212 0.894598
vt 0.759595 0.837820
vt 0.815671 0.837820
vt 0.819395 0.894598
vt 0.535670 0.958350
vt 0.413989 0.967619
vt 0.416083 0.657293
vt 0.479886 0.657298
vt 0.295585 0.958350
vt 0.354105 0.657298
vt 0.414451 0.530005
vt 0.447024 0.532647
vt 0.382755 0.532647
vt 0.412424 0.432226
vt 0.460112 0.529060
vt 0.369125 0.529060
vt 0.275988 0.867249
vt 0.228300 0.964083
vt 0.229396 0.866304
vt 0.261928 0.863663
vt 0.185001 0.867249
vt 0.198004 0.863663
vt 0.231959 0.739017
vt 0.295078 0.739012
vt 0.169719 0.739012
vt 0.226386 0.428690
vt 0.347917 0.437960
vt 0.109118 0.437960
vt 0.147550 0.349610
vt 0.100097 0.228079
vt 0.263255 0.228942
vt 0.264990 0.402486
vt 0.145094 0.110811
vt 0.264591 0.061959
vt 0.437329 0.231558
vt 0.383326 0.353240
vt 0.385970 0.113154
vt 0.931436 0.366222
vt 0.918851 0.485719
vt 0.617799 0.436770
vt 0.617764 0.368383
vt 0.918851 0.244842
vt 0.617799 0.300253
vt 0.493148 0.395183
vt 0.489561 0.363194
vt 0.493148 0.330702
vt 0.480408 0.295602
vt 0.467822 0.178163
vt 0.781494 0.165357
vt 0.781459 0.232884
vt 0.480407 0.059826
vt 0.781459 0.112991
vt 0.909697 0.175427
vt 0.906110 0.206865
vt 0.906110 0.143750
vn 0.386662 -0.848669 -0.360905
vn -0.432859 -0.629207 -0.645547
vn 0.612641 -0.269305 -0.743065
vn -0.406267 -0.233818 -0.883333
vn -0.459097 -0.036932 -0.887618
vn 0.501073 -0.081712 -0.861539
vn 0.828063 -0.504752 0.244004
vn 0.976811 -0.182635 0.111736
vn 0.997069 -0.046952 -0.060414
vn 0.504849 -0.002086 -0.863205
vn -0.473343 -0.045576 -0.879698
vn -0.340797 -0.057393 -0.938383
vn -0.261023 -0.030545 -0.964849
vn 0.568417 -0.059968 -0.820552
vn 0.559201 -0.140179 -0.817095
vn 0.993459 0.014690 -0.113244
vn 0.990860 -0.126925 -0.045678
vn 0.960551 -0.277639 -0.016067
vn -0.998984 0.040806 0.019152
vn -0.997817 -0.004254 0.065910
vn -0.529077 0.013657 0.848464
vn -0.528375 0.045530 0.847789
vn -0.996477 0.006440 0.083622
vn -0.566978 0.079015 0.819934
vn -0.999549 0.029951 0.002160
vn -0.601118 0.074262 0.795702
vn 0.411697 0.057706 0.909492
vn 0.433863 0.056571 0.899201
vn 0.300400 -0.132210 0.944606
vn 0.376883 -0.047829 0.925025
vn -0.770265 -0.628453 -0.108343
vn -0.315758 -0.852283 0.417026
vn -0.971442 -0.224441 -0.076984
vn -0.586515 -0.264721 0.765456
vn 0.433893 -0.181314 0.882532
vn 0.415039 -0.611824 0.673360
vn 0.523694 -0.399231 -0.752569
vn 0.573397 0.167909 -0.801887
vn 0.965778 -0.203203 -0.161186
vn 0.972479 0.177193 -0.151284
vn -0.164303 -0.190963 -0.967749
vn -0.180183 0.171690 -0.968533
vn 0.937554 0.324301 -0.125782
vn 0.528187 0.427672 -0.733564
vn -0.199668 0.315597 -0.927648
vn 0.741069 0.418352 0.525166
vn 0.002025 0.997418 0.071784
vn -0.740612 0.439694 -0.508097
vn -0.485159 0.433289 0.759527
vn 0.156312 0.339245 0.927620
vn -0.907373 0.366742 0.205366
vn 0.179389 0.195937 0.964069
vn -0.540577 0.182263 0.821314
vn -0.961142 0.189872 0.200388
vn 0.168856 -0.195482 0.966061
vn -0.511752 -0.386046 0.767514
vn -0.962754 -0.190717 0.191656
vn -0.008062 -0.999943 0.006946
vn 0.743812 -0.402758 0.533413
vn -0.746270 -0.393364 -0.536978
vn -0.802051 0.174122 -0.571310
vn 0.816159 0.180424 0.548936
f 6/1/1 22/2/2 25/4/3
f 25/4/3 22/2/2 35/3/4
f 23/6/5 10/7/6 35/5/4
f 35/5/4 10/7/6 25/8/3
f 6/10/1 25/11/3 1/9/7
f 1/9/7 25/11/3 26/12/8
f 25/13/3 10/14/6 26/16/8
f 26/16/8 10/14/6 11/15/9
f 10/17/6 23/18/5 27/20/10
f 27/20/10 23/18/5 12/19/11
f 36/21/12 24/22/13 28/24/14
f 28/24/14 24/22/13 13/23/15
f 12/26/11 36/27/12 27/25/10
f 27/25/10 36/27/12 28/28/14
f 27/30/10 28/31/14 8/29/16
f 8/29/16 28/31/14 29/32/17
f 28/33/14 13/34/15 29/36/17
f 29/36/17 13/34/15 14/35/18
f 10/38/6 27/39/10 11/37/9
f 11/37/9 27/39/10 8/40/16
f 3/42/19 15/43/20 7/41/21
f 7/41/21 15/43/20 30/44/22
f 15/45/20 9/46/23 30/48/22
f 30/48/22 9/46/23 31/47/24
f 9/49/23 4/50/25 31/52/24
f 31/52/24 4/50/25 16/51/26
f 16/54/26 17/55/27 31/53/24
f 31/53/24 17/55/27 18/56/28
f 2/57/29 7/58/21 32/60/30
f 32/60/30 7/58/21 30/59/22
f 31/62/24 18/63/28 30/61/22
f 30/61/22 18/63/28 32/64/30
f 5/66/31 20/67/32 19/65/33
f 19/65/33 20/67/32 33/68/34
f 4/70/25 19/71/33 16/69/26
f 16/69/26 19/71/33 33/72/34
f 17/73/27 16/74/26 34/76/35
f 34/76/35 16/74/26 33/75/34
f 33/77/34 20/78/32 34/80/35
f 34/80/35 20/78/32 21/79/36
f 20/81/32 5/82/31 6/84/1
f 6/84/1 5/82/31 22/83/2
f 21/85/36 20/86/32 1/88/7
f 1/88/7 20/86/32 6/87/1
f 5/90/31 19/91/33 22/89/2
f 22/89/2 19/91/33 35/92/4
f 19/93/33 4/94/25 35/96/4
f 35/96/4 4/94/25 23/95/5
f 9/98/23 15/99/20 12/97/11
f 12/97/11 15/99/20 36/100/12
f 15/101/20 3/102/19 36/104/12
f 36/104/12 3/102/19 24/103/13
f 4/106/25 9/107/23 23/105/5
f 23/105/5 9/107/23 12/108/11
f 11/109/9 17/110/27 26/112/8
f 26/112/8 17/110/27 34/111/35
f 34/113/35 21/114/36 26/116/8
f 26/116/8 21/114/36 1/115/7
f 17/118/27 11/119/9 18/117/28
f 18/117/28 11/119/9 8/120/16
f 14/121/18 2/122/29 29/124/17
f 29/124/17 2/122/29 32/123/30
f 32/125/30 18/126/28 29/128/17
f 29/128/17 18/126/28 8/127/16
f 38/130/37 41/131/38 37/129/39
f 37/129/39 41/131/38 40/132/40
f 38/130/37 39/133/41 41/131/38
f 41/131/38 39/133/41 42/134/42
f 40/132/40 41/131/38 43/136/43
f 43/136/43 41/131/38 44/135/44
f 42/134/42 45/137/45 41/131/38
f 41/131/38 45/137/45 44/135/44
f 43/136/43 44/135/44 46/139/46
f 46/139/46 44/135/44 47/138/47
f 45/137/45 48/140/48 44/135/44
f 44/135/44 48/140/48 47/138/47
f 47/142/47 50/143/49 46/141/46
f 46/141/46 50/143/49 49/144/50
f 47/142/47 48/145/48 50/143/49
f 50/143/49 48/145/48 51/146/51
f 49/144/50 50/143/49 52/148/52
f 52/148/52 50/143/49 53/147/53
f 51/146/51 54/149/54 50/143/49
f 50/143/49 54/149/54 53/147/53
f 52/148/52 53/147/53 55/151/55
f 55/151/55 53/147/53 56/150/56
f 54/149/54 57/152/57 53/147/53
f 53/147/53 57/152/57 56/150/56
f 56/154/56 59/155/58 55/153/55
f 55/153/55 59/155/58 58/156/59
f 56/154/56 57/157/57 59/155/58
f 59/155/58 57/157/57 60/158/60
f 58/156/59 59/155/58 37/160/39
f 37/160/39 59/155/58 38/159/37
f 60/158/60 39/161/41 59/155/58
f 59/155/58 39/161/41 38/159/37
f 60/162/60 57/163/57 61/165/61
f 61/165/61 57/163/57 54/164/54
f 60/162/60 61/165/61 39/166/41
f 39/166/41 61/165/61 42/167/42
f 61/165/61 54/164/54 48/169/48
f 48/169/48 54/164/54 51/168/51
f 42/167/42 61/165/61 45/170/45
f 45/170/45 61/165/61 48/169/48
f 58/172/59 62/173/62 55/171/55
f 55/171/55 62/173/62 52/174/52
f 58/172/59 37/175/39 62/173/62
f 62/173/62 37/175/39 40/176/40
f 62/173/62 46/177/46 52/174/52
f 52/174/52 46/177/46 49/178/50
f 40/176/40 43/179/43 62/173/62
f 62/173/62 43/179/43 46/177/46
