# This file uses centimeters as units for non-parametric coordinates.

v 450.940002 45.056864 -69.615056
v 451.564018 57.579063 -70.116968
v 452.116049 57.561962 -67.475725
v 452.776158 48.119450 -67.989184
v 452.419456 45.051594 -68.252935
v 450.522086 44.519869 -68.666067
v 452.266550 57.575756 -68.928032
v 449.683370 53.050255 -68.979149
v 452.369948 53.019618 -68.384666
v 449.781203 48.146677 -68.309913
v 449.731385 48.233110 -69.421732
v 450.726495 52.969246 -67.105917
v 449.619339 57.572140 -68.260010
v 449.238066 57.572140 -69.802253
v 452.321229 55.640322 -67.540124
v 453.050922 48.066133 -69.242548
v 452.248812 48.112372 -70.227611
v 451.895689 53.013108 -70.014898
v 452.768639 45.776439 -68.087342
v 452.487937 44.813217 -69.201499
v 452.139424 45.032169 -70.017353
v 451.078802 45.039298 -67.751785
v 450.772270 48.223553 -67.409446
v 450.360252 57.568936 -67.070613
v 450.090964 45.469865 -68.534026
v 450.609918 45.810279 -69.696585
v 449.745515 52.937834 -68.081872
v 449.804803 55.683875 -68.288061
v 450.114781 55.710688 -69.510706
v 452.379973 55.743857 -68.999413
v 452.644221 53.022304 -69.109723
v 451.431540 55.846978 -69.784592
v 453.341043 45.662985 -69.446798
v 452.484100 45.739034 -70.193773
v 450.836647 45.689334 -67.482605
v 450.375838 55.610047 -67.079680
v 442.547042 59.686744 -74.171610
v 441.737833 57.174017 -66.662991
v 445.949384 59.707926 -60.668729
v 444.998262 77.833904 -72.693903
v 443.963532 77.811792 -67.351152
v 447.506174 77.837469 -63.155580
v 447.952920 89.432869 -71.119163
v 447.395523 91.345777 -68.177920
v 449.148304 89.553969 -65.584193
v 450.586836 91.170895 -72.514362
v 451.643384 96.043836 -69.029941
v 452.573100 91.125430 -65.768613
v 453.572890 89.403833 -72.429088
v 455.060502 91.041476 -70.010195
v 454.807013 91.735426 -67.367794
v 455.043695 80.464941 -75.287479
v 458.901265 77.764778 -71.064565
v 458.393615 77.810965 -65.884181
v 457.117301 59.688294 -77.624894
v 461.424774 57.200676 -71.480503
v 461.077749 59.696974 -64.142763
v 449.369748 57.105253 -78.042006
v 451.956905 52.476837 -69.016707
v 454.086134 57.118272 -60.162393
v 453.544893 77.730163 -62.592607
v 449.469938 77.766793 -75.761288
vt 0.612557 0.525539
vt 0.641254 0.547619
vt 0.645270 0.579162
vt 0.613428 0.570882
vt 0.645270 0.579162
vt 0.649287 0.610706
vt 0.614313 0.629139
vt 0.613428 0.570882
vt 0.584671 0.547619
vt 0.612557 0.525539
vt 0.613428 0.570882
vt 0.581871 0.579162
vt 0.613428 0.570882
vt 0.614313 0.629139
vt 0.579071 0.610706
vt 0.581871 0.579162
vt 0.614313 0.629139
vt 0.649287 0.610706
vt 0.644565 0.837820
vt 0.616380 0.823625
vt 0.649266 0.894598
vt 0.653966 0.951377
vt 0.616933 0.951377
vt 0.616792 0.894598
vt 0.616380 0.823625
vt 0.644565 0.837820
vt 0.649266 0.894598
vt 0.616792 0.894598
vt 0.588712 0.837820
vt 0.616380 0.823625
vt 0.616792 0.894598
vt 0.584306 0.894598
vt 0.616792 0.894598
vt 0.616933 0.951377
vt 0.579899 0.951377
vt 0.584306 0.894598
vt 0.579071 0.610706
vt 0.614313 0.629139
vt 0.616380 0.823625
vt 0.588712 0.837820
vt 0.863914 0.525539
vt 0.900947 0.525539
vt 0.896217 0.582317
vt 0.863655 0.582317
vt 0.896217 0.582317
vt 0.891487 0.639095
vt 0.863195 0.653290
vt 0.863655 0.582317
vt 0.891487 0.639095
vt 0.897606 0.866209
vt 0.861385 0.847776
vt 0.863195 0.653290
vt 0.863195 0.653290
vt 0.861385 0.847776
vt 0.824881 0.866209
vt 0.835326 0.639095
vt 0.826880 0.525539
vt 0.863914 0.525539
vt 0.863655 0.582317
vt 0.831103 0.582317
vt 0.863655 0.582317
vt 0.863195 0.653290
vt 0.835326 0.639095
vt 0.831103 0.582317
vt 0.893546 0.897753
vt 0.889485 0.929297
vt 0.859985 0.951377
vt 0.860661 0.906033
vt 0.861385 0.847776
vt 0.897606 0.866209
vt 0.893546 0.897753
vt 0.860661 0.906033
vt 0.824881 0.866209
vt 0.861385 0.847776
vt 0.860661 0.906033
vt 0.827942 0.897753
vt 0.860661 0.906033
vt 0.859985 0.951377
vt 0.831003 0.929297
vt 0.827942 0.897753
vt 0.738442 0.525539
vt 0.731293 0.547619
vt 0.670910 0.547619
vt 0.667841 0.525539
vt 0.746140 0.547619
vt 0.740652 0.525539
vt 0.811253 0.525539
vt 0.808932 0.547619
vt 0.670910 0.547619
vt 0.731293 0.547619
vt 0.732185 0.579162
vt 0.669614 0.579162
vt 0.732185 0.579162
vt 0.733078 0.610706
vt 0.668318 0.610706
vt 0.669614 0.579162
vt 0.662828 0.837820
vt 0.717980 0.837820
vt 0.715128 0.894598
vt 0.659239 0.894598
vt 0.715128 0.894598
vt 0.712275 0.951377
vt 0.655650 0.951377
vt 0.659239 0.894598
vt 0.668318 0.610706
vt 0.733078 0.610706
vt 0.717980 0.837820
vt 0.662828 0.837820
vt 0.811525 0.610706
vt 0.743852 0.610706
vt 0.744996 0.579162
vt 0.810228 0.579162
vt 0.744996 0.579162
vt 0.746140 0.547619
vt 0.808932 0.547619
vt 0.810228 0.579162
vt 0.759595 0.837820
vt 0.743852 0.610706
vt 0.811525 0.610706
vt 0.815671 0.837820
vt 0.823119 0.951377
vt 0.762829 0.951377
vt 0.761212 0.894598
vt 0.819395 0.894598
vt 0.761212 0.894598
vt 0.759595 0.837820
vt 0.815671 0.837820
vt 0.819395 0.894598
vt 0.535670 0.958350
vt 0.413989 0.967619
vt 0.416083 0.657293
vt 0.479886 0.657298
vt 0.295585 0.958350
vt 0.354105 0.657298
vt 0.414451 0.530005
vt 0.447024 0.532647
vt 0.382755 0.532647
vt 0.412424 0.432226
vt 0.460112 0.529060
vt 0.369125 0.529060
vt 0.275988 0.867249
vt 0.228300 0.964083
vt 0.229396 0.866304
vt 0.261928 0.863663
vt 0.185001 0.867249
vt 0.198004 0.863663
vt 0.231959 0.739017
vt 0.295078 0.739012
vt 0.169719 0.739012
vt 0.226386 0.428690
vt 0.347917 0.437960
vt 0.109118 0.437960
vt 0.147550 0.349610
vt 0.100097 0.228079
vt 0.263255 0.228942
vt 0.264990 0.402486
vt 0.145094 0.110811
vt 0.264591 0.061959
vt 0.437329 0.231558
vt 0.383326 0.353240
vt 0.385970 0.113154
vt 0.931436 0.366222
vt 0.918851 0.485719
vt 0.617799 0.436770
vt 0.617764 0.368383
vt 0.918851 0.244842
vt 0.617799 0.300253
vt 0.493148 0.395183
vt 0.489561 0.363194
vt 0.493148 0.330702
vt 0.480408 0.295602
vt 0.467822 0.178163
vt 0.781494 0.165357
vt 0.781459 0.232884
vt 0.480407 0.059826
vt 0.781459 0.112991
vt 0.909697 0.175427
vt 0.906110 0.206865
vt 0.906110 0.143750
vn -0.465888 -0.884782 0.010464
vn -0.061219 -0.658653 0.749952
vn -0.935798 -0.315335 0.157627
vn -0.220578 -0.254582 0.941559
vn -0.185413 -0.040266 0.981835
vn -0.935660 -0.096930 0.339329
vn -0.439421 -0.533616 -0.722608
vn -0.636269 -0.198959 -0.745371
vn -0.765406 -0.052154 -0.641431
vn -0.941000 -0.002478 0.338398
vn -0.170347 -0.049621 0.984134
vn -0.303267 -0.063287 0.950802
vn -0.380028 -0.033974 0.924351
vn -0.963939 -0.071250 0.256407
vn -0.951371 -0.165997 0.259498
vn -0.798561 0.016411 -0.601690
vn -0.749845 -0.140557 -0.646510
vn -0.703471 -0.304513 -0.642184
vn 0.739377 0.045142 0.671777
vn 0.769828 -0.004729 0.638233
vn 0.951078 0.016230 -0.308523
vn 0.949729 0.054090 -0.308364
vn 0.780754 0.007173 0.624797
vn 0.961894 0.093828 -0.256820
vn 0.728626 0.033081 0.684112
vn 0.973347 0.088189 -0.211702
vn 0.233145 0.063183 -0.970387
vn 0.210713 0.061810 -0.975592
vn 0.337059 -0.146129 -0.930074
vn 0.268263 -0.052555 -0.961911
vn 0.473151 -0.661089 0.582313
vn 0.448352 -0.888584 -0.096947
vn 0.653369 -0.244801 0.716367
vn 0.930445 -0.310249 -0.194982
vn 0.200298 -0.197416 -0.959639
vn 0.089297 -0.642546 -0.761026
vn -0.858732 -0.459772 0.226248
vn -0.951224 0.198493 0.236164
vn -0.806819 -0.227048 -0.545428
vn -0.805984 0.198015 -0.557835
vn -0.455090 -0.213559 0.864457
vn -0.443542 0.191870 0.875475
vn -0.756482 0.358328 -0.547116
vn -0.846637 0.490296 0.206919
vn -0.400234 0.348649 0.847501
vn -0.220166 0.441421 -0.869870
vn 0.036903 0.998014 -0.051055
vn 0.229153 0.463366 0.856026
vn 0.829038 0.496169 -0.257901
vn 0.432734 0.375608 -0.819548
vn 0.784743 0.406996 0.467475
vn 0.440965 0.218715 -0.870467
vn 0.936794 0.215211 -0.275863
vn 0.830694 0.213171 0.514300
vn 0.450406 -0.218455 -0.865686
vn 0.860502 -0.445451 -0.247203
vn 0.825866 -0.213912 0.521715
vn 0.009009 -0.999959 0.000192
vn -0.217633 -0.425342 -0.878476
vn 0.217451 -0.415635 0.883155
vn 0.239026 0.185577 0.953115
vn -0.261602 0.192275 -0.945830
f 6/1/1 22/2/2 25/4/3
f 25/4/3 22/2/2 35/3/4
f 23/6/5 10/7/6 35/5/4
f 35/5/4 10/7/6 25/8/3
f 6/10/1 25/11/3 1/9/7
f 1/9/7 25/11/3 26/12/8
f 25/13/3 10/14/6 26/16/8
f 26/16/8 10/14/6 11/15/9
f 10/17/6 23/18/5 27/20/10
f 27/20/10 23/18/5 12/19/11
f 36/21/12 24/22/13 28/24/14
f 28/24/14 24/22/13 13/23/15
f 12/26/11 36/27/12 27/25/10
f 27/25/10 36/27/12 28/28/14
f 27/30/10 28/31/14 8/29/16
f 8/29/16 28/31/14 29/32/17
f 28/33/14 13/34/15 29/36/17
f 29/36/17 13/34/15 14/35/18
f 10/38/6 27/39/10 11/37/9
f 11/37/9 27/39/10 8/40/16
f 3/42/19 15/43/20 7/41/21
f 7/41/21 15/43/20 30/44/22
f 15/45/20 9/46/23 30/48/22
f 30/48/22 9/46/23 31/47/24
f 9/49/23 4/50/25 31/52/24
f 31/52/24 4/50/25 16/51/26
f 16/54/26 17/55/27 31/53/24
f 31/53/24 17/55/27 18/56/28
f 2/57/29 7/58/21 32/60/30
f 32/60/30 7/58/21 30/59/22
f 31/62/24 18/63/28 30/61/22
f 30/61/22 18/63/28 32/64/30
f 5/66/31 20/67/32 19/65/33
f 19/65/33 20/67/32 33/68/34
f 4/70/25 19/71/33 16/69/26
f 16/69/26 19/71/33 33/72/34
f 17/73/27 16/74/26 34/76/35
f 34/76/35 16/74/26 33/75/34
f 33/77/34 20/78/32 34/80/35
f 34/80/35 20/78/32 21/79/36
f 20/81/32 5/82/31 6/84/1
f 6/84/1 5/82/31 22/83/2
f 21/85/36 20/86/32 1/88/7
f 1/88/7 20/86/32 6/87/1
f 5/90/31 19/91/33 22/89/2
f 22/89/2 19/91/33 35/92/4
f 19/93/33 4/94/25 35/96/4
f 35/96/4 4/94/25 23/95/5
f 9/98/23 15/99/20 12/97/11
f 12/97/11 15/99/20 36/100/12
f 15/101/20 3/102/19 36/104/12
f 36/104/12 3/102/19 24/103/13
f 4/106/25 9/107/23 23/105/5
f 23/105/5 9/107/23 12/108/11
f 11/109/9 17/110/27 26/112/8
f 26/112/8 17/110/27 34/111/35
f 34/113/35 21/114/36 26/116/8
f 26/116/8 21/114/36 1/115/7
f 17/118/27 11/119/9 18/117/28
f 18/117/28 11/119/9 8/120/16
f 14/121/18 2/122/29 29/124/17
f 29/124/17 2/122/29 32/123/30
f 32/125/30 18/126/28 29/128/17
f 29/128/17 18/126/28 8/127/16
f 38/130/37 41/131/38 37/129/39
f 37/129/39 41/131/38 40/132/40
f 38/130/37 39/133/41 41/131/38
f 41/131/38 39/133/41 42/134/42
f 40/132/40 41/131/38 43/136/43
f 43/136/43 41/131/38 44/135/44
f 42/134/42 45/137/45 41/131/38
f 41/131/38 45/137/45 44/135/44
f 43/136/43 44/135/44 46/139/46
f 46/139/46 44/135/44 47/138/47
f 45/137/45 48/140/48 44/135/44
f 44/135/44 48/140/48 47/138/47
f 47/142/47 50/143/49 46/141/46
f 46/141/46 50/143/49 49/144/50
f 47/142/47 48/145/48 50/143/49
f 50/143/49 48/145/48 51/146/51
f 49/144/50 50/143/49 52/148/52
f 52/148/52 50/143/49 53/147/53
f 51/146/51 54/149/54 50/143/49
f 50/143/49 54/149/54 53/147/53
f 52/148/52 53/147/53 55/151/55
f 55/151/55 53/147/53 56/150/56
f 54/149/54 57/152/57 53/147/53
f 53/147/53 57/152/57 56/150/56
f 56/154/56 59/155/58 55/153/55
f 55/153/55 59/155/58 58/156/59
f 56/154/56 57/157/57 59/155/58
f 59/155/58 57/157/57 60/158/60
f 58/156/59 59/155/58 37/160/39
f 37/160/39 59/155/58 38/159/37
f 60/158/60 39/161/41 59/155/58
f 59/155/58 39/161/41 38/159/37
f 60/162/60 57/163/57 61/165/61
f 61/165/61 57/163/57 54/164/54
f 60/162/60 61/165/61 39/166/41
f 39/166/41 61/165/61 42/167/42
f 61/165/61 54/164/54 48/169/48
f 48/169/48 54/164/54 51/168/51
f 42/167/42 61/165/61 45/170/45
f 45/170/45 61/165/61 48/169/48
f 58/172/59 62/173/62 55/171/55
f 55/171/55 62/173/62 52/174/52
f 58/172/59 37/175/39 62/173/62
f 62/173/62 37/175/39 40/176/40
f 62/173/62 46/177/46 52/174/52
f 52/174/52 46/177/46 49/178/50
f 40/176/40 43/179/43 62/173/62
f 62/173/62 43/179/43 46/177/46
