# This file uses centimeters as units for non-parametric coordinates.

v -312.970344 128.312104 -287.708088
v -312.278024 140.961214 -287.725987
v -313.806487 140.943940 -285.247814
v -313.086259 131.405729 -285.252608
v -313.099892 128.306781 -285.687512
v -313.859279 127.769666 -287.200702
v -312.715724 140.957874 -286.328265
v -314.104426 136.386507 -287.975051
v -313.035776 136.355560 -285.824768
v -314.514887 131.433231 -287.373271
v -313.770841 131.520541 -288.302980
v -314.829205 136.304677 -285.812496
v -314.638758 140.954221 -287.433525
v -313.778764 140.954221 -288.917177
v -313.648683 139.002825 -285.172360
v -312.065030 131.351871 -286.095014
v -311.823702 131.398579 -287.389821
v -312.165998 136.348984 -287.437343
v -313.022287 129.038972 -285.336634
v -312.403908 128.065987 -286.411733
v -312.029910 128.287158 -287.287847
v -314.186790 128.294360 -286.115625
v -314.593343 131.510887 -286.029407
v -315.055620 140.950986 -286.011585
v -314.188591 128.729291 -287.361917
v -313.095756 129.073154 -287.979145
v -314.692808 136.272947 -287.211106
v -314.517038 139.046819 -287.340932
v -313.497731 139.073904 -288.136616
v -312.603658 139.107409 -286.315473
v -312.381430 136.358274 -286.240414
v -312.581698 139.211575 -287.539644
v -311.763353 128.924368 -286.079807
v -311.717466 129.001188 -287.216229
v -314.507083 128.950983 -286.048535
v -315.040738 138.972243 -286.009223
v -314.435712 143.090257 -296.607722
v -320.092243 140.552064 -291.040968
v -321.929849 143.111654 -283.577932
v -314.109700 161.421338 -293.889747
v -318.387630 161.399002 -290.213963
v -319.345875 161.424939 -284.620643
v -313.573468 173.137857 -290.780445
v -315.921769 175.070153 -288.749286
v -316.755259 173.260185 -285.563251
v -311.153166 174.893498 -290.271272
v -312.988579 179.815827 -286.797949
v -314.739108 174.847573 -283.583792
v -309.566052 173.108528 -288.346485
v -310.424417 174.762768 -285.466592
v -312.397789 175.463751 -283.488114
v -306.771660 164.079040 -289.742981
v -307.575255 161.351511 -283.931832
v -311.449919 161.398167 -280.059721
v -304.006446 143.091823 -290.343695
v -305.895351 140.578993 -282.699680
v -311.178490 143.100590 -276.983815
v -307.988423 140.482602 -295.496033
v -312.824910 135.807278 -286.592396
v -317.795213 140.495754 -278.111573
v -316.407233 161.316545 -280.412455
v -309.515830 161.353546 -293.590122
vt 0.612557 0.525539
vt 0.641254 0.547619
vt 0.645270 0.579162
vt 0.613428 0.570882
vt 0.645270 0.579162
vt 0.649287 0.610706
vt 0.614313 0.629139
vt 0.613428 0.570882
vt 0.584671 0.547619
vt 0.612557 0.525539
vt 0.613428 0.570882
vt 0.581871 0.579162
vt 0.613428 0.570882
vt 0.614313 0.629139
vt 0.579071 0.610706
vt 0.581871 0.579162
vt 0.614313 0.629139
vt 0.649287 0.610706
vt 0.644565 0.837820
vt 0.616380 0.823625
vt 0.649266 0.894598
vt 0.653966 0.951377
vt 0.616933 0.951377
vt 0.616792 0.894598
vt 0.616380 0.823625
vt 0.644565 0.837820
vt 0.649266 0.894598
vt 0.616792 0.894598
vt 0.588712 0.837820
vt 0.616380 0.823625
vt 0.616792 0.894598
vt 0.584306 0.894598
vt 0.616792 0.894598
vt 0.616933 0.951377
vt 0.579899 0.951377
vt 0.584306 0.894598
vt 0.579071 0.610706
vt 0.614313 0.629139
vt 0.616380 0.823625
vt 0.588712 0.837820
vt 0.863914 0.525539
vt 0.900947 0.525539
vt 0.896217 0.582317
vt 0.863655 0.582317
vt 0.896217 0.582317
vt 0.891487 0.639095
vt 0.863195 0.653290
vt 0.863655 0.582317
vt 0.891487 0.639095
vt 0.897606 0.866209
vt 0.861385 0.847776
vt 0.863195 0.653290
vt 0.863195 0.653290
vt 0.861385 0.847776
vt 0.824881 0.866209
vt 0.835326 0.639095
vt 0.826880 0.525539
vt 0.863914 0.525539
vt 0.863655 0.582317
vt 0.831103 0.582317
vt 0.863655 0.582317
vt 0.863195 0.653290
vt 0.835326 0.639095
vt 0.831103 0.582317
vt 0.893546 0.897753
vt 0.889485 0.929297
vt 0.859985 0.951377
vt 0.860661 0.906033
vt 0.861385 0.847776
vt 0.897606 0.866209
vt 0.893546 0.897753
vt 0.860661 0.906033
vt 0.824881 0.866209
vt 0.861385 0.847776
vt 0.860661 0.906033
vt 0.827942 0.897753
vt 0.860661 0.906033
vt 0.859985 0.951377
vt 0.831003 0.929297
vt 0.827942 0.897753
vt 0.738442 0.525539
vt 0.731293 0.547619
vt 0.670910 0.547619
vt 0.667841 0.525539
vt 0.746140 0.547619
vt 0.740652 0.525539
vt 0.811253 0.525539
vt 0.808932 0.547619
vt 0.670910 0.547619
vt 0.731293 0.547619
vt 0.732185 0.579162
vt 0.669614 0.579162
vt 0.732185 0.579162
vt 0.733078 0.610706
vt 0.668318 0.610706
vt 0.669614 0.579162
vt 0.662828 0.837820
vt 0.717980 0.837820
vt 0.715128 0.894598
vt 0.659239 0.894598
vt 0.715128 0.894598
vt 0.712275 0.951377
vt 0.655650 0.951377
vt 0.659239 0.894598
vt 0.668318 0.610706
vt 0.733078 0.610706
vt 0.717980 0.837820
vt 0.662828 0.837820
vt 0.811525 0.610706
vt 0.743852 0.610706
vt 0.744996 0.579162
vt 0.810228 0.579162
vt 0.744996 0.579162
vt 0.746140 0.547619
vt 0.808932 0.547619
vt 0.810228 0.579162
vt 0.759595 0.837820
vt 0.743852 0.610706
vt 0.811525 0.610706
vt 0.815671 0.837820
vt 0.823119 0.951377
vt 0.762829 0.951377
vt 0.761212 0.894598
vt 0.819395 0.894598
vt 0.761212 0.894598
vt 0.759595 0.837820
vt 0.815671 0.837820
vt 0.819395 0.894598
vt 0.535670 0.958350
vt 0.413989 0.967619
vt 0.416083 0.657293
vt 0.479886 0.657298
vt 0.295585 0.958350
vt 0.354105 0.657298
vt 0.414451 0.530005
vt 0.447024 0.532647
vt 0.382755 0.532647
vt 0.412424 0.432226
vt 0.460112 0.529060
vt 0.369125 0.529060
vt 0.275988 0.867249
vt 0.228300 0.964083
vt 0.229396 0.866304
vt 0.261928 0.863663
vt 0.185001 0.867249
vt 0.198004 0.863663
vt 0.231959 0.739017
vt 0.295078 0.739012
vt 0.169719 0.739012
vt 0.226386 0.428690
vt 0.347917 0.437960
vt 0.109118 0.437960
vt 0.147550 0.349610
vt 0.100097 0.228079
vt 0.263255 0.228942
vt 0.264990 0.402486
vt 0.145094 0.110811
vt 0.264591 0.061959
vt 0.437329 0.231558
vt 0.383326 0.353240
vt 0.385970 0.113154
vt 0.931436 0.366222
vt 0.918851 0.485719
vt 0.617799 0.436770
vt 0.617764 0.368383
vt 0.918851 0.244842
vt 0.617799 0.300253
vt 0.493148 0.395183
vt 0.489561 0.363194
vt 0.493148 0.330702
vt 0.480408 0.295602
vt 0.467822 0.178163
vt 0.781494 0.165357
vt 0.781459 0.232884
vt 0.480407 0.059826
vt 0.781459 0.112991
vt 0.909697 0.175427
vt 0.906110 0.206865
vt 0.906110 0.143750
vn -0.418604 -0.839288 -0.346939
vn -0.603273 -0.669056 0.434080
vn -0.806869 -0.258520 -0.531158
vn -0.872489 -0.252567 0.418297
vn -0.878125 -0.040385 0.476724
vn -0.899513 -0.078257 -0.429828
vn 0.110805 -0.546685 -0.829974
vn -0.058627 -0.198243 -0.978398
vn -0.241080 -0.049600 -0.969237
vn -0.901398 -0.001997 -0.432986
vn -0.869065 -0.049961 0.492168
vn -0.934478 -0.061408 0.350684
vn -0.962738 -0.032206 0.268513
vn -0.870304 -0.057356 -0.489164
vn -0.866152 -0.134168 -0.481436
vn -0.293063 0.015375 -0.955970
vn -0.224915 -0.134314 -0.965077
vn -0.188614 -0.294110 -0.936976
vn 0.199640 0.043425 0.978907
vn 0.246765 -0.004490 0.969065
vn 0.890763 0.013067 0.454280
vn 0.890084 0.043567 0.453709
vn 0.264237 0.006776 0.964434
vn 0.869586 0.075582 0.487962
vn 0.182357 0.031971 0.982713
vn 0.852168 0.071041 0.518423
vn 0.902734 0.062556 -0.425628
vn 0.891203 0.061573 -0.449406
vn 0.940819 -0.140331 -0.308492
vn 0.919948 -0.051521 -0.388640
vn 0.023723 -0.662049 0.749085
vn 0.461144 -0.841617 0.281117
vn 0.094403 -0.241923 0.965692
vn 0.823430 -0.253956 0.507415
vn 0.871817 -0.197033 -0.448457
vn 0.635352 -0.650104 -0.416765
vn -0.803950 -0.384409 -0.453755
vn -0.854282 0.160762 -0.494326
vn -0.334353 -0.210414 -0.918659
vn -0.326084 0.183893 -0.927282
vn -0.965152 -0.197693 0.171461
vn -0.966018 0.178264 0.187165
vn -0.293815 0.336684 -0.894604
vn -0.787326 0.412213 -0.458475
vn -0.921980 0.328210 0.205504
vn 0.440351 0.465318 -0.767834
vn 0.070874 0.997481 -0.002925
vn -0.420481 0.487754 0.765044
vn 0.805553 0.417835 0.420116
vn 0.922466 0.350111 -0.162721
vn 0.365121 0.375227 0.851993
vn 0.961220 0.203367 -0.186271
vn 0.867772 0.174574 0.465292
vn 0.371383 0.195332 0.907700
vn 0.963348 -0.202524 -0.175909
vn 0.816000 -0.371584 0.442797
vn 0.363293 -0.196495 0.910718
vn 0.008251 -0.999939 0.007323
vn 0.449763 -0.448799 -0.772200
vn -0.453730 -0.438803 0.775616
vn -0.490120 0.197828 0.848909
vn 0.461983 0.204892 -0.862897
f 6/1/1 22/2/2 25/4/3
f 25/4/3 22/2/2 35/3/4
f 23/6/5 10/7/6 35/5/4
f 35/5/4 10/7/6 25/8/3
f 6/10/1 25/11/3 1/9/7
f 1/9/7 25/11/3 26/12/8
f 25/13/3 10/14/6 26/16/8
f 26/16/8 10/14/6 11/15/9
f 10/17/6 23/18/5 27/20/10
f 27/20/10 23/18/5 12/19/11
f 36/21/12 24/22/13 28/24/14
f 28/24/14 24/22/13 13/23/15
f 12/26/11 36/27/12 27/25/10
f 27/25/10 36/27/12 28/28/14
f 27/30/10 28/31/14 8/29/16
f 8/29/16 28/31/14 29/32/17
f 28/33/14 13/34/15 29/36/17
f 29/36/17 13/34/15 14/35/18
f 10/38/6 27/39/10 11/37/9
f 11/37/9 27/39/10 8/40/16
f 3/42/19 15/43/20 7/41/21
f 7/41/21 15/43/20 30/44/22
f 15/45/20 9/46/23 30/48/22
f 30/48/22 9/46/23 31/47/24
f 9/49/23 4/50/25 31/52/24
f 31/52/24 4/50/25 16/51/26
f 16/54/26 17/55/27 31/53/24
f 31/53/24 17/55/27 18/56/28
f 2/57/29 7/58/21 32/60/30
f 32/60/30 7/58/21 30/59/22
f 31/62/24 18/63/28 30/61/22
f 30/61/22 18/63/28 32/64/30
f 5/66/31 20/67/32 19/65/33
f 19/65/33 20/67/32 33/68/34
f 4/70/25 19/71/33 16/69/26
f 16/69/26 19/71/33 33/72/34
f 17/73/27 16/74/26 34/76/35
f 34/76/35 16/74/26 33/75/34
f 33/77/34 20/78/32 34/80/35
f 34/80/35 20/78/32 21/79/36
f 20/81/32 5/82/31 6/84/1
f 6/84/1 5/82/31 22/83/2
f 21/85/36 20/86/32 1/88/7
f 1/88/7 20/86/32 6/87/1
f 5/90/31 19/91/33 22/89/2
f 22/89/2 19/91/33 35/92/4
f 19/93/33 4/94/25 35/96/4
f 35/96/4 4/94/25 23/95/5
f 9/98/23 15/99/20 12/97/11
f 12/97/11 15/99/20 36/100/12
f 15/101/20 3/102/19 36/104/12
f 36/104/12 3/102/19 24/103/13
f 4/106/25 9/107/23 23/105/5
f 23/105/5 9/107/23 12/108/11
f 11/109/9 17/110/27 26/112/8
f 26/112/8 17/110/27 34/111/35
f 34/113/35 21/114/36 26/116/8
f 26/116/8 21/114/36 1/115/7
f 17/118/27 11/119/9 18/117/28
f 18/117/28 11/119/9 8/120/16
f 14/121/18 2/122/29 29/124/17
f 29/124/17 2/122/29 32/123/30
f 32/125/30 18/126/28 29/128/17
f 29/128/17 18/126/28 8/127/16
f 38/130/37 41/131/38 37/129/39
f 37/129/39 41/131/38 40/132/40
f 38/130/37 39/133/41 41/131/38
f 41/131/38 39/133/41 42/134/42
f 40/132/40 41/131/38 43/136/43
f 43/136/43 41/131/38 44/135/44
f 42/134/42 45/137/45 41/131/38
f 41/131/38 45/137/45 44/135/44
f 43/136/43 44/135/44 46/139/46
f 46/139/46 44/135/44 47/138/47
f 45/137/45 48/140/48 44/135/44
f 44/135/44 48/140/48 47/138/47
f 47/142/47 50/143/49 46/141/46
f 46/141/46 50/143/49 49/144/50
f 47/142/47 48/145/48 50/143/49
f 50/143/49 48/145/48 51/146/51
f 49/144/50 50/143/49 52/148/52
f 52/148/52 50/143/49 53/147/53
f 51/146/51 54/149/54 50/143/49
f 50/143/49 54/149/54 53/147/53
f 52/148/52 53/147/53 55/151/55
f 55/151/55 53/147/53 56/150/56
f 54/149/54 57/152/57 53/147/53
f 53/147/53 57/152/57 56/150/56
f 56/154/56 59/155/58 55/153/55
f 55/153/55 59/155/58 58/156/59
f 56/154/56 57/157/57 59/155/58
f 59/155/58 57/157/57 60/158/60
f 58/156/59 59/155/58 37/160/39
f 37/160/39 59/155/58 38/159/37
f 60/158/60 39/161/41 59/155/58
f 59/155/58 39/161/41 38/159/37
f 60/162/60 57/163/57 61/165/61
f 61/165/61 57/163/57 54/164/54
f 60/162/60 61/165/61 39/166/41
f 39/166/41 61/165/61 42/167/42
f 61/165/61 54/164/54 48/169/48
f 48/169/48 54/164/54 51/168/51
f 42/167/42 61/165/61 45/170/45
f 45/170/45 61/165/61 48/169/48
f 58/172/59 62/173/62 55/171/55
f 55/171/55 62/173/62 52/174/52
f 58/172/59 37/175/39 62/173/62
f 62/173/62 37/175/39 40/176/40
f 62/173/62 46/177/46 52/174/52
f 52/174/52 46/177/46 49/178/50
f 40/176/40 43/179/43 62/173/62
f 62/173/62 43/179/43 46/177/46
