# This file uses centimeters as units for non-parametric coordinates.

v 313.281699 149.532422 70.391734
v 312.871352 162.151888 70.968789
v 311.754995 162.134655 68.577059
v 311.316640 152.618797 69.171040
v 311.685663 149.527111 69.359174
v 313.406882 148.991256 69.428776
v 311.981083 162.148556 69.968512
v 314.199582 157.587902 69.582265
v 311.760109 157.557028 69.474765
v 313.952627 152.646235 68.969186
v 314.266649 152.733340 70.006664
v 312.851369 157.506264 67.995552
v 314.078670 162.144912 68.895023
v 314.780849 162.144912 70.281666
v 311.595504 160.198089 68.672139
v 311.388032 152.565065 70.396251
v 312.313558 152.611664 71.188008
v 312.563185 157.550467 70.928540
v 311.347031 150.257586 69.262115
v 311.858795 149.286882 70.262978
v 312.355637 149.507535 70.971836
v 312.708202 149.514720 68.662336
v 312.886391 152.723708 68.288771
v 313.155518 162.141684 67.900769
v 313.742819 149.948631 69.232085
v 313.583497 150.291689 70.412926
v 313.927422 157.474608 68.748667
v 313.927134 160.241980 68.952594
v 313.960955 160.269001 70.154817
v 311.901650 160.302427 70.054729
v 311.702923 157.559735 70.202923
v 312.903328 160.406350 70.633863
v 311.190142 150.143251 70.637159
v 312.104360 150.219891 71.195733
v 312.849276 150.169805 68.368414
v 313.144421 160.167578 67.911913
v 321.561821 164.275942 73.266791
v 320.419468 161.743697 66.067564
v 315.359193 164.297288 61.137044
v 319.107679 182.564062 72.288893
v 318.686768 182.541778 67.089124
v 314.636927 182.567655 63.738110
v 316.199912 194.253123 71.304366
v 315.957749 196.180890 68.443896
v 313.827569 194.375164 66.298758
v 314.291238 196.004649 73.059654
v 312.538150 200.915442 69.959595
v 310.947845 195.958832 67.048070
v 311.720347 194.223862 73.481508
v 309.859312 195.874226 71.456246
v 309.430578 196.573566 68.927983
v 311.162234 185.215536 76.417621
v 306.836771 182.494399 73.093839
v 306.005392 182.540945 68.135435
v 309.962126 164.277504 78.965017
v 304.783274 161.770563 73.909399
v 303.287944 164.286251 66.948625
v 316.680327 161.674398 78.054728
v 312.267172 157.010030 69.999863
v 308.286832 161.687519 62.028837
v 309.342447 182.459515 64.223883
v 316.037874 182.496429 75.926160
vt 0.612557 0.525539
vt 0.641254 0.547619
vt 0.645270 0.579162
vt 0.613428 0.570882
vt 0.645270 0.579162
vt 0.649287 0.610706
vt 0.614313 0.629139
vt 0.613428 0.570882
vt 0.584671 0.547619
vt 0.612557 0.525539
vt 0.613428 0.570882
vt 0.581871 0.579162
vt 0.613428 0.570882
vt 0.614313 0.629139
vt 0.579071 0.610706
vt 0.581871 0.579162
vt 0.614313 0.629139
vt 0.649287 0.610706
vt 0.644565 0.837820
vt 0.616380 0.823625
vt 0.649266 0.894598
vt 0.653966 0.951377
vt 0.616933 0.951377
vt 0.616792 0.894598
vt 0.616380 0.823625
vt 0.644565 0.837820
vt 0.649266 0.894598
vt 0.616792 0.894598
vt 0.588712 0.837820
vt 0.616380 0.823625
vt 0.616792 0.894598
vt 0.584306 0.894598
vt 0.616792 0.894598
vt 0.616933 0.951377
vt 0.579899 0.951377
vt 0.584306 0.894598
vt 0.579071 0.610706
vt 0.614313 0.629139
vt 0.616380 0.823625
vt 0.588712 0.837820
vt 0.863914 0.525539
vt 0.900947 0.525539
vt 0.896217 0.582317
vt 0.863655 0.582317
vt 0.896217 0.582317
vt 0.891487 0.639095
vt 0.863195 0.653290
vt 0.863655 0.582317
vt 0.891487 0.639095
vt 0.897606 0.866209
vt 0.861385 0.847776
vt 0.863195 0.653290
vt 0.863195 0.653290
vt 0.861385 0.847776
vt 0.824881 0.866209
vt 0.835326 0.639095
vt 0.826880 0.525539
vt 0.863914 0.525539
vt 0.863655 0.582317
vt 0.831103 0.582317
vt 0.863655 0.582317
vt 0.863195 0.653290
vt 0.835326 0.639095
vt 0.831103 0.582317
vt 0.893546 0.897753
vt 0.889485 0.929297
vt 0.859985 0.951377
vt 0.860661 0.906033
vt 0.861385 0.847776
vt 0.897606 0.866209
vt 0.893546 0.897753
vt 0.860661 0.906033
vt 0.824881 0.866209
vt 0.861385 0.847776
vt 0.860661 0.906033
vt 0.827942 0.897753
vt 0.860661 0.906033
vt 0.859985 0.951377
vt 0.831003 0.929297
vt 0.827942 0.897753
vt 0.738442 0.525539
vt 0.731293 0.547619
vt 0.670910 0.547619
vt 0.667841 0.525539
vt 0.746140 0.547619
vt 0.740652 0.525539
vt 0.811253 0.525539
vt 0.808932 0.547619
vt 0.670910 0.547619
vt 0.731293 0.547619
vt 0.732185 0.579162
vt 0.669614 0.579162
vt 0.732185 0.579162
vt 0.733078 0.610706
vt 0.668318 0.610706
vt 0.669614 0.579162
vt 0.662828 0.837820
vt 0.717980 0.837820
vt 0.715128 0.894598
vt 0.659239 0.894598
vt 0.715128 0.894598
vt 0.712275 0.951377
vt 0.655650 0.951377
vt 0.659239 0.894598
vt 0.668318 0.610706
vt 0.733078 0.610706
vt 0.717980 0.837820
vt 0.662828 0.837820
vt 0.811525 0.610706
vt 0.743852 0.610706
vt 0.744996 0.579162
vt 0.810228 0.579162
vt 0.744996 0.579162
vt 0.746140 0.547619
vt 0.808932 0.547619
vt 0.810228 0.579162
vt 0.759595 0.837820
vt 0.743852 0.610706
vt 0.811525 0.610706
vt 0.815671 0.837820
vt 0.823119 0.951377
vt 0.762829 0.951377
vt 0.761212 0.894598
vt 0.819395 0.894598
vt 0.761212 0.894598
vt 0.759595 0.837820
vt 0.815671 0.837820
vt 0.819395 0.894598
vt 0.535670 0.958350
vt 0.413989 0.967619
vt 0.416083 0.657293
vt 0.479886 0.657298
vt 0.295585 0.958350
vt 0.354105 0.657298
vt 0.414451 0.530005
vt 0.447024 0.532647
vt 0.382755 0.532647
vt 0.412424 0.432226
vt 0.460112 0.529060
vt 0.369125 0.529060
vt 0.275988 0.867249
vt 0.228300 0.964083
vt 0.229396 0.866304
vt 0.261928 0.863663
vt 0.185001 0.867249
vt 0.198004 0.863663
vt 0.231959 0.739017
vt 0.295078 0.739012
vt 0.169719 0.739012
vt 0.226386 0.428690
vt 0.347917 0.437960
vt 0.109118 0.437960
vt 0.147550 0.349610
vt 0.100097 0.228079
vt 0.263255 0.228942
vt 0.264990 0.402486
vt 0.145094 0.110811
vt 0.264591 0.061959
vt 0.437329 0.231558
vt 0.383326 0.353240
vt 0.385970 0.113154
vt 0.931436 0.366222
vt 0.918851 0.485719
vt 0.617799 0.436770
vt 0.617764 0.368383
vt 0.918851 0.244842
vt 0.617799 0.300253
vt 0.493148 0.395183
vt 0.489561 0.363194
vt 0.493148 0.330702
vt 0.480408 0.295602
vt 0.467822 0.178163
vt 0.781494 0.165357
vt 0.781459 0.232884
vt 0.480407 0.059826
vt 0.781459 0.112991
vt 0.909697 0.175427
vt 0.906110 0.206865
vt 0.906110 0.143750
vn 0.502290 -0.853094 -0.141190
vn -0.079704 -0.642053 -0.762505
vn 0.885044 -0.273888 -0.376407
vn 0.055544 -0.240909 -0.968957
vn 0.010548 -0.038146 -0.999217
vn 0.843297 -0.083209 -0.530967
vn 0.619299 -0.517699 0.590302
vn 0.817878 -0.188358 0.543689
vn 0.915613 -0.048332 0.399146
vn 0.847497 -0.002125 -0.530795
vn -0.005922 -0.047084 -0.998873
vn 0.139899 -0.059153 -0.988397
vn 0.223158 -0.031438 -0.974275
vn 0.883355 -0.061061 -0.464710
vn 0.873374 -0.142691 -0.465680
vn 0.936504 0.015108 0.350330
vn 0.902985 -0.130634 0.409332
vn 0.860876 -0.285363 0.421261
vn -0.898506 0.042036 -0.436943
vn -0.918844 -0.004379 -0.394598
vn -0.861872 0.013907 0.506934
vn -0.860910 0.046364 0.506640
vn -0.925718 0.006627 -0.378158
vn -0.881757 0.080451 0.464792
vn -0.891266 0.030864 -0.452429
vn -0.900511 0.075613 0.428208
vn -0.063167 0.059550 0.996225
vn -0.038542 0.058402 0.997549
vn -0.178624 -0.136109 0.974458
vn -0.101509 -0.049329 0.993611
vn -0.628082 -0.640714 -0.441586
vn -0.466415 -0.856468 0.221177
vn -0.828632 -0.231225 -0.509809
vn -0.872505 -0.269221 0.407744
vn -0.030598 -0.187018 0.981880
vn 0.050997 -0.624591 0.779286
vn 0.809929 -0.405342 -0.423926
vn 0.878622 0.170891 -0.445892
vn 0.932565 -0.208554 0.294667
vn 0.934286 0.181944 0.306603
vn 0.309722 -0.196009 -0.930405
vn 0.296143 0.176310 -0.938730
vn 0.889745 0.332422 0.312809
vn 0.804675 0.434031 -0.405111
vn 0.259204 0.323599 -0.909998
vn 0.411745 0.430962 0.802956
vn -0.031170 0.997542 0.062762
vn -0.419115 0.452638 -0.787059
vn -0.778973 0.439707 0.447055
vn -0.297270 0.347445 0.889333
vn -0.898420 0.375094 -0.228355
vn -0.294671 0.201159 0.934186
vn -0.858757 0.185487 0.477631
vn -0.946378 0.194764 -0.257753
vn -0.304900 -0.200655 0.931007
vn -0.806570 -0.392034 0.442441
vn -0.943840 -0.195660 -0.266240
vn -0.010153 -0.999946 0.002430
vn 0.410487 -0.415095 0.811909
vn -0.411105 -0.405526 -0.816420
vn -0.446647 0.180341 -0.876347
vn 0.469858 0.186850 0.862740
f 6/1/1 22/2/2 25/4/3
f 25/4/3 22/2/2 35/3/4
f 23/6/5 10/7/6 35/5/4
f 35/5/4 10/7/6 25/8/3
f 6/10/1 25/11/3 1/9/7
f 1/9/7 25/11/3 26/12/8
f 25/13/3 10/14/6 26/16/8
f 26/16/8 10/14/6 11/15/9
f 10/17/6 23/18/5 27/20/10
f 27/20/10 23/18/5 12/19/11
f 36/21/12 24/22/13 28/24/14
f 28/24/14 24/22/13 13/23/15
f 12/26/11 36/27/12 27/25/10
f 27/25/10 36/27/12 28/28/14
f 27/30/10 28/31/14 8/29/16
f 8/29/16 28/31/14 29/32/17
f 28/33/14 13/34/15 29/36/17
f 29/36/17 13/34/15 14/35/18
f 10/38/6 27/39/10 11/37/9
f 11/37/9 27/39/10 8/40/16
f 3/42/19 15/43/20 7/41/21
f 7/41/21 15/43/20 30/44/22
f 15/45/20 9/46/23 30/48/22
f 30/48/22 9/46/23 31/47/24
f 9/49/23 4/50/25 31/52/24
f 31/52/24 4/50/25 16/51/26
f 16/54/26 17/55/27 31/53/24
f 31/53/24 17/55/27 18/56/28
f 2/57/29 7/58/21 32/60/30
f 32/60/30 7/58/21 30/59/22
f 31/62/24 18/63/28 30/61/22
f 30/61/22 18/63/28 32/64/30
f 5/66/31 20/67/32 19/65/33
f 19/65/33 20/67/32 33/68/34
f 4/70/25 19/71/33 16/69/26
f 16/69/26 19/71/33 33/72/34
f 17/73/27 16/74/26 34/76/35
f 34/76/35 16/74/26 33/75/34
f 33/77/34 20/78/32 34/80/35
f 34/80/35 20/78/32 21/79/36
f 20/81/32 5/82/31 6/84/1
f 6/84/1 5/82/31 22/83/2
f 21/85/36 20/86/32 1/88/7
f 1/88/7 20/86/32 6/87/1
f 5/90/31 19/91/33 22/89/2
f 22/89/2 19/91/33 35/92/4
f 19/93/33 4/94/25 35/96/4
f 35/96/4 4/94/25 23/95/5
f 9/98/23 15/99/20 12/97/11
f 12/97/11 15/99/20 36/100/12
f 15/101/20 3/102/19 36/104/12
f 36/104/12 3/102/19 24/103/13
f 4/106/25 9/107/23 23/105/5
f 23/105/5 9/107/23 12/108/11
f 11/109/9 17/110/27 26/112/8
f 26/112/8 17/110/27 34/111/35
f 34/113/35 21/114/36 26/116/8
f 26/116/8 21/114/36 1/115/7
f 17/118/27 11/119/9 18/117/28
f 18/117/28 11/119/9 8/120/16
f 14/121/18 2/122/29 29/124/17
f 29/124/17 2/122/29 32/123/30
f 32/125/30 18/126/28 29/128/17
f 29/128/17 18/126/28 8/127/16
f 38/130/37 41/131/38 37/129/39
f 37/129/39 41/131/38 40/132/40
f 38/130/37 39/133/41 41/131/38
f 41/131/38 39/133/41 42/134/42
f 40/132/40 41/131/38 43/136/43
f 43/136/43 41/131/38 44/135/44
f 42/134/42 45/137/45 41/131/38
f 41/131/38 45/137/45 44/135/44
f 43/136/43 44/135/44 46/139/46
f 46/139/46 44/135/44 47/138/47
f 45/137/45 48/140/48 44/135/44
f 44/135/44 48/140/48 47/138/47
f 47/142/47 50/143/49 46/141/46
f 46/141/46 50/143/49 49/144/50
f 47/142/47 48/145/48 50/143/49
f 50/143/49 48/145/48 51/146/51
f 49/144/50 50/143/49 52/148/52
f 52/148/52 50/143/49 53/147/53
f 51/146/51 54/149/54 50/143/49
f 50/143/49 54/149/54 53/147/53
f 52/148/52 53/147/53 55/151/55
f 55/151/55 53/147/53 56/150/56
f 54/149/54 57/152/57 53/147/53
f 53/147/53 57/152/57 56/150/56
f 56/154/56 59/155/58 55/153/55
f 55/153/55 59/155/58 58/156/59
f 56/154/56 57/157/57 59/155/58
f 59/155/58 57/157/57 60/158/60
f 58/156/59 59/155/58 37/160/39
f 37/160/39 59/155/58 38/159/37
f 60/158/60 39/161/41 59/155/58
f 59/155/58 39/161/41 38/159/37
f 60/162/60 57/163/57 61/165/61
f 61/165/61 57/163/57 54/164/54
f 60/162/60 61/165/61 39/166/41
f 39/166/41 61/165/61 42/167/42
f 61/165/61 54/164/54 48/169/48
f 48/169/48 54/164/54 51/168/51
f 42/167/42 61/165/61 45/170/45
f 45/170/45 61/165/61 48/169/48
f 58/172/59 62/173/62 55/171/55
f 55/171/55 62/173/62 52/174/52
f 58/172/59 37/175/39 62/173/62
f 62/173/62 37/175/39 40/176/40
f 62/173/62 46/177/46 52/174/52
f 52/174/52 46/177/46 49/178/50
f 40/176/40 43/179/43 62/173/62
f 62/173/62 43/179/43 46/177/46
