# This file uses centimeters as units for non-parametric coordinates.

v 430.504206 89.730161 -31.298829
v 429.687660 106.347943 -30.942757
v 430.084081 106.325250 -34.323471
v 429.226646 93.794414 -33.967748
v 429.493725 89.723168 -33.511675
v 431.273307 89.017534 -32.271406
v 429.404399 106.343555 -32.642929
v 432.012641 100.337917 -31.566886
v 429.496300 100.297260 -33.334431
v 432.155844 93.830546 -32.406969
v 431.803331 93.945249 -31.055594
v 431.631195 100.230413 -34.220555
v 432.338536 106.338756 -32.403162
v 432.166983 106.338756 -30.405981
v 429.852099 103.775107 -34.326931
v 428.492738 93.723659 -32.574330
v 428.951185 93.785021 -31.079247
v 429.387409 100.288621 -31.195319
v 429.198697 90.685085 -33.847209
v 429.080117 89.406826 -32.402328
v 429.138664 89.697389 -31.288128
v 431.038736 89.706850 -33.585304
v 431.474580 93.932566 -33.874952
v 432.016421 106.334505 -34.118963
v 431.759586 90.278241 -32.260203
v 430.810302 90.729993 -31.071494
v 432.274827 100.188727 -32.666112
v 432.139764 103.832905 -32.442420
v 431.381208 103.868488 -31.099637
v 429.263177 103.912504 -32.601987
v 428.954476 100.300825 -32.573658
v 429.942893 104.049353 -31.288849
v 428.123662 90.534524 -32.443643
v 428.724197 90.635446 -31.212215
v 431.382588 90.569490 -33.812612
v 431.997284 103.734930 -34.114226
v 437.386514 109.144975 -22.543486
v 440.932179 105.810422 -31.219886
v 438.823204 109.173086 -40.054715
v 435.429768 133.227452 -25.276553
v 438.419375 133.198107 -31.269939
v 436.338348 133.232183 -37.687404
v 432.996281 148.620041 -28.323627
v 434.629646 151.158597 -31.627858
v 433.787828 148.780749 -35.423372
v 429.811981 150.926516 -27.687114
v 430.001135 157.393230 -32.276042
v 430.238362 150.866182 -36.547913
v 426.806454 148.581510 -28.962350
v 426.170888 150.754770 -32.444261
v 427.386846 151.675687 -35.509914
v 424.274305 136.719011 -26.116199
v 421.882957 133.135717 -32.690139
v 424.277709 133.197010 -38.696091
v 421.318100 109.147032 -24.130921
v 419.166028 105.845800 -33.183275
v 422.179747 109.158551 -41.836549
v 429.045152 105.719167 -20.587618
v 429.687122 99.576954 -32.415066
v 430.732738 105.736444 -43.857800
v 430.401861 133.089780 -40.734103
v 429.770319 133.138390 -23.358963
vt 0.612557 0.525539
vt 0.641254 0.547619
vt 0.645270 0.579162
vt 0.613428 0.570882
vt 0.645270 0.579162
vt 0.649287 0.610706
vt 0.614313 0.629139
vt 0.613428 0.570882
vt 0.584671 0.547619
vt 0.612557 0.525539
vt 0.613428 0.570882
vt 0.581871 0.579162
vt 0.613428 0.570882
vt 0.614313 0.629139
vt 0.579071 0.610706
vt 0.581871 0.579162
vt 0.614313 0.629139
vt 0.649287 0.610706
vt 0.644565 0.837820
vt 0.616380 0.823625
vt 0.649266 0.894598
vt 0.653966 0.951377
vt 0.616933 0.951377
vt 0.616792 0.894598
vt 0.616380 0.823625
vt 0.644565 0.837820
vt 0.649266 0.894598
vt 0.616792 0.894598
vt 0.588712 0.837820
vt 0.616380 0.823625
vt 0.616792 0.894598
vt 0.584306 0.894598
vt 0.616792 0.894598
vt 0.616933 0.951377
vt 0.579899 0.951377
vt 0.584306 0.894598
vt 0.579071 0.610706
vt 0.614313 0.629139
vt 0.616380 0.823625
vt 0.588712 0.837820
vt 0.863914 0.525539
vt 0.900947 0.525539
vt 0.896217 0.582317
vt 0.863655 0.582317
vt 0.896217 0.582317
vt 0.891487 0.639095
vt 0.863195 0.653290
vt 0.863655 0.582317
vt 0.891487 0.639095
vt 0.897606 0.866209
vt 0.861385 0.847776
vt 0.863195 0.653290
vt 0.863195 0.653290
vt 0.861385 0.847776
vt 0.824881 0.866209
vt 0.835326 0.639095
vt 0.826880 0.525539
vt 0.863914 0.525539
vt 0.863655 0.582317
vt 0.831103 0.582317
vt 0.863655 0.582317
vt 0.863195 0.653290
vt 0.835326 0.639095
vt 0.831103 0.582317
vt 0.893546 0.897753
vt 0.889485 0.929297
vt 0.859985 0.951377
vt 0.860661 0.906033
vt 0.861385 0.847776
vt 0.897606 0.866209
vt 0.893546 0.897753
vt 0.860661 0.906033
vt 0.824881 0.866209
vt 0.861385 0.847776
vt 0.860661 0.906033
vt 0.827942 0.897753
vt 0.860661 0.906033
vt 0.859985 0.951377
vt 0.831003 0.929297
vt 0.827942 0.897753
vt 0.738442 0.525539
vt 0.731293 0.547619
vt 0.670910 0.547619
vt 0.667841 0.525539
vt 0.746140 0.547619
vt 0.740652 0.525539
vt 0.811253 0.525539
vt 0.808932 0.547619
vt 0.670910 0.547619
vt 0.731293 0.547619
vt 0.732185 0.579162
vt 0.669614 0.579162
vt 0.732185 0.579162
vt 0.733078 0.610706
vt 0.668318 0.610706
vt 0.669614 0.579162
vt 0.662828 0.837820
vt 0.717980 0.837820
vt 0.715128 0.894598
vt 0.659239 0.894598
vt 0.715128 0.894598
vt 0.712275 0.951377
vt 0.655650 0.951377
vt 0.659239 0.894598
vt 0.668318 0.610706
vt 0.733078 0.610706
vt 0.717980 0.837820
vt 0.662828 0.837820
vt 0.811525 0.610706
vt 0.743852 0.610706
vt 0.744996 0.579162
vt 0.810228 0.579162
vt 0.744996 0.579162
vt 0.746140 0.547619
vt 0.808932 0.547619
vt 0.810228 0.579162
vt 0.759595 0.837820
vt 0.743852 0.610706
vt 0.811525 0.610706
vt 0.815671 0.837820
vt 0.823119 0.951377
vt 0.762829 0.951377
vt 0.761212 0.894598
vt 0.819395 0.894598
vt 0.761212 0.894598
vt 0.759595 0.837820
vt 0.815671 0.837820
vt 0.819395 0.894598
vt 0.535670 0.958350
vt 0.413989 0.967619
vt 0.416083 0.657293
vt 0.479886 0.657298
vt 0.295585 0.958350
vt 0.354105 0.657298
vt 0.414451 0.530005
vt 0.447024 0.532647
vt 0.382755 0.532647
vt 0.412424 0.432226
vt 0.460112 0.529060
vt 0.369125 0.529060
vt 0.275988 0.867249
vt 0.228300 0.964083
vt 0.229396 0.866304
vt 0.261928 0.863663
vt 0.185001 0.867249
vt 0.198004 0.863663
vt 0.231959 0.739017
vt 0.295078 0.739012
vt 0.169719 0.739012
vt 0.226386 0.428690
vt 0.347917 0.437960
vt 0.109118 0.437960
vt 0.147550 0.349610
vt 0.100097 0.228079
vt 0.263255 0.228942
vt 0.264990 0.402486
vt 0.145094 0.110811
vt 0.264591 0.061959
vt 0.437329 0.231558
vt 0.383326 0.353240
vt 0.385970 0.113154
vt 0.931436 0.366222
vt 0.918851 0.485719
vt 0.617799 0.436770
vt 0.617764 0.368383
vt 0.918851 0.244842
vt 0.617799 0.300253
vt 0.493148 0.395183
vt 0.489561 0.363194
vt 0.493148 0.330702
vt 0.480408 0.295602
vt 0.467822 0.178163
vt 0.781494 0.165357
vt 0.781459 0.232884
vt 0.480407 0.059826
vt 0.781459 0.112991
vt 0.909697 0.175427
vt 0.906110 0.206865
vt 0.906110 0.143750
vn 0.521089 -0.840795 0.146731
vn 0.344684 -0.632560 -0.693585
vn 0.954500 -0.260871 0.144484
vn 0.569416 -0.234372 -0.787931
vn 0.546227 -0.037099 -0.836815
vn 0.996865 -0.078992 -0.004582
vn 0.225377 -0.508475 0.831059
vn 0.421587 -0.183223 0.888084
vn 0.581014 -0.046727 0.812551
vn 0.999995 -0.002016 -0.002286
vn 0.531912 -0.045812 -0.845559
vn 0.650909 -0.057319 -0.756989
vn 0.713816 -0.030382 -0.699674
vn 0.995831 -0.057944 0.070449
vn 0.988667 -0.135519 0.064590
vn 0.624128 0.014581 0.781186
vn 0.565143 -0.126413 0.815250
vn 0.523733 -0.276952 0.805606
vn -0.546675 0.040692 -0.836355
vn -0.586102 -0.004233 -0.810226
vn -0.999608 0.013196 -0.024706
vn -0.998732 0.043998 -0.024457
vn -0.600509 0.006402 -0.799592
vn -0.994650 0.076354 -0.069573
vn -0.532368 0.029892 -0.845985
vn -0.991417 0.071762 -0.109280
vn -0.589717 0.057835 0.805537
vn -0.569358 0.056758 0.820128
vn -0.676598 -0.131790 0.724463
vn -0.621018 -0.047854 0.782334
vn -0.314254 -0.630137 -0.710050
vn -0.532910 -0.844092 -0.059299
vn -0.448990 -0.224824 -0.864790
vn -0.960053 -0.256366 -0.112136
vn -0.554613 -0.181951 0.811972
vn -0.378779 -0.614679 0.691879
vn 0.919325 -0.387769 0.066905
vn 0.983181 0.162372 0.083609
vn 0.650342 -0.201257 0.732497
vn 0.645446 0.175572 0.743353
vn 0.764149 -0.189103 -0.616698
vn 0.757001 0.170136 -0.630875
vn 0.605602 0.321860 0.727773
vn 0.905976 0.415722 0.079892
vn 0.712132 0.313338 -0.628241
vn -0.073027 0.423682 0.902862
vn -0.062638 0.997329 0.037561
vn 0.057912 0.445164 -0.893574
vn -0.906369 0.421289 -0.031782
vn -0.733624 0.336188 0.590570
vn -0.657413 0.362673 -0.660512
vn -0.753556 0.194179 0.628051
vn -0.983201 0.176292 -0.047289
vn -0.681017 0.187682 -0.707808
vn -0.760459 -0.193627 0.619847
vn -0.925750 -0.374843 -0.049792
vn -0.674496 -0.188600 -0.713782
vn -0.010452 -0.999940 -0.003377
vn -0.078979 -0.407970 0.909573
vn 0.080870 -0.398501 -0.913596
vn 0.081854 0.176738 -0.980848
vn -0.054076 0.183123 0.981602
f 6/1/1 22/2/2 25/4/3
f 25/4/3 22/2/2 35/3/4
f 23/6/5 10/7/6 35/5/4
f 35/5/4 10/7/6 25/8/3
f 6/10/1 25/11/3 1/9/7
f 1/9/7 25/11/3 26/12/8
f 25/13/3 10/14/6 26/16/8
f 26/16/8 10/14/6 11/15/9
f 10/17/6 23/18/5 27/20/10
f 27/20/10 23/18/5 12/19/11
f 36/21/12 24/22/13 28/24/14
f 28/24/14 24/22/13 13/23/15
f 12/26/11 36/27/12 27/25/10
f 27/25/10 36/27/12 28/28/14
f 27/30/10 28/31/14 8/29/16
f 8/29/16 28/31/14 29/32/17
f 28/33/14 13/34/15 29/36/17
f 29/36/17 13/34/15 14/35/18
f 10/38/6 27/39/10 11/37/9
f 11/37/9 27/39/10 8/40/16
f 3/42/19 15/43/20 7/41/21
f 7/41/21 15/43/20 30/44/22
f 15/45/20 9/46/23 30/48/22
f 30/48/22 9/46/23 31/47/24
f 9/49/23 4/50/25 31/52/24
f 31/52/24 4/50/25 16/51/26
f 16/54/26 17/55/27 31/53/24
f 31/53/24 17/55/27 18/56/28
f 2/57/29 7/58/21 32/60/30
f 32/60/30 7/58/21 30/59/22
f 31/62/24 18/63/28 30/61/22
f 30/61/22 18/63/28 32/64/30
f 5/66/31 20/67/32 19/65/33
f 19/65/33 20/67/32 33/68/34
f 4/70/25 19/71/33 16/69/26
f 16/69/26 19/71/33 33/72/34
f 17/73/27 16/74/26 34/76/35
f 34/76/35 16/74/26 33/75/34
f 33/77/34 20/78/32 34/80/35
f 34/80/35 20/78/32 21/79/36
f 20/81/32 5/82/31 6/84/1
f 6/84/1 5/82/31 22/83/2
f 21/85/36 20/86/32 1/88/7
f 1/88/7 20/86/32 6/87/1
f 5/90/31 19/91/33 22/89/2
f 22/89/2 19/91/33 35/92/4
f 19/93/33 4/94/25 35/96/4
f 35/96/4 4/94/25 23/95/5
f 9/98/23 15/99/20 12/97/11
f 12/97/11 15/99/20 36/100/12
f 15/101/20 3/102/19 36/104/12
f 36/104/12 3/102/19 24/103/13
f 4/106/25 9/107/23 23/105/5
f 23/105/5 9/107/23 12/108/11
f 11/109/9 17/110/27 26/112/8
f 26/112/8 17/110/27 34/111/35
f 34/113/35 21/114/36 26/116/8
f 26/116/8 21/114/36 1/115/7
f 17/118/27 11/119/9 18/117/28
f 18/117/28 11/119/9 8/120/16
f 14/121/18 2/122/29 29/124/17
f 29/124/17 2/122/29 32/123/30
f 32/125/30 18/126/28 29/128/17
f 29/128/17 18/126/28 8/127/16
f 38/130/37 41/131/38 37/129/39
f 37/129/39 41/131/38 40/132/40
f 38/130/37 39/133/41 41/131/38
f 41/131/38 39/133/41 42/134/42
f 40/132/40 41/131/38 43/136/43
f 43/136/43 41/131/38 44/135/44
f 42/134/42 45/137/45 41/131/38
f 41/131/38 45/137/45 44/135/44
f 43/136/43 44/135/44 46/139/46
f 46/139/46 44/135/44 47/138/47
f 45/137/45 48/140/48 44/135/44
f 44/135/44 48/140/48 47/138/47
f 47/142/47 50/143/49 46/141/46
f 46/141/46 50/143/49 49/144/50
f 47/142/47 48/145/48 50/143/49
f 50/143/49 48/145/48 51/146/51
f 49/144/50 50/143/49 52/148/52
f 52/148/52 50/143/49 53/147/53
f 51/146/51 54/149/54 50/143/49
f 50/143/49 54/149/54 53/147/53
f 52/148/52 53/147/53 55/151/55
f 55/151/55 53/147/53 56/150/56
f 54/149/54 57/152/57 53/147/53
f 53/147/53 57/152/57 56/150/56
f 56/154/56 59/155/58 55/153/55
f 55/153/55 59/155/58 58/156/59
f 56/154/56 57/157/57 59/155/58
f 59/155/58 57/157/57 60/158/60
f 58/156/59 59/155/58 37/160/39
f 37/160/39 59/155/58 38/159/37
f 60/158/60 39/161/41 59/155/58
f 59/155/58 39/161/41 38/159/37
f 60/162/60 57/163/57 61/165/61
f 61/165/61 57/163/57 54/164/54
f 60/162/60 61/165/61 39/166/41
f 39/166/41 61/165/61 42/167/42
f 61/165/61 54/164/54 48/169/48
f 48/169/48 54/164/54 51/168/51
f 42/167/42 61/165/61 45/170/45
f 45/170/45 61/165/61 48/169/48
f 58/172/59 62/173/62 55/171/55
f 55/171/55 62/173/62 52/174/52
f 58/172/59 37/175/39 62/173/62
f 62/173/62 37/175/39 40/176/40
f 62/173/62 46/177/46 52/174/52
f 52/174/52 46/177/46 49/178/50
f 40/176/40 43/179/43 62/173/62
f 62/173/62 43/179/43 46/177/46
