# This file uses centimeters as units for non-parametric coordinates.

v -53.949937 175.616979 -155.436893
v -52.675503 175.623791 -155.992219
v -54.232740 175.617320 -156.085903
v -52.958306 175.624133 -156.641229
v -53.378950 184.527292 -155.711664
v -53.632714 184.529600 -156.344107
v -53.973958 183.661218 -155.423489
v -54.256803 183.675802 -156.072475
v -52.699472 183.650615 -155.978844
v -52.982386 183.688223 -156.627792
v -51.632888 175.610868 -156.556835
v -50.358460 175.635949 -157.111809
v -51.915702 175.634284 -157.205546
v -50.641273 175.659365 -157.760521
v -51.055885 184.526457 -156.614131
v -51.309660 184.551228 -157.246237
v -51.651473 183.651209 -156.347185
v -51.934320 183.688861 -156.995525
v -50.377005 183.658882 -156.902613
v -50.659905 183.719546 -157.550353
v -48.730385 175.679496 -157.655308
v -47.568689 175.637650 -158.131479
v -48.999168 175.664398 -158.310127
v -47.837473 175.622552 -158.786299
v -48.045469 184.561234 -158.107615
v -48.287333 184.547985 -158.744555
v -48.603395 183.719430 -157.836166
v -48.871954 183.718568 -158.491305
v -47.441975 183.660177 -158.311945
v -47.710170 183.682327 -158.967602
v -46.301000 175.671950 -158.623787
v -45.038665 175.667609 -159.206106
v -46.597528 175.656282 -159.266509
v -45.335192 175.651942 -159.848829
v -45.749517 184.574864 -159.058435
v -46.016664 184.561608 -159.685249
v -46.336952 183.714861 -158.743353
v -46.633543 183.713434 -159.386287
v -45.074539 183.693108 -159.325413
v -45.371233 183.714701 -159.968689
v -54.564446 181.482978 -155.973498
v -44.630881 181.536079 -160.301982
v -54.568917 182.980324 -155.971003
v -44.635352 183.033424 -160.299487
v -54.802665 182.980606 -156.507435
v -44.869100 183.033706 -160.835919
v -54.798194 181.483260 -156.509930
v -44.864629 181.536361 -160.838414
v -54.657742 176.010266 -155.934843
v -44.724177 176.063366 -160.263327
v -54.661251 177.185294 -155.932885
v -44.727686 177.238394 -160.261369
v -54.894998 177.185576 -156.469317
v -44.961433 177.238676 -160.797801
v -54.891490 176.010548 -156.471275
v -44.957925 176.063648 -160.799759
vt 0.780806 0.121878
vt 0.870100 0.121075
vt 0.602661 0.991003
vt 0.602661 0.904550
vt 0.827480 0.081304
vt 0.765231 0.126569
vt 0.765231 0.224231
vt 0.702815 0.224231
vt 0.702815 0.126569
vt 0.535364 0.274985
vt 0.091558 0.009792
vt 0.146297 0.009792
vt 0.146297 0.365468
vt 0.590104 0.313891
vt 0.537435 0.313808
vt 0.025926 0.010552
vt 0.080500 0.010552
vt 0.080500 0.364288
vt 0.538057 0.323620
vt 0.590567 0.360935
vt 0.538057 0.361017
vt 0.602523 0.428417
vt 0.986278 0.428417
vt 0.986278 0.514830
vt 0.869677 0.133872
vt 0.825792 0.173055
vt 0.985644 0.991003
vt 0.984815 0.904550
vt 0.602790 0.514830
vt 0.780423 0.134130
vt 0.091558 0.363825
vt 0.590104 0.276629
vt 0.592631 0.322994
vt 0.025926 0.364914
vt 0.984565 0.809391
vt 0.985394 0.895844
vt 0.602411 0.895844
vt 0.602411 0.809391
vt 0.587993 0.263776
vt 0.535484 0.263859
vt 0.535484 0.226461
vt 0.590058 0.225835
vt 0.762860 0.016513
vt 0.762860 0.114176
vt 0.700444 0.114176
vt 0.700444 0.016513
vt 0.215491 0.364122
vt 0.215491 0.010089
vt 0.270230 0.010089
vt 0.270230 0.365765
vt 0.153597 0.010552
vt 0.208171 0.010552
vt 0.208171 0.364288
vt 0.153597 0.364914
vt 0.601299 0.521252
vt 0.985053 0.521251
vt 0.985053 0.607665
vt 0.601566 0.607665
vt 0.592403 0.178616
vt 0.592403 0.215879
vt 0.539735 0.215795
vt 0.537664 0.176972
vt 0.779958 0.020471
vt 0.869252 0.019669
vt 0.822578 0.060242
vt 0.875480 0.135413
vt 0.875747 0.221828
vt 0.835276 0.179338
vt 0.984074 0.713425
vt 0.984904 0.799877
vt 0.601921 0.799877
vt 0.601921 0.713425
vt 0.589812 0.168948
vt 0.537303 0.169031
vt 0.537303 0.131633
vt 0.591877 0.131007
vt 0.694588 0.125972
vt 0.694588 0.223634
vt 0.632173 0.223634
vt 0.632173 0.125972
vt 0.341945 0.364122
vt 0.341945 0.010089
vt 0.396684 0.010089
vt 0.396684 0.365766
vt 0.279254 0.010816
vt 0.333829 0.010816
vt 0.333829 0.364551
vt 0.279254 0.365177
vt 0.602818 0.332230
vt 0.986573 0.332230
vt 0.986573 0.418643
vt 0.603085 0.418643
vt 0.588543 0.084440
vt 0.588543 0.121703
vt 0.535875 0.121620
vt 0.533804 0.082796
vt 0.779781 0.223944
vt 0.778951 0.137492
vt 0.820858 0.182680
vt 0.781206 0.115549
vt 0.780939 0.029136
vt 0.821410 0.071625
vt 0.984392 0.617480
vt 0.985222 0.703932
vt 0.602239 0.703932
vt 0.602239 0.617480
vt 0.586604 0.072265
vt 0.534094 0.072347
vt 0.534094 0.034950
vt 0.588669 0.034324
vt 0.693824 0.016410
vt 0.693824 0.114072
vt 0.631408 0.114072
vt 0.631408 0.016410
vt 0.469681 0.365273
vt 0.469681 0.011240
vt 0.524420 0.011240
vt 0.524420 0.366917
vt 0.406290 0.012039
vt 0.460865 0.012039
vt 0.460865 0.365774
vt 0.406290 0.366400
vt 0.602832 0.236674
vt 0.986587 0.236674
vt 0.986586 0.323088
vt 0.603099 0.323088
vt 0.977603 0.017476
vt 0.977603 0.054738
vt 0.924935 0.054655
vt 0.922864 0.015832
vt 0.874097 0.225129
vt 0.784803 0.225932
vt 0.831477 0.185359
vt 0.870849 0.024352
vt 0.871116 0.110766
vt 0.830645 0.068277
vt 0.417039 0.989450
vt 0.417039 0.377391
vt 0.500798 0.377391
vt 0.500798 0.989450
vt 0.178993 0.988969
vt 0.178993 0.374277
vt 0.226957 0.374277
vt 0.226957 0.988969
vt 0.509981 0.989259
vt 0.509981 0.377203
vt 0.593740 0.377203
vt 0.593740 0.989260
vt 0.127067 0.989293
vt 0.127067 0.376993
vt 0.171758 0.376993
vt 0.171758 0.989293
vt 0.883070 0.141104
vt 0.883070 0.109216
vt 0.981116 0.109216
vt 0.981116 0.141104
vt 0.883220 0.100277
vt 0.883220 0.068389
vt 0.981266 0.068389
vt 0.981266 0.100277
vt 0.233875 0.989026
vt 0.233875 0.372925
vt 0.317634 0.372926
vt 0.317634 0.989026
vt 0.075098 0.989203
vt 0.075099 0.377503
vt 0.120356 0.377503
vt 0.120356 0.989203
vt 0.325938 0.989266
vt 0.325938 0.373482
vt 0.409697 0.373482
vt 0.409697 0.989266
vt 0.022659 0.989139
vt 0.022659 0.377441
vt 0.067916 0.377441
vt 0.067916 0.989139
vt 0.884713 0.228044
vt 0.884713 0.196156
vt 0.982759 0.196156
vt 0.982759 0.228044
vt 0.883409 0.184526
vt 0.883409 0.152637
vt 0.981455 0.152637
vt 0.981455 0.184526
vn -0.084728 0.033788 0.995831
vn -0.060285 -0.080143 0.994959
vn 0.788380 0.039319 0.613931
vn 0.769912 -0.077105 0.633475
vn -0.305691 0.631337 -0.712717
vn -0.780891 0.033945 -0.623744
vn 0.293560 0.647860 0.702922
vn 0.058699 -0.076260 -0.995359
vn -0.768899 -0.079315 -0.634432
vn 0.071979 0.040431 -0.996586
vn -0.084658 0.009534 0.996364
vn -0.060405 -0.104444 0.992695
vn 0.788259 0.023788 0.614884
vn 0.770307 -0.093102 0.630840
vn -0.306589 0.651848 -0.693612
vn -0.781095 0.049689 -0.622432
vn 0.292755 0.627136 0.721800
vn 0.058567 -0.051948 -0.996931
vn -0.768600 -0.063252 -0.636595
vn 0.072042 0.064714 -0.995300
vn -0.147171 0.059379 0.987327
vn -0.125525 -0.052272 0.990712
vn 0.801708 0.037739 0.596523
vn 0.780822 -0.075025 0.620233
vn -0.264110 0.642556 -0.719282
vn -0.792256 0.033151 -0.609288
vn 0.289716 0.685777 0.667663
vn 0.119874 -0.100593 -0.987680
vn -0.783960 -0.077855 -0.615910
vn 0.135590 0.013150 -0.990678
vn -0.063645 0.050250 0.996707
vn -0.038938 -0.063626 0.997214
vn 0.801333 0.050446 0.596087
vn 0.783082 -0.065639 0.618445
vn -0.321057 0.616920 -0.718562
vn -0.793928 0.022657 -0.607590
vn 0.308066 0.662026 0.683240
vn 0.037729 -0.092777 -0.994972
vn -0.782364 -0.090779 -0.616171
vn 0.050690 0.023936 -0.998428
vn 0.399468 -0.000335 0.916747
vn 0.399468 -0.000335 0.916747
vn 0.399468 -0.000335 0.916747
vn 0.399468 -0.000335 0.916747
vn -0.004300 0.999988 0.002399
vn -0.004300 0.999988 0.002399
vn -0.004300 0.999988 0.002399
vn -0.004300 0.999988 0.002399
vn -0.399468 0.000335 -0.916747
vn -0.399468 0.000335 -0.916747
vn -0.399468 0.000335 -0.916747
vn -0.399468 0.000335 -0.916747
vn 0.004300 -0.999988 -0.002399
vn 0.004300 -0.999988 -0.002399
vn 0.004300 -0.999988 -0.002399
vn 0.004300 -0.999988 -0.002399
vn 0.916742 0.003403 -0.399464
vn 0.916742 0.003403 -0.399464
vn 0.916742 0.003403 -0.399464
vn 0.916742 0.003403 -0.399464
vn -0.916742 -0.003403 0.399464
vn -0.916742 -0.003403 0.399464
vn -0.916742 -0.003403 0.399464
vn -0.916742 -0.003403 0.399464
vn 0.399468 -0.000335 0.916747
vn 0.399468 -0.000335 0.916747
vn 0.399468 -0.000335 0.916747
vn 0.399468 -0.000335 0.916747
vn -0.004300 0.999988 0.002399
vn -0.004300 0.999988 0.002399
vn -0.004300 0.999988 0.002399
vn -0.004300 0.999988 0.002399
vn -0.399468 0.000335 -0.916747
vn -0.399468 0.000335 -0.916747
vn -0.399468 0.000335 -0.916747
vn -0.399468 0.000335 -0.916747
vn 0.004300 -0.999988 -0.002399
vn 0.004300 -0.999988 -0.002399
vn 0.004300 -0.999988 -0.002399
vn 0.004300 -0.999988 -0.002399
vn 0.916742 0.003403 -0.399464
vn 0.916742 0.003403 -0.399464
vn 0.916742 0.003403 -0.399464
vn 0.916742 0.003403 -0.399464
vn -0.916742 -0.003403 0.399464
vn -0.916742 -0.003403 0.399464
vn -0.916742 -0.003403 0.399464
vn -0.916742 -0.003403 0.399464
f 7/27/1 1/3/2 9/28/3
f 9/28/3 1/3/2 2/4/4
f 6/21/5 8/19/6 5/20/7
f 5/20/7 8/19/6 7/33/1
f 2/6/4 1/7/2 4/9/8
f 4/9/8 1/7/2 3/8/9
f 2/11/4 4/12/8 9/31/3
f 9/31/3 4/12/8 10/13/10
f 1/17/2 7/18/1 3/16/9
f 3/16/9 7/18/1 8/34/6
f 10/22/10 4/23/8 8/29/6
f 8/29/6 4/23/8 3/24/9
f 6/14/5 5/15/7 10/32/10
f 10/32/10 5/15/7 9/10/3
f 7/2/1 9/1/3 5/5/7
f 10/30/10 8/25/6 6/26/5
f 17/36/11 11/37/12 19/35/13
f 19/35/13 11/37/12 12/38/14
f 16/40/15 18/41/16 15/39/17
f 15/39/17 18/41/16 17/42/11
f 12/43/14 11/44/12 14/46/18
f 14/46/18 11/44/12 13/45/19
f 12/48/14 14/49/18 19/47/13
f 19/47/13 14/49/18 20/50/20
f 11/52/12 17/53/11 13/51/19
f 13/51/19 17/53/11 18/54/16
f 20/55/20 14/56/18 18/58/16
f 18/58/16 14/56/18 13/57/19
f 16/60/15 15/61/17 20/59/20
f 20/59/20 15/61/17 19/62/13
f 17/63/11 19/64/13 15/65/17
f 20/66/20 18/67/16 16/68/15
f 27/70/21 21/71/22 29/69/23
f 29/69/23 21/71/22 22/72/24
f 26/74/25 28/75/26 25/73/27
f 25/73/27 28/75/26 27/76/21
f 22/77/24 21/78/22 24/80/28
f 24/80/28 21/78/22 23/79/29
f 22/82/24 24/83/28 29/81/23
f 29/81/23 24/83/28 30/84/30
f 21/86/22 27/87/21 23/85/29
f 23/85/29 27/87/21 28/88/26
f 30/89/30 24/90/28 28/92/26
f 28/92/26 24/90/28 23/91/29
f 26/94/25 25/95/27 30/93/30
f 30/93/30 25/95/27 29/96/23
f 27/97/21 29/98/23 25/99/27
f 30/100/30 28/101/26 26/102/25
f 37/104/31 31/105/32 39/103/33
f 39/103/33 31/105/32 32/106/34
f 36/108/35 38/109/36 35/107/37
f 35/107/37 38/109/36 37/110/31
f 32/111/34 31/112/32 34/114/38
f 34/114/38 31/112/32 33/113/39
f 32/116/34 34/117/38 39/115/33
f 39/115/33 34/117/38 40/118/40
f 31/120/32 37/121/31 33/119/39
f 33/119/39 37/121/31 38/122/36
f 40/123/40 34/124/38 38/126/36
f 38/126/36 34/124/38 33/125/39
f 36/128/35 35/129/37 40/127/40
f 40/127/40 35/129/37 39/130/33
f 37/131/31 39/132/33 35/133/37
f 40/134/40 38/135/36 36/136/35
f 41/137/41 42/138/42 43/140/43
f 43/140/43 42/138/42 44/139/44
f 43/141/45 44/142/46 45/144/47
f 45/144/47 44/142/46 46/143/48
f 45/145/49 46/146/50 47/148/51
f 47/148/51 46/146/50 48/147/52
f 47/149/53 48/150/54 41/152/55
f 41/152/55 48/150/54 42/151/56
f 42/153/57 48/154/58 44/156/59
f 44/156/59 48/154/58 46/155/60
f 47/157/61 41/158/62 45/160/63
f 45/160/63 41/158/62 43/159/64
f 49/161/65 50/162/66 51/164/67
f 51/164/67 50/162/66 52/163/68
f 51/165/69 52/166/70 53/168/71
f 53/168/71 52/166/70 54/167/72
f 53/169/73 54/170/74 55/172/75
f 55/172/75 54/170/74 56/171/76
f 55/173/77 56/174/78 49/176/79
f 49/176/79 56/174/78 50/175/80
f 50/177/81 56/178/82 52/180/83
f 52/180/83 56/178/82 54/179/84
f 55/181/85 49/182/86 53/184/87
f 53/184/87 49/182/86 51/183/88
