# This file uses centimeters as units for non-parametric coordinates.

v 82.900482 173.223280 -171.190899
v 84.095579 173.219752 -170.480734
v 83.262110 173.236583 -171.799416
v 84.457207 173.233056 -171.089251
v 83.438695 182.128111 -170.767021
v 83.803832 182.142741 -171.342270
v 82.859040 181.266582 -171.093414
v 83.220594 181.294127 -171.701759
v 84.054227 181.245641 -170.383460
v 84.415662 181.296207 -170.991526
v 85.162861 173.199896 -169.964410
v 86.357632 173.214629 -169.253797
v 85.524193 173.236267 -170.572450
v 86.718964 173.251000 -169.861836
v 85.528052 182.106913 -169.408584
v 85.892863 182.144000 -169.983339
v 84.965308 181.236513 -169.747968
v 85.326290 181.287114 -170.355624
v 86.160506 181.233847 -169.037823
v 86.520923 181.307449 -169.644859
v 87.749603 173.242671 -168.249204
v 88.814704 173.190991 -167.584978
v 88.124166 173.240420 -168.849945
v 89.189267 173.188740 -168.185719
v 88.498524 182.119773 -167.836922
v 88.874293 182.118743 -168.405348
v 87.954052 181.282219 -168.142655
v 88.328977 181.294202 -168.743207
v 89.018710 181.213133 -167.478659
v 89.394221 181.248127 -168.078906
v 89.954653 173.214172 -166.843114
v 91.164618 173.200037 -166.158683
v 90.303194 173.211576 -167.459316
v 91.513159 173.197441 -166.774885
v 90.611263 182.114090 -166.528529
v 90.964046 182.113269 -167.111563
v 90.014177 181.258152 -166.832979
v 90.362824 181.269799 -167.449163
v 91.224013 181.226602 -166.148570
v 91.572830 181.261272 -166.764725
v 82.965077 179.104581 -171.923405
v 92.280255 179.077087 -166.388030
v 82.957363 180.601752 -171.905259
v 92.272541 180.574258 -166.369884
v 83.256263 180.612748 -172.408223
v 92.571441 180.585254 -166.872847
v 83.263977 179.115577 -172.426369
v 92.579155 179.088082 -166.890993
v 82.890458 173.633395 -172.050813
v 92.205635 173.605901 -166.515438
v 82.884404 174.808286 -172.036573
v 92.199582 174.780792 -166.501198
v 83.183304 174.819282 -172.539537
v 92.498481 174.791788 -167.004161
v 83.189357 173.644391 -172.553777
v 92.504535 173.616897 -167.018401
vt 0.780806 0.121878
vt 0.870100 0.121075
vt 0.602661 0.991003
vt 0.602661 0.904550
vt 0.827480 0.081304
vt 0.765231 0.126569
vt 0.765231 0.224231
vt 0.702815 0.224231
vt 0.702815 0.126569
vt 0.535364 0.274985
vt 0.091558 0.009792
vt 0.146297 0.009792
vt 0.146297 0.365468
vt 0.590104 0.313891
vt 0.537435 0.313808
vt 0.025926 0.010552
vt 0.080500 0.010552
vt 0.080500 0.364288
vt 0.538057 0.323620
vt 0.590567 0.360935
vt 0.538057 0.361017
vt 0.602523 0.428417
vt 0.986278 0.428417
vt 0.986278 0.514830
vt 0.869677 0.133872
vt 0.825792 0.173055
vt 0.985644 0.991003
vt 0.984815 0.904550
vt 0.602790 0.514830
vt 0.780423 0.134130
vt 0.091558 0.363825
vt 0.590104 0.276629
vt 0.592631 0.322994
vt 0.025926 0.364914
vt 0.984565 0.809391
vt 0.985394 0.895844
vt 0.602411 0.895844
vt 0.602411 0.809391
vt 0.587993 0.263776
vt 0.535484 0.263859
vt 0.535484 0.226461
vt 0.590058 0.225835
vt 0.762860 0.016513
vt 0.762860 0.114176
vt 0.700444 0.114176
vt 0.700444 0.016513
vt 0.215491 0.364122
vt 0.215491 0.010089
vt 0.270230 0.010089
vt 0.270230 0.365765
vt 0.153597 0.010552
vt 0.208171 0.010552
vt 0.208171 0.364288
vt 0.153597 0.364914
vt 0.601299 0.521252
vt 0.985053 0.521251
vt 0.985053 0.607665
vt 0.601566 0.607665
vt 0.592403 0.178616
vt 0.592403 0.215879
vt 0.539735 0.215795
vt 0.537664 0.176972
vt 0.779958 0.020471
vt 0.869252 0.019669
vt 0.822578 0.060242
vt 0.875480 0.135413
vt 0.875747 0.221828
vt 0.835276 0.179338
vt 0.984074 0.713425
vt 0.984904 0.799877
vt 0.601921 0.799877
vt 0.601921 0.713425
vt 0.589812 0.168948
vt 0.537303 0.169031
vt 0.537303 0.131633
vt 0.591877 0.131007
vt 0.694588 0.125972
vt 0.694588 0.223634
vt 0.632173 0.223634
vt 0.632173 0.125972
vt 0.341945 0.364122
vt 0.341945 0.010089
vt 0.396684 0.010089
vt 0.396684 0.365766
vt 0.279254 0.010816
vt 0.333829 0.010816
vt 0.333829 0.364551
vt 0.279254 0.365177
vt 0.602818 0.332230
vt 0.986573 0.332230
vt 0.986573 0.418643
vt 0.603085 0.418643
vt 0.588543 0.084440
vt 0.588543 0.121703
vt 0.535875 0.121620
vt 0.533804 0.082796
vt 0.779781 0.223944
vt 0.778951 0.137492
vt 0.820858 0.182680
vt 0.781206 0.115549
vt 0.780939 0.029136
vt 0.821410 0.071625
vt 0.984392 0.617480
vt 0.985222 0.703932
vt 0.602239 0.703932
vt 0.602239 0.617480
vt 0.586604 0.072265
vt 0.534094 0.072347
vt 0.534094 0.034950
vt 0.588669 0.034324
vt 0.693824 0.016410
vt 0.693824 0.114072
vt 0.631408 0.114072
vt 0.631408 0.016410
vt 0.469681 0.365273
vt 0.469681 0.011240
vt 0.524420 0.011240
vt 0.524420 0.366917
vt 0.406290 0.012039
vt 0.460865 0.012039
vt 0.460865 0.365774
vt 0.406290 0.366400
vt 0.602832 0.236674
vt 0.986587 0.236674
vt 0.986586 0.323088
vt 0.603099 0.323088
vt 0.977603 0.017476
vt 0.977603 0.054738
vt 0.924935 0.054655
vt 0.922864 0.015832
vt 0.874097 0.225129
vt 0.784803 0.225932
vt 0.831477 0.185359
vt 0.870849 0.024352
vt 0.871116 0.110766
vt 0.830645 0.068277
vt 0.417039 0.989450
vt 0.417039 0.377391
vt 0.500798 0.377391
vt 0.500798 0.989450
vt 0.178993 0.988969
vt 0.178993 0.374277
vt 0.226957 0.374277
vt 0.226957 0.988969
vt 0.509981 0.989259
vt 0.509981 0.377203
vt 0.593740 0.377203
vt 0.593740 0.989260
vt 0.127067 0.989293
vt 0.127067 0.376993
vt 0.171758 0.376993
vt 0.171758 0.989293
vt 0.883070 0.141104
vt 0.883070 0.109216
vt 0.981116 0.109216
vt 0.981116 0.141104
vt 0.883220 0.100277
vt 0.883220 0.068389
vt 0.981266 0.068389
vt 0.981266 0.100277
vt 0.233875 0.989026
vt 0.233875 0.372925
vt 0.317634 0.372926
vt 0.317634 0.989026
vt 0.075098 0.989203
vt 0.075099 0.377503
vt 0.120356 0.377503
vt 0.120356 0.989203
vt 0.325938 0.989266
vt 0.325938 0.373482
vt 0.409697 0.373482
vt 0.409697 0.989266
vt 0.022659 0.989139
vt 0.022659 0.377441
vt 0.067916 0.377441
vt 0.067916 0.989139
vt 0.884713 0.228044
vt 0.884713 0.196156
vt 0.982759 0.196156
vt 0.982759 0.228044
vt 0.883409 0.184526
vt 0.883409 0.152637
vt 0.981455 0.152637
vt 0.981455 0.184526
vn -0.857809 0.025059 0.513357
vn -0.842866 -0.089115 0.530694
vn -0.037974 0.025682 0.998949
vn -0.064320 -0.090773 0.993792
vn 0.399195 0.642846 -0.653752
vn 0.050117 0.047599 -0.997608
vn -0.399926 0.636402 0.659584
vn 0.842207 -0.067257 -0.534943
vn 0.066090 -0.065643 -0.995652
vn 0.851002 0.049288 -0.522844
vn -0.858209 0.000805 0.513299
vn -0.841105 -0.113408 0.528849
vn -0.038776 0.010149 0.999196
vn -0.061907 -0.106765 0.992355
vn 0.383072 0.663260 -0.642917
vn 0.048890 0.063340 -0.996794
vn -0.415633 0.615590 0.669551
vn 0.843415 -0.042943 -0.535544
vn 0.067978 -0.049576 -0.996454
vn 0.850003 0.073566 -0.521616
vn -0.887376 0.051334 0.458179
vn -0.877505 -0.060550 0.475730
vn -0.016059 0.024138 0.999580
vn -0.047196 -0.088671 0.994942
vn 0.428836 0.653715 -0.623504
vn 0.031743 0.046778 -0.998401
vn -0.373716 0.674550 0.636646
vn 0.871708 -0.092248 -0.481265
vn 0.042266 -0.064215 -0.997041
vn 0.883346 0.021322 -0.468236
vn -0.846200 0.041298 0.531263
vn -0.832225 -0.072822 0.549634
vn -0.015961 0.036847 0.999193
vn -0.044448 -0.079283 0.995861
vn 0.394994 0.628596 -0.669960
vn 0.029416 0.036280 -0.998909
vn -0.375569 0.650543 0.660108
vn 0.829637 -0.083560 -0.552014
vn 0.043444 -0.077139 -0.996073
vn 0.840058 0.033018 -0.541490
vn -0.510830 -0.013050 0.859583
vn -0.510830 -0.013050 0.859583
vn -0.510830 -0.013050 0.859583
vn -0.510830 -0.013050 0.859583
vn -0.007418 0.999820 0.017450
vn -0.007418 0.999820 0.017450
vn -0.007418 0.999820 0.017450
vn -0.007418 0.999820 0.017450
vn 0.510830 0.013050 -0.859583
vn 0.510830 0.013050 -0.859583
vn 0.510830 0.013050 -0.859583
vn 0.510830 0.013050 -0.859583
vn 0.007418 -0.999820 -0.017450
vn 0.007418 -0.999820 -0.017450
vn 0.007418 -0.999820 -0.017450
vn 0.007418 -0.999820 -0.017450
vn 0.859671 -0.001762 0.510844
vn 0.859671 -0.001762 0.510844
vn 0.859671 -0.001762 0.510844
vn 0.859671 -0.001762 0.510844
vn -0.859671 0.001762 -0.510844
vn -0.859671 0.001762 -0.510844
vn -0.859671 0.001762 -0.510844
vn -0.859671 0.001762 -0.510844
vn -0.510830 -0.013050 0.859583
vn -0.510830 -0.013050 0.859583
vn -0.510830 -0.013050 0.859583
vn -0.510830 -0.013050 0.859583
vn -0.007418 0.999820 0.017450
vn -0.007418 0.999820 0.017450
vn -0.007418 0.999820 0.017450
vn -0.007418 0.999820 0.017450
vn 0.510830 0.013050 -0.859583
vn 0.510830 0.013050 -0.859583
vn 0.510830 0.013050 -0.859583
vn 0.510830 0.013050 -0.859583
vn 0.007418 -0.999820 -0.017450
vn 0.007418 -0.999820 -0.017450
vn 0.007418 -0.999820 -0.017450
vn 0.007418 -0.999820 -0.017450
vn 0.859671 -0.001762 0.510844
vn 0.859671 -0.001762 0.510844
vn 0.859671 -0.001762 0.510844
vn 0.859671 -0.001762 0.510844
vn -0.859671 0.001762 -0.510844
vn -0.859671 0.001762 -0.510844
vn -0.859671 0.001762 -0.510844
vn -0.859671 0.001762 -0.510844
f 7/27/1 1/3/2 9/28/3
f 9/28/3 1/3/2 2/4/4
f 6/21/5 8/19/6 5/20/7
f 5/20/7 8/19/6 7/33/1
f 2/6/4 1/7/2 4/9/8
f 4/9/8 1/7/2 3/8/9
f 2/11/4 4/12/8 9/31/3
f 9/31/3 4/12/8 10/13/10
f 1/17/2 7/18/1 3/16/9
f 3/16/9 7/18/1 8/34/6
f 10/22/10 4/23/8 8/29/6
f 8/29/6 4/23/8 3/24/9
f 6/14/5 5/15/7 10/32/10
f 10/32/10 5/15/7 9/10/3
f 7/2/1 9/1/3 5/5/7
f 10/30/10 8/25/6 6/26/5
f 17/36/11 11/37/12 19/35/13
f 19/35/13 11/37/12 12/38/14
f 16/40/15 18/41/16 15/39/17
f 15/39/17 18/41/16 17/42/11
f 12/43/14 11/44/12 14/46/18
f 14/46/18 11/44/12 13/45/19
f 12/48/14 14/49/18 19/47/13
f 19/47/13 14/49/18 20/50/20
f 11/52/12 17/53/11 13/51/19
f 13/51/19 17/53/11 18/54/16
f 20/55/20 14/56/18 18/58/16
f 18/58/16 14/56/18 13/57/19
f 16/60/15 15/61/17 20/59/20
f 20/59/20 15/61/17 19/62/13
f 17/63/11 19/64/13 15/65/17
f 20/66/20 18/67/16 16/68/15
f 27/70/21 21/71/22 29/69/23
f 29/69/23 21/71/22 22/72/24
f 26/74/25 28/75/26 25/73/27
f 25/73/27 28/75/26 27/76/21
f 22/77/24 21/78/22 24/80/28
f 24/80/28 21/78/22 23/79/29
f 22/82/24 24/83/28 29/81/23
f 29/81/23 24/83/28 30/84/30
f 21/86/22 27/87/21 23/85/29
f 23/85/29 27/87/21 28/88/26
f 30/89/30 24/90/28 28/92/26
f 28/92/26 24/90/28 23/91/29
f 26/94/25 25/95/27 30/93/30
f 30/93/30 25/95/27 29/96/23
f 27/97/21 29/98/23 25/99/27
f 30/100/30 28/101/26 26/102/25
f 37/104/31 31/105/32 39/103/33
f 39/103/33 31/105/32 32/106/34
f 36/108/35 38/109/36 35/107/37
f 35/107/37 38/109/36 37/110/31
f 32/111/34 31/112/32 34/114/38
f 34/114/38 31/112/32 33/113/39
f 32/116/34 34/117/38 39/115/33
f 39/115/33 34/117/38 40/118/40
f 31/120/32 37/121/31 33/119/39
f 33/119/39 37/121/31 38/122/36
f 40/123/40 34/124/38 38/126/36
f 38/126/36 34/124/38 33/125/39
f 36/128/35 35/129/37 40/127/40
f 40/127/40 35/129/37 39/130/33
f 37/131/31 39/132/33 35/133/37
f 40/134/40 38/135/36 36/136/35
f 41/137/41 42/138/42 43/140/43
f 43/140/43 42/138/42 44/139/44
f 43/141/45 44/142/46 45/144/47
f 45/144/47 44/142/46 46/143/48
f 45/145/49 46/146/50 47/148/51
f 47/148/51 46/146/50 48/147/52
f 47/149/53 48/150/54 41/152/55
f 41/152/55 48/150/54 42/151/56
f 42/153/57 48/154/58 44/156/59
f 44/156/59 48/154/58 46/155/60
f 47/157/61 41/158/62 45/160/63
f 45/160/63 41/158/62 43/159/64
f 49/161/65 50/162/66 51/164/67
f 51/164/67 50/162/66 52/163/68
f 51/165/69 52/166/70 53/168/71
f 53/168/71 52/166/70 54/167/72
f 53/169/73 54/170/74 55/172/75
f 55/172/75 54/170/74 56/171/76
f 55/173/77 56/174/78 49/176/79
f 49/176/79 56/174/78 50/175/80
f 50/177/81 56/178/82 52/180/83
f 52/180/83 56/178/82 54/179/84
f 55/181/85 49/182/86 53/184/87
f 53/184/87 49/182/86 51/183/88
