# This file uses centimeters as units for non-parametric coordinates.

v 189.981440 183.017515 -71.894132
v 190.909162 183.006329 -70.858833
v 190.508668 183.029671 -72.366486
v 191.436391 183.018485 -71.331186
v 190.398301 191.918648 -71.309917
v 190.918925 191.932064 -71.749474
v 189.939997 191.060817 -71.796647
v 190.467153 191.087215 -72.268828
v 190.867810 191.032218 -70.761559
v 191.394846 191.081636 -71.233461
v 191.772894 182.979802 -70.046778
v 192.700233 182.986878 -69.011110
v 192.299776 183.015026 -70.518716
v 193.227115 183.022102 -69.483048
v 191.985180 191.883895 -69.388445
v 192.505421 191.919768 -69.827582
v 191.546871 191.017118 -69.882529
v 192.073352 191.066573 -70.354175
v 192.474699 191.006793 -68.847216
v 193.000533 191.079252 -69.318393
v 193.727783 183.005747 -67.635890
v 194.545056 182.947198 -66.683433
v 194.264973 183.002265 -68.096985
v 195.082247 182.943716 -67.144528
v 194.349066 191.877995 -66.999731
v 194.877739 191.875682 -67.429629
v 193.918230 191.043914 -67.456167
v 194.455758 191.054664 -67.916944
v 194.735092 190.967962 -66.504099
v 195.273165 191.001719 -66.964362
v 195.410762 182.962982 -65.634338
v 196.360337 182.941143 -64.619165
v 195.927751 182.959322 -66.117975
v 196.877325 182.937483 -65.102802
v 195.973287 191.858698 -65.118978
v 196.484402 191.856743 -65.569694
v 195.491804 191.006525 -65.589978
v 196.008936 191.017107 -66.073536
v 196.441203 190.967271 -64.574900
v 196.958567 191.000875 -65.058332
v 190.282269 188.899430 -72.561384
v 197.513396 188.812244 -64.491752
v 190.274555 190.396602 -72.543238
v 197.505682 190.309415 -64.473606
v 190.710330 190.406649 -72.933657
v 197.941457 190.319462 -64.864025
v 190.718044 188.909477 -72.951803
v 197.949171 188.822291 -64.882171
v 190.230651 183.428903 -72.716762
v 197.461778 183.341717 -64.647130
v 190.224597 184.603794 -72.702523
v 197.455724 184.516608 -64.632890
v 190.660372 184.613841 -73.092942
v 197.891499 184.526655 -65.023309
v 190.666426 183.438950 -73.107181
v 197.897553 183.351764 -65.037549
vt 0.780806 0.121878
vt 0.870100 0.121075
vt 0.602661 0.991003
vt 0.602661 0.904550
vt 0.827480 0.081304
vt 0.765231 0.126569
vt 0.765231 0.224231
vt 0.702815 0.224231
vt 0.702815 0.126569
vt 0.535364 0.274985
vt 0.091558 0.009792
vt 0.146297 0.009792
vt 0.146297 0.365468
vt 0.590104 0.313891
vt 0.537435 0.313808
vt 0.025926 0.010552
vt 0.080500 0.010552
vt 0.080500 0.364288
vt 0.538057 0.323620
vt 0.590567 0.360935
vt 0.538057 0.361017
vt 0.602523 0.428417
vt 0.986278 0.428417
vt 0.986278 0.514830
vt 0.869677 0.133872
vt 0.825792 0.173055
vt 0.985644 0.991003
vt 0.984815 0.904550
vt 0.602790 0.514830
vt 0.780423 0.134130
vt 0.091558 0.363825
vt 0.590104 0.276629
vt 0.592631 0.322994
vt 0.025926 0.364914
vt 0.984565 0.809391
vt 0.985394 0.895844
vt 0.602411 0.895844
vt 0.602411 0.809391
vt 0.587993 0.263776
vt 0.535484 0.263859
vt 0.535484 0.226461
vt 0.590058 0.225835
vt 0.762860 0.016513
vt 0.762860 0.114176
vt 0.700444 0.114176
vt 0.700444 0.016513
vt 0.215491 0.364122
vt 0.215491 0.010089
vt 0.270230 0.010089
vt 0.270230 0.365765
vt 0.153597 0.010552
vt 0.208171 0.010552
vt 0.208171 0.364288
vt 0.153597 0.364914
vt 0.601299 0.521252
vt 0.985053 0.521251
vt 0.985053 0.607665
vt 0.601566 0.607665
vt 0.592403 0.178616
vt 0.592403 0.215879
vt 0.539735 0.215795
vt 0.537664 0.176972
vt 0.779958 0.020471
vt 0.869252 0.019669
vt 0.822578 0.060242
vt 0.875480 0.135413
vt 0.875747 0.221828
vt 0.835276 0.179338
vt 0.984074 0.713425
vt 0.984904 0.799877
vt 0.601921 0.799877
vt 0.601921 0.713425
vt 0.589812 0.168948
vt 0.537303 0.169031
vt 0.537303 0.131633
vt 0.591877 0.131007
vt 0.694588 0.125972
vt 0.694588 0.223634
vt 0.632173 0.223634
vt 0.632173 0.125972
vt 0.341945 0.364122
vt 0.341945 0.010089
vt 0.396684 0.010089
vt 0.396684 0.365766
vt 0.279254 0.010816
vt 0.333829 0.010816
vt 0.333829 0.364551
vt 0.279254 0.365177
vt 0.602818 0.332230
vt 0.986573 0.332230
vt 0.986573 0.418643
vt 0.603085 0.418643
vt 0.588543 0.084440
vt 0.588543 0.121703
vt 0.535875 0.121620
vt 0.533804 0.082796
vt 0.779781 0.223944
vt 0.778951 0.137492
vt 0.820858 0.182680
vt 0.781206 0.115549
vt 0.780939 0.029136
vt 0.821410 0.071625
vt 0.984392 0.617480
vt 0.985222 0.703932
vt 0.602239 0.703932
vt 0.602239 0.617480
vt 0.586604 0.072265
vt 0.534094 0.072347
vt 0.534094 0.034950
vt 0.588669 0.034324
vt 0.693824 0.016410
vt 0.693824 0.114072
vt 0.631408 0.114072
vt 0.631408 0.016410
vt 0.469681 0.365273
vt 0.469681 0.011240
vt 0.524420 0.011240
vt 0.524420 0.366917
vt 0.406290 0.012039
vt 0.460865 0.012039
vt 0.460865 0.365774
vt 0.406290 0.366400
vt 0.602832 0.236674
vt 0.986587 0.236674
vt 0.986586 0.323088
vt 0.603099 0.323088
vt 0.977603 0.017476
vt 0.977603 0.054738
vt 0.924935 0.054655
vt 0.922864 0.015832
vt 0.874097 0.225129
vt 0.784803 0.225932
vt 0.831477 0.185359
vt 0.870849 0.024352
vt 0.871116 0.110766
vt 0.830645 0.068277
vt 0.417039 0.989450
vt 0.417039 0.377391
vt 0.500798 0.377391
vt 0.500798 0.989450
vt 0.178993 0.988969
vt 0.178993 0.374277
vt 0.226957 0.374277
vt 0.226957 0.988969
vt 0.509981 0.989259
vt 0.509981 0.377203
vt 0.593740 0.377203
vt 0.593740 0.989260
vt 0.127067 0.989293
vt 0.127067 0.376993
vt 0.171758 0.376993
vt 0.171758 0.989293
vt 0.883070 0.141104
vt 0.883070 0.109216
vt 0.981116 0.109216
vt 0.981116 0.141104
vt 0.883220 0.100277
vt 0.883220 0.068389
vt 0.981266 0.068389
vt 0.981266 0.100277
vt 0.233875 0.989026
vt 0.233875 0.372925
vt 0.317634 0.372926
vt 0.317634 0.989026
vt 0.075098 0.989203
vt 0.075099 0.377503
vt 0.120356 0.377503
vt 0.120356 0.989203
vt 0.325938 0.989266
vt 0.325938 0.373482
vt 0.409697 0.373482
vt 0.409697 0.989266
vt 0.022659 0.989139
vt 0.022659 0.377441
vt 0.067916 0.377441
vt 0.067916 0.989139
vt 0.884713 0.228044
vt 0.884713 0.196156
vt 0.982759 0.196156
vt 0.982759 0.228044
vt 0.883409 0.184526
vt 0.883409 0.152637
vt 0.981455 0.152637
vt 0.981455 0.184526
vn -0.972040 0.027868 0.233157
vn -0.963395 -0.086371 0.253793
vn -0.335104 0.024843 0.941854
vn -0.359281 -0.091507 0.928732
vn 0.579559 0.641777 -0.502228
vn 0.346655 0.048390 -0.936744
vn -0.576046 0.637448 0.511694
vn 0.963455 -0.069989 -0.258564
vn 0.360745 -0.064914 -0.930403
vn 0.968659 0.046512 -0.244000
vn -0.972493 0.003615 0.232902
vn -0.961253 -0.110664 0.252479
vn -0.336021 0.009313 0.941808
vn -0.356629 -0.107507 0.928040
vn 0.561040 0.662242 -0.496659
vn 0.345320 0.064135 -0.936291
vn -0.594125 0.616685 0.516444
vn 0.964878 -0.045676 -0.258695
vn 0.362867 -0.048855 -0.930560
vn 0.967428 0.070790 -0.243048
vn -0.983643 0.054314 0.171743
vn -0.979882 -0.057624 0.191079
vn -0.314391 0.023214 0.949010
vn -0.343276 -0.089472 0.934963
vn 0.598807 0.652469 -0.464451
vn 0.329357 0.047640 -0.943003
vn -0.543974 0.675520 0.497760
vn 0.975452 -0.095152 -0.198596
vn 0.338435 -0.063392 -0.938852
vn 0.983070 0.018371 -0.182309
vn -0.966261 0.044046 0.253772
vn -0.958853 -0.070142 0.275102
vn -0.314118 0.035922 0.948704
vn -0.340883 -0.080095 0.936688
vn 0.580340 0.627572 -0.518997
vn 0.327237 0.037152 -0.944212
vn -0.552876 0.651483 0.519517
vn 0.956508 -0.086228 -0.278671
vn 0.339205 -0.076321 -0.937611
vn 0.963739 0.030305 -0.265121
vn -0.744751 -0.011924 0.667236
vn -0.744751 -0.011924 0.667236
vn -0.744751 -0.011924 0.667236
vn -0.744751 -0.011924 0.667236
vn -0.007418 0.999820 0.017450
vn -0.007418 0.999820 0.017450
vn -0.007418 0.999820 0.017450
vn -0.007418 0.999820 0.017450
vn 0.744751 0.011924 -0.667236
vn 0.744751 0.011924 -0.667236
vn 0.744751 0.011924 -0.667236
vn 0.744751 0.011924 -0.667236
vn 0.007418 -0.999820 -0.017450
vn 0.007418 -0.999820 -0.017450
vn 0.007418 -0.999820 -0.017450
vn 0.007418 -0.999820 -0.017450
vn 0.667345 -0.005588 0.744728
vn 0.667344 -0.005588 0.744728
vn 0.667345 -0.005588 0.744728
vn 0.667345 -0.005588 0.744728
vn -0.667345 0.005588 -0.744728
vn -0.667345 0.005588 -0.744728
vn -0.667344 0.005588 -0.744728
vn -0.667345 0.005588 -0.744728
vn -0.744751 -0.011924 0.667236
vn -0.744751 -0.011924 0.667236
vn -0.744751 -0.011924 0.667236
vn -0.744751 -0.011924 0.667236
vn -0.007418 0.999820 0.017450
vn -0.007418 0.999820 0.017450
vn -0.007418 0.999820 0.017450
vn -0.007418 0.999820 0.017450
vn 0.744751 0.011924 -0.667236
vn 0.744751 0.011924 -0.667236
vn 0.744751 0.011924 -0.667236
vn 0.744751 0.011924 -0.667236
vn 0.007418 -0.999820 -0.017450
vn 0.007418 -0.999820 -0.017450
vn 0.007418 -0.999820 -0.017450
vn 0.007418 -0.999820 -0.017450
vn 0.667345 -0.005588 0.744728
vn 0.667344 -0.005588 0.744728
vn 0.667345 -0.005588 0.744728
vn 0.667345 -0.005588 0.744728
vn -0.667345 0.005588 -0.744728
vn -0.667345 0.005588 -0.744728
vn -0.667344 0.005588 -0.744728
vn -0.667345 0.005588 -0.744728
f 7/27/1 1/3/2 9/28/3
f 9/28/3 1/3/2 2/4/4
f 6/21/5 8/19/6 5/20/7
f 5/20/7 8/19/6 7/33/1
f 2/6/4 1/7/2 4/9/8
f 4/9/8 1/7/2 3/8/9
f 2/11/4 4/12/8 9/31/3
f 9/31/3 4/12/8 10/13/10
f 1/17/2 7/18/1 3/16/9
f 3/16/9 7/18/1 8/34/6
f 10/22/10 4/23/8 8/29/6
f 8/29/6 4/23/8 3/24/9
f 6/14/5 5/15/7 10/32/10
f 10/32/10 5/15/7 9/10/3
f 7/2/1 9/1/3 5/5/7
f 10/30/10 8/25/6 6/26/5
f 17/36/11 11/37/12 19/35/13
f 19/35/13 11/37/12 12/38/14
f 16/40/15 18/41/16 15/39/17
f 15/39/17 18/41/16 17/42/11
f 12/43/14 11/44/12 14/46/18
f 14/46/18 11/44/12 13/45/19
f 12/48/14 14/49/18 19/47/13
f 19/47/13 14/49/18 20/50/20
f 11/52/12 17/53/11 13/51/19
f 13/51/19 17/53/11 18/54/16
f 20/55/20 14/56/18 18/58/16
f 18/58/16 14/56/18 13/57/19
f 16/60/15 15/61/17 20/59/20
f 20/59/20 15/61/17 19/62/13
f 17/63/11 19/64/13 15/65/17
f 20/66/20 18/67/16 16/68/15
f 27/70/21 21/71/22 29/69/23
f 29/69/23 21/71/22 22/72/24
f 26/74/25 28/75/26 25/73/27
f 25/73/27 28/75/26 27/76/21
f 22/77/24 21/78/22 24/80/28
f 24/80/28 21/78/22 23/79/29
f 22/82/24 24/83/28 29/81/23
f 29/81/23 24/83/28 30/84/30
f 21/86/22 27/87/21 23/85/29
f 23/85/29 27/87/21 28/88/26
f 30/89/30 24/90/28 28/92/26
f 28/92/26 24/90/28 23/91/29
f 26/94/25 25/95/27 30/93/30
f 30/93/30 25/95/27 29/96/23
f 27/97/21 29/98/23 25/99/27
f 30/100/30 28/101/26 26/102/25
f 37/104/31 31/105/32 39/103/33
f 39/103/33 31/105/32 32/106/34
f 36/108/35 38/109/36 35/107/37
f 35/107/37 38/109/36 37/110/31
f 32/111/34 31/112/32 34/114/38
f 34/114/38 31/112/32 33/113/39
f 32/116/34 34/117/38 39/115/33
f 39/115/33 34/117/38 40/118/40
f 31/120/32 37/121/31 33/119/39
f 33/119/39 37/121/31 38/122/36
f 40/123/40 34/124/38 38/126/36
f 38/126/36 34/124/38 33/125/39
f 36/128/35 35/129/37 40/127/40
f 40/127/40 35/129/37 39/130/33
f 37/131/31 39/132/33 35/133/37
f 40/134/40 38/135/36 36/136/35
f 41/137/41 42/138/42 43/140/43
f 43/140/43 42/138/42 44/139/44
f 43/141/45 44/142/46 45/144/47
f 45/144/47 44/142/46 46/143/48
f 45/145/49 46/146/50 47/148/51
f 47/148/51 46/146/50 48/147/52
f 47/149/53 48/150/54 41/152/55
f 41/152/55 48/150/54 42/151/56
f 42/153/57 48/154/58 44/156/59
f 44/156/59 48/154/58 46/155/60
f 47/157/61 41/158/62 45/160/63
f 45/160/63 41/158/62 43/159/64
f 49/161/65 50/162/66 51/164/67
f 51/164/67 50/162/66 52/163/68
f 51/165/69 52/166/70 53/168/71
f 53/168/71 52/166/70 54/167/72
f 53/169/73 54/170/74 55/172/75
f 55/172/75 54/170/74 56/171/76
f 55/173/77 56/174/78 49/176/79
f 49/176/79 56/174/78 50/175/80
f 50/177/81 56/178/82 52/180/83
f 52/180/83 56/178/82 54/179/84
f 55/181/85 49/182/86 53/184/87
f 53/184/87 49/182/86 51/183/88
