# This file uses centimeters as units for non-parametric coordinates.

v -34.872790 174.412412 -166.670273
v -33.805948 174.412412 -167.561591
v -35.326693 174.412412 -167.213562
v -34.259851 174.412412 -168.104880
v -34.380762 183.319536 -167.116253
v -34.802136 183.321417 -167.651815
v -34.872790 182.456718 -166.670273
v -35.326693 182.470962 -167.213562
v -33.805948 182.439303 -167.561591
v -34.259851 182.476570 -168.104880
v -32.964227 174.393651 -168.396586
v -31.897248 174.411919 -169.287609
v -33.418002 174.416726 -168.939642
v -32.351022 174.434995 -169.830665
v -32.405255 183.306546 -168.635573
v -32.826490 183.330892 -169.170863
v -32.903832 182.434507 -168.209779
v -33.357499 182.471819 -168.752504
v -31.836983 182.435367 -169.101207
v -32.290478 182.495693 -169.643397
v -30.487623 174.447162 -170.267116
v -29.506826 174.399178 -171.050652
v -30.929744 174.431649 -170.819885
v -29.948947 174.383665 -171.603421
v -29.936262 183.324794 -170.915437
v -30.347516 183.311058 -171.458622
v -30.397349 182.486048 -170.495993
v -30.839310 182.484769 -171.049167
v -29.416747 182.420660 -171.279033
v -29.858449 182.442389 -171.832862
v -28.428668 174.426845 -171.879666
v -27.381054 174.415680 -172.793458
v -28.894012 174.410911 -172.413022
v -27.846398 174.399745 -173.326815
v -28.000336 183.326270 -172.473568
v -28.433006 183.312659 -172.999927
v -28.477515 182.469556 -172.003910
v -28.942945 182.467862 -172.537487
v -27.429794 182.440978 -172.917434
v -27.895365 182.462304 -173.451366
v -35.599341 180.279717 -167.026718
v -27.283846 180.279717 -173.974091
v -35.599341 181.777075 -167.026718
v -27.283846 181.777075 -173.974091
v -35.974510 181.777075 -167.475768
v -27.659015 181.777075 -174.423141
v -35.974510 180.279717 -167.475768
v -27.659015 180.279717 -174.423141
v -35.691118 174.807544 -166.950040
v -27.375624 174.807544 -173.897413
v -35.691118 175.982582 -166.950040
v -27.375624 175.982582 -173.897413
v -36.066287 175.982582 -167.399090
v -27.750793 175.982582 -174.346463
v -36.066287 174.807544 -167.399090
v -27.750793 174.807544 -174.346463
vt 0.780806 0.121878
vt 0.870100 0.121075
vt 0.602661 0.991003
vt 0.602661 0.904550
vt 0.827480 0.081304
vt 0.765231 0.126569
vt 0.765231 0.224231
vt 0.702815 0.224231
vt 0.702815 0.126569
vt 0.535364 0.274985
vt 0.091558 0.009792
vt 0.146297 0.009792
vt 0.146297 0.365468
vt 0.590104 0.313891
vt 0.537435 0.313808
vt 0.025926 0.010552
vt 0.080500 0.010552
vt 0.080500 0.364288
vt 0.538057 0.323620
vt 0.590567 0.360935
vt 0.538057 0.361017
vt 0.602523 0.428417
vt 0.986278 0.428417
vt 0.986278 0.514830
vt 0.869677 0.133872
vt 0.825792 0.173055
vt 0.985644 0.991003
vt 0.984815 0.904550
vt 0.602790 0.514830
vt 0.780423 0.134130
vt 0.091558 0.363825
vt 0.590104 0.276629
vt 0.592631 0.322994
vt 0.025926 0.364914
vt 0.984565 0.809391
vt 0.985394 0.895844
vt 0.602411 0.895844
vt 0.602411 0.809391
vt 0.587993 0.263776
vt 0.535484 0.263859
vt 0.535484 0.226461
vt 0.590058 0.225835
vt 0.762860 0.016513
vt 0.762860 0.114176
vt 0.700444 0.114176
vt 0.700444 0.016513
vt 0.215491 0.364122
vt 0.215491 0.010089
vt 0.270230 0.010089
vt 0.270230 0.365765
vt 0.153597 0.010552
vt 0.208171 0.010552
vt 0.208171 0.364288
vt 0.153597 0.364914
vt 0.601299 0.521252
vt 0.985053 0.521251
vt 0.985053 0.607665
vt 0.601566 0.607665
vt 0.592403 0.178616
vt 0.592403 0.215879
vt 0.539735 0.215795
vt 0.537664 0.176972
vt 0.779958 0.020471
vt 0.869252 0.019669
vt 0.822578 0.060242
vt 0.875480 0.135413
vt 0.875747 0.221828
vt 0.835276 0.179338
vt 0.984074 0.713425
vt 0.984904 0.799877
vt 0.601921 0.799877
vt 0.601921 0.713425
vt 0.589812 0.168948
vt 0.537303 0.169031
vt 0.537303 0.131633
vt 0.591877 0.131007
vt 0.694588 0.125972
vt 0.694588 0.223634
vt 0.632173 0.223634
vt 0.632173 0.125972
vt 0.341945 0.364122
vt 0.341945 0.010089
vt 0.396684 0.010089
vt 0.396684 0.365766
vt 0.279254 0.010816
vt 0.333829 0.010816
vt 0.333829 0.364551
vt 0.279254 0.365177
vt 0.602818 0.332230
vt 0.986573 0.332230
vt 0.986573 0.418643
vt 0.603085 0.418643
vt 0.588543 0.084440
vt 0.588543 0.121703
vt 0.535875 0.121620
vt 0.533804 0.082796
vt 0.779781 0.223944
vt 0.778951 0.137492
vt 0.820858 0.182680
vt 0.781206 0.115549
vt 0.780939 0.029136
vt 0.821410 0.071625
vt 0.984392 0.617480
vt 0.985222 0.703932
vt 0.602239 0.703932
vt 0.602239 0.617480
vt 0.586604 0.072265
vt 0.534094 0.072347
vt 0.534094 0.034950
vt 0.588669 0.034324
vt 0.693824 0.016410
vt 0.693824 0.114072
vt 0.631408 0.114072
vt 0.631408 0.016410
vt 0.469681 0.365273
vt 0.469681 0.011240
vt 0.524420 0.011240
vt 0.524420 0.366917
vt 0.406290 0.012039
vt 0.460865 0.012039
vt 0.460865 0.365774
vt 0.406290 0.366400
vt 0.602832 0.236674
vt 0.986587 0.236674
vt 0.986586 0.323088
vt 0.603099 0.323088
vt 0.977603 0.017476
vt 0.977603 0.054738
vt 0.924935 0.054655
vt 0.922864 0.015832
vt 0.874097 0.225129
vt 0.784803 0.225932
vt 0.831477 0.185359
vt 0.870849 0.024352
vt 0.871116 0.110766
vt 0.830645 0.068277
vt 0.417039 0.989450
vt 0.417039 0.377391
vt 0.500798 0.377391
vt 0.500798 0.989450
vt 0.178993 0.988969
vt 0.178993 0.374277
vt 0.226957 0.374277
vt 0.226957 0.988969
vt 0.509981 0.989259
vt 0.509981 0.377203
vt 0.593740 0.377203
vt 0.593740 0.989260
vt 0.127067 0.989293
vt 0.127067 0.376993
vt 0.171758 0.376993
vt 0.171758 0.989293
vt 0.883070 0.141104
vt 0.883070 0.109216
vt 0.981116 0.109216
vt 0.981116 0.141104
vt 0.883220 0.100277
vt 0.883220 0.068389
vt 0.981266 0.068389
vt 0.981266 0.100277
vt 0.233875 0.989026
vt 0.233875 0.372925
vt 0.317634 0.372926
vt 0.317634 0.989026
vt 0.075098 0.989203
vt 0.075099 0.377503
vt 0.120356 0.377503
vt 0.120356 0.989203
vt 0.325938 0.989266
vt 0.325938 0.373482
vt 0.409697 0.373482
vt 0.409697 0.989266
vt 0.022659 0.989139
vt 0.022659 0.377441
vt 0.067916 0.377441
vt 0.067916 0.989139
vt 0.884713 0.228044
vt 0.884713 0.196156
vt 0.982759 0.196156
vt 0.982759 0.228044
vt 0.883409 0.184526
vt 0.883409 0.152637
vt 0.981455 0.152637
vt 0.981455 0.184526
vn 0.198864 0.035701 0.979377
vn 0.221661 -0.078299 0.971975
vn 0.929325 0.037987 0.367303
vn 0.916757 -0.078351 0.391686
vn -0.491567 0.631008 -0.600159
vn -0.924685 0.035238 -0.379100
vn 0.481664 0.648203 0.589773
vn -0.223864 -0.078098 -0.971486
vn -0.916515 -0.078072 -0.392306
vn -0.211041 0.038554 -0.976717
vn 0.198993 0.011447 0.979934
vn 0.220821 -0.102600 0.969903
vn 0.929432 0.022458 0.368310
vn 0.916348 -0.094355 0.389105
vn -0.486989 0.651557 -0.581649
vn -0.924465 0.050985 -0.377842
vn 0.486133 0.627515 0.608194
vn -0.224344 -0.053786 -0.973025
vn -0.916790 -0.062015 -0.394526
vn -0.210531 0.062837 -0.975565
vn 0.136639 0.061467 0.988712
vn 0.157963 -0.050244 0.986166
vn 0.937214 0.036337 0.346856
vn 0.923510 -0.076326 0.375903
vn -0.453457 0.642066 -0.618165
vn -0.931528 0.034502 -0.362028
vn 0.468186 0.686069 0.556877
vn -0.163083 -0.102605 -0.981262
vn -0.925753 -0.076536 -0.370302
vn -0.148435 0.011094 -0.988860
vn 0.219402 0.052102 0.974242
vn 0.242840 -0.061845 0.968093
vn 0.936769 0.049045 0.346496
vn 0.925205 -0.066949 0.373516
vn -0.508011 0.616636 -0.601403
vn -0.932686 0.024015 -0.359889
vn 0.490089 0.662281 0.566743
vn -0.243939 -0.094553 -0.965170
vn -0.924332 -0.089464 -0.370953
vn -0.232048 0.022121 -0.972453
vn 0.641153 0.000000 0.767413
vn 0.641153 0.000000 0.767413
vn 0.641153 0.000000 0.767413
vn 0.641153 0.000000 0.767413
vn 0.000000 1.000000 0.000000
vn 0.000000 1.000000 0.000000
vn 0.000000 1.000000 0.000000
vn 0.000000 1.000000 0.000000
vn -0.641153 0.000000 -0.767413
vn -0.641153 0.000000 -0.767413
vn -0.641153 0.000000 -0.767413
vn -0.641153 0.000000 -0.767413
vn 0.000000 -1.000000 0.000000
vn 0.000000 -1.000000 0.000000
vn 0.000000 -1.000000 0.000000
vn 0.000000 -1.000000 0.000000
vn 0.767413 0.000000 -0.641153
vn 0.767413 0.000000 -0.641153
vn 0.767413 0.000000 -0.641153
vn 0.767413 0.000000 -0.641153
vn -0.767413 0.000000 0.641153
vn -0.767413 0.000000 0.641153
vn -0.767413 0.000000 0.641153
vn -0.767413 0.000000 0.641153
vn 0.641153 0.000000 0.767413
vn 0.641153 0.000000 0.767413
vn 0.641153 0.000000 0.767413
vn 0.641153 0.000000 0.767413
vn 0.000000 1.000000 0.000000
vn 0.000000 1.000000 0.000000
vn 0.000000 1.000000 0.000000
vn 0.000000 1.000000 0.000000
vn -0.641153 0.000000 -0.767413
vn -0.641153 0.000000 -0.767413
vn -0.641153 0.000000 -0.767413
vn -0.641153 0.000000 -0.767413
vn 0.000000 -1.000000 0.000000
vn 0.000000 -1.000000 0.000000
vn 0.000000 -1.000000 0.000000
vn 0.000000 -1.000000 0.000000
vn 0.767413 0.000000 -0.641153
vn 0.767413 0.000000 -0.641153
vn 0.767413 0.000000 -0.641153
vn 0.767413 0.000000 -0.641153
vn -0.767413 0.000000 0.641153
vn -0.767413 0.000000 0.641153
vn -0.767413 0.000000 0.641153
vn -0.767413 0.000000 0.641153
f 7/27/1 1/3/2 9/28/3
f 9/28/3 1/3/2 2/4/4
f 6/21/5 8/19/6 5/20/7
f 5/20/7 8/19/6 7/33/1
f 2/6/4 1/7/2 4/9/8
f 4/9/8 1/7/2 3/8/9
f 2/11/4 4/12/8 9/31/3
f 9/31/3 4/12/8 10/13/10
f 1/17/2 7/18/1 3/16/9
f 3/16/9 7/18/1 8/34/6
f 10/22/10 4/23/8 8/29/6
f 8/29/6 4/23/8 3/24/9
f 6/14/5 5/15/7 10/32/10
f 10/32/10 5/15/7 9/10/3
f 7/2/1 9/1/3 5/5/7
f 10/30/10 8/25/6 6/26/5
f 17/36/11 11/37/12 19/35/13
f 19/35/13 11/37/12 12/38/14
f 16/40/15 18/41/16 15/39/17
f 15/39/17 18/41/16 17/42/11
f 12/43/14 11/44/12 14/46/18
f 14/46/18 11/44/12 13/45/19
f 12/48/14 14/49/18 19/47/13
f 19/47/13 14/49/18 20/50/20
f 11/52/12 17/53/11 13/51/19
f 13/51/19 17/53/11 18/54/16
f 20/55/20 14/56/18 18/58/16
f 18/58/16 14/56/18 13/57/19
f 16/60/15 15/61/17 20/59/20
f 20/59/20 15/61/17 19/62/13
f 17/63/11 19/64/13 15/65/17
f 20/66/20 18/67/16 16/68/15
f 27/70/21 21/71/22 29/69/23
f 29/69/23 21/71/22 22/72/24
f 26/74/25 28/75/26 25/73/27
f 25/73/27 28/75/26 27/76/21
f 22/77/24 21/78/22 24/80/28
f 24/80/28 21/78/22 23/79/29
f 22/82/24 24/83/28 29/81/23
f 29/81/23 24/83/28 30/84/30
f 21/86/22 27/87/21 23/85/29
f 23/85/29 27/87/21 28/88/26
f 30/89/30 24/90/28 28/92/26
f 28/92/26 24/90/28 23/91/29
f 26/94/25 25/95/27 30/93/30
f 30/93/30 25/95/27 29/96/23
f 27/97/21 29/98/23 25/99/27
f 30/100/30 28/101/26 26/102/25
f 37/104/31 31/105/32 39/103/33
f 39/103/33 31/105/32 32/106/34
f 36/108/35 38/109/36 35/107/37
f 35/107/37 38/109/36 37/110/31
f 32/111/34 31/112/32 34/114/38
f 34/114/38 31/112/32 33/113/39
f 32/116/34 34/117/38 39/115/33
f 39/115/33 34/117/38 40/118/40
f 31/120/32 37/121/31 33/119/39
f 33/119/39 37/121/31 38/122/36
f 40/123/40 34/124/38 38/126/36
f 38/126/36 34/124/38 33/125/39
f 36/128/35 35/129/37 40/127/40
f 40/127/40 35/129/37 39/130/33
f 37/131/31 39/132/33 35/133/37
f 40/134/40 38/135/36 36/136/35
f 41/137/41 42/138/42 43/140/43
f 43/140/43 42/138/42 44/139/44
f 43/141/45 44/142/46 45/144/47
f 45/144/47 44/142/46 46/143/48
f 45/145/49 46/146/50 47/148/51
f 47/148/51 46/146/50 48/147/52
f 47/149/53 48/150/54 41/152/55
f 41/152/55 48/150/54 42/151/56
f 42/153/57 48/154/58 44/156/59
f 44/156/59 48/154/58 46/155/60
f 47/157/61 41/158/62 45/160/63
f 45/160/63 41/158/62 43/159/64
f 49/161/65 50/162/66 51/164/67
f 51/164/67 50/162/66 52/163/68
f 51/165/69 52/166/70 53/168/71
f 53/168/71 52/166/70 54/167/72
f 53/169/73 54/170/74 55/172/75
f 55/172/75 54/170/74 56/171/76
f 55/173/77 56/174/78 49/176/79
f 49/176/79 56/174/78 50/175/80
f 50/177/81 56/178/82 52/180/83
f 52/180/83 56/178/82 54/179/84
f 55/181/85 49/182/86 53/184/87
f 53/184/87 49/182/86 51/183/88
