# This file uses centimeters as units for non-parametric coordinates.

v 7.752205 175.414683 -211.697507
v 9.100453 175.418773 -211.358664
v 7.924713 175.427945 -212.384027
v 9.272962 175.432035 -212.045184
v 8.356361 184.323149 -211.453812
v 8.541739 184.337849 -212.109457
v 7.710762 183.457986 -211.600022
v 7.883197 183.485489 -212.286369
v 9.059101 183.444662 -211.261390
v 9.231417 183.495186 -211.947459
v 10.270864 175.405384 -211.169013
v 11.618861 175.427733 -210.829665
v 10.443141 175.441713 -211.855012
v 11.791138 175.464062 -211.515664
v 10.746938 184.315601 -210.749412
v 10.932062 184.352756 -211.404511
v 10.113863 183.441609 -210.912897
v 10.285862 183.492167 -211.598443
v 11.462199 183.446560 -210.574103
v 11.633749 183.520118 -211.258916
v 13.239824 175.465152 -210.265002
v 14.450547 175.420350 -209.932967
v 13.427008 175.462942 -210.947753
v 14.637731 175.418140 -210.615719
v 14.042678 184.346841 -210.092634
v 14.240252 184.345950 -210.744765
v 13.436612 183.505876 -210.229128
v 13.624145 183.517903 -210.911816
v 14.646909 183.443666 -209.897171
v 14.835006 183.478706 -210.579756
v 15.754914 175.450980 -209.548008
v 17.110091 175.444458 -209.238065
v 15.912744 175.448259 -210.238135
v 17.267921 175.441737 -209.928192
v 16.441296 184.354774 -209.442889
v 16.612667 184.353943 -210.102447
v 15.785247 183.495184 -209.563094
v 15.943131 183.506706 -210.253248
v 17.140359 183.471246 -209.253118
v 17.298330 183.505792 -209.943316
v 7.583039 181.294138 -212.423593
v 18.091954 181.326014 -209.782487
v 7.575325 182.791310 -212.405447
v 18.084240 182.823185 -209.764341
v 7.717910 182.802271 -212.972883
v 18.226825 182.834147 -210.331777
v 7.725624 181.305099 -212.991029
v 18.234539 181.336975 -210.349922
v 7.495244 175.822297 -212.519057
v 18.004159 175.854173 -209.877951
v 7.489190 176.997188 -212.504817
v 17.998105 177.029064 -209.863711
v 7.631775 177.008149 -213.072253
v 18.140690 177.040025 -210.431147
v 7.637829 175.833258 -213.086493
v 18.146744 175.865134 -210.445387
vt 0.780806 0.121878
vt 0.870100 0.121075
vt 0.602661 0.991003
vt 0.602661 0.904550
vt 0.827480 0.081304
vt 0.765231 0.126569
vt 0.765231 0.224231
vt 0.702815 0.224231
vt 0.702815 0.126569
vt 0.535364 0.274985
vt 0.091558 0.009792
vt 0.146297 0.009792
vt 0.146297 0.365468
vt 0.590104 0.313891
vt 0.537435 0.313808
vt 0.025926 0.010552
vt 0.080500 0.010552
vt 0.080500 0.364288
vt 0.538057 0.323620
vt 0.590567 0.360935
vt 0.538057 0.361017
vt 0.602523 0.428417
vt 0.986278 0.428417
vt 0.986278 0.514830
vt 0.869677 0.133872
vt 0.825792 0.173055
vt 0.985644 0.991003
vt 0.984815 0.904550
vt 0.602790 0.514830
vt 0.780423 0.134130
vt 0.091558 0.363825
vt 0.590104 0.276629
vt 0.592631 0.322994
vt 0.025926 0.364914
vt 0.984565 0.809391
vt 0.985394 0.895844
vt 0.602411 0.895844
vt 0.602411 0.809391
vt 0.587993 0.263776
vt 0.535484 0.263859
vt 0.535484 0.226461
vt 0.590058 0.225835
vt 0.762860 0.016513
vt 0.762860 0.114176
vt 0.700444 0.114176
vt 0.700444 0.016513
vt 0.215491 0.364122
vt 0.215491 0.010089
vt 0.270230 0.010089
vt 0.270230 0.365765
vt 0.153597 0.010552
vt 0.208171 0.010552
vt 0.208171 0.364288
vt 0.153597 0.364914
vt 0.601299 0.521252
vt 0.985053 0.521251
vt 0.985053 0.607665
vt 0.601566 0.607665
vt 0.592403 0.178616
vt 0.592403 0.215879
vt 0.539735 0.215795
vt 0.537664 0.176972
vt 0.779958 0.020471
vt 0.869252 0.019669
vt 0.822578 0.060242
vt 0.875480 0.135413
vt 0.875747 0.221828
vt 0.835276 0.179338
vt 0.984074 0.713425
vt 0.984904 0.799877
vt 0.601921 0.799877
vt 0.601921 0.713425
vt 0.589812 0.168948
vt 0.537303 0.169031
vt 0.537303 0.131633
vt 0.591877 0.131007
vt 0.694588 0.125972
vt 0.694588 0.223634
vt 0.632173 0.223634
vt 0.632173 0.125972
vt 0.341945 0.364122
vt 0.341945 0.010089
vt 0.396684 0.010089
vt 0.396684 0.365766
vt 0.279254 0.010816
vt 0.333829 0.010816
vt 0.333829 0.364551
vt 0.279254 0.365177
vt 0.602818 0.332230
vt 0.986573 0.332230
vt 0.986573 0.418643
vt 0.603085 0.418643
vt 0.588543 0.084440
vt 0.588543 0.121703
vt 0.535875 0.121620
vt 0.533804 0.082796
vt 0.779781 0.223944
vt 0.778951 0.137492
vt 0.820858 0.182680
vt 0.781206 0.115549
vt 0.780939 0.029136
vt 0.821410 0.071625
vt 0.984392 0.617480
vt 0.985222 0.703932
vt 0.602239 0.703932
vt 0.602239 0.617480
vt 0.586604 0.072265
vt 0.534094 0.072347
vt 0.534094 0.034950
vt 0.588669 0.034324
vt 0.693824 0.016410
vt 0.693824 0.114072
vt 0.631408 0.114072
vt 0.631408 0.016410
vt 0.469681 0.365273
vt 0.469681 0.011240
vt 0.524420 0.011240
vt 0.524420 0.366917
vt 0.406290 0.012039
vt 0.460865 0.012039
vt 0.460865 0.365774
vt 0.406290 0.366400
vt 0.602832 0.236674
vt 0.986587 0.236674
vt 0.986586 0.323088
vt 0.603099 0.323088
vt 0.977603 0.017476
vt 0.977603 0.054738
vt 0.924935 0.054655
vt 0.922864 0.015832
vt 0.874097 0.225129
vt 0.784803 0.225932
vt 0.831477 0.185359
vt 0.870849 0.024352
vt 0.871116 0.110766
vt 0.830645 0.068277
vt 0.417039 0.989450
vt 0.417039 0.377391
vt 0.500798 0.377391
vt 0.500798 0.989450
vt 0.178993 0.988969
vt 0.178993 0.374277
vt 0.226957 0.374277
vt 0.226957 0.988969
vt 0.509981 0.989259
vt 0.509981 0.377203
vt 0.593740 0.377203
vt 0.593740 0.989260
vt 0.127067 0.989293
vt 0.127067 0.376993
vt 0.171758 0.376993
vt 0.171758 0.989293
vt 0.883070 0.141104
vt 0.883070 0.109216
vt 0.981116 0.109216
vt 0.981116 0.141104
vt 0.883220 0.100277
vt 0.883220 0.068389
vt 0.981266 0.068389
vt 0.981266 0.100277
vt 0.233875 0.989026
vt 0.233875 0.372925
vt 0.317634 0.372926
vt 0.317634 0.989026
vt 0.075098 0.989203
vt 0.075099 0.377503
vt 0.120356 0.377503
vt 0.120356 0.989203
vt 0.325938 0.989266
vt 0.325938 0.373482
vt 0.409697 0.373482
vt 0.409697 0.989266
vt 0.022659 0.989139
vt 0.022659 0.377441
vt 0.067916 0.377441
vt 0.067916 0.989139
vt 0.884713 0.228044
vt 0.884713 0.196156
vt 0.982759 0.196156
vt 0.982759 0.228044
vt 0.883409 0.184526
vt 0.883409 0.152637
vt 0.981455 0.152637
vt 0.981455 0.184526
vn -0.675350 0.023286 0.737130
vn -0.655525 -0.090809 0.749694
vn 0.249075 0.027536 0.968093
vn 0.222951 -0.089009 0.970758
vn 0.192217 0.642843 -0.741489
vn -0.237431 0.045786 -0.970325
vn -0.198030 0.636401 0.745505
vn 0.654432 -0.065575 -0.753272
vn -0.220985 -0.067401 -0.972945
vn 0.665759 0.051020 -0.744420
vn -0.675634 -0.000968 0.737236
vn -0.654248 -0.115104 0.747469
vn 0.248457 0.012000 0.968569
vn 0.224934 -0.104992 0.968701
vn 0.179755 0.663219 -0.726518
vn -0.238453 0.061523 -0.969203
vn -0.210119 0.615553 0.759569
vn 0.655300 -0.041260 -0.754241
vn -0.219487 -0.051329 -0.974264
vn 0.665036 0.075300 -0.743006
vn -0.719578 0.049354 0.692655
vn -0.704576 -0.062463 0.706874
vn 0.270264 0.026065 0.962433
vn 0.239677 -0.086849 0.966960
vn 0.229221 0.653897 -0.721025
vn -0.255259 0.044903 -0.965829
vn -0.179677 0.674596 0.715986
vn 0.698159 -0.090360 -0.710218
vn -0.244221 -0.066053 -0.967467
vn 0.712501 0.023267 -0.701285
vn -0.659185 0.039598 0.750938
vn -0.639990 -0.074442 0.764768
vn 0.270184 0.038773 0.962028
vn 0.242524 -0.077451 0.967049
vn 0.183631 0.628539 -0.755790
vn -0.257580 0.034398 -0.965644
vn -0.174619 0.650636 0.739040
vn 0.637588 -0.081950 -0.766007
vn -0.242749 -0.078973 -0.966869
vn 0.650018 0.034677 -0.759127
vn -0.243683 -0.013009 0.969768
vn -0.243683 -0.013009 0.969768
vn -0.243683 -0.013009 0.969768
vn -0.243683 -0.013009 0.969768
vn -0.007418 0.999820 0.017450
vn -0.007418 0.999820 0.017450
vn -0.007418 0.999820 0.017450
vn -0.007418 0.999820 0.017450
vn 0.243683 0.013009 -0.969768
vn 0.243683 0.013009 -0.969768
vn 0.243683 0.013009 -0.969768
vn 0.243683 0.013009 -0.969768
vn 0.007418 -0.999820 -0.017450
vn 0.007418 -0.999820 -0.017450
vn 0.007418 -0.999820 -0.017450
vn 0.007418 -0.999820 -0.017450
vn 0.969838 0.002043 0.243740
vn 0.969838 0.002043 0.243740
vn 0.969838 0.002043 0.243740
vn 0.969838 0.002043 0.243740
vn -0.969838 -0.002043 -0.243740
vn -0.969838 -0.002043 -0.243740
vn -0.969838 -0.002043 -0.243740
vn -0.969838 -0.002043 -0.243740
vn -0.243683 -0.013009 0.969768
vn -0.243683 -0.013009 0.969768
vn -0.243683 -0.013009 0.969768
vn -0.243683 -0.013009 0.969768
vn -0.007418 0.999820 0.017450
vn -0.007418 0.999820 0.017450
vn -0.007418 0.999820 0.017450
vn -0.007418 0.999820 0.017450
vn 0.243683 0.013009 -0.969768
vn 0.243683 0.013009 -0.969768
vn 0.243683 0.013009 -0.969768
vn 0.243683 0.013009 -0.969768
vn 0.007418 -0.999820 -0.017450
vn 0.007418 -0.999820 -0.017450
vn 0.007418 -0.999820 -0.017450
vn 0.007418 -0.999820 -0.017450
vn 0.969838 0.002043 0.243740
vn 0.969838 0.002043 0.243740
vn 0.969838 0.002043 0.243740
vn 0.969838 0.002043 0.243740
vn -0.969838 -0.002043 -0.243740
vn -0.969838 -0.002043 -0.243740
vn -0.969838 -0.002043 -0.243740
vn -0.969838 -0.002043 -0.243740
f 7/27/1 1/3/2 9/28/3
f 9/28/3 1/3/2 2/4/4
f 6/21/5 8/19/6 5/20/7
f 5/20/7 8/19/6 7/33/1
f 2/6/4 1/7/2 4/9/8
f 4/9/8 1/7/2 3/8/9
f 2/11/4 4/12/8 9/31/3
f 9/31/3 4/12/8 10/13/10
f 1/17/2 7/18/1 3/16/9
f 3/16/9 7/18/1 8/34/6
f 10/22/10 4/23/8 8/29/6
f 8/29/6 4/23/8 3/24/9
f 6/14/5 5/15/7 10/32/10
f 10/32/10 5/15/7 9/10/3
f 7/2/1 9/1/3 5/5/7
f 10/30/10 8/25/6 6/26/5
f 17/36/11 11/37/12 19/35/13
f 19/35/13 11/37/12 12/38/14
f 16/40/15 18/41/16 15/39/17
f 15/39/17 18/41/16 17/42/11
f 12/43/14 11/44/12 14/46/18
f 14/46/18 11/44/12 13/45/19
f 12/48/14 14/49/18 19/47/13
f 19/47/13 14/49/18 20/50/20
f 11/52/12 17/53/11 13/51/19
f 13/51/19 17/53/11 18/54/16
f 20/55/20 14/56/18 18/58/16
f 18/58/16 14/56/18 13/57/19
f 16/60/15 15/61/17 20/59/20
f 20/59/20 15/61/17 19/62/13
f 17/63/11 19/64/13 15/65/17
f 20/66/20 18/67/16 16/68/15
f 27/70/21 21/71/22 29/69/23
f 29/69/23 21/71/22 22/72/24
f 26/74/25 28/75/26 25/73/27
f 25/73/27 28/75/26 27/76/21
f 22/77/24 21/78/22 24/80/28
f 24/80/28 21/78/22 23/79/29
f 22/82/24 24/83/28 29/81/23
f 29/81/23 24/83/28 30/84/30
f 21/86/22 27/87/21 23/85/29
f 23/85/29 27/87/21 28/88/26
f 30/89/30 24/90/28 28/92/26
f 28/92/26 24/90/28 23/91/29
f 26/94/25 25/95/27 30/93/30
f 30/93/30 25/95/27 29/96/23
f 27/97/21 29/98/23 25/99/27
f 30/100/30 28/101/26 26/102/25
f 37/104/31 31/105/32 39/103/33
f 39/103/33 31/105/32 32/106/34
f 36/108/35 38/109/36 35/107/37
f 35/107/37 38/109/36 37/110/31
f 32/111/34 31/112/32 34/114/38
f 34/114/38 31/112/32 33/113/39
f 32/116/34 34/117/38 39/115/33
f 39/115/33 34/117/38 40/118/40
f 31/120/32 37/121/31 33/119/39
f 33/119/39 37/121/31 38/122/36
f 40/123/40 34/124/38 38/126/36
f 38/126/36 34/124/38 33/125/39
f 36/128/35 35/129/37 40/127/40
f 40/127/40 35/129/37 39/130/33
f 37/131/31 39/132/33 35/133/37
f 40/134/40 38/135/36 36/136/35
f 41/137/41 42/138/42 43/140/43
f 43/140/43 42/138/42 44/139/44
f 43/141/45 44/142/46 45/144/47
f 45/144/47 44/142/46 46/143/48
f 45/145/49 46/146/50 47/148/51
f 47/148/51 46/146/50 48/147/52
f 47/149/53 48/150/54 41/152/55
f 41/152/55 48/150/54 42/151/56
f 42/153/57 48/154/58 44/156/59
f 44/156/59 48/154/58 46/155/60
f 47/157/61 41/158/62 45/160/63
f 45/160/63 41/158/62 43/159/64
f 49/161/65 50/162/66 51/164/67
f 51/164/67 50/162/66 52/163/68
f 51/165/69 52/166/70 53/168/71
f 53/168/71 52/166/70 54/167/72
f 53/169/73 54/170/74 55/172/75
f 55/172/75 54/170/74 56/171/76
f 55/173/77 56/174/78 49/176/79
f 49/176/79 56/174/78 50/175/80
f 50/177/81 56/178/82 52/180/83
f 52/180/83 56/178/82 54/179/84
f 55/181/85 49/182/86 53/184/87
f 53/184/87 49/182/86 51/183/88
