# This file uses centimeters as units for non-parametric coordinates.

v 219.453093 183.279797 -19.719798
v 219.516245 183.256030 -18.331195
v 220.160297 183.285604 -19.751892
v 220.223449 183.261837 -18.363289
v 219.464106 192.174685 -18.950294
v 220.145451 192.181811 -18.961164
v 219.411650 191.323099 -19.622314
v 220.118781 191.343148 -19.654235
v 219.474892 191.281919 -18.233921
v 220.181904 191.324988 -18.265563
v 219.671013 183.217906 -17.156039
v 219.733754 183.212404 -15.767283
v 220.377835 183.246784 -17.187892
v 220.440575 183.241283 -15.799136
v 219.476743 192.118299 -16.458566
v 220.157672 192.147886 -16.469217
v 219.444364 191.257519 -17.123682
v 220.150784 191.300633 -17.155477
v 219.507595 191.234612 -15.734996
v 220.213367 191.300736 -15.766699
v 219.659304 183.217164 -14.052122
v 219.689048 183.147504 -12.797834
v 220.366996 183.207200 -14.069288
v 220.396739 183.137540 -12.815001
v 219.795544 192.080530 -13.113224
v 220.476907 192.071819 -13.111615
v 219.745342 191.252320 -13.744263
v 220.453186 191.256582 -13.760885
v 219.774900 191.165264 -12.490643
v 220.482990 191.192524 -12.506383
v 219.695627 183.151485 -11.437627
v 219.788365 183.116802 -10.050845
v 220.401938 183.141616 -11.485032
v 220.494677 183.106934 -10.098249
v 219.862961 192.039155 -10.629306
v 220.543904 192.031041 -10.654925
v 219.782641 191.193509 -11.303777
v 220.489106 191.197880 -11.350945
v 219.875190 191.141416 -9.917285
v 220.581905 191.168804 -9.964069
v 220.146512 189.158059 -20.010870
v 220.638752 188.972812 -9.187408
v 220.138798 190.655231 -19.992724
v 220.631038 190.469983 -9.169263
v 220.723330 190.660030 -20.019251
v 221.215570 190.474783 -9.195790
v 220.731044 189.162859 -20.037396
v 221.223284 188.977612 -9.213935
v 220.169271 183.688614 -20.196642
v 220.661510 183.503367 -9.373181
v 220.163217 184.863506 -20.182402
v 220.655457 184.678258 -9.358941
v 220.747749 184.868305 -20.208929
v 221.239989 184.683058 -9.385468
v 220.753803 183.693414 -20.223169
v 221.246042 183.508167 -9.399708
vt 0.780806 0.121878
vt 0.870100 0.121075
vt 0.602661 0.991003
vt 0.602661 0.904550
vt 0.827480 0.081304
vt 0.765231 0.126569
vt 0.765231 0.224231
vt 0.702815 0.224231
vt 0.702815 0.126569
vt 0.535364 0.274985
vt 0.091558 0.009792
vt 0.146297 0.009792
vt 0.146297 0.365468
vt 0.590104 0.313891
vt 0.537435 0.313808
vt 0.025926 0.010552
vt 0.080500 0.010552
vt 0.080500 0.364288
vt 0.538057 0.323620
vt 0.590567 0.360935
vt 0.538057 0.361017
vt 0.602523 0.428417
vt 0.986278 0.428417
vt 0.986278 0.514830
vt 0.869677 0.133872
vt 0.825792 0.173055
vt 0.985644 0.991003
vt 0.984815 0.904550
vt 0.602790 0.514830
vt 0.780423 0.134130
vt 0.091558 0.363825
vt 0.590104 0.276629
vt 0.592631 0.322994
vt 0.025926 0.364914
vt 0.984565 0.809391
vt 0.985394 0.895844
vt 0.602411 0.895844
vt 0.602411 0.809391
vt 0.587993 0.263776
vt 0.535484 0.263859
vt 0.535484 0.226461
vt 0.590058 0.225835
vt 0.762860 0.016513
vt 0.762860 0.114176
vt 0.700444 0.114176
vt 0.700444 0.016513
vt 0.215491 0.364122
vt 0.215491 0.010089
vt 0.270230 0.010089
vt 0.270230 0.365765
vt 0.153597 0.010552
vt 0.208171 0.010552
vt 0.208171 0.364288
vt 0.153597 0.364914
vt 0.601299 0.521252
vt 0.985053 0.521251
vt 0.985053 0.607665
vt 0.601566 0.607665
vt 0.592403 0.178616
vt 0.592403 0.215879
vt 0.539735 0.215795
vt 0.537664 0.176972
vt 0.779958 0.020471
vt 0.869252 0.019669
vt 0.822578 0.060242
vt 0.875480 0.135413
vt 0.875747 0.221828
vt 0.835276 0.179338
vt 0.984074 0.713425
vt 0.984904 0.799877
vt 0.601921 0.799877
vt 0.601921 0.713425
vt 0.589812 0.168948
vt 0.537303 0.169031
vt 0.537303 0.131633
vt 0.591877 0.131007
vt 0.694588 0.125972
vt 0.694588 0.223634
vt 0.632173 0.223634
vt 0.632173 0.125972
vt 0.341945 0.364122
vt 0.341945 0.010089
vt 0.396684 0.010089
vt 0.396684 0.365766
vt 0.279254 0.010816
vt 0.333829 0.010816
vt 0.333829 0.364551
vt 0.279254 0.365177
vt 0.602818 0.332230
vt 0.986573 0.332230
vt 0.986573 0.418643
vt 0.603085 0.418643
vt 0.588543 0.084440
vt 0.588543 0.121703
vt 0.535875 0.121620
vt 0.533804 0.082796
vt 0.779781 0.223944
vt 0.778951 0.137492
vt 0.820858 0.182680
vt 0.781206 0.115549
vt 0.780939 0.029136
vt 0.821410 0.071625
vt 0.984392 0.617480
vt 0.985222 0.703932
vt 0.602239 0.703932
vt 0.602239 0.617480
vt 0.586604 0.072265
vt 0.534094 0.072347
vt 0.534094 0.034950
vt 0.588669 0.034324
vt 0.693824 0.016410
vt 0.693824 0.114072
vt 0.631408 0.114072
vt 0.631408 0.016410
vt 0.469681 0.365273
vt 0.469681 0.011240
vt 0.524420 0.011240
vt 0.524420 0.366917
vt 0.406290 0.012039
vt 0.460865 0.012039
vt 0.460865 0.365774
vt 0.406290 0.366400
vt 0.602832 0.236674
vt 0.986587 0.236674
vt 0.986586 0.323088
vt 0.603099 0.323088
vt 0.977603 0.017476
vt 0.977603 0.054738
vt 0.924935 0.054655
vt 0.922864 0.015832
vt 0.874097 0.225129
vt 0.784803 0.225932
vt 0.831477 0.185359
vt 0.870849 0.024352
vt 0.871116 0.110766
vt 0.830645 0.068277
vt 0.417039 0.989450
vt 0.417039 0.377391
vt 0.500798 0.377391
vt 0.500798 0.989450
vt 0.178993 0.988969
vt 0.178993 0.374277
vt 0.226957 0.374277
vt 0.226957 0.988969
vt 0.509981 0.989259
vt 0.509981 0.377203
vt 0.593740 0.377203
vt 0.593740 0.989260
vt 0.127067 0.989293
vt 0.127067 0.376993
vt 0.171758 0.376993
vt 0.171758 0.989293
vt 0.883070 0.141104
vt 0.883070 0.109216
vt 0.981116 0.109216
vt 0.981116 0.141104
vt 0.883220 0.100277
vt 0.883220 0.068389
vt 0.981266 0.068389
vt 0.981266 0.100277
vt 0.233875 0.989026
vt 0.233875 0.372925
vt 0.317634 0.372926
vt 0.317634 0.989026
vt 0.075098 0.989203
vt 0.075099 0.377503
vt 0.120356 0.377503
vt 0.120356 0.989203
vt 0.325938 0.989266
vt 0.325938 0.373482
vt 0.409697 0.373482
vt 0.409697 0.989266
vt 0.022659 0.989139
vt 0.022659 0.377441
vt 0.067916 0.377441
vt 0.067916 0.989139
vt 0.884713 0.228044
vt 0.884713 0.196156
vt 0.982759 0.196156
vt 0.982759 0.228044
vt 0.883409 0.184526
vt 0.883409 0.152637
vt 0.981455 0.152637
vt 0.981455 0.184526
vn -0.900031 0.036333 -0.434310
vn -0.907082 -0.077968 -0.413670
vn -0.855241 0.027307 0.517510
vn -0.866632 -0.088807 0.490981
vn 0.771500 0.636012 -0.016625
vn 0.861568 0.045815 -0.505571
vn -0.764876 0.643097 0.037294
vn 0.909207 -0.078379 0.408901
vn 0.867517 -0.067613 -0.492790
vn 0.904722 0.038077 0.424298
vn -0.900366 0.012081 -0.434965
vn -0.904741 -0.102261 -0.413505
vn -0.856054 0.011785 0.516752
vn -0.864275 -0.104826 0.491976
vn 0.753854 0.656609 -0.023843
vn 0.860380 0.061570 -0.505920
vn -0.782098 0.622465 0.029343
vn 0.910539 -0.054069 0.409873
vn 0.869394 -0.051571 -0.491421
vn 0.903312 0.062354 0.424428
vn -0.869991 0.062922 -0.489035
vn -0.879994 -0.049057 -0.472446
vn -0.843743 0.025491 0.536142
vn -0.858171 -0.086918 0.505953
vn 0.762553 0.646449 0.024840
vn 0.852131 0.045222 -0.521370
vn -0.730820 0.680940 0.047140
vn 0.880393 -0.103696 0.462770
vn 0.855596 -0.065889 -0.513433
vn 0.876675 0.009783 0.480984
vn -0.908503 0.052453 -0.414573
vn -0.916951 -0.061799 -0.394185
vn -0.843229 0.038197 0.536195
vn -0.857331 -0.077565 0.508889
vn 0.782592 0.621849 -0.029222
vn 0.851166 0.034755 -0.523744
vn -0.751713 0.656921 0.058160
vn 0.916452 -0.094556 0.388812
vn 0.855299 -0.078827 -0.512104
vn 0.914178 0.021929 0.404718
vn -0.998956 -0.005696 0.045334
vn -0.998956 -0.005696 0.045334
vn -0.998956 -0.005696 0.045334
vn -0.998956 -0.005696 0.045334
vn -0.007418 0.999820 0.017450
vn -0.007418 0.999820 0.017450
vn -0.007418 0.999820 0.017450
vn -0.007418 0.999820 0.017450
vn 0.998956 0.005696 -0.045334
vn 0.998956 0.005696 -0.045334
vn 0.998956 0.005696 -0.045334
vn 0.998956 0.005696 -0.045334
vn 0.007418 -0.999820 -0.017450
vn 0.007418 -0.999820 -0.017450
vn 0.007418 -0.999820 -0.017450
vn 0.007418 -0.999820 -0.017450
vn 0.045429 -0.011873 0.998897
vn 0.045429 -0.011873 0.998897
vn 0.045429 -0.011873 0.998897
vn 0.045429 -0.011873 0.998897
vn -0.045429 0.011873 -0.998897
vn -0.045429 0.011873 -0.998897
vn -0.045429 0.011873 -0.998897
vn -0.045429 0.011873 -0.998897
vn -0.998956 -0.005696 0.045334
vn -0.998956 -0.005696 0.045334
vn -0.998956 -0.005696 0.045334
vn -0.998956 -0.005696 0.045334
vn -0.007418 0.999820 0.017450
vn -0.007418 0.999820 0.017450
vn -0.007418 0.999820 0.017450
vn -0.007418 0.999820 0.017450
vn 0.998956 0.005696 -0.045334
vn 0.998956 0.005696 -0.045334
vn 0.998956 0.005696 -0.045334
vn 0.998956 0.005696 -0.045334
vn 0.007418 -0.999820 -0.017450
vn 0.007418 -0.999820 -0.017450
vn 0.007418 -0.999820 -0.017450
vn 0.007418 -0.999820 -0.017450
vn 0.045429 -0.011873 0.998897
vn 0.045429 -0.011873 0.998897
vn 0.045429 -0.011873 0.998897
vn 0.045429 -0.011873 0.998897
vn -0.045429 0.011873 -0.998897
vn -0.045429 0.011873 -0.998897
vn -0.045429 0.011873 -0.998897
vn -0.045429 0.011873 -0.998897
f 7/27/1 1/3/2 9/28/3
f 9/28/3 1/3/2 2/4/4
f 6/21/5 8/19/6 5/20/7
f 5/20/7 8/19/6 7/33/1
f 2/6/4 1/7/2 4/9/8
f 4/9/8 1/7/2 3/8/9
f 2/11/4 4/12/8 9/31/3
f 9/31/3 4/12/8 10/13/10
f 1/17/2 7/18/1 3/16/9
f 3/16/9 7/18/1 8/34/6
f 10/22/10 4/23/8 8/29/6
f 8/29/6 4/23/8 3/24/9
f 6/14/5 5/15/7 10/32/10
f 10/32/10 5/15/7 9/10/3
f 7/2/1 9/1/3 5/5/7
f 10/30/10 8/25/6 6/26/5
f 17/36/11 11/37/12 19/35/13
f 19/35/13 11/37/12 12/38/14
f 16/40/15 18/41/16 15/39/17
f 15/39/17 18/41/16 17/42/11
f 12/43/14 11/44/12 14/46/18
f 14/46/18 11/44/12 13/45/19
f 12/48/14 14/49/18 19/47/13
f 19/47/13 14/49/18 20/50/20
f 11/52/12 17/53/11 13/51/19
f 13/51/19 17/53/11 18/54/16
f 20/55/20 14/56/18 18/58/16
f 18/58/16 14/56/18 13/57/19
f 16/60/15 15/61/17 20/59/20
f 20/59/20 15/61/17 19/62/13
f 17/63/11 19/64/13 15/65/17
f 20/66/20 18/67/16 16/68/15
f 27/70/21 21/71/22 29/69/23
f 29/69/23 21/71/22 22/72/24
f 26/74/25 28/75/26 25/73/27
f 25/73/27 28/75/26 27/76/21
f 22/77/24 21/78/22 24/80/28
f 24/80/28 21/78/22 23/79/29
f 22/82/24 24/83/28 29/81/23
f 29/81/23 24/83/28 30/84/30
f 21/86/22 27/87/21 23/85/29
f 23/85/29 27/87/21 28/88/26
f 30/89/30 24/90/28 28/92/26
f 28/92/26 24/90/28 23/91/29
f 26/94/25 25/95/27 30/93/30
f 30/93/30 25/95/27 29/96/23
f 27/97/21 29/98/23 25/99/27
f 30/100/30 28/101/26 26/102/25
f 37/104/31 31/105/32 39/103/33
f 39/103/33 31/105/32 32/106/34
f 36/108/35 38/109/36 35/107/37
f 35/107/37 38/109/36 37/110/31
f 32/111/34 31/112/32 34/114/38
f 34/114/38 31/112/32 33/113/39
f 32/116/34 34/117/38 39/115/33
f 39/115/33 34/117/38 40/118/40
f 31/120/32 37/121/31 33/119/39
f 33/119/39 37/121/31 38/122/36
f 40/123/40 34/124/38 38/126/36
f 38/126/36 34/124/38 33/125/39
f 36/128/35 35/129/37 40/127/40
f 40/127/40 35/129/37 39/130/33
f 37/131/31 39/132/33 35/133/37
f 40/134/40 38/135/36 36/136/35
f 41/137/41 42/138/42 43/140/43
f 43/140/43 42/138/42 44/139/44
f 43/141/45 44/142/46 45/144/47
f 45/144/47 44/142/46 46/143/48
f 45/145/49 46/146/50 47/148/51
f 47/148/51 46/146/50 48/147/52
f 47/149/53 48/150/54 41/152/55
f 41/152/55 48/150/54 42/151/56
f 42/153/57 48/154/58 44/156/59
f 44/156/59 48/154/58 46/155/60
f 47/157/61 41/158/62 45/160/63
f 45/160/63 41/158/62 43/159/64
f 49/161/65 50/162/66 51/164/67
f 51/164/67 50/162/66 52/163/68
f 51/165/69 52/166/70 53/168/71
f 53/168/71 52/166/70 54/167/72
f 53/169/73 54/170/74 55/172/75
f 55/172/75 54/170/74 56/171/76
f 55/173/77 56/174/78 49/176/79
f 49/176/79 56/174/78 50/175/80
f 50/177/81 56/178/82 52/180/83
f 52/180/83 56/178/82 54/179/84
f 55/181/85 49/182/86 53/184/87
f 53/184/87 49/182/86 51/183/88
