# This file uses centimeters as units for non-parametric coordinates.

v -177.182296 155.518976 -122.840712
v -176.129871 156.473326 -122.401949
v -176.826310 155.347618 -123.435753
v -175.773885 156.301968 -122.996990
v -179.763053 163.049253 -125.922464
v -179.406043 162.899610 -126.489366
v -179.978886 161.914279 -125.792741
v -179.627852 161.754245 -126.393009
v -178.920406 162.854783 -125.347587
v -178.577376 162.713053 -125.956304
v -175.178205 157.244896 -122.107213
v -174.132352 158.213788 -121.674916
v -174.830411 157.091912 -122.710518
v -173.784558 158.060804 -122.278222
v -177.924006 164.772760 -125.047164
v -177.575006 164.641003 -125.622080
v -178.120738 163.631123 -124.928108
v -177.778154 163.489447 -125.536408
v -177.068514 164.586189 -124.489704
v -176.734353 164.462791 -125.106078
v -172.926711 159.452373 -121.020375
v -171.973760 160.282473 -120.583502
v -172.554027 159.279130 -121.604716
v -171.601075 160.109229 -121.167844
v -175.305582 167.051146 -124.134527
v -174.933884 166.897928 -124.691168
v -175.498662 165.963162 -124.001217
v -175.130532 165.801446 -124.590836
v -174.540143 166.779165 -123.557891
v -174.179373 166.636084 -124.156041
v -170.982311 161.250686 -120.118474
v -169.911395 162.188763 -119.700581
v -170.632398 161.056330 -120.712208
v -169.561481 161.994407 -120.294315
v -173.447982 168.769032 -123.312634
v -173.096525 168.597027 -123.878600
v -173.682727 167.643014 -123.163071
v -173.337594 167.459977 -123.762195
v -172.605964 168.567252 -122.738586
v -172.268560 168.402510 -123.346425
v -179.099357 159.778701 -125.719143
v -170.896237 167.217376 -122.299208
v -179.619912 160.969116 -126.268630
v -171.416791 168.407790 -122.848696
v -179.325675 160.827482 -126.760455
v -171.122555 168.266156 -123.340521
v -178.805121 159.637067 -126.210968
v -170.602001 167.075742 -122.791033
v -177.287503 155.346170 -123.748759
v -169.084382 162.784844 -120.328824
v -177.696003 156.280336 -124.179964
v -169.492882 163.719011 -120.760029
v -177.401766 156.138702 -124.671789
v -169.198646 163.577377 -121.251854
v -176.993267 155.204536 -124.240583
v -168.790146 162.643210 -120.820649
vt 0.780806 0.121878
vt 0.870100 0.121075
vt 0.602661 0.991003
vt 0.602661 0.904550
vt 0.827480 0.081304
vt 0.765231 0.126569
vt 0.765231 0.224231
vt 0.702815 0.224231
vt 0.702815 0.126569
vt 0.535364 0.274985
vt 0.091558 0.009792
vt 0.146297 0.009792
vt 0.146297 0.365468
vt 0.590104 0.313891
vt 0.537435 0.313808
vt 0.025926 0.010552
vt 0.080500 0.010552
vt 0.080500 0.364288
vt 0.538057 0.323620
vt 0.590567 0.360935
vt 0.538057 0.361017
vt 0.602523 0.428417
vt 0.986278 0.428417
vt 0.986278 0.514830
vt 0.869677 0.133872
vt 0.825792 0.173055
vt 0.985644 0.991003
vt 0.984815 0.904550
vt 0.602790 0.514830
vt 0.780423 0.134130
vt 0.091558 0.363825
vt 0.590104 0.276629
vt 0.592631 0.322994
vt 0.025926 0.364914
vt 0.984565 0.809391
vt 0.985394 0.895844
vt 0.602411 0.895844
vt 0.602411 0.809391
vt 0.587993 0.263776
vt 0.535484 0.263859
vt 0.535484 0.226461
vt 0.590058 0.225835
vt 0.762860 0.016513
vt 0.762860 0.114176
vt 0.700444 0.114176
vt 0.700444 0.016513
vt 0.215491 0.364122
vt 0.215491 0.010089
vt 0.270230 0.010089
vt 0.270230 0.365765
vt 0.153597 0.010552
vt 0.208171 0.010552
vt 0.208171 0.364288
vt 0.153597 0.364914
vt 0.601299 0.521252
vt 0.985053 0.521251
vt 0.985053 0.607665
vt 0.601566 0.607665
vt 0.592403 0.178616
vt 0.592403 0.215879
vt 0.539735 0.215795
vt 0.537664 0.176972
vt 0.779958 0.020471
vt 0.869252 0.019669
vt 0.822578 0.060242
vt 0.875480 0.135413
vt 0.875747 0.221828
vt 0.835276 0.179338
vt 0.984074 0.713425
vt 0.984904 0.799877
vt 0.601921 0.799877
vt 0.601921 0.713425
vt 0.589812 0.168948
vt 0.537303 0.169031
vt 0.537303 0.131633
vt 0.591877 0.131007
vt 0.694588 0.125972
vt 0.694588 0.223634
vt 0.632173 0.223634
vt 0.632173 0.125972
vt 0.341945 0.364122
vt 0.341945 0.010089
vt 0.396684 0.010089
vt 0.396684 0.365766
vt 0.279254 0.010816
vt 0.333829 0.010816
vt 0.333829 0.364551
vt 0.279254 0.365177
vt 0.602818 0.332230
vt 0.986573 0.332230
vt 0.986573 0.418643
vt 0.603085 0.418643
vt 0.588543 0.084440
vt 0.588543 0.121703
vt 0.535875 0.121620
vt 0.533804 0.082796
vt 0.779781 0.223944
vt 0.778951 0.137492
vt 0.820858 0.182680
vt 0.781206 0.115549
vt 0.780939 0.029136
vt 0.821410 0.071625
vt 0.984392 0.617480
vt 0.985222 0.703932
vt 0.602239 0.703932
vt 0.602239 0.617480
vt 0.586604 0.072265
vt 0.534094 0.072347
vt 0.534094 0.034950
vt 0.588669 0.034324
vt 0.693824 0.016410
vt 0.693824 0.114072
vt 0.631408 0.114072
vt 0.631408 0.016410
vt 0.469681 0.365273
vt 0.469681 0.011240
vt 0.524420 0.011240
vt 0.524420 0.366917
vt 0.406290 0.012039
vt 0.460865 0.012039
vt 0.460865 0.365774
vt 0.406290 0.366400
vt 0.602832 0.236674
vt 0.986587 0.236674
vt 0.986586 0.323088
vt 0.603099 0.323088
vt 0.977603 0.017476
vt 0.977603 0.054738
vt 0.924935 0.054655
vt 0.922864 0.015832
vt 0.874097 0.225129
vt 0.784803 0.225932
vt 0.831477 0.185359
vt 0.870849 0.024352
vt 0.871116 0.110766
vt 0.830645 0.068277
vt 0.417039 0.989450
vt 0.417039 0.377391
vt 0.500798 0.377391
vt 0.500798 0.989450
vt 0.178993 0.988969
vt 0.178993 0.374277
vt 0.226957 0.374277
vt 0.226957 0.988969
vt 0.509981 0.989259
vt 0.509981 0.377203
vt 0.593740 0.377203
vt 0.593740 0.989260
vt 0.127067 0.989293
vt 0.127067 0.376993
vt 0.171758 0.376993
vt 0.171758 0.989293
vt 0.883070 0.141104
vt 0.883070 0.109216
vt 0.981116 0.109216
vt 0.981116 0.141104
vt 0.883220 0.100277
vt 0.883220 0.068389
vt 0.981266 0.068389
vt 0.981266 0.100277
vt 0.233875 0.989026
vt 0.233875 0.372925
vt 0.317634 0.372926
vt 0.317634 0.989026
vt 0.075098 0.989203
vt 0.075099 0.377503
vt 0.120356 0.377503
vt 0.120356 0.989203
vt 0.325938 0.989266
vt 0.325938 0.373482
vt 0.409697 0.373482
vt 0.409697 0.989266
vt 0.022659 0.989139
vt 0.022659 0.377441
vt 0.067916 0.377441
vt 0.067916 0.989139
vt 0.884713 0.228044
vt 0.884713 0.196156
vt 0.982759 0.196156
vt 0.982759 0.228044
vt 0.883409 0.184526
vt 0.883409 0.152637
vt 0.981455 0.152637
vt 0.981455 0.184526
vn -0.819981 -0.050466 0.570162
vn -0.752078 -0.129277 0.646271
vn -0.102487 0.420826 0.901333
vn -0.066256 0.308568 0.948892
vn 0.075727 0.355271 -0.931691
vn 0.075524 -0.352096 -0.932912
vn -0.712006 0.637650 0.294023
vn 0.826531 0.003507 -0.562880
vn 0.149829 -0.444407 -0.883206
vn 0.778686 0.103457 -0.618826
vn -0.808905 -0.069844 0.583776
vn -0.738451 -0.148705 0.657706
vn -0.095097 0.407011 0.908460
vn -0.055775 0.295182 0.953812
vn 0.051667 0.368640 -0.928135
vn 0.066215 -0.338603 -0.938596
vn -0.717195 0.620683 0.316836
vn 0.816257 0.022872 -0.577236
vn 0.143103 -0.429952 -0.891439
vn 0.765954 0.122891 -0.631041
vn -0.856864 -0.061087 0.511910
vn -0.796182 -0.139871 0.588669
vn -0.081119 0.427605 0.900319
vn -0.051550 0.316672 0.947133
vn 0.094864 0.384433 -0.918266
vn 0.058881 -0.359520 -0.931278
vn -0.703971 0.665377 0.248391
vn 0.862185 0.014509 -0.506386
vn 0.126772 -0.452419 -0.882749
vn 0.819920 0.113531 -0.561108
vn -0.817819 -0.026767 0.574852
vn -0.750913 -0.105348 0.651944
vn -0.087674 0.438701 0.894346
vn -0.053855 0.326038 0.943821
vn 0.079608 0.337539 -0.937939
vn 0.062157 -0.369658 -0.927086
vn -0.697847 0.657793 0.283403
vn 0.823636 -0.020157 -0.566760
vn 0.134694 -0.462998 -0.876065
vn 0.777189 0.079583 -0.624214
vn -0.505996 0.169144 0.845788
vn -0.505996 0.169144 0.845788
vn -0.505996 0.169144 0.845788
vn -0.505996 0.169144 0.845788
vn -0.464428 0.737544 -0.490241
vn -0.464428 0.737544 -0.490241
vn -0.464428 0.737544 -0.490241
vn -0.464428 0.737544 -0.490241
vn 0.505996 -0.169144 -0.845788
vn 0.505996 -0.169144 -0.845788
vn 0.505996 -0.169144 -0.845788
vn 0.505996 -0.169144 -0.845788
vn 0.464428 -0.737544 0.490241
vn 0.464428 -0.737544 0.490241
vn 0.464428 -0.737544 0.490241
vn 0.464428 -0.737544 0.490241
vn 0.797993 0.502520 0.332688
vn 0.797993 0.502520 0.332688
vn 0.797993 0.502520 0.332688
vn 0.797993 0.502520 0.332688
vn -0.797993 -0.502520 -0.332688
vn -0.797993 -0.502520 -0.332688
vn -0.797993 -0.502520 -0.332688
vn -0.797993 -0.502520 -0.332688
vn -0.505996 0.169144 0.845788
vn -0.505996 0.169144 0.845788
vn -0.505996 0.169144 0.845788
vn -0.505996 0.169144 0.845788
vn -0.464428 0.737544 -0.490241
vn -0.464428 0.737544 -0.490241
vn -0.464428 0.737544 -0.490241
vn -0.464428 0.737544 -0.490241
vn 0.505996 -0.169144 -0.845788
vn 0.505996 -0.169144 -0.845788
vn 0.505996 -0.169144 -0.845788
vn 0.505996 -0.169144 -0.845788
vn 0.464428 -0.737544 0.490241
vn 0.464428 -0.737544 0.490241
vn 0.464428 -0.737544 0.490241
vn 0.464428 -0.737544 0.490241
vn 0.797993 0.502520 0.332688
vn 0.797993 0.502520 0.332688
vn 0.797993 0.502520 0.332688
vn 0.797993 0.502520 0.332688
vn -0.797993 -0.502520 -0.332688
vn -0.797993 -0.502520 -0.332688
vn -0.797993 -0.502520 -0.332688
vn -0.797993 -0.502520 -0.332688
f 7/27/1 1/3/2 9/28/3
f 9/28/3 1/3/2 2/4/4
f 6/21/5 8/19/6 5/20/7
f 5/20/7 8/19/6 7/33/1
f 2/6/4 1/7/2 4/9/8
f 4/9/8 1/7/2 3/8/9
f 2/11/4 4/12/8 9/31/3
f 9/31/3 4/12/8 10/13/10
f 1/17/2 7/18/1 3/16/9
f 3/16/9 7/18/1 8/34/6
f 10/22/10 4/23/8 8/29/6
f 8/29/6 4/23/8 3/24/9
f 6/14/5 5/15/7 10/32/10
f 10/32/10 5/15/7 9/10/3
f 7/2/1 9/1/3 5/5/7
f 10/30/10 8/25/6 6/26/5
f 17/36/11 11/37/12 19/35/13
f 19/35/13 11/37/12 12/38/14
f 16/40/15 18/41/16 15/39/17
f 15/39/17 18/41/16 17/42/11
f 12/43/14 11/44/12 14/46/18
f 14/46/18 11/44/12 13/45/19
f 12/48/14 14/49/18 19/47/13
f 19/47/13 14/49/18 20/50/20
f 11/52/12 17/53/11 13/51/19
f 13/51/19 17/53/11 18/54/16
f 20/55/20 14/56/18 18/58/16
f 18/58/16 14/56/18 13/57/19
f 16/60/15 15/61/17 20/59/20
f 20/59/20 15/61/17 19/62/13
f 17/63/11 19/64/13 15/65/17
f 20/66/20 18/67/16 16/68/15
f 27/70/21 21/71/22 29/69/23
f 29/69/23 21/71/22 22/72/24
f 26/74/25 28/75/26 25/73/27
f 25/73/27 28/75/26 27/76/21
f 22/77/24 21/78/22 24/80/28
f 24/80/28 21/78/22 23/79/29
f 22/82/24 24/83/28 29/81/23
f 29/81/23 24/83/28 30/84/30
f 21/86/22 27/87/21 23/85/29
f 23/85/29 27/87/21 28/88/26
f 30/89/30 24/90/28 28/92/26
f 28/92/26 24/90/28 23/91/29
f 26/94/25 25/95/27 30/93/30
f 30/93/30 25/95/27 29/96/23
f 27/97/21 29/98/23 25/99/27
f 30/100/30 28/101/26 26/102/25
f 37/104/31 31/105/32 39/103/33
f 39/103/33 31/105/32 32/106/34
f 36/108/35 38/109/36 35/107/37
f 35/107/37 38/109/36 37/110/31
f 32/111/34 31/112/32 34/114/38
f 34/114/38 31/112/32 33/113/39
f 32/116/34 34/117/38 39/115/33
f 39/115/33 34/117/38 40/118/40
f 31/120/32 37/121/31 33/119/39
f 33/119/39 37/121/31 38/122/36
f 40/123/40 34/124/38 38/126/36
f 38/126/36 34/124/38 33/125/39
f 36/128/35 35/129/37 40/127/40
f 40/127/40 35/129/37 39/130/33
f 37/131/31 39/132/33 35/133/37
f 40/134/40 38/135/36 36/136/35
f 41/137/41 42/138/42 43/140/43
f 43/140/43 42/138/42 44/139/44
f 43/141/45 44/142/46 45/144/47
f 45/144/47 44/142/46 46/143/48
f 45/145/49 46/146/50 47/148/51
f 47/148/51 46/146/50 48/147/52
f 47/149/53 48/150/54 41/152/55
f 41/152/55 48/150/54 42/151/56
f 42/153/57 48/154/58 44/156/59
f 44/156/59 48/154/58 46/155/60
f 47/157/61 41/158/62 45/160/63
f 45/160/63 41/158/62 43/159/64
f 49/161/65 50/162/66 51/164/67
f 51/164/67 50/162/66 52/163/68
f 51/165/69 52/166/70 53/168/71
f 53/168/71 52/166/70 54/167/72
f 53/169/73 54/170/74 55/172/75
f 55/172/75 54/170/74 56/171/76
f 55/173/77 56/174/78 49/176/79
f 49/176/79 56/174/78 50/175/80
f 50/177/81 56/178/82 52/180/83
f 52/180/83 56/178/82 54/179/84
f 55/181/85 49/182/86 53/184/87
f 53/184/87 49/182/86 51/183/88
