# This file uses centimeters as units for non-parametric coordinates.

v 214.600969 179.827864 80.002411
v 214.339703 179.802098 81.367651
v 215.296289 179.830699 80.135512
v 215.035023 179.804934 81.500752
v 214.456688 188.721685 80.767014
v 215.121929 188.725923 80.914752
v 214.559527 187.871166 80.099896
v 215.254773 187.888244 80.233169
v 214.298350 187.827987 81.464925
v 214.993478 187.868085 81.598477
v 214.217099 179.761850 82.546548
v 213.955446 179.754351 83.911868
v 214.912053 179.787758 82.679829
v 214.650400 179.780259 84.045149
v 213.889904 188.662141 83.193405
v 214.554749 188.688841 83.341293
v 214.010640 187.802333 82.537652
v 214.705229 187.842478 82.670917
v 213.749434 187.777426 83.902991
v 214.443432 187.840584 84.036231
v 213.484548 179.757290 85.562803
v 213.221872 179.685941 86.789570
v 214.176832 179.744334 85.710511
v 213.914156 179.672984 86.937278
v 213.422626 188.618845 86.521210
v 214.084943 188.607231 86.681065
v 213.518198 187.791641 85.894510
v 214.210541 187.792910 86.042806
v 213.255449 187.702897 87.120558
v 213.947888 187.727162 87.269804
v 212.912253 179.688198 88.114089
v 212.680157 179.651393 89.484414
v 213.610220 179.675381 88.232066
v 213.378124 179.638576 89.602392
v 212.910977 188.574088 88.952754
v 213.579213 188.563107 89.086030
v 212.987299 187.729631 88.276786
v 213.685399 187.731052 88.395052
v 212.755040 187.675416 89.646759
v 213.453355 187.699853 89.765491
v 215.358761 185.703496 79.889397
v 213.322323 185.502666 90.530748
v 215.351047 187.200667 79.907542
v 213.314609 186.999837 90.548894
v 215.925756 187.203011 80.017555
v 213.889318 187.002181 90.658907
v 215.933470 185.705840 79.999410
v 213.897032 185.505010 90.640761
v 215.409428 180.234223 79.705634
v 213.372990 180.033393 90.346986
v 215.403374 181.409114 79.719874
v 213.366937 181.208284 90.361225
v 215.978084 181.411458 79.829887
v 213.941646 181.210628 90.471238
v 215.984137 180.236567 79.815647
v 213.947700 180.035737 90.456999
vt 0.780806 0.121878
vt 0.870100 0.121075
vt 0.602661 0.991003
vt 0.602661 0.904550
vt 0.827480 0.081304
vt 0.765231 0.126569
vt 0.765231 0.224231
vt 0.702815 0.224231
vt 0.702815 0.126569
vt 0.535364 0.274985
vt 0.091558 0.009792
vt 0.146297 0.009792
vt 0.146297 0.365468
vt 0.590104 0.313891
vt 0.537435 0.313808
vt 0.025926 0.010552
vt 0.080500 0.010552
vt 0.080500 0.364288
vt 0.538057 0.323620
vt 0.590567 0.360935
vt 0.538057 0.361017
vt 0.602523 0.428417
vt 0.986278 0.428417
vt 0.986278 0.514830
vt 0.869677 0.133872
vt 0.825792 0.173055
vt 0.985644 0.991003
vt 0.984815 0.904550
vt 0.602790 0.514830
vt 0.780423 0.134130
vt 0.091558 0.363825
vt 0.590104 0.276629
vt 0.592631 0.322994
vt 0.025926 0.364914
vt 0.984565 0.809391
vt 0.985394 0.895844
vt 0.602411 0.895844
vt 0.602411 0.809391
vt 0.587993 0.263776
vt 0.535484 0.263859
vt 0.535484 0.226461
vt 0.590058 0.225835
vt 0.762860 0.016513
vt 0.762860 0.114176
vt 0.700444 0.114176
vt 0.700444 0.016513
vt 0.215491 0.364122
vt 0.215491 0.010089
vt 0.270230 0.010089
vt 0.270230 0.365765
vt 0.153597 0.010552
vt 0.208171 0.010552
vt 0.208171 0.364288
vt 0.153597 0.364914
vt 0.601299 0.521252
vt 0.985053 0.521251
vt 0.985053 0.607665
vt 0.601566 0.607665
vt 0.592403 0.178616
vt 0.592403 0.215879
vt 0.539735 0.215795
vt 0.537664 0.176972
vt 0.779958 0.020471
vt 0.869252 0.019669
vt 0.822578 0.060242
vt 0.875480 0.135413
vt 0.875747 0.221828
vt 0.835276 0.179338
vt 0.984074 0.713425
vt 0.984904 0.799877
vt 0.601921 0.799877
vt 0.601921 0.713425
vt 0.589812 0.168948
vt 0.537303 0.169031
vt 0.537303 0.131633
vt 0.591877 0.131007
vt 0.694588 0.125972
vt 0.694588 0.223634
vt 0.632173 0.223634
vt 0.632173 0.125972
vt 0.341945 0.364122
vt 0.341945 0.010089
vt 0.396684 0.010089
vt 0.396684 0.365766
vt 0.279254 0.010816
vt 0.333829 0.010816
vt 0.333829 0.364551
vt 0.279254 0.365177
vt 0.602818 0.332230
vt 0.986573 0.332230
vt 0.986573 0.418643
vt 0.603085 0.418643
vt 0.588543 0.084440
vt 0.588543 0.121703
vt 0.535875 0.121620
vt 0.533804 0.082796
vt 0.779781 0.223944
vt 0.778951 0.137492
vt 0.820858 0.182680
vt 0.781206 0.115549
vt 0.780939 0.029136
vt 0.821410 0.071625
vt 0.984392 0.617480
vt 0.985222 0.703932
vt 0.602239 0.703932
vt 0.602239 0.617480
vt 0.586604 0.072265
vt 0.534094 0.072347
vt 0.534094 0.034950
vt 0.588669 0.034324
vt 0.693824 0.016410
vt 0.693824 0.114072
vt 0.631408 0.114072
vt 0.631408 0.016410
vt 0.469681 0.365273
vt 0.469681 0.011240
vt 0.524420 0.011240
vt 0.524420 0.366917
vt 0.406290 0.012039
vt 0.460865 0.012039
vt 0.460865 0.365774
vt 0.406290 0.366400
vt 0.602832 0.236674
vt 0.986587 0.236674
vt 0.986586 0.323088
vt 0.603099 0.323088
vt 0.977603 0.017476
vt 0.977603 0.054738
vt 0.924935 0.054655
vt 0.922864 0.015832
vt 0.874097 0.225129
vt 0.784803 0.225932
vt 0.831477 0.185359
vt 0.870849 0.024352
vt 0.871116 0.110766
vt 0.830645 0.068277
vt 0.417039 0.989450
vt 0.417039 0.377391
vt 0.500798 0.377391
vt 0.500798 0.989450
vt 0.178993 0.988969
vt 0.178993 0.374277
vt 0.226957 0.374277
vt 0.226957 0.988969
vt 0.509981 0.989259
vt 0.509981 0.377203
vt 0.593740 0.377203
vt 0.593740 0.989260
vt 0.127067 0.989293
vt 0.127067 0.376993
vt 0.171758 0.376993
vt 0.171758 0.989293
vt 0.883070 0.141104
vt 0.883070 0.109216
vt 0.981116 0.109216
vt 0.981116 0.141104
vt 0.883220 0.100277
vt 0.883220 0.068389
vt 0.981266 0.068389
vt 0.981266 0.100277
vt 0.233875 0.989026
vt 0.233875 0.372925
vt 0.317634 0.372926
vt 0.317634 0.989026
vt 0.075098 0.989203
vt 0.075099 0.377503
vt 0.120356 0.377503
vt 0.120356 0.989203
vt 0.325938 0.989266
vt 0.325938 0.373482
vt 0.409697 0.373482
vt 0.409697 0.989266
vt 0.022659 0.989139
vt 0.022659 0.377441
vt 0.067916 0.377441
vt 0.067916 0.989139
vt 0.884713 0.228044
vt 0.884713 0.196156
vt 0.982759 0.196156
vt 0.982759 0.228044
vt 0.883409 0.184526
vt 0.883409 0.152637
vt 0.981455 0.152637
vt 0.981455 0.184526
vn -0.774389 0.039371 -0.631484
vn -0.786364 -0.074920 -0.613204
vn -0.951990 0.029389 0.304715
vn -0.957249 -0.086662 0.275979
vn 0.756217 0.633339 0.164371
vn 0.955587 0.043703 -0.291451
vn -0.750603 0.645729 -0.140106
vn 0.789100 -0.081430 0.608843
vn 0.958069 -0.069756 -0.277918
vn 0.781487 0.035033 0.622938
vn -0.774632 0.015120 -0.632232
vn -0.784193 -0.099214 -0.612534
vn -0.952651 0.013869 0.303750
vn -0.955235 -0.102685 0.277455
vn 0.740817 0.653979 0.153303
vn 0.954560 0.059460 -0.292028
vn -0.765591 0.625139 -0.151893
vn 0.790238 -0.057120 0.610132
vn 0.959623 -0.053719 -0.276111
vn 0.780154 0.059310 0.622770
vn -0.732378 0.065922 -0.677700
vn -0.746282 -0.046043 -0.664035
vn -0.945140 0.027523 0.325504
vn -0.952494 -0.084811 0.292510
vn 0.737923 0.643751 0.202619
vn 0.950079 0.043152 -0.309012
vn -0.719604 0.683490 -0.122523
vn 0.748481 -0.106714 0.654514
vn 0.951273 -0.067979 -0.300763
vn 0.740958 0.006774 0.671517
vn -0.787171 0.055502 -0.614233
vn -0.800442 -0.058742 -0.596525
vn -0.944615 0.040228 0.325706
vn -0.952331 -0.075465 0.295584
vn 0.769875 0.619168 0.154673
vn 0.949660 0.032690 -0.311571
vn -0.742587 0.659503 -0.116707
vn 0.800771 -0.097614 0.590962
vn 0.950636 -0.080918 -0.299571
vn 0.795188 0.018875 0.606069
vn -0.982163 -0.002782 -0.188009
vn -0.982163 -0.002782 -0.188009
vn -0.982163 -0.002782 -0.188009
vn -0.982163 -0.002782 -0.188009
vn -0.007418 0.999820 0.017450
vn -0.007418 0.999820 0.017450
vn -0.007418 0.999820 0.017450
vn -0.007418 0.999820 0.017450
vn 0.982163 0.002782 0.188009
vn 0.982163 0.002782 0.188009
vn 0.982163 0.002782 0.188009
vn 0.982163 0.002782 0.188009
vn 0.007418 -0.999820 -0.017450
vn 0.007418 -0.999820 -0.017450
vn 0.007418 -0.999820 -0.017450
vn 0.007418 -0.999820 -0.017450
vn -0.187944 -0.012871 0.982095
vn -0.187944 -0.012871 0.982095
vn -0.187944 -0.012871 0.982095
vn -0.187944 -0.012871 0.982095
vn 0.187944 0.012871 -0.982095
vn 0.187944 0.012871 -0.982095
vn 0.187944 0.012871 -0.982095
vn 0.187944 0.012871 -0.982095
vn -0.982163 -0.002782 -0.188009
vn -0.982163 -0.002782 -0.188009
vn -0.982163 -0.002782 -0.188009
vn -0.982163 -0.002782 -0.188009
vn -0.007418 0.999820 0.017450
vn -0.007418 0.999820 0.017450
vn -0.007418 0.999820 0.017450
vn -0.007418 0.999820 0.017450
vn 0.982163 0.002782 0.188009
vn 0.982163 0.002782 0.188009
vn 0.982163 0.002782 0.188009
vn 0.982163 0.002782 0.188009
vn 0.007418 -0.999820 -0.017450
vn 0.007418 -0.999820 -0.017450
vn 0.007418 -0.999820 -0.017450
vn 0.007418 -0.999820 -0.017450
vn -0.187944 -0.012871 0.982095
vn -0.187944 -0.012871 0.982095
vn -0.187944 -0.012871 0.982095
vn -0.187944 -0.012871 0.982095
vn 0.187944 0.012871 -0.982095
vn 0.187944 0.012871 -0.982095
vn 0.187944 0.012871 -0.982095
vn 0.187944 0.012871 -0.982095
f 7/27/1 1/3/2 9/28/3
f 9/28/3 1/3/2 2/4/4
f 6/21/5 8/19/6 5/20/7
f 5/20/7 8/19/6 7/33/1
f 2/6/4 1/7/2 4/9/8
f 4/9/8 1/7/2 3/8/9
f 2/11/4 4/12/8 9/31/3
f 9/31/3 4/12/8 10/13/10
f 1/17/2 7/18/1 3/16/9
f 3/16/9 7/18/1 8/34/6
f 10/22/10 4/23/8 8/29/6
f 8/29/6 4/23/8 3/24/9
f 6/14/5 5/15/7 10/32/10
f 10/32/10 5/15/7 9/10/3
f 7/2/1 9/1/3 5/5/7
f 10/30/10 8/25/6 6/26/5
f 17/36/11 11/37/12 19/35/13
f 19/35/13 11/37/12 12/38/14
f 16/40/15 18/41/16 15/39/17
f 15/39/17 18/41/16 17/42/11
f 12/43/14 11/44/12 14/46/18
f 14/46/18 11/44/12 13/45/19
f 12/48/14 14/49/18 19/47/13
f 19/47/13 14/49/18 20/50/20
f 11/52/12 17/53/11 13/51/19
f 13/51/19 17/53/11 18/54/16
f 20/55/20 14/56/18 18/58/16
f 18/58/16 14/56/18 13/57/19
f 16/60/15 15/61/17 20/59/20
f 20/59/20 15/61/17 19/62/13
f 17/63/11 19/64/13 15/65/17
f 20/66/20 18/67/16 16/68/15
f 27/70/21 21/71/22 29/69/23
f 29/69/23 21/71/22 22/72/24
f 26/74/25 28/75/26 25/73/27
f 25/73/27 28/75/26 27/76/21
f 22/77/24 21/78/22 24/80/28
f 24/80/28 21/78/22 23/79/29
f 22/82/24 24/83/28 29/81/23
f 29/81/23 24/83/28 30/84/30
f 21/86/22 27/87/21 23/85/29
f 23/85/29 27/87/21 28/88/26
f 30/89/30 24/90/28 28/92/26
f 28/92/26 24/90/28 23/91/29
f 26/94/25 25/95/27 30/93/30
f 30/93/30 25/95/27 29/96/23
f 27/97/21 29/98/23 25/99/27
f 30/100/30 28/101/26 26/102/25
f 37/104/31 31/105/32 39/103/33
f 39/103/33 31/105/32 32/106/34
f 36/108/35 38/109/36 35/107/37
f 35/107/37 38/109/36 37/110/31
f 32/111/34 31/112/32 34/114/38
f 34/114/38 31/112/32 33/113/39
f 32/116/34 34/117/38 39/115/33
f 39/115/33 34/117/38 40/118/40
f 31/120/32 37/121/31 33/119/39
f 33/119/39 37/121/31 38/122/36
f 40/123/40 34/124/38 38/126/36
f 38/126/36 34/124/38 33/125/39
f 36/128/35 35/129/37 40/127/40
f 40/127/40 35/129/37 39/130/33
f 37/131/31 39/132/33 35/133/37
f 40/134/40 38/135/36 36/136/35
f 41/137/41 42/138/42 43/140/43
f 43/140/43 42/138/42 44/139/44
f 43/141/45 44/142/46 45/144/47
f 45/144/47 44/142/46 46/143/48
f 45/145/49 46/146/50 47/148/51
f 47/148/51 46/146/50 48/147/52
f 47/149/53 48/150/54 41/152/55
f 41/152/55 48/150/54 42/151/56
f 42/153/57 48/154/58 44/156/59
f 44/156/59 48/154/58 46/155/60
f 47/157/61 41/158/62 45/160/63
f 45/160/63 41/158/62 43/159/64
f 49/161/65 50/162/66 51/164/67
f 51/164/67 50/162/66 52/163/68
f 51/165/69 52/166/70 53/168/71
f 53/168/71 52/166/70 54/167/72
f 53/169/73 54/170/74 55/172/75
f 55/172/75 54/170/74 56/171/76
f 55/173/77 56/174/78 49/176/79
f 49/176/79 56/174/78 50/175/80
f 50/177/81 56/178/82 52/180/83
f 52/180/83 56/178/82 54/179/84
f 55/181/85 49/182/86 53/184/87
f 53/184/87 49/182/86 51/183/88
