# This file uses centimeters as units for non-parametric coordinates.

v -203.461766 145.855498 -158.811755
v -202.241347 145.927487 -158.148748
v -203.126476 145.914105 -159.433355
v -201.906056 145.986093 -158.770348
v -203.392026 154.769663 -158.220997
v -203.051966 154.828963 -158.809472
v -203.936316 153.873129 -158.542780
v -203.601866 153.945932 -159.163903
v -202.714869 153.927760 -157.880355
v -202.381777 154.023509 -158.500709
v -201.155299 145.978331 -157.674766
v -199.936179 146.068497 -157.010913
v -200.821538 146.059912 -158.295389
v -199.602418 146.150078 -157.631535
v -201.252867 154.877332 -156.945448
v -200.914333 154.958994 -157.532941
v -201.780338 153.973647 -157.281051
v -201.447684 154.069385 -157.900977
v -200.559865 154.046503 -156.618050
v -200.229000 154.165124 -157.236849
v -198.509304 146.179570 -156.060757
v -197.417734 146.194455 -155.439619
v -198.159957 146.223474 -156.675419
v -197.068387 146.238360 -156.054280
v -198.228437 155.083122 -155.490334
v -197.876650 155.127458 -156.072737
v -198.738117 154.212734 -155.792336
v -198.389175 154.270862 -156.406523
v -197.646052 154.210227 -155.171779
v -197.297765 154.291347 -155.785197
v -196.252473 146.287842 -154.742245
v -195.017692 146.351132 -154.105744
v -195.929677 146.329758 -155.371350
v -194.694895 146.393048 -154.734849
v -196.068827 155.209491 -154.265354
v -195.740559 155.252610 -154.861453
v -196.629915 154.316552 -154.564425
v -196.307787 154.372684 -155.193215
v -195.394317 154.362460 -153.928309
v -195.073269 154.441572 -154.556590
v -203.746568 151.747516 -159.421682
v -194.234017 152.308630 -154.253879
v -203.834900 153.239909 -159.371615
v -194.322350 153.801023 -154.203813
v -203.557769 153.288349 -159.885392
v -194.045219 153.849463 -154.717589
v -203.469437 151.795956 -159.935459
v -193.956886 152.357070 -154.767656
v -203.528742 146.287297 -159.661691
v -194.016192 146.848410 -154.493888
v -203.598060 147.458438 -159.622401
v -194.085510 148.019552 -154.454598
v -203.320929 147.506878 -160.136178
v -193.808379 148.067992 -154.968375
v -203.251612 146.335737 -160.175467
v -193.739061 146.896851 -155.007665
vt 0.780806 0.121878
vt 0.870100 0.121075
vt 0.602661 0.991003
vt 0.602661 0.904550
vt 0.827480 0.081304
vt 0.765231 0.126569
vt 0.765231 0.224231
vt 0.702815 0.224231
vt 0.702815 0.126569
vt 0.535364 0.274985
vt 0.091558 0.009792
vt 0.146297 0.009792
vt 0.146297 0.365468
vt 0.590104 0.313891
vt 0.537435 0.313808
vt 0.025926 0.010552
vt 0.080500 0.010552
vt 0.080500 0.364288
vt 0.538057 0.323620
vt 0.590567 0.360935
vt 0.538057 0.361017
vt 0.602523 0.428417
vt 0.986278 0.428417
vt 0.986278 0.514830
vt 0.869677 0.133872
vt 0.825792 0.173055
vt 0.985644 0.991003
vt 0.984815 0.904550
vt 0.602790 0.514830
vt 0.780423 0.134130
vt 0.091558 0.363825
vt 0.590104 0.276629
vt 0.592631 0.322994
vt 0.025926 0.364914
vt 0.984565 0.809391
vt 0.985394 0.895844
vt 0.602411 0.895844
vt 0.602411 0.809391
vt 0.587993 0.263776
vt 0.535484 0.263859
vt 0.535484 0.226461
vt 0.590058 0.225835
vt 0.762860 0.016513
vt 0.762860 0.114176
vt 0.700444 0.114176
vt 0.700444 0.016513
vt 0.215491 0.364122
vt 0.215491 0.010089
vt 0.270230 0.010089
vt 0.270230 0.365765
vt 0.153597 0.010552
vt 0.208171 0.010552
vt 0.208171 0.364288
vt 0.153597 0.364914
vt 0.601299 0.521252
vt 0.985053 0.521251
vt 0.985053 0.607665
vt 0.601566 0.607665
vt 0.592403 0.178616
vt 0.592403 0.215879
vt 0.539735 0.215795
vt 0.537664 0.176972
vt 0.779958 0.020471
vt 0.869252 0.019669
vt 0.822578 0.060242
vt 0.875480 0.135413
vt 0.875747 0.221828
vt 0.835276 0.179338
vt 0.984074 0.713425
vt 0.984904 0.799877
vt 0.601921 0.799877
vt 0.601921 0.713425
vt 0.589812 0.168948
vt 0.537303 0.169031
vt 0.537303 0.131633
vt 0.591877 0.131007
vt 0.694588 0.125972
vt 0.694588 0.223634
vt 0.632173 0.223634
vt 0.632173 0.125972
vt 0.341945 0.364122
vt 0.341945 0.010089
vt 0.396684 0.010089
vt 0.396684 0.365766
vt 0.279254 0.010816
vt 0.333829 0.010816
vt 0.333829 0.364551
vt 0.279254 0.365177
vt 0.602818 0.332230
vt 0.986573 0.332230
vt 0.986573 0.418643
vt 0.603085 0.418643
vt 0.588543 0.084440
vt 0.588543 0.121703
vt 0.535875 0.121620
vt 0.533804 0.082796
vt 0.779781 0.223944
vt 0.778951 0.137492
vt 0.820858 0.182680
vt 0.781206 0.115549
vt 0.780939 0.029136
vt 0.821410 0.071625
vt 0.984392 0.617480
vt 0.985222 0.703932
vt 0.602239 0.703932
vt 0.602239 0.617480
vt 0.586604 0.072265
vt 0.534094 0.072347
vt 0.534094 0.034950
vt 0.588669 0.034324
vt 0.693824 0.016410
vt 0.693824 0.114072
vt 0.631408 0.114072
vt 0.631408 0.016410
vt 0.469681 0.365273
vt 0.469681 0.011240
vt 0.524420 0.011240
vt 0.524420 0.366917
vt 0.406290 0.012039
vt 0.460865 0.012039
vt 0.460865 0.365774
vt 0.406290 0.366400
vt 0.602832 0.236674
vt 0.986587 0.236674
vt 0.986586 0.323088
vt 0.603099 0.323088
vt 0.977603 0.017476
vt 0.977603 0.054738
vt 0.924935 0.054655
vt 0.922864 0.015832
vt 0.874097 0.225129
vt 0.784803 0.225932
vt 0.831477 0.185359
vt 0.870849 0.024352
vt 0.871116 0.110766
vt 0.830645 0.068277
vt 0.417039 0.989450
vt 0.417039 0.377391
vt 0.500798 0.377391
vt 0.500798 0.989450
vt 0.178993 0.988969
vt 0.178993 0.374277
vt 0.226957 0.374277
vt 0.226957 0.988969
vt 0.509981 0.989259
vt 0.509981 0.377203
vt 0.593740 0.377203
vt 0.593740 0.989260
vt 0.127067 0.989293
vt 0.127067 0.376993
vt 0.171758 0.376993
vt 0.171758 0.989293
vt 0.883070 0.141104
vt 0.883070 0.109216
vt 0.981116 0.109216
vt 0.981116 0.141104
vt 0.883220 0.100277
vt 0.883220 0.068389
vt 0.981266 0.068389
vt 0.981266 0.100277
vt 0.233875 0.989026
vt 0.233875 0.372925
vt 0.317634 0.372926
vt 0.317634 0.989026
vt 0.075098 0.989203
vt 0.075099 0.377503
vt 0.120356 0.377503
vt 0.120356 0.989203
vt 0.325938 0.989266
vt 0.325938 0.373482
vt 0.409697 0.373482
vt 0.409697 0.989266
vt 0.022659 0.989139
vt 0.022659 0.377441
vt 0.067916 0.377441
vt 0.067916 0.989139
vt 0.884713 0.228044
vt 0.884713 0.196156
vt 0.982759 0.196156
vt 0.982759 0.228044
vt 0.883409 0.184526
vt 0.883409 0.152637
vt 0.981455 0.152637
vt 0.981455 0.184526
vn -0.836607 -0.032046 0.546865
vn -0.814370 -0.145866 0.561716
vn 0.000428 0.004579 0.999989
vn -0.016951 -0.113058 0.993444
vn 0.324438 0.682212 -0.655230
vn 0.006001 0.069205 -0.997584
vn -0.417861 0.594464 0.687026
vn 0.822612 -0.010493 -0.568507
vn 0.030849 -0.042931 -0.998602
vn 0.825146 0.106218 -0.554843
vn -0.835619 -0.056297 0.546417
vn -0.811256 -0.170139 0.559389
vn 0.000854 -0.010965 0.999939
vn -0.013350 -0.128884 0.991570
vn 0.307018 0.701628 -0.643008
vn 0.003578 0.084845 -0.996388
vn -0.431390 0.572902 0.696912
vn 0.822388 0.013824 -0.568760
vn 0.031447 -0.026798 -0.999146
vn 0.822788 0.130484 -0.553168
vn -0.869800 -0.006413 0.493362
vn -0.852908 -0.118080 0.508532
vn 0.022422 0.004236 0.999740
vn 0.000021 -0.110028 0.993928
vn 0.354820 0.694563 -0.625848
vn -0.012296 0.067383 -0.997651
vn -0.395814 0.633948 0.664410
vn 0.855572 -0.034768 -0.516514
vn 0.006940 -0.042796 -0.999060
vn 0.861279 0.078963 -0.501960
vn -0.825242 -0.015537 0.564566
vn -0.803907 -0.129284 0.580533
vn 0.021507 0.016922 0.999626
vn 0.002065 -0.100511 0.994934
vn 0.320618 0.667818 -0.671732
vn -0.013814 0.056782 -0.998291
vn -0.394935 0.609830 0.687120
vn 0.810351 -0.027098 -0.585317
vn 0.009164 -0.055628 -0.998410
vn 0.814397 0.089668 -0.573339
vn -0.473953 -0.057530 0.878669
vn -0.473953 -0.057530 0.878669
vn -0.473953 -0.057530 0.878669
vn -0.473953 -0.057530 0.878669
vn -0.084825 0.995235 0.048079
vn -0.084825 0.995235 0.048079
vn -0.084825 0.995235 0.048079
vn -0.084825 0.995235 0.048079
vn 0.473953 0.057530 -0.878669
vn 0.473953 0.057530 -0.878669
vn 0.473953 0.057530 -0.878669
vn 0.473953 0.057530 -0.878669
vn 0.084825 -0.995235 -0.048079
vn 0.084825 -0.995235 -0.048079
vn 0.084825 -0.995235 -0.048079
vn 0.084825 -0.995235 -0.048079
vn 0.878136 0.035971 0.477057
vn 0.878136 0.035971 0.477057
vn 0.878136 0.035971 0.477057
vn 0.878136 0.035971 0.477057
vn -0.878136 -0.035971 -0.477057
vn -0.878136 -0.035971 -0.477057
vn -0.878136 -0.035971 -0.477057
vn -0.878136 -0.035971 -0.477057
vn -0.473953 -0.057530 0.878669
vn -0.473953 -0.057530 0.878669
vn -0.473953 -0.057530 0.878669
vn -0.473953 -0.057530 0.878669
vn -0.084825 0.995235 0.048079
vn -0.084825 0.995235 0.048079
vn -0.084825 0.995235 0.048079
vn -0.084825 0.995235 0.048079
vn 0.473953 0.057530 -0.878669
vn 0.473953 0.057530 -0.878669
vn 0.473953 0.057530 -0.878669
vn 0.473953 0.057530 -0.878669
vn 0.084825 -0.995235 -0.048079
vn 0.084825 -0.995235 -0.048079
vn 0.084825 -0.995235 -0.048079
vn 0.084825 -0.995235 -0.048079
vn 0.878136 0.035971 0.477057
vn 0.878136 0.035971 0.477057
vn 0.878136 0.035971 0.477057
vn 0.878136 0.035971 0.477057
vn -0.878136 -0.035971 -0.477057
vn -0.878136 -0.035971 -0.477057
vn -0.878136 -0.035971 -0.477057
vn -0.878136 -0.035971 -0.477057
f 7/27/1 1/3/2 9/28/3
f 9/28/3 1/3/2 2/4/4
f 6/21/5 8/19/6 5/20/7
f 5/20/7 8/19/6 7/33/1
f 2/6/4 1/7/2 4/9/8
f 4/9/8 1/7/2 3/8/9
f 2/11/4 4/12/8 9/31/3
f 9/31/3 4/12/8 10/13/10
f 1/17/2 7/18/1 3/16/9
f 3/16/9 7/18/1 8/34/6
f 10/22/10 4/23/8 8/29/6
f 8/29/6 4/23/8 3/24/9
f 6/14/5 5/15/7 10/32/10
f 10/32/10 5/15/7 9/10/3
f 7/2/1 9/1/3 5/5/7
f 10/30/10 8/25/6 6/26/5
f 17/36/11 11/37/12 19/35/13
f 19/35/13 11/37/12 12/38/14
f 16/40/15 18/41/16 15/39/17
f 15/39/17 18/41/16 17/42/11
f 12/43/14 11/44/12 14/46/18
f 14/46/18 11/44/12 13/45/19
f 12/48/14 14/49/18 19/47/13
f 19/47/13 14/49/18 20/50/20
f 11/52/12 17/53/11 13/51/19
f 13/51/19 17/53/11 18/54/16
f 20/55/20 14/56/18 18/58/16
f 18/58/16 14/56/18 13/57/19
f 16/60/15 15/61/17 20/59/20
f 20/59/20 15/61/17 19/62/13
f 17/63/11 19/64/13 15/65/17
f 20/66/20 18/67/16 16/68/15
f 27/70/21 21/71/22 29/69/23
f 29/69/23 21/71/22 22/72/24
f 26/74/25 28/75/26 25/73/27
f 25/73/27 28/75/26 27/76/21
f 22/77/24 21/78/22 24/80/28
f 24/80/28 21/78/22 23/79/29
f 22/82/24 24/83/28 29/81/23
f 29/81/23 24/83/28 30/84/30
f 21/86/22 27/87/21 23/85/29
f 23/85/29 27/87/21 28/88/26
f 30/89/30 24/90/28 28/92/26
f 28/92/26 24/90/28 23/91/29
f 26/94/25 25/95/27 30/93/30
f 30/93/30 25/95/27 29/96/23
f 27/97/21 29/98/23 25/99/27
f 30/100/30 28/101/26 26/102/25
f 37/104/31 31/105/32 39/103/33
f 39/103/33 31/105/32 32/106/34
f 36/108/35 38/109/36 35/107/37
f 35/107/37 38/109/36 37/110/31
f 32/111/34 31/112/32 34/114/38
f 34/114/38 31/112/32 33/113/39
f 32/116/34 34/117/38 39/115/33
f 39/115/33 34/117/38 40/118/40
f 31/120/32 37/121/31 33/119/39
f 33/119/39 37/121/31 38/122/36
f 40/123/40 34/124/38 38/126/36
f 38/126/36 34/124/38 33/125/39
f 36/128/35 35/129/37 40/127/40
f 40/127/40 35/129/37 39/130/33
f 37/131/31 39/132/33 35/133/37
f 40/134/40 38/135/36 36/136/35
f 41/137/41 42/138/42 43/140/43
f 43/140/43 42/138/42 44/139/44
f 43/141/45 44/142/46 45/144/47
f 45/144/47 44/142/46 46/143/48
f 45/145/49 46/146/50 47/148/51
f 47/148/51 46/146/50 48/147/52
f 47/149/53 48/150/54 41/152/55
f 41/152/55 48/150/54 42/151/56
f 42/153/57 48/154/58 44/156/59
f 44/156/59 48/154/58 46/155/60
f 47/157/61 41/158/62 45/160/63
f 45/160/63 41/158/62 43/159/64
f 49/161/65 50/162/66 51/164/67
f 51/164/67 50/162/66 52/163/68
f 51/165/69 52/166/70 53/168/71
f 53/168/71 52/166/70 54/167/72
f 53/169/73 54/170/74 55/172/75
f 55/172/75 54/170/74 56/171/76
f 55/173/77 56/174/78 49/176/79
f 49/176/79 56/174/78 50/175/80
f 50/177/81 56/178/82 52/180/83
f 52/180/83 56/178/82 54/179/84
f 55/181/85 49/182/86 53/184/87
f 53/184/87 49/182/86 51/183/88
