# This file uses centimeters as units for non-parametric coordinates.

v -212.821933 145.012868 -165.122838
v -211.627918 145.033233 -164.411050
v -212.460704 145.068816 -165.729905
v -211.266690 145.089181 -165.018117
v -212.566353 153.911827 -164.432457
v -212.201676 153.967828 -165.006231
v -213.118150 153.039110 -164.785414
v -212.757446 153.109270 -165.391884
v -211.923494 153.042099 -164.074356
v -211.563638 153.135230 -164.679861
v -210.561020 145.039811 -163.893700
v -209.367910 145.078378 -163.180919
v -210.200817 145.118761 -164.499601
v -209.007708 145.157328 -163.786820
v -210.478468 153.927392 -163.071705
v -210.114828 154.005782 -163.644316
v -211.013079 153.047145 -163.437880
v -210.653677 153.140273 -164.042974
v -209.818991 153.068376 -162.726086
v -209.460883 153.184422 -163.329875
v -207.978301 145.126569 -162.173590
v -206.912643 145.094902 -161.509385
v -207.603658 145.167238 -162.773327
v -206.537999 145.135571 -162.109123
v -207.511283 154.007936 -161.495238
v -207.135488 154.048489 -162.062643
v -208.028691 153.159875 -161.826769
v -207.654136 153.214768 -162.425892
v -206.962923 153.110816 -161.163316
v -206.588513 153.188701 -161.761446
v -205.774598 145.138063 -160.765223
v -204.565379 145.149620 -160.079441
v -205.425939 145.177868 -161.380469
v -204.216720 145.189425 -160.694687
v -205.400501 154.042212 -160.183994
v -205.047675 154.082556 -160.766032
v -205.969903 153.173341 -160.514888
v -205.621590 153.227373 -161.129690
v -204.760261 153.167502 -159.829648
v -204.412507 153.244532 -160.443734
v -212.943324 150.920608 -165.679209
v -203.636588 151.079348 -160.131181
v -212.998461 152.414604 -165.616401
v -203.691725 152.573344 -160.068374
v -212.699892 152.460847 -166.118167
v -203.393156 152.619587 -160.570139
v -212.644754 150.966851 -166.180974
v -203.338018 151.125591 -160.632947
v -212.844539 145.458972 -165.969976
v -203.537803 145.617712 -160.421948
v -212.887807 146.631371 -165.920688
v -203.581071 146.790111 -160.372661
v -212.589237 146.677614 -166.422454
v -203.282502 146.836354 -160.874426
v -212.545969 145.505215 -166.471741
v -203.239233 145.663955 -160.923714
vt 0.780806 0.121878
vt 0.870100 0.121075
vt 0.602661 0.991003
vt 0.602661 0.904550
vt 0.827480 0.081304
vt 0.765231 0.126569
vt 0.765231 0.224231
vt 0.702815 0.224231
vt 0.702815 0.126569
vt 0.535364 0.274985
vt 0.091558 0.009792
vt 0.146297 0.009792
vt 0.146297 0.365468
vt 0.590104 0.313891
vt 0.537435 0.313808
vt 0.025926 0.010552
vt 0.080500 0.010552
vt 0.080500 0.364288
vt 0.538057 0.323620
vt 0.590567 0.360935
vt 0.538057 0.361017
vt 0.602523 0.428417
vt 0.986278 0.428417
vt 0.986278 0.514830
vt 0.869677 0.133872
vt 0.825792 0.173055
vt 0.985644 0.991003
vt 0.984815 0.904550
vt 0.602790 0.514830
vt 0.780423 0.134130
vt 0.091558 0.363825
vt 0.590104 0.276629
vt 0.592631 0.322994
vt 0.025926 0.364914
vt 0.984565 0.809391
vt 0.985394 0.895844
vt 0.602411 0.895844
vt 0.602411 0.809391
vt 0.587993 0.263776
vt 0.535484 0.263859
vt 0.535484 0.226461
vt 0.590058 0.225835
vt 0.762860 0.016513
vt 0.762860 0.114176
vt 0.700444 0.114176
vt 0.700444 0.016513
vt 0.215491 0.364122
vt 0.215491 0.010089
vt 0.270230 0.010089
vt 0.270230 0.365765
vt 0.153597 0.010552
vt 0.208171 0.010552
vt 0.208171 0.364288
vt 0.153597 0.364914
vt 0.601299 0.521252
vt 0.985053 0.521251
vt 0.985053 0.607665
vt 0.601566 0.607665
vt 0.592403 0.178616
vt 0.592403 0.215879
vt 0.539735 0.215795
vt 0.537664 0.176972
vt 0.779958 0.020471
vt 0.869252 0.019669
vt 0.822578 0.060242
vt 0.875480 0.135413
vt 0.875747 0.221828
vt 0.835276 0.179338
vt 0.984074 0.713425
vt 0.984904 0.799877
vt 0.601921 0.799877
vt 0.601921 0.713425
vt 0.589812 0.168948
vt 0.537303 0.169031
vt 0.537303 0.131633
vt 0.591877 0.131007
vt 0.694588 0.125972
vt 0.694588 0.223634
vt 0.632173 0.223634
vt 0.632173 0.125972
vt 0.341945 0.364122
vt 0.341945 0.010089
vt 0.396684 0.010089
vt 0.396684 0.365766
vt 0.279254 0.010816
vt 0.333829 0.010816
vt 0.333829 0.364551
vt 0.279254 0.365177
vt 0.602818 0.332230
vt 0.986573 0.332230
vt 0.986573 0.418643
vt 0.603085 0.418643
vt 0.588543 0.084440
vt 0.588543 0.121703
vt 0.535875 0.121620
vt 0.533804 0.082796
vt 0.779781 0.223944
vt 0.778951 0.137492
vt 0.820858 0.182680
vt 0.781206 0.115549
vt 0.780939 0.029136
vt 0.821410 0.071625
vt 0.984392 0.617480
vt 0.985222 0.703932
vt 0.602239 0.703932
vt 0.602239 0.617480
vt 0.586604 0.072265
vt 0.534094 0.072347
vt 0.534094 0.034950
vt 0.588669 0.034324
vt 0.693824 0.016410
vt 0.693824 0.114072
vt 0.631408 0.114072
vt 0.631408 0.016410
vt 0.469681 0.365273
vt 0.469681 0.011240
vt 0.524420 0.011240
vt 0.524420 0.366917
vt 0.406290 0.012039
vt 0.460865 0.012039
vt 0.460865 0.365774
vt 0.406290 0.366400
vt 0.602832 0.236674
vt 0.986587 0.236674
vt 0.986586 0.323088
vt 0.603099 0.323088
vt 0.977603 0.017476
vt 0.977603 0.054738
vt 0.924935 0.054655
vt 0.922864 0.015832
vt 0.874097 0.225129
vt 0.784803 0.225932
vt 0.831477 0.185359
vt 0.870849 0.024352
vt 0.871116 0.110766
vt 0.830645 0.068277
vt 0.417039 0.989450
vt 0.417039 0.377391
vt 0.500798 0.377391
vt 0.500798 0.989450
vt 0.178993 0.988969
vt 0.178993 0.374277
vt 0.226957 0.374277
vt 0.226957 0.988969
vt 0.509981 0.989259
vt 0.509981 0.377203
vt 0.593740 0.377203
vt 0.593740 0.989260
vt 0.127067 0.989293
vt 0.127067 0.376993
vt 0.171758 0.376993
vt 0.171758 0.989293
vt 0.883070 0.141104
vt 0.883070 0.109216
vt 0.981116 0.109216
vt 0.981116 0.141104
vt 0.883220 0.100277
vt 0.883220 0.068389
vt 0.981266 0.068389
vt 0.981266 0.100277
vt 0.233875 0.989026
vt 0.233875 0.372925
vt 0.317634 0.372926
vt 0.317634 0.989026
vt 0.075098 0.989203
vt 0.075099 0.377503
vt 0.120356 0.377503
vt 0.120356 0.989203
vt 0.325938 0.989266
vt 0.325938 0.373482
vt 0.409697 0.373482
vt 0.409697 0.989266
vt 0.022659 0.989139
vt 0.022659 0.377441
vt 0.067916 0.377441
vt 0.067916 0.989139
vt 0.884713 0.228044
vt 0.884713 0.196156
vt 0.982759 0.196156
vt 0.982759 0.228044
vt 0.883409 0.184526
vt 0.883409 0.152637
vt 0.981455 0.152637
vt 0.981455 0.184526
vn -0.858511 -0.017456 0.512499
vn -0.840171 -0.131792 0.526065
vn -0.039578 -0.005406 0.999202
vn -0.060687 -0.122565 0.990603
vn 0.373291 0.680332 -0.630715
vn 0.048417 0.079002 -0.995698
vn -0.425135 0.597775 0.679650
vn 0.844187 -0.024511 -0.535487
vn 0.069452 -0.033684 -0.997016
vn 0.849504 0.091892 -0.519518
vn -0.858193 -0.041705 0.511630
vn -0.837669 -0.156061 0.523408
vn -0.039680 -0.020954 0.998993
vn -0.057553 -0.138469 0.988693
vn 0.356093 0.700077 -0.618943
vn 0.046481 0.094692 -0.994421
vn -0.439801 0.576451 0.688679
vn 0.844671 -0.000195 -0.535286
vn 0.070622 -0.017571 -0.997348
vn 0.847775 0.116153 -0.517480
vn -0.888793 0.009490 0.458211
vn -0.875648 -0.102602 0.471926
vn -0.017613 -0.006274 0.999825
vn -0.043644 -0.119948 0.991820
vn 0.402731 0.691429 -0.599777
vn 0.030077 0.077620 -0.996529
vn -0.400836 0.636942 0.658511
vn 0.874357 -0.050094 -0.482691
vn 0.045598 -0.032972 -0.998416
vn 0.882642 0.063284 -0.465766
vn -0.847402 -0.001407 0.530950
vn -0.830027 -0.115684 0.545594
vn -0.018091 0.006430 0.999816
vn -0.041318 -0.110485 0.993019
vn 0.369684 0.666266 -0.647629
vn 0.028226 0.067060 -0.997350
vn -0.401650 0.612515 0.680810
vn 0.832132 -0.040652 -0.553086
vn 0.047355 -0.045853 -0.997825
vn 0.839056 0.075811 -0.538737
vn -0.510586 -0.054917 0.858071
vn -0.510586 -0.054917 0.858071
vn -0.510586 -0.054917 0.858071
vn -0.510586 -0.054917 0.858071
vn -0.052973 0.996771 0.060342
vn -0.052973 0.996771 0.060342
vn -0.052973 0.996771 0.060342
vn -0.052973 0.996771 0.060342
vn 0.510586 0.054917 -0.858071
vn 0.510586 0.054917 -0.858071
vn 0.510586 0.054917 -0.858071
vn 0.510586 0.054917 -0.858071
vn 0.052973 -0.996771 -0.060342
vn 0.052973 -0.996771 -0.060342
vn 0.052973 -0.996771 -0.060342
vn 0.052973 -0.996771 -0.060342
vn 0.858911 0.010174 0.512023
vn 0.858911 0.010174 0.512023
vn 0.858911 0.010174 0.512023
vn 0.858911 0.010174 0.512023
vn -0.858911 -0.010174 -0.512023
vn -0.858911 -0.010174 -0.512023
vn -0.858911 -0.010174 -0.512023
vn -0.858911 -0.010174 -0.512023
vn -0.510586 -0.054917 0.858071
vn -0.510586 -0.054917 0.858071
vn -0.510586 -0.054917 0.858071
vn -0.510586 -0.054917 0.858071
vn -0.052973 0.996771 0.060342
vn -0.052973 0.996771 0.060342
vn -0.052973 0.996771 0.060342
vn -0.052973 0.996771 0.060342
vn 0.510586 0.054917 -0.858071
vn 0.510586 0.054917 -0.858071
vn 0.510586 0.054917 -0.858071
vn 0.510586 0.054917 -0.858071
vn 0.052973 -0.996771 -0.060342
vn 0.052973 -0.996771 -0.060342
vn 0.052973 -0.996771 -0.060342
vn 0.052973 -0.996771 -0.060342
vn 0.858911 0.010174 0.512023
vn 0.858911 0.010174 0.512023
vn 0.858911 0.010174 0.512023
vn 0.858911 0.010174 0.512023
vn -0.858911 -0.010174 -0.512023
vn -0.858911 -0.010174 -0.512023
vn -0.858911 -0.010174 -0.512023
vn -0.858911 -0.010174 -0.512023
f 7/27/1 1/3/2 9/28/3
f 9/28/3 1/3/2 2/4/4
f 6/21/5 8/19/6 5/20/7
f 5/20/7 8/19/6 7/33/1
f 2/6/4 1/7/2 4/9/8
f 4/9/8 1/7/2 3/8/9
f 2/11/4 4/12/8 9/31/3
f 9/31/3 4/12/8 10/13/10
f 1/17/2 7/18/1 3/16/9
f 3/16/9 7/18/1 8/34/6
f 10/22/10 4/23/8 8/29/6
f 8/29/6 4/23/8 3/24/9
f 6/14/5 5/15/7 10/32/10
f 10/32/10 5/15/7 9/10/3
f 7/2/1 9/1/3 5/5/7
f 10/30/10 8/25/6 6/26/5
f 17/36/11 11/37/12 19/35/13
f 19/35/13 11/37/12 12/38/14
f 16/40/15 18/41/16 15/39/17
f 15/39/17 18/41/16 17/42/11
f 12/43/14 11/44/12 14/46/18
f 14/46/18 11/44/12 13/45/19
f 12/48/14 14/49/18 19/47/13
f 19/47/13 14/49/18 20/50/20
f 11/52/12 17/53/11 13/51/19
f 13/51/19 17/53/11 18/54/16
f 20/55/20 14/56/18 18/58/16
f 18/58/16 14/56/18 13/57/19
f 16/60/15 15/61/17 20/59/20
f 20/59/20 15/61/17 19/62/13
f 17/63/11 19/64/13 15/65/17
f 20/66/20 18/67/16 16/68/15
f 27/70/21 21/71/22 29/69/23
f 29/69/23 21/71/22 22/72/24
f 26/74/25 28/75/26 25/73/27
f 25/73/27 28/75/26 27/76/21
f 22/77/24 21/78/22 24/80/28
f 24/80/28 21/78/22 23/79/29
f 22/82/24 24/83/28 29/81/23
f 29/81/23 24/83/28 30/84/30
f 21/86/22 27/87/21 23/85/29
f 23/85/29 27/87/21 28/88/26
f 30/89/30 24/90/28 28/92/26
f 28/92/26 24/90/28 23/91/29
f 26/94/25 25/95/27 30/93/30
f 30/93/30 25/95/27 29/96/23
f 27/97/21 29/98/23 25/99/27
f 30/100/30 28/101/26 26/102/25
f 37/104/31 31/105/32 39/103/33
f 39/103/33 31/105/32 32/106/34
f 36/108/35 38/109/36 35/107/37
f 35/107/37 38/109/36 37/110/31
f 32/111/34 31/112/32 34/114/38
f 34/114/38 31/112/32 33/113/39
f 32/116/34 34/117/38 39/115/33
f 39/115/33 34/117/38 40/118/40
f 31/120/32 37/121/31 33/119/39
f 33/119/39 37/121/31 38/122/36
f 40/123/40 34/124/38 38/126/36
f 38/126/36 34/124/38 33/125/39
f 36/128/35 35/129/37 40/127/40
f 40/127/40 35/129/37 39/130/33
f 37/131/31 39/132/33 35/133/37
f 40/134/40 38/135/36 36/136/35
f 41/137/41 42/138/42 43/140/43
f 43/140/43 42/138/42 44/139/44
f 43/141/45 44/142/46 45/144/47
f 45/144/47 44/142/46 46/143/48
f 45/145/49 46/146/50 47/148/51
f 47/148/51 46/146/50 48/147/52
f 47/149/53 48/150/54 41/152/55
f 41/152/55 48/150/54 42/151/56
f 42/153/57 48/154/58 44/156/59
f 44/156/59 48/154/58 46/155/60
f 47/157/61 41/158/62 45/160/63
f 45/160/63 41/158/62 43/159/64
f 49/161/65 50/162/66 51/164/67
f 51/164/67 50/162/66 52/163/68
f 51/165/69 52/166/70 53/168/71
f 53/168/71 52/166/70 54/167/72
f 53/169/73 54/170/74 55/172/75
f 55/172/75 54/170/74 56/171/76
f 55/173/77 56/174/78 49/176/79
f 49/176/79 56/174/78 50/175/80
f 50/177/81 56/178/82 52/180/83
f 52/180/83 56/178/82 54/179/84
f 55/181/85 49/182/86 53/184/87
f 53/184/87 49/182/86 51/183/88
