# This file uses centimeters as units for non-parametric coordinates.

v 205.131365 180.062000 99.112392
v 203.999510 180.146619 99.916465
v 205.528814 179.904566 99.683367
v 204.396959 179.989186 100.487440
v 205.705434 188.837605 100.426331
v 206.071787 188.689192 100.987468
v 206.124145 187.956431 99.932935
v 206.523352 187.812976 100.505363
v 204.990141 188.023960 100.735231
v 205.392189 187.903099 101.310008
v 203.092167 180.177628 100.679363
v 201.962459 180.280241 101.484998
v 203.492359 180.042895 101.252453
v 202.362650 180.145507 102.058088
v 203.619899 188.998816 101.784112
v 203.988911 188.872511 102.347261
v 204.042079 188.104695 101.310235
v 204.443953 187.983998 101.884441
v 202.910314 188.190145 102.114504
v 203.314907 188.092136 102.690515
v 200.489355 180.452723 102.354849
v 199.446139 180.488153 103.053649
v 200.872422 180.281048 102.932762
v 199.829207 180.316478 103.631562
v 200.982906 189.183985 103.861705
v 201.336670 189.021157 104.428054
v 201.371698 188.328797 103.394764
v 201.756328 188.171067 103.974519
v 200.326573 188.347175 104.091313
v 200.713727 188.211988 104.674044
v 198.312237 180.610268 103.798048
v 197.195890 180.677332 104.624635
v 198.719892 180.436339 104.358405
v 197.603545 180.503403 105.184992
v 198.934595 189.346790 105.262276
v 199.310998 189.182246 105.813551
v 199.341594 188.477533 104.744980
v 199.751071 188.317533 105.307014
v 198.223018 188.527565 105.569517
v 198.635442 188.390082 106.134261
v 206.538450 185.635540 100.116884
v 197.716219 186.295108 106.384225
v 206.723245 187.105001 100.269619
v 197.901014 187.764569 106.536960
v 207.051753 186.974876 100.741553
v 198.229521 187.634444 107.008894
v 206.866958 185.505415 100.588818
v 198.044726 186.164983 106.856159
v 205.960478 180.258041 99.489534
v 197.138247 180.917609 105.756875
v 206.105494 181.411187 99.609391
v 197.283263 182.070755 105.876733
v 206.434002 181.281062 100.081325
v 197.611770 181.940630 106.348667
v 206.288986 180.127916 99.961468
v 197.466754 180.787484 106.228809
vt 0.780806 0.121878
vt 0.870100 0.121075
vt 0.602661 0.991003
vt 0.602661 0.904550
vt 0.827480 0.081304
vt 0.765231 0.126569
vt 0.765231 0.224231
vt 0.702815 0.224231
vt 0.702815 0.126569
vt 0.535364 0.274985
vt 0.091558 0.009792
vt 0.146297 0.009792
vt 0.146297 0.365468
vt 0.590104 0.313891
vt 0.537435 0.313808
vt 0.025926 0.010552
vt 0.080500 0.010552
vt 0.080500 0.364288
vt 0.538057 0.323620
vt 0.590567 0.360935
vt 0.538057 0.361017
vt 0.602523 0.428417
vt 0.986278 0.428417
vt 0.986278 0.514830
vt 0.869677 0.133872
vt 0.825792 0.173055
vt 0.985644 0.991003
vt 0.984815 0.904550
vt 0.602790 0.514830
vt 0.780423 0.134130
vt 0.091558 0.363825
vt 0.590104 0.276629
vt 0.592631 0.322994
vt 0.025926 0.364914
vt 0.984565 0.809391
vt 0.985394 0.895844
vt 0.602411 0.895844
vt 0.602411 0.809391
vt 0.587993 0.263776
vt 0.535484 0.263859
vt 0.535484 0.226461
vt 0.590058 0.225835
vt 0.762860 0.016513
vt 0.762860 0.114176
vt 0.700444 0.114176
vt 0.700444 0.016513
vt 0.215491 0.364122
vt 0.215491 0.010089
vt 0.270230 0.010089
vt 0.270230 0.365765
vt 0.153597 0.010552
vt 0.208171 0.010552
vt 0.208171 0.364288
vt 0.153597 0.364914
vt 0.601299 0.521252
vt 0.985053 0.521251
vt 0.985053 0.607665
vt 0.601566 0.607665
vt 0.592403 0.178616
vt 0.592403 0.215879
vt 0.539735 0.215795
vt 0.537664 0.176972
vt 0.779958 0.020471
vt 0.869252 0.019669
vt 0.822578 0.060242
vt 0.875480 0.135413
vt 0.875747 0.221828
vt 0.835276 0.179338
vt 0.984074 0.713425
vt 0.984904 0.799877
vt 0.601921 0.799877
vt 0.601921 0.713425
vt 0.589812 0.168948
vt 0.537303 0.169031
vt 0.537303 0.131633
vt 0.591877 0.131007
vt 0.694588 0.125972
vt 0.694588 0.223634
vt 0.632173 0.223634
vt 0.632173 0.125972
vt 0.341945 0.364122
vt 0.341945 0.010089
vt 0.396684 0.010089
vt 0.396684 0.365766
vt 0.279254 0.010816
vt 0.333829 0.010816
vt 0.333829 0.364551
vt 0.279254 0.365177
vt 0.602818 0.332230
vt 0.986573 0.332230
vt 0.986573 0.418643
vt 0.603085 0.418643
vt 0.588543 0.084440
vt 0.588543 0.121703
vt 0.535875 0.121620
vt 0.533804 0.082796
vt 0.779781 0.223944
vt 0.778951 0.137492
vt 0.820858 0.182680
vt 0.781206 0.115549
vt 0.780939 0.029136
vt 0.821410 0.071625
vt 0.984392 0.617480
vt 0.985222 0.703932
vt 0.602239 0.703932
vt 0.602239 0.617480
vt 0.586604 0.072265
vt 0.534094 0.072347
vt 0.534094 0.034950
vt 0.588669 0.034324
vt 0.693824 0.016410
vt 0.693824 0.114072
vt 0.631408 0.114072
vt 0.631408 0.016410
vt 0.469681 0.365273
vt 0.469681 0.011240
vt 0.524420 0.011240
vt 0.524420 0.366917
vt 0.406290 0.012039
vt 0.460865 0.012039
vt 0.460865 0.365774
vt 0.406290 0.366400
vt 0.602832 0.236674
vt 0.986587 0.236674
vt 0.986586 0.323088
vt 0.603099 0.323088
vt 0.977603 0.017476
vt 0.977603 0.054738
vt 0.924935 0.054655
vt 0.922864 0.015832
vt 0.874097 0.225129
vt 0.784803 0.225932
vt 0.831477 0.185359
vt 0.870849 0.024352
vt 0.871116 0.110766
vt 0.830645 0.068277
vt 0.417039 0.989450
vt 0.417039 0.377391
vt 0.500798 0.377391
vt 0.500798 0.989450
vt 0.178993 0.988969
vt 0.178993 0.374277
vt 0.226957 0.374277
vt 0.226957 0.988969
vt 0.509981 0.989259
vt 0.509981 0.377203
vt 0.593740 0.377203
vt 0.593740 0.989260
vt 0.127067 0.989293
vt 0.127067 0.376993
vt 0.171758 0.376993
vt 0.171758 0.989293
vt 0.883070 0.141104
vt 0.883070 0.109216
vt 0.981116 0.109216
vt 0.981116 0.141104
vt 0.883220 0.100277
vt 0.883220 0.068389
vt 0.981266 0.068389
vt 0.981266 0.100277
vt 0.233875 0.989026
vt 0.233875 0.372925
vt 0.317634 0.372926
vt 0.317634 0.989026
vt 0.075098 0.989203
vt 0.075099 0.377503
vt 0.120356 0.377503
vt 0.120356 0.989203
vt 0.325938 0.989266
vt 0.325938 0.373482
vt 0.409697 0.373482
vt 0.409697 0.989266
vt 0.022659 0.989139
vt 0.022659 0.377441
vt 0.067916 0.377441
vt 0.067916 0.989139
vt 0.884713 0.228044
vt 0.884713 0.196156
vt 0.982759 0.196156
vt 0.982759 0.228044
vt 0.883409 0.184526
vt 0.883409 0.152637
vt 0.981455 0.152637
vt 0.981455 0.184526
vn -0.100665 0.151418 -0.983331
vn -0.143434 0.041106 -0.988806
vn -0.881897 0.194556 -0.429425
vn -0.881029 0.079426 -0.466347
vn 0.524637 0.484215 0.700209
vn 0.884931 -0.121989 0.449461
vn -0.315762 0.779035 -0.541663
vn 0.118829 -0.196255 0.973326
vn 0.862089 -0.235465 0.448730
vn 0.125752 -0.079272 0.988889
vn -0.104946 0.127417 -0.986282
vn -0.146924 0.016960 -0.989002
vn -0.883769 0.179114 -0.432285
vn -0.882726 0.063360 -0.465596
vn 0.525073 0.505620 0.684578
vn 0.886674 -0.106229 0.450028
vn -0.322343 0.760309 -0.563938
vn 0.123366 -0.172222 0.977302
vn 0.864122 -0.219546 0.452873
vn 0.129513 -0.055174 0.990042
vn -0.033666 0.169584 -0.984940
vn -0.074588 0.061620 -0.995309
vn -0.891740 0.192050 -0.409777
vn -0.888866 0.080868 -0.450975
vn 0.488622 0.498022 0.716395
vn 0.893134 -0.122052 0.432914
vn -0.298131 0.812389 -0.501140
vn 0.053297 -0.213448 0.975500
vn 0.873424 -0.233093 0.427548
vn 0.058105 -0.099228 0.993367
vn -0.118645 0.169998 -0.978276
vn -0.161851 0.059720 -0.985006
vn -0.889808 0.204699 -0.407849
vn -0.889657 0.090134 -0.447646
vn 0.537945 0.468521 0.700788
vn 0.893239 -0.132425 0.429637
vn -0.324004 0.792481 -0.516716
vn 0.136514 -0.214815 0.967067
vn 0.870373 -0.245996 0.426540
vn 0.144063 -0.097882 0.984716
vn -0.564379 0.155247 -0.810787
vn -0.564379 0.155247 -0.810787
vn -0.564379 0.155247 -0.810787
vn -0.564379 0.155247 -0.810787
vn 0.176290 0.973495 0.145706
vn 0.176290 0.973495 0.145706
vn 0.176290 0.973495 0.145706
vn 0.176290 0.973495 0.145706
vn 0.564379 -0.155247 0.810787
vn 0.564379 -0.155247 0.810787
vn 0.564379 -0.155247 0.810787
vn 0.564379 -0.155247 0.810787
vn -0.176290 -0.973495 -0.145706
vn -0.176290 -0.973495 -0.145706
vn -0.176290 -0.973495 -0.145706
vn -0.176290 -0.973495 -0.145706
vn -0.814499 0.042287 0.578622
vn -0.814499 0.042287 0.578622
vn -0.814499 0.042287 0.578622
vn -0.814499 0.042287 0.578622
vn 0.814499 -0.042287 -0.578622
vn 0.814499 -0.042287 -0.578622
vn 0.814499 -0.042287 -0.578622
vn 0.814499 -0.042287 -0.578622
vn -0.564379 0.155247 -0.810787
vn -0.564379 0.155247 -0.810787
vn -0.564379 0.155247 -0.810787
vn -0.564379 0.155247 -0.810787
vn 0.176290 0.973495 0.145706
vn 0.176290 0.973495 0.145706
vn 0.176290 0.973495 0.145706
vn 0.176290 0.973495 0.145706
vn 0.564379 -0.155247 0.810787
vn 0.564379 -0.155247 0.810787
vn 0.564379 -0.155247 0.810787
vn 0.564379 -0.155247 0.810787
vn -0.176290 -0.973495 -0.145706
vn -0.176290 -0.973495 -0.145706
vn -0.176290 -0.973495 -0.145706
vn -0.176290 -0.973495 -0.145706
vn -0.814499 0.042287 0.578622
vn -0.814499 0.042287 0.578622
vn -0.814499 0.042287 0.578622
vn -0.814499 0.042287 0.578622
vn 0.814499 -0.042287 -0.578622
vn 0.814499 -0.042287 -0.578622
vn 0.814499 -0.042287 -0.578622
vn 0.814499 -0.042287 -0.578622
f 7/27/1 1/3/2 9/28/3
f 9/28/3 1/3/2 2/4/4
f 6/21/5 8/19/6 5/20/7
f 5/20/7 8/19/6 7/33/1
f 2/6/4 1/7/2 4/9/8
f 4/9/8 1/7/2 3/8/9
f 2/11/4 4/12/8 9/31/3
f 9/31/3 4/12/8 10/13/10
f 1/17/2 7/18/1 3/16/9
f 3/16/9 7/18/1 8/34/6
f 10/22/10 4/23/8 8/29/6
f 8/29/6 4/23/8 3/24/9
f 6/14/5 5/15/7 10/32/10
f 10/32/10 5/15/7 9/10/3
f 7/2/1 9/1/3 5/5/7
f 10/30/10 8/25/6 6/26/5
f 17/36/11 11/37/12 19/35/13
f 19/35/13 11/37/12 12/38/14
f 16/40/15 18/41/16 15/39/17
f 15/39/17 18/41/16 17/42/11
f 12/43/14 11/44/12 14/46/18
f 14/46/18 11/44/12 13/45/19
f 12/48/14 14/49/18 19/47/13
f 19/47/13 14/49/18 20/50/20
f 11/52/12 17/53/11 13/51/19
f 13/51/19 17/53/11 18/54/16
f 20/55/20 14/56/18 18/58/16
f 18/58/16 14/56/18 13/57/19
f 16/60/15 15/61/17 20/59/20
f 20/59/20 15/61/17 19/62/13
f 17/63/11 19/64/13 15/65/17
f 20/66/20 18/67/16 16/68/15
f 27/70/21 21/71/22 29/69/23
f 29/69/23 21/71/22 22/72/24
f 26/74/25 28/75/26 25/73/27
f 25/73/27 28/75/26 27/76/21
f 22/77/24 21/78/22 24/80/28
f 24/80/28 21/78/22 23/79/29
f 22/82/24 24/83/28 29/81/23
f 29/81/23 24/83/28 30/84/30
f 21/86/22 27/87/21 23/85/29
f 23/85/29 27/87/21 28/88/26
f 30/89/30 24/90/28 28/92/26
f 28/92/26 24/90/28 23/91/29
f 26/94/25 25/95/27 30/93/30
f 30/93/30 25/95/27 29/96/23
f 27/97/21 29/98/23 25/99/27
f 30/100/30 28/101/26 26/102/25
f 37/104/31 31/105/32 39/103/33
f 39/103/33 31/105/32 32/106/34
f 36/108/35 38/109/36 35/107/37
f 35/107/37 38/109/36 37/110/31
f 32/111/34 31/112/32 34/114/38
f 34/114/38 31/112/32 33/113/39
f 32/116/34 34/117/38 39/115/33
f 39/115/33 34/117/38 40/118/40
f 31/120/32 37/121/31 33/119/39
f 33/119/39 37/121/31 38/122/36
f 40/123/40 34/124/38 38/126/36
f 38/126/36 34/124/38 33/125/39
f 36/128/35 35/129/37 40/127/40
f 40/127/40 35/129/37 39/130/33
f 37/131/31 39/132/33 35/133/37
f 40/134/40 38/135/36 36/136/35
f 41/137/41 42/138/42 43/140/43
f 43/140/43 42/138/42 44/139/44
f 43/141/45 44/142/46 45/144/47
f 45/144/47 44/142/46 46/143/48
f 45/145/49 46/146/50 47/148/51
f 47/148/51 46/146/50 48/147/52
f 47/149/53 48/150/54 41/152/55
f 41/152/55 48/150/54 42/151/56
f 42/153/57 48/154/58 44/156/59
f 44/156/59 48/154/58 46/155/60
f 47/157/61 41/158/62 45/160/63
f 45/160/63 41/158/62 43/159/64
f 49/161/65 50/162/66 51/164/67
f 51/164/67 50/162/66 52/163/68
f 51/165/69 52/166/70 53/168/71
f 53/168/71 52/166/70 54/167/72
f 53/169/73 54/170/74 55/172/75
f 55/172/75 54/170/74 56/171/76
f 55/173/77 56/174/78 49/176/79
f 49/176/79 56/174/78 50/175/80
f 50/177/81 56/178/82 52/180/83
f 52/180/83 56/178/82 54/179/84
f 55/181/85 49/182/86 53/184/87
f 53/184/87 49/182/86 51/183/88
