# This file uses centimeters as units for non-parametric coordinates.

v 99.416504 174.302001 -157.377311
v 100.221274 174.423879 -156.248316
v 99.992825 174.306307 -157.788447
v 100.797595 174.428184 -156.659451
v 99.476949 183.243543 -157.273681
v 100.042975 183.251315 -157.653099
v 99.104494 182.324707 -157.756339
v 99.680263 182.343218 -158.168145
v 99.909939 182.429216 -156.626523
v 100.484814 182.470688 -157.039414
v 100.988169 174.509348 -155.346788
v 101.791926 174.649436 -154.218538
v 101.563353 174.536661 -155.758900
v 102.367110 174.676748 -154.630650
v 100.837047 183.448287 -155.192312
v 101.401919 183.478456 -155.572669
v 100.485561 182.521068 -155.679540
v 101.059855 182.562567 -156.092241
v 101.290406 182.643810 -154.550570
v 101.863262 182.708239 -154.964223
v 102.656523 174.833555 -152.743321
v 103.362499 174.895562 -151.705815
v 103.241971 174.823713 -153.141283
v 103.947947 174.885720 -152.103777
v 102.915010 183.761762 -152.564049
v 103.488447 183.755064 -152.932084
v 102.565645 182.870510 -153.015046
v 103.150932 182.874898 -153.413490
v 103.271818 182.915117 -151.976952
v 103.856845 182.942508 -152.376173
v 104.103268 175.041956 -150.571532
v 104.932346 175.152847 -149.459466
v 104.671204 175.029040 -150.994052
v 105.500283 175.139931 -149.881986
v 104.316274 183.980787 -150.519855
v 104.874612 183.971833 -150.910479
v 103.918848 183.067539 -150.989793
v 104.486459 183.068833 -151.413053
v 104.748326 183.161055 -149.876822
v 105.315409 183.185319 -150.301280
v 99.600360 180.129202 -158.350359
v 105.873129 181.079173 -149.550410
v 99.542283 181.622540 -158.420911
v 105.815052 182.572510 -149.620962
v 100.018635 181.626098 -158.760731
v 106.291404 182.576069 -149.960781
v 100.076712 180.132761 -158.690179
v 106.349481 181.082731 -149.890229
v 99.743374 174.661239 -158.189649
v 106.016143 175.611209 -149.389699
v 99.697799 175.833121 -158.245014
v 105.970568 176.783092 -149.445064
v 100.174151 175.836680 -158.584833
v 106.446920 176.786650 -149.784884
v 100.219726 174.664797 -158.529468
v 106.492496 175.614768 -149.729519
vt 0.780806 0.121878
vt 0.870100 0.121075
vt 0.602661 0.991003
vt 0.602661 0.904550
vt 0.827480 0.081304
vt 0.765231 0.126569
vt 0.765231 0.224231
vt 0.702815 0.224231
vt 0.702815 0.126569
vt 0.535364 0.274985
vt 0.091558 0.009792
vt 0.146297 0.009792
vt 0.146297 0.365468
vt 0.590104 0.313891
vt 0.537435 0.313808
vt 0.025926 0.010552
vt 0.080500 0.010552
vt 0.080500 0.364288
vt 0.538057 0.323620
vt 0.590567 0.360935
vt 0.538057 0.361017
vt 0.602523 0.428417
vt 0.986278 0.428417
vt 0.986278 0.514830
vt 0.869677 0.133872
vt 0.825792 0.173055
vt 0.985644 0.991003
vt 0.984815 0.904550
vt 0.602790 0.514830
vt 0.780423 0.134130
vt 0.091558 0.363825
vt 0.590104 0.276629
vt 0.592631 0.322994
vt 0.025926 0.364914
vt 0.984565 0.809391
vt 0.985394 0.895844
vt 0.602411 0.895844
vt 0.602411 0.809391
vt 0.587993 0.263776
vt 0.535484 0.263859
vt 0.535484 0.226461
vt 0.590058 0.225835
vt 0.762860 0.016513
vt 0.762860 0.114176
vt 0.700444 0.114176
vt 0.700444 0.016513
vt 0.215491 0.364122
vt 0.215491 0.010089
vt 0.270230 0.010089
vt 0.270230 0.365765
vt 0.153597 0.010552
vt 0.208171 0.010552
vt 0.208171 0.364288
vt 0.153597 0.364914
vt 0.601299 0.521252
vt 0.985053 0.521251
vt 0.985053 0.607665
vt 0.601566 0.607665
vt 0.592403 0.178616
vt 0.592403 0.215879
vt 0.539735 0.215795
vt 0.537664 0.176972
vt 0.779958 0.020471
vt 0.869252 0.019669
vt 0.822578 0.060242
vt 0.875480 0.135413
vt 0.875747 0.221828
vt 0.835276 0.179338
vt 0.984074 0.713425
vt 0.984904 0.799877
vt 0.601921 0.799877
vt 0.601921 0.713425
vt 0.589812 0.168948
vt 0.537303 0.169031
vt 0.537303 0.131633
vt 0.591877 0.131007
vt 0.694588 0.125972
vt 0.694588 0.223634
vt 0.632173 0.223634
vt 0.632173 0.125972
vt 0.341945 0.364122
vt 0.341945 0.010089
vt 0.396684 0.010089
vt 0.396684 0.365766
vt 0.279254 0.010816
vt 0.333829 0.010816
vt 0.333829 0.364551
vt 0.279254 0.365177
vt 0.602818 0.332230
vt 0.986573 0.332230
vt 0.986573 0.418643
vt 0.603085 0.418643
vt 0.588543 0.084440
vt 0.588543 0.121703
vt 0.535875 0.121620
vt 0.533804 0.082796
vt 0.779781 0.223944
vt 0.778951 0.137492
vt 0.820858 0.182680
vt 0.781206 0.115549
vt 0.780939 0.029136
vt 0.821410 0.071625
vt 0.984392 0.617480
vt 0.985222 0.703932
vt 0.602239 0.703932
vt 0.602239 0.617480
vt 0.586604 0.072265
vt 0.534094 0.072347
vt 0.534094 0.034950
vt 0.588669 0.034324
vt 0.693824 0.016410
vt 0.693824 0.114072
vt 0.631408 0.114072
vt 0.631408 0.016410
vt 0.469681 0.365273
vt 0.469681 0.011240
vt 0.524420 0.011240
vt 0.524420 0.366917
vt 0.406290 0.012039
vt 0.460865 0.012039
vt 0.460865 0.365774
vt 0.406290 0.366400
vt 0.602832 0.236674
vt 0.986587 0.236674
vt 0.986586 0.323088
vt 0.603099 0.323088
vt 0.977603 0.017476
vt 0.977603 0.054738
vt 0.924935 0.054655
vt 0.922864 0.015832
vt 0.874097 0.225129
vt 0.784803 0.225932
vt 0.831477 0.185359
vt 0.870849 0.024352
vt 0.871116 0.110766
vt 0.830645 0.068277
vt 0.417039 0.989450
vt 0.417039 0.377391
vt 0.500798 0.377391
vt 0.500798 0.989450
vt 0.178993 0.988969
vt 0.178993 0.374277
vt 0.226957 0.374277
vt 0.226957 0.988969
vt 0.509981 0.989259
vt 0.509981 0.377203
vt 0.593740 0.377203
vt 0.593740 0.989260
vt 0.127067 0.989293
vt 0.127067 0.376993
vt 0.171758 0.376993
vt 0.171758 0.989293
vt 0.883070 0.141104
vt 0.883070 0.109216
vt 0.981116 0.109216
vt 0.981116 0.141104
vt 0.883220 0.100277
vt 0.883220 0.068389
vt 0.981266 0.068389
vt 0.981266 0.100277
vt 0.233875 0.989026
vt 0.233875 0.372925
vt 0.317634 0.372926
vt 0.317634 0.989026
vt 0.075098 0.989203
vt 0.075099 0.377503
vt 0.120356 0.377503
vt 0.120356 0.989203
vt 0.325938 0.989266
vt 0.325938 0.373482
vt 0.409697 0.373482
vt 0.409697 0.989266
vt 0.022659 0.989139
vt 0.022659 0.377441
vt 0.067916 0.377441
vt 0.067916 0.989139
vt 0.884713 0.228044
vt 0.884713 0.196156
vt 0.982759 0.196156
vt 0.982759 0.228044
vt 0.883409 0.184526
vt 0.883409 0.152637
vt 0.981455 0.152637
vt 0.981455 0.184526
vn -0.992520 0.002954 0.122050
vn -0.982092 -0.109564 0.153267
vn -0.440365 0.063296 0.895585
vn -0.456606 -0.054312 0.888010
vn 0.600981 0.633410 -0.487456
vn 0.447303 0.010468 -0.894321
vn -0.659950 0.641733 0.390699
vn 0.988396 -0.046631 -0.144564
vn 0.466696 -0.101711 -0.878550
vn 0.987701 0.070507 -0.139552
vn -0.992077 -0.021254 0.123825
vn -0.978921 -0.133824 0.154287
vn -0.440433 0.047754 0.896515
vn -0.453034 -0.070158 0.888728
vn 0.580938 0.653226 -0.485600
vn 0.445078 0.026121 -0.895111
vn -0.677396 0.620493 0.395125
vn 0.988939 -0.022368 -0.146624
vn 0.467953 -0.085586 -0.879599
vn 0.985490 0.094749 -0.140827
vn -0.998011 0.025500 0.057646
vn -0.992601 -0.084935 0.086775
vn -0.420518 0.062863 0.905104
vn -0.441535 -0.051329 0.895775
vn 0.615772 0.647334 -0.449204
vn 0.430881 0.008712 -0.902367
vn -0.628379 0.680314 0.377244
vn 0.994341 -0.067936 -0.081675
vn 0.445413 -0.101521 -0.889551
vn 0.996152 0.046356 -0.074375
vn -0.989694 0.020422 0.141732
vn -0.980525 -0.092011 0.173507
vn -0.420896 0.075550 0.903957
vn -0.439859 -0.041813 0.897093
vn 0.604191 0.618282 -0.502675
vn 0.429478 -0.001886 -0.903076
vn -0.638707 0.657318 0.399982
vn 0.984395 -0.064165 -0.163859
vn 0.446735 -0.114352 -0.887328
vn 0.985751 0.052986 -0.159645
vn -0.814075 -0.004223 0.580744
vn -0.814075 -0.004223 0.580744
vn -0.814075 -0.004223 0.580744
vn -0.814075 -0.004223 0.580744
vn -0.055787 0.996140 -0.067769
vn -0.055787 0.996140 -0.067769
vn -0.055787 0.996140 -0.067769
vn -0.055787 0.996140 -0.067769
vn 0.814075 0.004223 -0.580744
vn 0.814075 0.004223 -0.580744
vn 0.814075 0.004223 -0.580744
vn 0.814075 0.004223 -0.580744
vn 0.055787 -0.996140 0.067769
vn 0.055787 -0.996140 0.067769
vn 0.055787 -0.996140 0.067769
vn 0.055787 -0.996140 0.067769
vn 0.579368 0.060932 0.812785
vn 0.579368 0.060932 0.812785
vn 0.579368 0.060932 0.812785
vn 0.579368 0.060932 0.812785
vn -0.579368 -0.060932 -0.812785
vn -0.579368 -0.060932 -0.812785
vn -0.579368 -0.060932 -0.812785
vn -0.579368 -0.060932 -0.812785
vn -0.814075 -0.004223 0.580744
vn -0.814075 -0.004223 0.580744
vn -0.814075 -0.004223 0.580744
vn -0.814075 -0.004223 0.580744
vn -0.055787 0.996140 -0.067769
vn -0.055787 0.996140 -0.067769
vn -0.055787 0.996140 -0.067769
vn -0.055787 0.996140 -0.067769
vn 0.814075 0.004223 -0.580744
vn 0.814075 0.004223 -0.580744
vn 0.814075 0.004223 -0.580744
vn 0.814075 0.004223 -0.580744
vn 0.055787 -0.996140 0.067769
vn 0.055787 -0.996140 0.067769
vn 0.055787 -0.996140 0.067769
vn 0.055787 -0.996140 0.067769
vn 0.579368 0.060932 0.812785
vn 0.579368 0.060932 0.812785
vn 0.579368 0.060932 0.812785
vn 0.579368 0.060932 0.812785
vn -0.579368 -0.060932 -0.812785
vn -0.579368 -0.060932 -0.812785
vn -0.579368 -0.060932 -0.812785
vn -0.579368 -0.060932 -0.812785
f 7/27/1 1/3/2 9/28/3
f 9/28/3 1/3/2 2/4/4
f 6/21/5 8/19/6 5/20/7
f 5/20/7 8/19/6 7/33/1
f 2/6/4 1/7/2 4/9/8
f 4/9/8 1/7/2 3/8/9
f 2/11/4 4/12/8 9/31/3
f 9/31/3 4/12/8 10/13/10
f 1/17/2 7/18/1 3/16/9
f 3/16/9 7/18/1 8/34/6
f 10/22/10 4/23/8 8/29/6
f 8/29/6 4/23/8 3/24/9
f 6/14/5 5/15/7 10/32/10
f 10/32/10 5/15/7 9/10/3
f 7/2/1 9/1/3 5/5/7
f 10/30/10 8/25/6 6/26/5
f 17/36/11 11/37/12 19/35/13
f 19/35/13 11/37/12 12/38/14
f 16/40/15 18/41/16 15/39/17
f 15/39/17 18/41/16 17/42/11
f 12/43/14 11/44/12 14/46/18
f 14/46/18 11/44/12 13/45/19
f 12/48/14 14/49/18 19/47/13
f 19/47/13 14/49/18 20/50/20
f 11/52/12 17/53/11 13/51/19
f 13/51/19 17/53/11 18/54/16
f 20/55/20 14/56/18 18/58/16
f 18/58/16 14/56/18 13/57/19
f 16/60/15 15/61/17 20/59/20
f 20/59/20 15/61/17 19/62/13
f 17/63/11 19/64/13 15/65/17
f 20/66/20 18/67/16 16/68/15
f 27/70/21 21/71/22 29/69/23
f 29/69/23 21/71/22 22/72/24
f 26/74/25 28/75/26 25/73/27
f 25/73/27 28/75/26 27/76/21
f 22/77/24 21/78/22 24/80/28
f 24/80/28 21/78/22 23/79/29
f 22/82/24 24/83/28 29/81/23
f 29/81/23 24/83/28 30/84/30
f 21/86/22 27/87/21 23/85/29
f 23/85/29 27/87/21 28/88/26
f 30/89/30 24/90/28 28/92/26
f 28/92/26 24/90/28 23/91/29
f 26/94/25 25/95/27 30/93/30
f 30/93/30 25/95/27 29/96/23
f 27/97/21 29/98/23 25/99/27
f 30/100/30 28/101/26 26/102/25
f 37/104/31 31/105/32 39/103/33
f 39/103/33 31/105/32 32/106/34
f 36/108/35 38/109/36 35/107/37
f 35/107/37 38/109/36 37/110/31
f 32/111/34 31/112/32 34/114/38
f 34/114/38 31/112/32 33/113/39
f 32/116/34 34/117/38 39/115/33
f 39/115/33 34/117/38 40/118/40
f 31/120/32 37/121/31 33/119/39
f 33/119/39 37/121/31 38/122/36
f 40/123/40 34/124/38 38/126/36
f 38/126/36 34/124/38 33/125/39
f 36/128/35 35/129/37 40/127/40
f 40/127/40 35/129/37 39/130/33
f 37/131/31 39/132/33 35/133/37
f 40/134/40 38/135/36 36/136/35
f 41/137/41 42/138/42 43/140/43
f 43/140/43 42/138/42 44/139/44
f 43/141/45 44/142/46 45/144/47
f 45/144/47 44/142/46 46/143/48
f 45/145/49 46/146/50 47/148/51
f 47/148/51 46/146/50 48/147/52
f 47/149/53 48/150/54 41/152/55
f 41/152/55 48/150/54 42/151/56
f 42/153/57 48/154/58 44/156/59
f 44/156/59 48/154/58 46/155/60
f 47/157/61 41/158/62 45/160/63
f 45/160/63 41/158/62 43/159/64
f 49/161/65 50/162/66 51/164/67
f 51/164/67 50/162/66 52/163/68
f 51/165/69 52/166/70 53/168/71
f 53/168/71 52/166/70 54/167/72
f 53/169/73 54/170/74 55/172/75
f 55/172/75 54/170/74 56/171/76
f 55/173/77 56/174/78 49/176/79
f 49/176/79 56/174/78 50/175/80
f 50/177/81 56/178/82 52/180/83
f 52/180/83 56/178/82 54/179/84
f 55/181/85 49/182/86 53/184/87
f 53/184/87 49/182/86 51/183/88
