# This file uses centimeters as units for non-parametric coordinates.

v 149.700880 173.630425 -118.414324
v 150.791008 173.656704 -117.551919
v 150.140195 173.609105 -118.969191
v 151.230323 173.635383 -118.106786
v 150.261738 182.545374 -118.242327
v 150.700126 182.527119 -118.763833
v 149.722483 181.671200 -118.611778
v 150.161836 181.664117 -119.166995
v 150.812564 181.680070 -117.748946
v 151.251979 181.696000 -118.304728
v 151.780041 173.657237 -116.897879
v 152.869957 173.701783 -116.035728
v 152.219216 173.658988 -117.453139
v 153.309132 173.703535 -116.590988
v 152.151921 182.582493 -116.618342
v 152.590133 182.586700 -117.140208
v 151.631068 181.698657 -116.998088
v 152.069980 181.714647 -117.553526
v 152.721307 181.725794 -116.135720
v 153.159792 181.764800 -116.691445
v 154.116412 173.773911 -114.856714
v 155.083348 173.750502 -114.055374
v 154.567368 173.737378 -115.401601
v 155.534304 173.713969 -114.600262
v 154.887377 182.659164 -114.667152
v 155.335250 182.625556 -115.179926
v 154.380474 181.809804 -115.012323
v 154.831898 181.787500 -115.557486
v 155.346839 181.768998 -114.210647
v 155.799019 181.769693 -114.756255
v 156.114862 173.805503 -113.169881
v 157.223041 173.819724 -112.330597
v 156.542078 173.767977 -113.733530
v 157.650257 173.782198 -112.894245
v 156.807524 182.708977 -113.090164
v 157.234557 182.674955 -113.620469
v 156.248134 181.841665 -113.440410
v 156.675585 181.818368 -114.004537
v 157.356024 181.838488 -112.600540
v 157.783858 181.838191 -113.165441
v 149.917439 179.466668 -119.341952
v 158.414431 179.671496 -112.619941
v 149.921460 180.963369 -119.378706
v 158.418452 181.168197 -112.656695
v 150.284571 180.945746 -119.837325
v 158.781563 181.150574 -113.115315
v 150.280550 179.449045 -119.800571
v 158.777542 179.653874 -113.078561
v 149.808963 173.994637 -119.281823
v 158.305955 174.199465 -112.559812
v 149.812118 175.169159 -119.310665
v 158.309111 175.373987 -112.588655
v 150.175229 175.151537 -119.769285
v 158.672222 175.356365 -113.047274
v 150.172074 173.977015 -119.740443
v 158.669066 174.181843 -113.018432
vt 0.780806 0.121878
vt 0.870100 0.121075
vt 0.602661 0.991003
vt 0.602661 0.904550
vt 0.827480 0.081304
vt 0.765231 0.126569
vt 0.765231 0.224231
vt 0.702815 0.224231
vt 0.702815 0.126569
vt 0.535364 0.274985
vt 0.091558 0.009792
vt 0.146297 0.009792
vt 0.146297 0.365468
vt 0.590104 0.313891
vt 0.537435 0.313808
vt 0.025926 0.010552
vt 0.080500 0.010552
vt 0.080500 0.364288
vt 0.538057 0.323620
vt 0.590567 0.360935
vt 0.538057 0.361017
vt 0.602523 0.428417
vt 0.986278 0.428417
vt 0.986278 0.514830
vt 0.869677 0.133872
vt 0.825792 0.173055
vt 0.985644 0.991003
vt 0.984815 0.904550
vt 0.602790 0.514830
vt 0.780423 0.134130
vt 0.091558 0.363825
vt 0.590104 0.276629
vt 0.592631 0.322994
vt 0.025926 0.364914
vt 0.984565 0.809391
vt 0.985394 0.895844
vt 0.602411 0.895844
vt 0.602411 0.809391
vt 0.587993 0.263776
vt 0.535484 0.263859
vt 0.535484 0.226461
vt 0.590058 0.225835
vt 0.762860 0.016513
vt 0.762860 0.114176
vt 0.700444 0.114176
vt 0.700444 0.016513
vt 0.215491 0.364122
vt 0.215491 0.010089
vt 0.270230 0.010089
vt 0.270230 0.365765
vt 0.153597 0.010552
vt 0.208171 0.010552
vt 0.208171 0.364288
vt 0.153597 0.364914
vt 0.601299 0.521252
vt 0.985053 0.521251
vt 0.985053 0.607665
vt 0.601566 0.607665
vt 0.592403 0.178616
vt 0.592403 0.215879
vt 0.539735 0.215795
vt 0.537664 0.176972
vt 0.779958 0.020471
vt 0.869252 0.019669
vt 0.822578 0.060242
vt 0.875480 0.135413
vt 0.875747 0.221828
vt 0.835276 0.179338
vt 0.984074 0.713425
vt 0.984904 0.799877
vt 0.601921 0.799877
vt 0.601921 0.713425
vt 0.589812 0.168948
vt 0.537303 0.169031
vt 0.537303 0.131633
vt 0.591877 0.131007
vt 0.694588 0.125972
vt 0.694588 0.223634
vt 0.632173 0.223634
vt 0.632173 0.125972
vt 0.341945 0.364122
vt 0.341945 0.010089
vt 0.396684 0.010089
vt 0.396684 0.365766
vt 0.279254 0.010816
vt 0.333829 0.010816
vt 0.333829 0.364551
vt 0.279254 0.365177
vt 0.602818 0.332230
vt 0.986573 0.332230
vt 0.986573 0.418643
vt 0.603085 0.418643
vt 0.588543 0.084440
vt 0.588543 0.121703
vt 0.535875 0.121620
vt 0.533804 0.082796
vt 0.779781 0.223944
vt 0.778951 0.137492
vt 0.820858 0.182680
vt 0.781206 0.115549
vt 0.780939 0.029136
vt 0.821410 0.071625
vt 0.984392 0.617480
vt 0.985222 0.703932
vt 0.602239 0.703932
vt 0.602239 0.617480
vt 0.586604 0.072265
vt 0.534094 0.072347
vt 0.534094 0.034950
vt 0.588669 0.034324
vt 0.693824 0.016410
vt 0.693824 0.114072
vt 0.631408 0.114072
vt 0.631408 0.016410
vt 0.469681 0.365273
vt 0.469681 0.011240
vt 0.524420 0.011240
vt 0.524420 0.366917
vt 0.406290 0.012039
vt 0.460865 0.012039
vt 0.460865 0.365774
vt 0.406290 0.366400
vt 0.602832 0.236674
vt 0.986587 0.236674
vt 0.986586 0.323088
vt 0.603099 0.323088
vt 0.977603 0.017476
vt 0.977603 0.054738
vt 0.924935 0.054655
vt 0.922864 0.015832
vt 0.874097 0.225129
vt 0.784803 0.225932
vt 0.831477 0.185359
vt 0.870849 0.024352
vt 0.871116 0.110766
vt 0.830645 0.068277
vt 0.417039 0.989450
vt 0.417039 0.377391
vt 0.500798 0.377391
vt 0.500798 0.989450
vt 0.178993 0.988969
vt 0.178993 0.374277
vt 0.226957 0.374277
vt 0.226957 0.988969
vt 0.509981 0.989259
vt 0.509981 0.377203
vt 0.593740 0.377203
vt 0.593740 0.989260
vt 0.127067 0.989293
vt 0.127067 0.376993
vt 0.171758 0.376993
vt 0.171758 0.989293
vt 0.883070 0.141104
vt 0.883070 0.109216
vt 0.981116 0.109216
vt 0.981116 0.141104
vt 0.883220 0.100277
vt 0.883220 0.068389
vt 0.981266 0.068389
vt 0.981266 0.100277
vt 0.233875 0.989026
vt 0.233875 0.372925
vt 0.317634 0.372926
vt 0.317634 0.989026
vt 0.075098 0.989203
vt 0.075099 0.377503
vt 0.120356 0.377503
vt 0.120356 0.989203
vt 0.325938 0.989266
vt 0.325938 0.373482
vt 0.409697 0.373482
vt 0.409697 0.989266
vt 0.022659 0.989139
vt 0.022659 0.377441
vt 0.067916 0.377441
vt 0.067916 0.989139
vt 0.884713 0.228044
vt 0.884713 0.196156
vt 0.982759 0.196156
vt 0.982759 0.228044
vt 0.883409 0.184526
vt 0.883409 0.152637
vt 0.981455 0.152637
vt 0.981455 0.184526
vn -0.918310 0.047842 0.392960
vn -0.906288 -0.065614 0.417536
vn -0.170030 0.062631 0.983447
vn -0.196680 -0.053761 0.978993
vn 0.487563 0.611863 -0.622821
vn 0.182670 0.010611 -0.983117
vn -0.478805 0.666726 0.571158
vn 0.905544 -0.090778 -0.414426
vn 0.197063 -0.102654 -0.975002
vn 0.913144 0.026121 -0.406800
vn -0.918805 0.023597 0.394007
vn -0.904404 -0.089918 0.417095
vn -0.171025 0.047103 0.984140
vn -0.194267 -0.069763 0.978465
vn 0.470494 0.632507 -0.615280
vn 0.181513 0.026358 -0.983035
vn -0.496051 0.646155 0.580015
vn 0.906925 -0.066480 -0.416013
vn 0.199210 -0.086597 -0.976123
vn 0.912094 0.050403 -0.406871
vn -0.940130 0.072218 0.333077
vn -0.933218 -0.038976 0.357190
vn -0.148395 0.061010 0.987044
vn -0.179859 -0.051700 0.982333
vn 0.512957 0.623699 -0.589809
vn 0.164564 0.009846 -0.986317
vn -0.449105 0.704231 0.549875
vn 0.927487 -0.113941 -0.356069
vn 0.173618 -0.101166 -0.979603
vn 0.937828 0.000055 -0.347101
vn -0.909121 0.064689 0.411478
vn -0.898182 -0.048710 0.436917
vn -0.148105 0.073715 0.986221
vn -0.177160 -0.042317 0.983272
vn 0.485383 0.597167 -0.638588
vn 0.162213 -0.000645 -0.986756
vn -0.454423 0.680952 0.574285
vn 0.895298 -0.107670 -0.432259
vn 0.174521 -0.114088 -0.978022
vn 0.904703 0.009238 -0.425942
vn -0.620606 0.020916 0.783843
vn -0.620606 0.020916 0.783843
vn -0.620606 0.020916 0.783843
vn -0.620606 0.020916 0.783843
vn 0.003866 0.999368 -0.035339
vn 0.003866 0.999368 -0.035339
vn 0.003866 0.999368 -0.035339
vn 0.003866 0.999368 -0.035339
vn 0.620606 -0.020916 -0.783843
vn 0.620606 -0.020916 -0.783843
vn 0.620606 -0.020916 -0.783843
vn 0.620606 -0.020916 -0.783843
vn -0.003866 -0.999368 0.035339
vn -0.003866 -0.999368 0.035339
vn -0.003866 -0.999368 0.035339
vn -0.003866 -0.999368 0.035339
vn 0.784193 0.013128 0.620378
vn 0.784193 0.013128 0.620378
vn 0.784193 0.013128 0.620378
vn 0.784193 0.013128 0.620378
vn -0.784193 -0.013128 -0.620378
vn -0.784193 -0.013128 -0.620378
vn -0.784193 -0.013128 -0.620378
vn -0.784193 -0.013128 -0.620378
vn -0.620606 0.020916 0.783843
vn -0.620606 0.020916 0.783843
vn -0.620606 0.020916 0.783843
vn -0.620606 0.020916 0.783843
vn 0.003866 0.999368 -0.035339
vn 0.003866 0.999368 -0.035339
vn 0.003866 0.999368 -0.035339
vn 0.003866 0.999368 -0.035339
vn 0.620606 -0.020916 -0.783843
vn 0.620606 -0.020916 -0.783843
vn 0.620606 -0.020916 -0.783843
vn 0.620606 -0.020916 -0.783843
vn -0.003866 -0.999368 0.035339
vn -0.003866 -0.999368 0.035339
vn -0.003866 -0.999368 0.035339
vn -0.003866 -0.999368 0.035339
vn 0.784193 0.013128 0.620378
vn 0.784193 0.013128 0.620378
vn 0.784193 0.013128 0.620378
vn 0.784193 0.013128 0.620378
vn -0.784193 -0.013128 -0.620378
vn -0.784193 -0.013128 -0.620378
vn -0.784193 -0.013128 -0.620378
vn -0.784193 -0.013128 -0.620378
f 7/27/1 1/3/2 9/28/3
f 9/28/3 1/3/2 2/4/4
f 6/21/5 8/19/6 5/20/7
f 5/20/7 8/19/6 7/33/1
f 2/6/4 1/7/2 4/9/8
f 4/9/8 1/7/2 3/8/9
f 2/11/4 4/12/8 9/31/3
f 9/31/3 4/12/8 10/13/10
f 1/17/2 7/18/1 3/16/9
f 3/16/9 7/18/1 8/34/6
f 10/22/10 4/23/8 8/29/6
f 8/29/6 4/23/8 3/24/9
f 6/14/5 5/15/7 10/32/10
f 10/32/10 5/15/7 9/10/3
f 7/2/1 9/1/3 5/5/7
f 10/30/10 8/25/6 6/26/5
f 17/36/11 11/37/12 19/35/13
f 19/35/13 11/37/12 12/38/14
f 16/40/15 18/41/16 15/39/17
f 15/39/17 18/41/16 17/42/11
f 12/43/14 11/44/12 14/46/18
f 14/46/18 11/44/12 13/45/19
f 12/48/14 14/49/18 19/47/13
f 19/47/13 14/49/18 20/50/20
f 11/52/12 17/53/11 13/51/19
f 13/51/19 17/53/11 18/54/16
f 20/55/20 14/56/18 18/58/16
f 18/58/16 14/56/18 13/57/19
f 16/60/15 15/61/17 20/59/20
f 20/59/20 15/61/17 19/62/13
f 17/63/11 19/64/13 15/65/17
f 20/66/20 18/67/16 16/68/15
f 27/70/21 21/71/22 29/69/23
f 29/69/23 21/71/22 22/72/24
f 26/74/25 28/75/26 25/73/27
f 25/73/27 28/75/26 27/76/21
f 22/77/24 21/78/22 24/80/28
f 24/80/28 21/78/22 23/79/29
f 22/82/24 24/83/28 29/81/23
f 29/81/23 24/83/28 30/84/30
f 21/86/22 27/87/21 23/85/29
f 23/85/29 27/87/21 28/88/26
f 30/89/30 24/90/28 28/92/26
f 28/92/26 24/90/28 23/91/29
f 26/94/25 25/95/27 30/93/30
f 30/93/30 25/95/27 29/96/23
f 27/97/21 29/98/23 25/99/27
f 30/100/30 28/101/26 26/102/25
f 37/104/31 31/105/32 39/103/33
f 39/103/33 31/105/32 32/106/34
f 36/108/35 38/109/36 35/107/37
f 35/107/37 38/109/36 37/110/31
f 32/111/34 31/112/32 34/114/38
f 34/114/38 31/112/32 33/113/39
f 32/116/34 34/117/38 39/115/33
f 39/115/33 34/117/38 40/118/40
f 31/120/32 37/121/31 33/119/39
f 33/119/39 37/121/31 38/122/36
f 40/123/40 34/124/38 38/126/36
f 38/126/36 34/124/38 33/125/39
f 36/128/35 35/129/37 40/127/40
f 40/127/40 35/129/37 39/130/33
f 37/131/31 39/132/33 35/133/37
f 40/134/40 38/135/36 36/136/35
f 41/137/41 42/138/42 43/140/43
f 43/140/43 42/138/42 44/139/44
f 43/141/45 44/142/46 45/144/47
f 45/144/47 44/142/46 46/143/48
f 45/145/49 46/146/50 47/148/51
f 47/148/51 46/146/50 48/147/52
f 47/149/53 48/150/54 41/152/55
f 41/152/55 48/150/54 42/151/56
f 42/153/57 48/154/58 44/156/59
f 44/156/59 48/154/58 46/155/60
f 47/157/61 41/158/62 45/160/63
f 45/160/63 41/158/62 43/159/64
f 49/161/65 50/162/66 51/164/67
f 51/164/67 50/162/66 52/163/68
f 51/165/69 52/166/70 53/168/71
f 53/168/71 52/166/70 54/167/72
f 53/169/73 54/170/74 55/172/75
f 55/172/75 54/170/74 56/171/76
f 55/173/77 56/174/78 49/176/79
f 49/176/79 56/174/78 50/175/80
f 50/177/81 56/178/82 52/180/83
f 52/180/83 56/178/82 54/179/84
f 55/181/85 49/182/86 53/184/87
f 53/184/87 49/182/86 51/183/88
