# This file uses centimeters as units for non-parametric coordinates.

v -279.992263 136.330680 -197.480699
v -278.622936 136.389235 -197.245833
v -279.874178 136.379142 -198.177560
v -278.504850 136.437697 -197.942694
v -279.662207 145.247584 -197.021349
v -279.528949 145.296932 -197.688384
v -280.288481 144.356923 -197.143275
v -280.170919 144.419596 -197.839539
v -278.918512 144.398100 -196.909140
v -278.801799 144.483746 -197.604438
v -277.441792 136.427194 -197.146573
v -276.073272 136.503951 -196.910646
v -277.324650 136.498660 -197.842218
v -275.956129 136.575417 -197.606291
v -277.225724 145.332618 -196.502113
v -277.093410 145.404357 -197.167924
v -277.840576 144.434437 -196.642470
v -277.724139 144.520080 -197.337222
v -276.471192 144.493858 -196.407634
v -276.355897 144.602419 -197.100944
v -274.415809 136.600718 -196.470591
v -273.182419 136.603819 -196.233455
v -274.282305 136.634320 -197.165273
v -273.048915 136.637421 -196.928137
v -273.892476 145.503604 -196.098268
v -273.746286 145.537859 -196.763193
v -274.479401 144.638713 -196.212817
v -274.346010 144.686547 -196.907043
v -273.245873 144.624412 -195.976239
v -273.112664 144.695251 -196.669727
v -271.854090 136.684892 -195.948504
v -270.479759 136.734316 -195.743277
v -271.750386 136.716798 -196.648311
v -270.376055 136.766222 -196.443084
v -271.452733 145.606616 -195.633652
v -271.333226 145.639905 -196.303975
v -272.087579 144.719990 -195.728704
v -271.984288 144.766123 -196.428121
v -270.712742 144.752018 -195.523953
v -270.610120 144.821148 -196.222741
v -280.409083 142.221564 -198.017971
v -269.735870 142.677966 -196.187312
v -280.464220 143.715560 -197.955163
v -269.791007 144.171962 -196.124504
v -280.366618 143.755616 -198.531146
v -269.693405 144.212018 -196.700488
v -280.311480 142.261620 -198.593954
v -269.638267 142.718022 -196.763295
v -280.325379 136.756642 -198.267709
v -269.652166 137.213044 -196.437051
v -280.368648 137.929042 -198.218422
v -269.695435 138.385443 -196.387763
v -280.271045 137.969097 -198.794405
v -269.597832 138.425499 -196.963746
v -280.227777 136.796698 -198.843693
v -269.554564 137.253100 -197.013034
vt 0.780806 0.121878
vt 0.870100 0.121075
vt 0.602661 0.991003
vt 0.602661 0.904550
vt 0.827480 0.081304
vt 0.765231 0.126569
vt 0.765231 0.224231
vt 0.702815 0.224231
vt 0.702815 0.126569
vt 0.535364 0.274985
vt 0.091558 0.009792
vt 0.146297 0.009792
vt 0.146297 0.365468
vt 0.590104 0.313891
vt 0.537435 0.313808
vt 0.025926 0.010552
vt 0.080500 0.010552
vt 0.080500 0.364288
vt 0.538057 0.323620
vt 0.590567 0.360935
vt 0.538057 0.361017
vt 0.602523 0.428417
vt 0.986278 0.428417
vt 0.986278 0.514830
vt 0.869677 0.133872
vt 0.825792 0.173055
vt 0.985644 0.991003
vt 0.984815 0.904550
vt 0.602790 0.514830
vt 0.780423 0.134130
vt 0.091558 0.363825
vt 0.590104 0.276629
vt 0.592631 0.322994
vt 0.025926 0.364914
vt 0.984565 0.809391
vt 0.985394 0.895844
vt 0.602411 0.895844
vt 0.602411 0.809391
vt 0.587993 0.263776
vt 0.535484 0.263859
vt 0.535484 0.226461
vt 0.590058 0.225835
vt 0.762860 0.016513
vt 0.762860 0.114176
vt 0.700444 0.114176
vt 0.700444 0.016513
vt 0.215491 0.364122
vt 0.215491 0.010089
vt 0.270230 0.010089
vt 0.270230 0.365765
vt 0.153597 0.010552
vt 0.208171 0.010552
vt 0.208171 0.364288
vt 0.153597 0.364914
vt 0.601299 0.521252
vt 0.985053 0.521251
vt 0.985053 0.607665
vt 0.601566 0.607665
vt 0.592403 0.178616
vt 0.592403 0.215879
vt 0.539735 0.215795
vt 0.537664 0.176972
vt 0.779958 0.020471
vt 0.869252 0.019669
vt 0.822578 0.060242
vt 0.875480 0.135413
vt 0.875747 0.221828
vt 0.835276 0.179338
vt 0.984074 0.713425
vt 0.984904 0.799877
vt 0.601921 0.799877
vt 0.601921 0.713425
vt 0.589812 0.168948
vt 0.537303 0.169031
vt 0.537303 0.131633
vt 0.591877 0.131007
vt 0.694588 0.125972
vt 0.694588 0.223634
vt 0.632173 0.223634
vt 0.632173 0.125972
vt 0.341945 0.364122
vt 0.341945 0.010089
vt 0.396684 0.010089
vt 0.396684 0.365766
vt 0.279254 0.010816
vt 0.333829 0.010816
vt 0.333829 0.364551
vt 0.279254 0.365177
vt 0.602818 0.332230
vt 0.986573 0.332230
vt 0.986573 0.418643
vt 0.603085 0.418643
vt 0.588543 0.084440
vt 0.588543 0.121703
vt 0.535875 0.121620
vt 0.533804 0.082796
vt 0.779781 0.223944
vt 0.778951 0.137492
vt 0.820858 0.182680
vt 0.781206 0.115549
vt 0.780939 0.029136
vt 0.821410 0.071625
vt 0.984392 0.617480
vt 0.985222 0.703932
vt 0.602239 0.703932
vt 0.602239 0.617480
vt 0.586604 0.072265
vt 0.534094 0.072347
vt 0.534094 0.034950
vt 0.588669 0.034324
vt 0.693824 0.016410
vt 0.693824 0.114072
vt 0.631408 0.114072
vt 0.631408 0.016410
vt 0.469681 0.365273
vt 0.469681 0.011240
vt 0.524420 0.011240
vt 0.524420 0.366917
vt 0.406290 0.012039
vt 0.460865 0.012039
vt 0.460865 0.365774
vt 0.406290 0.366400
vt 0.602832 0.236674
vt 0.986587 0.236674
vt 0.986586 0.323088
vt 0.603099 0.323088
vt 0.977603 0.017476
vt 0.977603 0.054738
vt 0.924935 0.054655
vt 0.922864 0.015832
vt 0.874097 0.225129
vt 0.784803 0.225932
vt 0.831477 0.185359
vt 0.870849 0.024352
vt 0.871116 0.110766
vt 0.830645 0.068277
vt 0.417039 0.989450
vt 0.417039 0.377391
vt 0.500798 0.377391
vt 0.500798 0.989450
vt 0.178993 0.988969
vt 0.178993 0.374277
vt 0.226957 0.374277
vt 0.226957 0.988969
vt 0.509981 0.989259
vt 0.509981 0.377203
vt 0.593740 0.377203
vt 0.593740 0.989260
vt 0.127067 0.989293
vt 0.127067 0.376993
vt 0.171758 0.376993
vt 0.171758 0.989293
vt 0.883070 0.141104
vt 0.883070 0.109216
vt 0.981116 0.109216
vt 0.981116 0.141104
vt 0.883220 0.100277
vt 0.883220 0.068389
vt 0.981266 0.068389
vt 0.981266 0.100277
vt 0.233875 0.989026
vt 0.233875 0.372925
vt 0.317634 0.372926
vt 0.317634 0.989026
vt 0.075098 0.989203
vt 0.075099 0.377503
vt 0.120356 0.377503
vt 0.120356 0.989203
vt 0.325938 0.989266
vt 0.325938 0.373482
vt 0.409697 0.373482
vt 0.409697 0.989266
vt 0.022659 0.989139
vt 0.022659 0.377441
vt 0.067916 0.377441
vt 0.067916 0.989139
vt 0.884713 0.228044
vt 0.884713 0.196156
vt 0.982759 0.196156
vt 0.982759 0.228044
vt 0.883409 0.184526
vt 0.883409 0.152637
vt 0.981455 0.152637
vt 0.981455 0.184526
vn -0.616597 -0.020068 0.787023
vn -0.591781 -0.133936 0.794894
vn 0.322002 0.010147 0.946685
vn 0.301945 -0.107300 0.947268
vn 0.104449 0.673586 -0.731691
vn -0.314201 0.063564 -0.947226
vn -0.167994 0.603998 0.779079
vn 0.596013 -0.022437 -0.802661
vn -0.292429 -0.048826 -0.955040
vn 0.603835 0.094264 -0.791516
vn -0.616017 -0.044321 0.786485
vn -0.589801 -0.158216 0.791898
vn 0.322191 -0.005401 0.946659
vn 0.304550 -0.123164 0.944500
vn 0.092145 0.693222 -0.714809
vn -0.315911 0.079230 -0.945475
vn -0.177900 0.582575 0.793069
vn 0.595935 0.001881 -0.803031
vn -0.291833 -0.032700 -0.955910
vn 0.602355 0.118534 -0.789378
vn -0.665005 0.005616 0.746818
vn -0.645091 -0.106073 0.756708
vn 0.342742 0.009567 0.939381
vn 0.318208 -0.104451 0.942249
vn 0.142716 0.685689 -0.713767
vn -0.331569 0.061939 -0.941395
vn -0.153894 0.643227 0.750051
vn 0.643736 -0.046780 -0.763816
vn -0.315214 -0.048438 -0.947784
vn 0.654790 0.066945 -0.752841
vn -0.600000 -0.003587 0.799992
vn -0.575688 -0.117385 0.809200
vn 0.342001 0.022262 0.939436
vn 0.320587 -0.094956 0.942448
vn 0.095376 0.659193 -0.745901
vn -0.333348 0.051354 -0.941404
vn -0.146023 0.619143 0.771582
vn 0.578850 -0.039007 -0.814501
vn -0.313063 -0.061292 -0.947753
vn 0.587571 0.077743 -0.805429
vn -0.166883 -0.047561 0.984829
vn -0.166883 -0.047561 0.984829
vn -0.166883 -0.047561 0.984829
vn -0.166883 -0.047561 0.984829
vn -0.052973 0.996771 0.060342
vn -0.052973 0.996771 0.060342
vn -0.052973 0.996771 0.060342
vn -0.052973 0.996771 0.060342
vn 0.166883 0.047561 -0.984829
vn 0.166883 0.047561 -0.984829
vn 0.166883 0.047561 -0.984829
vn 0.166883 0.047561 -0.984829
vn 0.052973 -0.996771 -0.060342
vn 0.052973 -0.996771 -0.060342
vn 0.052973 -0.996771 -0.060342
vn 0.052973 -0.996771 -0.060342
vn 0.985186 0.029256 0.168978
vn 0.985186 0.029256 0.168978
vn 0.985186 0.029256 0.168978
vn 0.985186 0.029256 0.168978
vn -0.985186 -0.029256 -0.168978
vn -0.985186 -0.029256 -0.168978
vn -0.985186 -0.029256 -0.168978
vn -0.985186 -0.029256 -0.168978
vn -0.166883 -0.047561 0.984829
vn -0.166883 -0.047561 0.984829
vn -0.166883 -0.047561 0.984829
vn -0.166883 -0.047561 0.984829
vn -0.052973 0.996771 0.060342
vn -0.052973 0.996771 0.060342
vn -0.052973 0.996771 0.060342
vn -0.052973 0.996771 0.060342
vn 0.166883 0.047561 -0.984829
vn 0.166883 0.047561 -0.984829
vn 0.166883 0.047561 -0.984829
vn 0.166883 0.047561 -0.984829
vn 0.052973 -0.996771 -0.060342
vn 0.052973 -0.996771 -0.060342
vn 0.052973 -0.996771 -0.060342
vn 0.052973 -0.996771 -0.060342
vn 0.985186 0.029256 0.168978
vn 0.985186 0.029256 0.168978
vn 0.985186 0.029256 0.168978
vn 0.985186 0.029256 0.168978
vn -0.985186 -0.029256 -0.168978
vn -0.985186 -0.029256 -0.168978
vn -0.985186 -0.029256 -0.168978
vn -0.985186 -0.029256 -0.168978
f 7/27/1 1/3/2 9/28/3
f 9/28/3 1/3/2 2/4/4
f 6/21/5 8/19/6 5/20/7
f 5/20/7 8/19/6 7/33/1
f 2/6/4 1/7/2 4/9/8
f 4/9/8 1/7/2 3/8/9
f 2/11/4 4/12/8 9/31/3
f 9/31/3 4/12/8 10/13/10
f 1/17/2 7/18/1 3/16/9
f 3/16/9 7/18/1 8/34/6
f 10/22/10 4/23/8 8/29/6
f 8/29/6 4/23/8 3/24/9
f 6/14/5 5/15/7 10/32/10
f 10/32/10 5/15/7 9/10/3
f 7/2/1 9/1/3 5/5/7
f 10/30/10 8/25/6 6/26/5
f 17/36/11 11/37/12 19/35/13
f 19/35/13 11/37/12 12/38/14
f 16/40/15 18/41/16 15/39/17
f 15/39/17 18/41/16 17/42/11
f 12/43/14 11/44/12 14/46/18
f 14/46/18 11/44/12 13/45/19
f 12/48/14 14/49/18 19/47/13
f 19/47/13 14/49/18 20/50/20
f 11/52/12 17/53/11 13/51/19
f 13/51/19 17/53/11 18/54/16
f 20/55/20 14/56/18 18/58/16
f 18/58/16 14/56/18 13/57/19
f 16/60/15 15/61/17 20/59/20
f 20/59/20 15/61/17 19/62/13
f 17/63/11 19/64/13 15/65/17
f 20/66/20 18/67/16 16/68/15
f 27/70/21 21/71/22 29/69/23
f 29/69/23 21/71/22 22/72/24
f 26/74/25 28/75/26 25/73/27
f 25/73/27 28/75/26 27/76/21
f 22/77/24 21/78/22 24/80/28
f 24/80/28 21/78/22 23/79/29
f 22/82/24 24/83/28 29/81/23
f 29/81/23 24/83/28 30/84/30
f 21/86/22 27/87/21 23/85/29
f 23/85/29 27/87/21 28/88/26
f 30/89/30 24/90/28 28/92/26
f 28/92/26 24/90/28 23/91/29
f 26/94/25 25/95/27 30/93/30
f 30/93/30 25/95/27 29/96/23
f 27/97/21 29/98/23 25/99/27
f 30/100/30 28/101/26 26/102/25
f 37/104/31 31/105/32 39/103/33
f 39/103/33 31/105/32 32/106/34
f 36/108/35 38/109/36 35/107/37
f 35/107/37 38/109/36 37/110/31
f 32/111/34 31/112/32 34/114/38
f 34/114/38 31/112/32 33/113/39
f 32/116/34 34/117/38 39/115/33
f 39/115/33 34/117/38 40/118/40
f 31/120/32 37/121/31 33/119/39
f 33/119/39 37/121/31 38/122/36
f 40/123/40 34/124/38 38/126/36
f 38/126/36 34/124/38 33/125/39
f 36/128/35 35/129/37 40/127/40
f 40/127/40 35/129/37 39/130/33
f 37/131/31 39/132/33 35/133/37
f 40/134/40 38/135/36 36/136/35
f 41/137/41 42/138/42 43/140/43
f 43/140/43 42/138/42 44/139/44
f 43/141/45 44/142/46 45/144/47
f 45/144/47 44/142/46 46/143/48
f 45/145/49 46/146/50 47/148/51
f 47/148/51 46/146/50 48/147/52
f 47/149/53 48/150/54 41/152/55
f 41/152/55 48/150/54 42/151/56
f 42/153/57 48/154/58 44/156/59
f 44/156/59 48/154/58 46/155/60
f 47/157/61 41/158/62 45/160/63
f 45/160/63 41/158/62 43/159/64
f 49/161/65 50/162/66 51/164/67
f 51/164/67 50/162/66 52/163/68
f 51/165/69 52/166/70 53/168/71
f 53/168/71 52/166/70 54/167/72
f 53/169/73 54/170/74 55/172/75
f 55/172/75 54/170/74 56/171/76
f 55/173/77 56/174/78 49/176/79
f 49/176/79 56/174/78 50/175/80
f 50/177/81 56/178/82 52/180/83
f 52/180/83 56/178/82 54/179/84
f 55/181/85 49/182/86 53/184/87
f 53/184/87 49/182/86 51/183/88
