# This file uses centimeters as units for non-parametric coordinates.

v -17.449452 174.697840 -178.631786
v -16.268348 174.697840 -179.364994
v -17.822838 174.697840 -179.233263
v -16.641734 174.697840 -179.966471
v -16.899841 183.604964 -179.004502
v -17.242099 183.606845 -179.593775
v -17.449452 182.742147 -178.631786
v -17.822838 182.756390 -179.233263
v -16.268348 182.724731 -179.364994
v -16.641734 182.761998 -179.966471
v -15.318033 174.679079 -180.073945
v -14.136835 174.697348 -180.806842
v -15.691324 174.702155 -180.675173
v -14.510126 174.720423 -181.408070
v -14.731112 183.591974 -180.232336
v -15.073270 183.616320 -180.821319
v -15.284381 182.719935 -179.880523
v -15.657613 182.757248 -180.481409
v -14.103256 182.720795 -180.613839
v -14.476391 182.781122 -181.214171
v -12.603979 174.732590 -181.579389
v -11.523160 174.684606 -182.217920
v -12.964371 174.717077 -182.188602
v -11.883552 174.669093 -182.827133
v -11.967295 183.610223 -182.144147
v -12.298466 183.596486 -182.739551
v -12.482556 182.771477 -181.793375
v -12.842733 182.770197 -182.402968
v -11.401999 182.706089 -182.431443
v -11.761829 182.727818 -183.041649
v -10.339573 174.712274 -182.887853
v -9.174362 174.701108 -183.646005
v -10.725677 174.696339 -183.481096
v -9.560466 174.685174 -184.239249
v -9.832325 183.611699 -183.415951
v -10.187056 183.598087 -183.997691
v -10.370547 182.754985 -183.017712
v -10.756706 182.753291 -183.611185
v -9.205269 182.726407 -183.775583
v -9.591516 182.747732 -184.369428
v -18.118955 180.565145 -179.086423
v -8.912848 180.565145 -184.801407
v -18.118955 182.062504 -179.086423
v -8.912848 182.062504 -184.801407
v -18.427573 182.062504 -179.583568
v -9.221466 182.062504 -185.298551
v -18.427573 180.565145 -179.583568
v -9.221466 180.565145 -185.298551
v -18.220562 175.092973 -179.023347
v -9.014456 175.092973 -184.738331
v -18.220562 176.268011 -179.023347
v -9.014456 176.268011 -184.738331
v -18.529180 176.268011 -179.520492
v -9.323074 176.268011 -185.235475
v -18.529180 175.092973 -179.520492
v -9.323074 175.092973 -185.235475
vt 0.780806 0.121878
vt 0.870100 0.121075
vt 0.602661 0.991003
vt 0.602661 0.904550
vt 0.827480 0.081304
vt 0.765231 0.126569
vt 0.765231 0.224231
vt 0.702815 0.224231
vt 0.702815 0.126569
vt 0.535364 0.274985
vt 0.091558 0.009792
vt 0.146297 0.009792
vt 0.146297 0.365468
vt 0.590104 0.313891
vt 0.537435 0.313808
vt 0.025926 0.010552
vt 0.080500 0.010552
vt 0.080500 0.364288
vt 0.538057 0.323620
vt 0.590567 0.360935
vt 0.538057 0.361017
vt 0.602523 0.428417
vt 0.986278 0.428417
vt 0.986278 0.514830
vt 0.869677 0.133872
vt 0.825792 0.173055
vt 0.985644 0.991003
vt 0.984815 0.904550
vt 0.602790 0.514830
vt 0.780423 0.134130
vt 0.091558 0.363825
vt 0.590104 0.276629
vt 0.592631 0.322994
vt 0.025926 0.364914
vt 0.984565 0.809391
vt 0.985394 0.895844
vt 0.602411 0.895844
vt 0.602411 0.809391
vt 0.587993 0.263776
vt 0.535484 0.263859
vt 0.535484 0.226461
vt 0.590058 0.225835
vt 0.762860 0.016513
vt 0.762860 0.114176
vt 0.700444 0.114176
vt 0.700444 0.016513
vt 0.215491 0.364122
vt 0.215491 0.010089
vt 0.270230 0.010089
vt 0.270230 0.365765
vt 0.153597 0.010552
vt 0.208171 0.010552
vt 0.208171 0.364288
vt 0.153597 0.364914
vt 0.601299 0.521252
vt 0.985053 0.521251
vt 0.985053 0.607665
vt 0.601566 0.607665
vt 0.592403 0.178616
vt 0.592403 0.215879
vt 0.539735 0.215795
vt 0.537664 0.176972
vt 0.779958 0.020471
vt 0.869252 0.019669
vt 0.822578 0.060242
vt 0.875480 0.135413
vt 0.875747 0.221828
vt 0.835276 0.179338
vt 0.984074 0.713425
vt 0.984904 0.799877
vt 0.601921 0.799877
vt 0.601921 0.713425
vt 0.589812 0.168948
vt 0.537303 0.169031
vt 0.537303 0.131633
vt 0.591877 0.131007
vt 0.694588 0.125972
vt 0.694588 0.223634
vt 0.632173 0.223634
vt 0.632173 0.125972
vt 0.341945 0.364122
vt 0.341945 0.010089
vt 0.396684 0.010089
vt 0.396684 0.365766
vt 0.279254 0.010816
vt 0.333829 0.010816
vt 0.333829 0.364551
vt 0.279254 0.365177
vt 0.602818 0.332230
vt 0.986573 0.332230
vt 0.986573 0.418643
vt 0.603085 0.418643
vt 0.588543 0.084440
vt 0.588543 0.121703
vt 0.535875 0.121620
vt 0.533804 0.082796
vt 0.779781 0.223944
vt 0.778951 0.137492
vt 0.820858 0.182680
vt 0.781206 0.115549
vt 0.780939 0.029136
vt 0.821410 0.071625
vt 0.984392 0.617480
vt 0.985222 0.703932
vt 0.602239 0.703932
vt 0.602239 0.617480
vt 0.586604 0.072265
vt 0.534094 0.072347
vt 0.534094 0.034950
vt 0.588669 0.034324
vt 0.693824 0.016410
vt 0.693824 0.114072
vt 0.631408 0.114072
vt 0.631408 0.016410
vt 0.469681 0.365273
vt 0.469681 0.011240
vt 0.524420 0.011240
vt 0.524420 0.366917
vt 0.406290 0.012039
vt 0.460865 0.012039
vt 0.460865 0.365774
vt 0.406290 0.366400
vt 0.602832 0.236674
vt 0.986587 0.236674
vt 0.986586 0.323088
vt 0.603099 0.323088
vt 0.977603 0.017476
vt 0.977603 0.054738
vt 0.924935 0.054655
vt 0.922864 0.015832
vt 0.874097 0.225129
vt 0.784803 0.225932
vt 0.831477 0.185359
vt 0.870849 0.024352
vt 0.871116 0.110766
vt 0.830645 0.068277
vt 0.417039 0.989450
vt 0.417039 0.377391
vt 0.500798 0.377391
vt 0.500798 0.989450
vt 0.178993 0.988969
vt 0.178993 0.374277
vt 0.226957 0.374277
vt 0.226957 0.988969
vt 0.509981 0.989259
vt 0.509981 0.377203
vt 0.593740 0.377203
vt 0.593740 0.989260
vt 0.127067 0.989293
vt 0.127067 0.376993
vt 0.171758 0.376993
vt 0.171758 0.989293
vt 0.883070 0.141104
vt 0.883070 0.109216
vt 0.981116 0.109216
vt 0.981116 0.141104
vt 0.883220 0.100277
vt 0.883220 0.068389
vt 0.981266 0.068389
vt 0.981266 0.100277
vt 0.233875 0.989026
vt 0.233875 0.372925
vt 0.317634 0.372926
vt 0.317634 0.989026
vt 0.075098 0.989203
vt 0.075099 0.377503
vt 0.120356 0.377503
vt 0.120356 0.989203
vt 0.325938 0.989266
vt 0.325938 0.373482
vt 0.409697 0.373482
vt 0.409697 0.989266
vt 0.022659 0.989139
vt 0.022659 0.377441
vt 0.067916 0.377441
vt 0.067916 0.989139
vt 0.884713 0.228044
vt 0.884713 0.196156
vt 0.982759 0.196156
vt 0.982759 0.228044
vt 0.883409 0.184526
vt 0.883409 0.152637
vt 0.981455 0.152637
vt 0.981455 0.184526
vn 0.059815 0.035701 0.997571
vn 0.083423 -0.078299 0.993433
vn 0.868761 0.037987 0.493773
vn 0.852903 -0.078351 0.516156
vn -0.402718 0.631008 -0.663059
vn -0.862515 0.035238 -0.504803
vn 0.394367 0.648203 0.651389
vn -0.085673 -0.078098 -0.993258
vn -0.852578 -0.078072 -0.516736
vn -0.072244 0.038554 -0.996642
vn 0.059864 0.011447 0.998141
vn 0.082882 -0.102600 0.991264
vn 0.868725 0.022458 0.494784
vn 0.852860 -0.094355 0.513543
vn -0.400776 0.651557 -0.644091
vn -0.862474 0.050985 -0.503527
vn 0.396213 0.627515 0.670254
vn -0.085933 -0.053786 -0.994848
vn -0.852539 -0.062015 -0.518972
vn -0.071901 0.062837 -0.995430
vn -0.003104 0.061467 0.998104
vn 0.018366 -0.050244 0.998568
vn 0.879435 0.036337 0.474631
vn 0.861800 -0.076326 0.501473
vn -0.362463 0.642066 -0.675553
vn -0.871681 0.034502 -0.488858
vn 0.385625 0.686069 0.616930
vn -0.024122 -0.102605 -0.994430
vn -0.864804 -0.076536 -0.496242
vn -0.008555 0.011094 -0.999902
vn 0.080869 0.052102 0.995362
vn 0.104937 -0.061845 0.992554
vn 0.879044 0.049045 0.474212
vn 0.863811 -0.066949 0.499347
vn -0.418826 0.616636 -0.666592
vn -0.873127 0.024015 -0.486902
vn 0.405932 0.662280 0.629765
vn -0.106435 -0.094553 -0.989814
vn -0.863306 -0.089464 -0.496687
vn -0.093641 0.022121 -0.995360
vn 0.527419 0.000000 0.849605
vn 0.527419 0.000000 0.849605
vn 0.527419 0.000000 0.849605
vn 0.527419 0.000000 0.849605
vn 0.000000 1.000000 0.000000
vn 0.000000 1.000000 0.000000
vn 0.000000 1.000000 0.000000
vn 0.000000 1.000000 0.000000
vn -0.527419 0.000000 -0.849605
vn -0.527419 0.000000 -0.849605
vn -0.527419 0.000000 -0.849605
vn -0.527419 0.000000 -0.849605
vn 0.000000 -1.000000 0.000000
vn 0.000000 -1.000000 0.000000
vn 0.000000 -1.000000 0.000000
vn 0.000000 -1.000000 0.000000
vn 0.849605 0.000000 -0.527419
vn 0.849605 0.000000 -0.527419
vn 0.849605 0.000000 -0.527419
vn 0.849605 0.000000 -0.527419
vn -0.849605 0.000000 0.527419
vn -0.849605 0.000000 0.527419
vn -0.849605 0.000000 0.527419
vn -0.849605 0.000000 0.527419
vn 0.527419 0.000000 0.849605
vn 0.527419 0.000000 0.849605
vn 0.527419 0.000000 0.849605
vn 0.527419 0.000000 0.849605
vn 0.000000 1.000000 0.000000
vn 0.000000 1.000000 0.000000
vn 0.000000 1.000000 0.000000
vn 0.000000 1.000000 0.000000
vn -0.527419 0.000000 -0.849605
vn -0.527419 0.000000 -0.849605
vn -0.527419 0.000000 -0.849605
vn -0.527419 0.000000 -0.849605
vn 0.000000 -1.000000 0.000000
vn 0.000000 -1.000000 0.000000
vn 0.000000 -1.000000 0.000000
vn 0.000000 -1.000000 0.000000
vn 0.849605 0.000000 -0.527419
vn 0.849605 0.000000 -0.527419
vn 0.849605 0.000000 -0.527419
vn 0.849605 0.000000 -0.527419
vn -0.849605 0.000000 0.527419
vn -0.849605 0.000000 0.527419
vn -0.849605 0.000000 0.527419
vn -0.849605 0.000000 0.527419
f 7/27/1 1/3/2 9/28/3
f 9/28/3 1/3/2 2/4/4
f 6/21/5 8/19/6 5/20/7
f 5/20/7 8/19/6 7/33/1
f 2/6/4 1/7/2 4/9/8
f 4/9/8 1/7/2 3/8/9
f 2/11/4 4/12/8 9/31/3
f 9/31/3 4/12/8 10/13/10
f 1/17/2 7/18/1 3/16/9
f 3/16/9 7/18/1 8/34/6
f 10/22/10 4/23/8 8/29/6
f 8/29/6 4/23/8 3/24/9
f 6/14/5 5/15/7 10/32/10
f 10/32/10 5/15/7 9/10/3
f 7/2/1 9/1/3 5/5/7
f 10/30/10 8/25/6 6/26/5
f 17/36/11 11/37/12 19/35/13
f 19/35/13 11/37/12 12/38/14
f 16/40/15 18/41/16 15/39/17
f 15/39/17 18/41/16 17/42/11
f 12/43/14 11/44/12 14/46/18
f 14/46/18 11/44/12 13/45/19
f 12/48/14 14/49/18 19/47/13
f 19/47/13 14/49/18 20/50/20
f 11/52/12 17/53/11 13/51/19
f 13/51/19 17/53/11 18/54/16
f 20/55/20 14/56/18 18/58/16
f 18/58/16 14/56/18 13/57/19
f 16/60/15 15/61/17 20/59/20
f 20/59/20 15/61/17 19/62/13
f 17/63/11 19/64/13 15/65/17
f 20/66/20 18/67/16 16/68/15
f 27/70/21 21/71/22 29/69/23
f 29/69/23 21/71/22 22/72/24
f 26/74/25 28/75/26 25/73/27
f 25/73/27 28/75/26 27/76/21
f 22/77/24 21/78/22 24/80/28
f 24/80/28 21/78/22 23/79/29
f 22/82/24 24/83/28 29/81/23
f 29/81/23 24/83/28 30/84/30
f 21/86/22 27/87/21 23/85/29
f 23/85/29 27/87/21 28/88/26
f 30/89/30 24/90/28 28/92/26
f 28/92/26 24/90/28 23/91/29
f 26/94/25 25/95/27 30/93/30
f 30/93/30 25/95/27 29/96/23
f 27/97/21 29/98/23 25/99/27
f 30/100/30 28/101/26 26/102/25
f 37/104/31 31/105/32 39/103/33
f 39/103/33 31/105/32 32/106/34
f 36/108/35 38/109/36 35/107/37
f 35/107/37 38/109/36 37/110/31
f 32/111/34 31/112/32 34/114/38
f 34/114/38 31/112/32 33/113/39
f 32/116/34 34/117/38 39/115/33
f 39/115/33 34/117/38 40/118/40
f 31/120/32 37/121/31 33/119/39
f 33/119/39 37/121/31 38/122/36
f 40/123/40 34/124/38 38/126/36
f 38/126/36 34/124/38 33/125/39
f 36/128/35 35/129/37 40/127/40
f 40/127/40 35/129/37 39/130/33
f 37/131/31 39/132/33 35/133/37
f 40/134/40 38/135/36 36/136/35
f 41/137/41 42/138/42 43/140/43
f 43/140/43 42/138/42 44/139/44
f 43/141/45 44/142/46 45/144/47
f 45/144/47 44/142/46 46/143/48
f 45/145/49 46/146/50 47/148/51
f 47/148/51 46/146/50 48/147/52
f 47/149/53 48/150/54 41/152/55
f 41/152/55 48/150/54 42/151/56
f 42/153/57 48/154/58 44/156/59
f 44/156/59 48/154/58 46/155/60
f 47/157/61 41/158/62 45/160/63
f 45/160/63 41/158/62 43/159/64
f 49/161/65 50/162/66 51/164/67
f 51/164/67 50/162/66 52/163/68
f 51/165/69 52/166/70 53/168/71
f 53/168/71 52/166/70 54/167/72
f 53/169/73 54/170/74 55/172/75
f 55/172/75 54/170/74 56/171/76
f 55/173/77 56/174/78 49/176/79
f 49/176/79 56/174/78 50/175/80
f 50/177/81 56/178/82 52/180/83
f 52/180/83 56/178/82 54/179/84
f 55/181/85 49/182/86 53/184/87
f 53/184/87 49/182/86 51/183/88
