# This file uses centimeters as units for non-parametric coordinates.

v 196.716467 183.050664 -63.876242
v 197.644189 183.039478 -62.840943
v 197.243695 183.062819 -64.348596
v 198.171418 183.051634 -63.313297
v 197.133328 191.951796 -63.292027
v 197.653952 191.965212 -63.731585
v 196.675024 191.093966 -63.778758
v 197.202180 191.120363 -64.250939
v 197.602837 191.065367 -62.743669
v 198.129873 191.114785 -63.215572
v 198.507922 183.012951 -62.028889
v 199.435260 183.020026 -60.993221
v 199.034803 183.048175 -62.500827
v 199.962142 183.055250 -61.465159
v 198.720207 191.917044 -61.370556
v 199.240448 191.952917 -61.809692
v 198.281898 191.050267 -61.864639
v 198.808379 191.099722 -62.336286
v 199.209726 191.039942 -60.829327
v 199.735560 191.112401 -61.300504
v 200.462810 183.038896 -59.618001
v 201.280083 182.980346 -58.665543
v 201.000000 183.035414 -60.079096
v 201.817274 182.976864 -59.126639
v 201.084093 191.911144 -58.981841
v 201.612766 191.908831 -59.411739
v 200.653258 191.077062 -59.438278
v 201.190785 191.087813 -59.899055
v 201.470119 191.001111 -58.486210
v 202.008192 191.034867 -58.946472
v 202.145789 182.996131 -57.616449
v 203.095364 182.974291 -56.601276
v 202.662778 182.992471 -58.100086
v 203.612352 182.970632 -57.084912
v 202.708314 191.891846 -57.101089
v 203.219429 191.889891 -57.551804
v 202.226831 191.039673 -57.572088
v 202.743963 191.050255 -58.055646
v 203.176230 191.000420 -56.557011
v 203.693594 191.034023 -57.040442
v 197.017296 188.932579 -64.543494
v 204.248423 188.845392 -56.473862
v 197.009582 190.429750 -64.525349
v 204.240709 190.342564 -56.455716
v 197.445357 190.439797 -64.915768
v 204.676484 190.352611 -56.846135
v 197.453071 188.942626 -64.933914
v 204.684198 188.855439 -56.864281
v 196.965678 183.462052 -64.698873
v 204.196805 183.374865 -56.629241
v 196.959624 184.636943 -64.684633
v 204.190751 184.549756 -56.615001
v 197.395400 184.646990 -65.075052
v 204.626527 184.559803 -57.005420
v 197.401453 183.472099 -65.089292
v 204.632580 183.384912 -57.019660
vt 0.780806 0.121878
vt 0.870100 0.121075
vt 0.602661 0.991003
vt 0.602661 0.904550
vt 0.827480 0.081304
vt 0.765231 0.126569
vt 0.765231 0.224231
vt 0.702815 0.224231
vt 0.702815 0.126569
vt 0.535364 0.274985
vt 0.091558 0.009792
vt 0.146297 0.009792
vt 0.146297 0.365468
vt 0.590104 0.313891
vt 0.537435 0.313808
vt 0.025926 0.010552
vt 0.080500 0.010552
vt 0.080500 0.364288
vt 0.538057 0.323620
vt 0.590567 0.360935
vt 0.538057 0.361017
vt 0.602523 0.428417
vt 0.986278 0.428417
vt 0.986278 0.514830
vt 0.869677 0.133872
vt 0.825792 0.173055
vt 0.985644 0.991003
vt 0.984815 0.904550
vt 0.602790 0.514830
vt 0.780423 0.134130
vt 0.091558 0.363825
vt 0.590104 0.276629
vt 0.592631 0.322994
vt 0.025926 0.364914
vt 0.984565 0.809391
vt 0.985394 0.895844
vt 0.602411 0.895844
vt 0.602411 0.809391
vt 0.587993 0.263776
vt 0.535484 0.263859
vt 0.535484 0.226461
vt 0.590058 0.225835
vt 0.762860 0.016513
vt 0.762860 0.114176
vt 0.700444 0.114176
vt 0.700444 0.016513
vt 0.215491 0.364122
vt 0.215491 0.010089
vt 0.270230 0.010089
vt 0.270230 0.365765
vt 0.153597 0.010552
vt 0.208171 0.010552
vt 0.208171 0.364288
vt 0.153597 0.364914
vt 0.601299 0.521252
vt 0.985053 0.521251
vt 0.985053 0.607665
vt 0.601566 0.607665
vt 0.592403 0.178616
vt 0.592403 0.215879
vt 0.539735 0.215795
vt 0.537664 0.176972
vt 0.779958 0.020471
vt 0.869252 0.019669
vt 0.822578 0.060242
vt 0.875480 0.135413
vt 0.875747 0.221828
vt 0.835276 0.179338
vt 0.984074 0.713425
vt 0.984904 0.799877
vt 0.601921 0.799877
vt 0.601921 0.713425
vt 0.589812 0.168948
vt 0.537303 0.169031
vt 0.537303 0.131633
vt 0.591877 0.131007
vt 0.694588 0.125972
vt 0.694588 0.223634
vt 0.632173 0.223634
vt 0.632173 0.125972
vt 0.341945 0.364122
vt 0.341945 0.010089
vt 0.396684 0.010089
vt 0.396684 0.365766
vt 0.279254 0.010816
vt 0.333829 0.010816
vt 0.333829 0.364551
vt 0.279254 0.365177
vt 0.602818 0.332230
vt 0.986573 0.332230
vt 0.986573 0.418643
vt 0.603085 0.418643
vt 0.588543 0.084440
vt 0.588543 0.121703
vt 0.535875 0.121620
vt 0.533804 0.082796
vt 0.779781 0.223944
vt 0.778951 0.137492
vt 0.820858 0.182680
vt 0.781206 0.115549
vt 0.780939 0.029136
vt 0.821410 0.071625
vt 0.984392 0.617480
vt 0.985222 0.703932
vt 0.602239 0.703932
vt 0.602239 0.617480
vt 0.586604 0.072265
vt 0.534094 0.072347
vt 0.534094 0.034950
vt 0.588669 0.034324
vt 0.693824 0.016410
vt 0.693824 0.114072
vt 0.631408 0.114072
vt 0.631408 0.016410
vt 0.469681 0.365273
vt 0.469681 0.011240
vt 0.524420 0.011240
vt 0.524420 0.366917
vt 0.406290 0.012039
vt 0.460865 0.012039
vt 0.460865 0.365774
vt 0.406290 0.366400
vt 0.602832 0.236674
vt 0.986587 0.236674
vt 0.986586 0.323088
vt 0.603099 0.323088
vt 0.977603 0.017476
vt 0.977603 0.054738
vt 0.924935 0.054655
vt 0.922864 0.015832
vt 0.874097 0.225129
vt 0.784803 0.225932
vt 0.831477 0.185359
vt 0.870849 0.024352
vt 0.871116 0.110766
vt 0.830645 0.068277
vt 0.417039 0.989450
vt 0.417039 0.377391
vt 0.500798 0.377391
vt 0.500798 0.989450
vt 0.178993 0.988969
vt 0.178993 0.374277
vt 0.226957 0.374277
vt 0.226957 0.988969
vt 0.509981 0.989259
vt 0.509981 0.377203
vt 0.593740 0.377203
vt 0.593740 0.989260
vt 0.127067 0.989293
vt 0.127067 0.376993
vt 0.171758 0.376993
vt 0.171758 0.989293
vt 0.883070 0.141104
vt 0.883070 0.109216
vt 0.981116 0.109216
vt 0.981116 0.141104
vt 0.883220 0.100277
vt 0.883220 0.068389
vt 0.981266 0.068389
vt 0.981266 0.100277
vt 0.233875 0.989026
vt 0.233875 0.372925
vt 0.317634 0.372926
vt 0.317634 0.989026
vt 0.075098 0.989203
vt 0.075099 0.377503
vt 0.120356 0.377503
vt 0.120356 0.989203
vt 0.325938 0.989266
vt 0.325938 0.373482
vt 0.409697 0.373482
vt 0.409697 0.989266
vt 0.022659 0.989139
vt 0.022659 0.377441
vt 0.067916 0.377441
vt 0.067916 0.989139
vt 0.884713 0.228044
vt 0.884713 0.196156
vt 0.982759 0.196156
vt 0.982759 0.228044
vt 0.883409 0.184526
vt 0.883409 0.152637
vt 0.981455 0.152637
vt 0.981455 0.184526
vn -0.972040 0.027868 0.233157
vn -0.963395 -0.086371 0.253793
vn -0.335104 0.024843 0.941854
vn -0.359281 -0.091507 0.928732
vn 0.579559 0.641777 -0.502228
vn 0.346655 0.048390 -0.936744
vn -0.576046 0.637448 0.511694
vn 0.963455 -0.069989 -0.258564
vn 0.360745 -0.064914 -0.930403
vn 0.968659 0.046512 -0.244000
vn -0.972493 0.003615 0.232902
vn -0.961253 -0.110664 0.252479
vn -0.336021 0.009313 0.941808
vn -0.356629 -0.107507 0.928040
vn 0.561040 0.662242 -0.496659
vn 0.345320 0.064135 -0.936291
vn -0.594125 0.616685 0.516444
vn 0.964878 -0.045676 -0.258695
vn 0.362867 -0.048855 -0.930560
vn 0.967428 0.070790 -0.243048
vn -0.983643 0.054314 0.171743
vn -0.979882 -0.057624 0.191079
vn -0.314391 0.023214 0.949010
vn -0.343276 -0.089472 0.934963
vn 0.598807 0.652469 -0.464451
vn 0.329357 0.047640 -0.943003
vn -0.543974 0.675520 0.497760
vn 0.975452 -0.095152 -0.198596
vn 0.338435 -0.063392 -0.938852
vn 0.983070 0.018371 -0.182309
vn -0.966261 0.044046 0.253772
vn -0.958853 -0.070142 0.275102
vn -0.314118 0.035922 0.948704
vn -0.340883 -0.080095 0.936688
vn 0.580340 0.627572 -0.518997
vn 0.327237 0.037152 -0.944212
vn -0.552876 0.651483 0.519517
vn 0.956508 -0.086228 -0.278671
vn 0.339205 -0.076321 -0.937611
vn 0.963739 0.030305 -0.265121
vn -0.744751 -0.011924 0.667236
vn -0.744751 -0.011924 0.667236
vn -0.744751 -0.011924 0.667236
vn -0.744751 -0.011924 0.667236
vn -0.007418 0.999820 0.017450
vn -0.007418 0.999820 0.017450
vn -0.007418 0.999820 0.017450
vn -0.007418 0.999820 0.017450
vn 0.744751 0.011924 -0.667236
vn 0.744751 0.011924 -0.667236
vn 0.744751 0.011924 -0.667236
vn 0.744751 0.011924 -0.667236
vn 0.007418 -0.999820 -0.017450
vn 0.007418 -0.999820 -0.017450
vn 0.007418 -0.999820 -0.017450
vn 0.007418 -0.999820 -0.017450
vn 0.667345 -0.005588 0.744728
vn 0.667344 -0.005588 0.744728
vn 0.667345 -0.005588 0.744728
vn 0.667345 -0.005588 0.744728
vn -0.667345 0.005588 -0.744728
vn -0.667345 0.005588 -0.744728
vn -0.667344 0.005588 -0.744728
vn -0.667345 0.005588 -0.744728
vn -0.744751 -0.011924 0.667236
vn -0.744751 -0.011924 0.667236
vn -0.744751 -0.011924 0.667236
vn -0.744751 -0.011924 0.667236
vn -0.007418 0.999820 0.017450
vn -0.007418 0.999820 0.017450
vn -0.007418 0.999820 0.017450
vn -0.007418 0.999820 0.017450
vn 0.744751 0.011924 -0.667236
vn 0.744751 0.011924 -0.667236
vn 0.744751 0.011924 -0.667236
vn 0.744751 0.011924 -0.667236
vn 0.007418 -0.999820 -0.017450
vn 0.007418 -0.999820 -0.017450
vn 0.007418 -0.999820 -0.017450
vn 0.007418 -0.999820 -0.017450
vn 0.667345 -0.005588 0.744728
vn 0.667344 -0.005588 0.744728
vn 0.667345 -0.005588 0.744728
vn 0.667345 -0.005588 0.744728
vn -0.667345 0.005588 -0.744728
vn -0.667345 0.005588 -0.744728
vn -0.667344 0.005588 -0.744728
vn -0.667345 0.005588 -0.744728
f 7/27/1 1/3/2 9/28/3
f 9/28/3 1/3/2 2/4/4
f 6/21/5 8/19/6 5/20/7
f 5/20/7 8/19/6 7/33/1
f 2/6/4 1/7/2 4/9/8
f 4/9/8 1/7/2 3/8/9
f 2/11/4 4/12/8 9/31/3
f 9/31/3 4/12/8 10/13/10
f 1/17/2 7/18/1 3/16/9
f 3/16/9 7/18/1 8/34/6
f 10/22/10 4/23/8 8/29/6
f 8/29/6 4/23/8 3/24/9
f 6/14/5 5/15/7 10/32/10
f 10/32/10 5/15/7 9/10/3
f 7/2/1 9/1/3 5/5/7
f 10/30/10 8/25/6 6/26/5
f 17/36/11 11/37/12 19/35/13
f 19/35/13 11/37/12 12/38/14
f 16/40/15 18/41/16 15/39/17
f 15/39/17 18/41/16 17/42/11
f 12/43/14 11/44/12 14/46/18
f 14/46/18 11/44/12 13/45/19
f 12/48/14 14/49/18 19/47/13
f 19/47/13 14/49/18 20/50/20
f 11/52/12 17/53/11 13/51/19
f 13/51/19 17/53/11 18/54/16
f 20/55/20 14/56/18 18/58/16
f 18/58/16 14/56/18 13/57/19
f 16/60/15 15/61/17 20/59/20
f 20/59/20 15/61/17 19/62/13
f 17/63/11 19/64/13 15/65/17
f 20/66/20 18/67/16 16/68/15
f 27/70/21 21/71/22 29/69/23
f 29/69/23 21/71/22 22/72/24
f 26/74/25 28/75/26 25/73/27
f 25/73/27 28/75/26 27/76/21
f 22/77/24 21/78/22 24/80/28
f 24/80/28 21/78/22 23/79/29
f 22/82/24 24/83/28 29/81/23
f 29/81/23 24/83/28 30/84/30
f 21/86/22 27/87/21 23/85/29
f 23/85/29 27/87/21 28/88/26
f 30/89/30 24/90/28 28/92/26
f 28/92/26 24/90/28 23/91/29
f 26/94/25 25/95/27 30/93/30
f 30/93/30 25/95/27 29/96/23
f 27/97/21 29/98/23 25/99/27
f 30/100/30 28/101/26 26/102/25
f 37/104/31 31/105/32 39/103/33
f 39/103/33 31/105/32 32/106/34
f 36/108/35 38/109/36 35/107/37
f 35/107/37 38/109/36 37/110/31
f 32/111/34 31/112/32 34/114/38
f 34/114/38 31/112/32 33/113/39
f 32/116/34 34/117/38 39/115/33
f 39/115/33 34/117/38 40/118/40
f 31/120/32 37/121/31 33/119/39
f 33/119/39 37/121/31 38/122/36
f 40/123/40 34/124/38 38/126/36
f 38/126/36 34/124/38 33/125/39
f 36/128/35 35/129/37 40/127/40
f 40/127/40 35/129/37 39/130/33
f 37/131/31 39/132/33 35/133/37
f 40/134/40 38/135/36 36/136/35
f 41/137/41 42/138/42 43/140/43
f 43/140/43 42/138/42 44/139/44
f 43/141/45 44/142/46 45/144/47
f 45/144/47 44/142/46 46/143/48
f 45/145/49 46/146/50 47/148/51
f 47/148/51 46/146/50 48/147/52
f 47/149/53 48/150/54 41/152/55
f 41/152/55 48/150/54 42/151/56
f 42/153/57 48/154/58 44/156/59
f 44/156/59 48/154/58 46/155/60
f 47/157/61 41/158/62 45/160/63
f 45/160/63 41/158/62 43/159/64
f 49/161/65 50/162/66 51/164/67
f 51/164/67 50/162/66 52/163/68
f 51/165/69 52/166/70 53/168/71
f 53/168/71 52/166/70 54/167/72
f 53/169/73 54/170/74 55/172/75
f 55/172/75 54/170/74 56/171/76
f 55/173/77 56/174/78 49/176/79
f 49/176/79 56/174/78 50/175/80
f 50/177/81 56/178/82 52/180/83
f 52/180/83 56/178/82 54/179/84
f 55/181/85 49/182/86 53/184/87
f 53/184/87 49/182/86 51/183/88
