# This file uses centimeters as units for non-parametric coordinates.

v -167.806708 162.522624 -120.980872
v -166.480399 163.020439 -121.018392
v -167.827834 162.526878 -121.688496
v -166.501525 163.024693 -121.726016
v -169.387437 171.261565 -120.923991
v -169.389142 171.274618 -121.605360
v -169.805315 170.200304 -120.889147
v -169.829981 170.218152 -121.596609
v -168.474679 170.681497 -120.926866
v -168.505065 170.721320 -121.634065
v -165.351723 163.426160 -121.151556
v -164.030023 163.941379 -121.188552
v -165.378623 163.452418 -121.858655
v -164.056923 163.967637 -121.895650
v -167.005468 172.140269 -120.890736
v -167.012809 172.174737 -121.571549
v -167.414089 171.073160 -120.875892
v -167.444642 171.112958 -121.582502
v -166.087925 171.571823 -120.913484
v -166.124380 171.633508 -121.619306
v -162.403017 164.586362 -121.082266
v -161.192892 164.989823 -121.089153
v -162.405856 164.581223 -121.790196
v -161.195731 164.984684 -121.797083
v -163.812706 173.360622 -121.147635
v -163.798439 173.363297 -121.828886
v -164.197695 172.336934 -121.114143
v -164.203711 172.345518 -121.822130
v -162.983685 172.723615 -121.120961
v -162.994838 172.754382 -121.829039
v -159.901641 165.502519 -121.070471
v -158.573771 165.989731 -121.137670
v -159.933252 165.486139 -121.777581
v -158.605382 165.973351 -121.844781
v -161.441215 174.251497 -121.169204
v -161.452977 174.244549 -121.850536
v -161.863395 173.194540 -121.106510
v -161.898480 173.191780 -121.813684
v -160.531278 173.665099 -121.173631
v -160.571977 173.684354 -121.880909
v -169.600416 168.009141 -121.644123
v -159.262510 171.889358 -121.936571
v -169.972434 169.438256 -121.627049
v -159.634528 173.318473 -121.919498
v -169.989896 169.441772 -122.211929
v -159.651990 173.321989 -122.504377
v -169.617878 168.012657 -122.229002
v -159.279972 171.892874 -122.521451
v -168.354953 162.743542 -121.703291
v -158.017047 166.623759 -121.995739
v -168.646891 163.865026 -121.689893
v -158.308986 167.745244 -121.982341
v -168.664354 163.868542 -122.274772
v -158.326448 167.748760 -122.567220
v -168.372416 162.747058 -122.288170
v -158.034510 166.627275 -122.580619
vt 0.780806 0.121878
vt 0.870100 0.121075
vt 0.602661 0.991003
vt 0.602661 0.904550
vt 0.827480 0.081304
vt 0.765231 0.126569
vt 0.765231 0.224231
vt 0.702815 0.224231
vt 0.702815 0.126569
vt 0.535364 0.274985
vt 0.091558 0.009792
vt 0.146297 0.009792
vt 0.146297 0.365468
vt 0.590104 0.313891
vt 0.537435 0.313808
vt 0.025926 0.010552
vt 0.080500 0.010552
vt 0.080500 0.364288
vt 0.538057 0.323620
vt 0.590567 0.360935
vt 0.538057 0.361017
vt 0.602523 0.428417
vt 0.986278 0.428417
vt 0.986278 0.514830
vt 0.869677 0.133872
vt 0.825792 0.173055
vt 0.985644 0.991003
vt 0.984815 0.904550
vt 0.602790 0.514830
vt 0.780423 0.134130
vt 0.091558 0.363825
vt 0.590104 0.276629
vt 0.592631 0.322994
vt 0.025926 0.364914
vt 0.984565 0.809391
vt 0.985394 0.895844
vt 0.602411 0.895844
vt 0.602411 0.809391
vt 0.587993 0.263776
vt 0.535484 0.263859
vt 0.535484 0.226461
vt 0.590058 0.225835
vt 0.762860 0.016513
vt 0.762860 0.114176
vt 0.700444 0.114176
vt 0.700444 0.016513
vt 0.215491 0.364122
vt 0.215491 0.010089
vt 0.270230 0.010089
vt 0.270230 0.365765
vt 0.153597 0.010552
vt 0.208171 0.010552
vt 0.208171 0.364288
vt 0.153597 0.364914
vt 0.601299 0.521252
vt 0.985053 0.521251
vt 0.985053 0.607665
vt 0.601566 0.607665
vt 0.592403 0.178616
vt 0.592403 0.215879
vt 0.539735 0.215795
vt 0.537664 0.176972
vt 0.779958 0.020471
vt 0.869252 0.019669
vt 0.822578 0.060242
vt 0.875480 0.135413
vt 0.875747 0.221828
vt 0.835276 0.179338
vt 0.984074 0.713425
vt 0.984904 0.799877
vt 0.601921 0.799877
vt 0.601921 0.713425
vt 0.589812 0.168948
vt 0.537303 0.169031
vt 0.537303 0.131633
vt 0.591877 0.131007
vt 0.694588 0.125972
vt 0.694588 0.223634
vt 0.632173 0.223634
vt 0.632173 0.125972
vt 0.341945 0.364122
vt 0.341945 0.010089
vt 0.396684 0.010089
vt 0.396684 0.365766
vt 0.279254 0.010816
vt 0.333829 0.010816
vt 0.333829 0.364551
vt 0.279254 0.365177
vt 0.602818 0.332230
vt 0.986573 0.332230
vt 0.986573 0.418643
vt 0.603085 0.418643
vt 0.588543 0.084440
vt 0.588543 0.121703
vt 0.535875 0.121620
vt 0.533804 0.082796
vt 0.779781 0.223944
vt 0.778951 0.137492
vt 0.820858 0.182680
vt 0.781206 0.115549
vt 0.780939 0.029136
vt 0.821410 0.071625
vt 0.984392 0.617480
vt 0.985222 0.703932
vt 0.602239 0.703932
vt 0.602239 0.617480
vt 0.586604 0.072265
vt 0.534094 0.072347
vt 0.534094 0.034950
vt 0.588669 0.034324
vt 0.693824 0.016410
vt 0.693824 0.114072
vt 0.631408 0.114072
vt 0.631408 0.016410
vt 0.469681 0.365273
vt 0.469681 0.011240
vt 0.524420 0.011240
vt 0.524420 0.366917
vt 0.406290 0.012039
vt 0.460865 0.012039
vt 0.460865 0.365774
vt 0.406290 0.366400
vt 0.602832 0.236674
vt 0.986587 0.236674
vt 0.986586 0.323088
vt 0.603099 0.323088
vt 0.977603 0.017476
vt 0.977603 0.054738
vt 0.924935 0.054655
vt 0.922864 0.015832
vt 0.874097 0.225129
vt 0.784803 0.225932
vt 0.831477 0.185359
vt 0.870849 0.024352
vt 0.871116 0.110766
vt 0.830645 0.068277
vt 0.417039 0.989450
vt 0.417039 0.377391
vt 0.500798 0.377391
vt 0.500798 0.989450
vt 0.178993 0.988969
vt 0.178993 0.374277
vt 0.226957 0.374277
vt 0.226957 0.988969
vt 0.509981 0.989259
vt 0.509981 0.377203
vt 0.593740 0.377203
vt 0.593740 0.989260
vt 0.127067 0.989293
vt 0.127067 0.376993
vt 0.171758 0.376993
vt 0.171758 0.989293
vt 0.883070 0.141104
vt 0.883070 0.109216
vt 0.981116 0.109216
vt 0.981116 0.141104
vt 0.883220 0.100277
vt 0.883220 0.068389
vt 0.981266 0.068389
vt 0.981266 0.100277
vt 0.233875 0.989026
vt 0.233875 0.372925
vt 0.317634 0.372926
vt 0.317634 0.989026
vt 0.075098 0.989203
vt 0.075099 0.377503
vt 0.120356 0.377503
vt 0.120356 0.989203
vt 0.325938 0.989266
vt 0.325938 0.373482
vt 0.409697 0.373482
vt 0.409697 0.989266
vt 0.022659 0.989139
vt 0.022659 0.377441
vt 0.067916 0.377441
vt 0.067916 0.989139
vt 0.884713 0.228044
vt 0.884713 0.196156
vt 0.982759 0.196156
vt 0.982759 0.228044
vt 0.883409 0.184526
vt 0.883409 0.152637
vt 0.981455 0.152637
vt 0.981455 0.184526
vn -0.440644 -0.087920 0.893366
vn -0.380300 -0.192397 0.904630
vn 0.470562 0.152101 0.869158
vn 0.485625 0.033976 0.873506
vn -0.240151 0.603492 -0.760346
vn -0.484628 -0.078787 -0.871165
vn -0.215222 0.607524 0.764587
vn 0.431344 0.041304 -0.901242
vn -0.432267 -0.184278 -0.882716
vn 0.404777 0.156731 -0.900883
vn -0.432736 -0.111309 0.894623
vn -0.371363 -0.215804 0.903061
vn 0.475274 0.136962 0.869112
vn 0.492172 0.019047 0.870290
vn -0.254599 0.620192 -0.741985
vn -0.490469 -0.063856 -0.869116
vn -0.215308 0.585833 0.781307
vn 0.423727 0.064726 -0.903474
vn -0.436625 -0.168427 -0.883737
vn 0.396214 0.180144 -0.900313
vn -0.501711 -0.076465 0.861649
vn -0.446895 -0.179789 0.876333
vn 0.489328 0.155390 0.858144
vn 0.499334 0.039748 0.865497
vn -0.205610 0.625569 -0.752588
vn -0.499665 -0.083574 -0.862178
vn -0.219428 0.645937 0.731175
vn 0.490916 0.030915 -0.870658
vn -0.453004 -0.188223 -0.871412
vn 0.468864 0.144139 -0.871430
vn -0.427607 -0.067469 0.901443
vn -0.367493 -0.171746 0.914031
vn 0.484938 0.167658 0.858327
vn 0.498900 0.049419 0.865250
vn -0.246484 0.586737 -0.771353
vn -0.498314 -0.094214 -0.861862
vn -0.200724 0.626779 0.752900
vn 0.418064 0.020794 -0.908179
vn -0.447135 -0.200376 -0.871734
vn 0.391872 0.136149 -0.909890
vn 0.029842 -0.004173 0.999546
vn 0.029842 -0.004173 0.999546
vn 0.029842 -0.004173 0.999546
vn 0.029842 -0.004173 0.999546
vn -0.350957 0.936253 0.016107
vn -0.350957 0.936253 0.016107
vn -0.350957 0.936253 0.016107
vn -0.350957 0.936253 0.016107
vn -0.029842 0.004173 -0.999546
vn -0.029842 0.004173 -0.999546
vn -0.029842 0.004173 -0.999546
vn -0.029842 0.004173 -0.999546
vn 0.350957 -0.936253 -0.016107
vn 0.350957 -0.936253 -0.016107
vn 0.350957 -0.936253 -0.016107
vn 0.350957 -0.936253 -0.016107
vn 0.967306 0.252130 -0.027364
vn 0.967306 0.252130 -0.027364
vn 0.967306 0.252130 -0.027364
vn 0.967306 0.252130 -0.027364
vn -0.967306 -0.252130 0.027364
vn -0.967306 -0.252130 0.027364
vn -0.967306 -0.252130 0.027364
vn -0.967306 -0.252130 0.027364
vn 0.029842 -0.004173 0.999546
vn 0.029842 -0.004173 0.999546
vn 0.029842 -0.004173 0.999546
vn 0.029842 -0.004173 0.999546
vn -0.350957 0.936253 0.016107
vn -0.350957 0.936253 0.016107
vn -0.350957 0.936253 0.016107
vn -0.350957 0.936253 0.016107
vn -0.029842 0.004173 -0.999546
vn -0.029842 0.004173 -0.999546
vn -0.029842 0.004173 -0.999546
vn -0.029842 0.004173 -0.999546
vn 0.350957 -0.936253 -0.016107
vn 0.350957 -0.936253 -0.016107
vn 0.350957 -0.936253 -0.016107
vn 0.350957 -0.936253 -0.016107
vn 0.967306 0.252130 -0.027364
vn 0.967306 0.252130 -0.027364
vn 0.967306 0.252130 -0.027364
vn 0.967306 0.252130 -0.027364
vn -0.967306 -0.252130 0.027364
vn -0.967306 -0.252130 0.027364
vn -0.967306 -0.252130 0.027364
vn -0.967306 -0.252130 0.027364
f 7/27/1 1/3/2 9/28/3
f 9/28/3 1/3/2 2/4/4
f 6/21/5 8/19/6 5/20/7
f 5/20/7 8/19/6 7/33/1
f 2/6/4 1/7/2 4/9/8
f 4/9/8 1/7/2 3/8/9
f 2/11/4 4/12/8 9/31/3
f 9/31/3 4/12/8 10/13/10
f 1/17/2 7/18/1 3/16/9
f 3/16/9 7/18/1 8/34/6
f 10/22/10 4/23/8 8/29/6
f 8/29/6 4/23/8 3/24/9
f 6/14/5 5/15/7 10/32/10
f 10/32/10 5/15/7 9/10/3
f 7/2/1 9/1/3 5/5/7
f 10/30/10 8/25/6 6/26/5
f 17/36/11 11/37/12 19/35/13
f 19/35/13 11/37/12 12/38/14
f 16/40/15 18/41/16 15/39/17
f 15/39/17 18/41/16 17/42/11
f 12/43/14 11/44/12 14/46/18
f 14/46/18 11/44/12 13/45/19
f 12/48/14 14/49/18 19/47/13
f 19/47/13 14/49/18 20/50/20
f 11/52/12 17/53/11 13/51/19
f 13/51/19 17/53/11 18/54/16
f 20/55/20 14/56/18 18/58/16
f 18/58/16 14/56/18 13/57/19
f 16/60/15 15/61/17 20/59/20
f 20/59/20 15/61/17 19/62/13
f 17/63/11 19/64/13 15/65/17
f 20/66/20 18/67/16 16/68/15
f 27/70/21 21/71/22 29/69/23
f 29/69/23 21/71/22 22/72/24
f 26/74/25 28/75/26 25/73/27
f 25/73/27 28/75/26 27/76/21
f 22/77/24 21/78/22 24/80/28
f 24/80/28 21/78/22 23/79/29
f 22/82/24 24/83/28 29/81/23
f 29/81/23 24/83/28 30/84/30
f 21/86/22 27/87/21 23/85/29
f 23/85/29 27/87/21 28/88/26
f 30/89/30 24/90/28 28/92/26
f 28/92/26 24/90/28 23/91/29
f 26/94/25 25/95/27 30/93/30
f 30/93/30 25/95/27 29/96/23
f 27/97/21 29/98/23 25/99/27
f 30/100/30 28/101/26 26/102/25
f 37/104/31 31/105/32 39/103/33
f 39/103/33 31/105/32 32/106/34
f 36/108/35 38/109/36 35/107/37
f 35/107/37 38/109/36 37/110/31
f 32/111/34 31/112/32 34/114/38
f 34/114/38 31/112/32 33/113/39
f 32/116/34 34/117/38 39/115/33
f 39/115/33 34/117/38 40/118/40
f 31/120/32 37/121/31 33/119/39
f 33/119/39 37/121/31 38/122/36
f 40/123/40 34/124/38 38/126/36
f 38/126/36 34/124/38 33/125/39
f 36/128/35 35/129/37 40/127/40
f 40/127/40 35/129/37 39/130/33
f 37/131/31 39/132/33 35/133/37
f 40/134/40 38/135/36 36/136/35
f 41/137/41 42/138/42 43/140/43
f 43/140/43 42/138/42 44/139/44
f 43/141/45 44/142/46 45/144/47
f 45/144/47 44/142/46 46/143/48
f 45/145/49 46/146/50 47/148/51
f 47/148/51 46/146/50 48/147/52
f 47/149/53 48/150/54 41/152/55
f 41/152/55 48/150/54 42/151/56
f 42/153/57 48/154/58 44/156/59
f 44/156/59 48/154/58 46/155/60
f 47/157/61 41/158/62 45/160/63
f 45/160/63 41/158/62 43/159/64
f 49/161/65 50/162/66 51/164/67
f 51/164/67 50/162/66 52/163/68
f 51/165/69 52/166/70 53/168/71
f 53/168/71 52/166/70 54/167/72
f 53/169/73 54/170/74 55/172/75
f 55/172/75 54/170/74 56/171/76
f 55/173/77 56/174/78 49/176/79
f 49/176/79 56/174/78 50/175/80
f 50/177/81 56/178/82 52/180/83
f 52/180/83 56/178/82 54/179/84
f 55/181/85 49/182/86 53/184/87
f 53/184/87 49/182/86 51/183/88
