# This file uses centimeters as units for non-parametric coordinates.

v -227.413128 138.818431 -181.419951
v -226.615560 139.196987 -180.325891
v -226.862480 138.945972 -181.852018
v -226.064912 139.324528 -180.757958
v -228.916583 147.575015 -181.584890
v -228.375692 147.704989 -181.985003
v -229.133564 146.559240 -182.025757
v -228.585963 146.700487 -182.458897
v -228.332272 146.921038 -180.930385
v -227.789594 147.084440 -181.365259
v -225.855166 139.518829 -179.456510
v -225.061798 139.914885 -178.363699
v -225.309686 139.668514 -179.890195
v -224.516317 140.064570 -178.797384
v -227.563460 148.222466 -179.562755
v -227.027645 148.373986 -179.964431
v -227.758613 147.203521 -180.008714
v -227.216503 147.366813 -180.443377
v -226.961123 147.582940 -178.914708
v -226.424461 147.768226 -179.350951
v -224.206712 140.386981 -176.927945
v -223.497837 140.677603 -175.919810
v -223.644290 140.503662 -177.346773
v -222.935415 140.794283 -176.338639
v -225.512121 149.184034 -177.024280
v -224.961127 149.302310 -177.412870
v -225.710457 148.202616 -177.435206
v -225.150697 148.333134 -177.854933
v -224.998326 148.476316 -176.425974
v -224.442870 148.629204 -176.847153
v -222.766955 141.064349 -174.818829
v -221.944194 141.437395 -173.742250
v -222.221814 141.172380 -175.261442
v -221.399052 141.545426 -174.184863
v -224.122337 149.853848 -175.041222
v -223.586352 149.964979 -175.451745
v -224.364333 148.837927 -175.468628
v -223.822020 148.959722 -175.912392
v -223.538114 149.194143 -174.390642
v -223.000372 149.338187 -174.836266
v -228.281649 144.507978 -182.571998
v -222.065012 147.458633 -174.044350
v -228.601889 145.948844 -182.684762
v -222.385252 148.899498 -174.157114
v -228.146758 146.054261 -183.041882
v -221.930120 149.004916 -174.514234
v -227.826517 144.613396 -182.929118
v -221.609880 147.564050 -174.401470
v -227.179928 139.209694 -182.254015
v -220.963291 142.160349 -173.726367
v -227.431233 140.340400 -182.342506
v -221.214596 143.291055 -173.814858
v -226.976102 140.445818 -182.699626
v -220.759464 143.396473 -174.171978
v -226.724796 139.315112 -182.611135
v -220.508159 142.265767 -174.083488
vt 0.780806 0.121878
vt 0.870100 0.121075
vt 0.602661 0.991003
vt 0.602661 0.904550
vt 0.827480 0.081304
vt 0.765231 0.126569
vt 0.765231 0.224231
vt 0.702815 0.224231
vt 0.702815 0.126569
vt 0.535364 0.274985
vt 0.091558 0.009792
vt 0.146297 0.009792
vt 0.146297 0.365468
vt 0.590104 0.313891
vt 0.537435 0.313808
vt 0.025926 0.010552
vt 0.080500 0.010552
vt 0.080500 0.364288
vt 0.538057 0.323620
vt 0.590567 0.360935
vt 0.538057 0.361017
vt 0.602523 0.428417
vt 0.986278 0.428417
vt 0.986278 0.514830
vt 0.869677 0.133872
vt 0.825792 0.173055
vt 0.985644 0.991003
vt 0.984815 0.904550
vt 0.602790 0.514830
vt 0.780423 0.134130
vt 0.091558 0.363825
vt 0.590104 0.276629
vt 0.592631 0.322994
vt 0.025926 0.364914
vt 0.984565 0.809391
vt 0.985394 0.895844
vt 0.602411 0.895844
vt 0.602411 0.809391
vt 0.587993 0.263776
vt 0.535484 0.263859
vt 0.535484 0.226461
vt 0.590058 0.225835
vt 0.762860 0.016513
vt 0.762860 0.114176
vt 0.700444 0.114176
vt 0.700444 0.016513
vt 0.215491 0.364122
vt 0.215491 0.010089
vt 0.270230 0.010089
vt 0.270230 0.365765
vt 0.153597 0.010552
vt 0.208171 0.010552
vt 0.208171 0.364288
vt 0.153597 0.364914
vt 0.601299 0.521252
vt 0.985053 0.521251
vt 0.985053 0.607665
vt 0.601566 0.607665
vt 0.592403 0.178616
vt 0.592403 0.215879
vt 0.539735 0.215795
vt 0.537664 0.176972
vt 0.779958 0.020471
vt 0.869252 0.019669
vt 0.822578 0.060242
vt 0.875480 0.135413
vt 0.875747 0.221828
vt 0.835276 0.179338
vt 0.984074 0.713425
vt 0.984904 0.799877
vt 0.601921 0.799877
vt 0.601921 0.713425
vt 0.589812 0.168948
vt 0.537303 0.169031
vt 0.537303 0.131633
vt 0.591877 0.131007
vt 0.694588 0.125972
vt 0.694588 0.223634
vt 0.632173 0.223634
vt 0.632173 0.125972
vt 0.341945 0.364122
vt 0.341945 0.010089
vt 0.396684 0.010089
vt 0.396684 0.365766
vt 0.279254 0.010816
vt 0.333829 0.010816
vt 0.333829 0.364551
vt 0.279254 0.365177
vt 0.602818 0.332230
vt 0.986573 0.332230
vt 0.986573 0.418643
vt 0.603085 0.418643
vt 0.588543 0.084440
vt 0.588543 0.121703
vt 0.535875 0.121620
vt 0.533804 0.082796
vt 0.779781 0.223944
vt 0.778951 0.137492
vt 0.820858 0.182680
vt 0.781206 0.115549
vt 0.780939 0.029136
vt 0.821410 0.071625
vt 0.984392 0.617480
vt 0.985222 0.703932
vt 0.602239 0.703932
vt 0.602239 0.617480
vt 0.586604 0.072265
vt 0.534094 0.072347
vt 0.534094 0.034950
vt 0.588669 0.034324
vt 0.693824 0.016410
vt 0.693824 0.114072
vt 0.631408 0.114072
vt 0.631408 0.016410
vt 0.469681 0.365273
vt 0.469681 0.011240
vt 0.524420 0.011240
vt 0.524420 0.366917
vt 0.406290 0.012039
vt 0.460865 0.012039
vt 0.460865 0.365774
vt 0.406290 0.366400
vt 0.602832 0.236674
vt 0.986587 0.236674
vt 0.986586 0.323088
vt 0.603099 0.323088
vt 0.977603 0.017476
vt 0.977603 0.054738
vt 0.924935 0.054655
vt 0.922864 0.015832
vt 0.874097 0.225129
vt 0.784803 0.225932
vt 0.831477 0.185359
vt 0.870849 0.024352
vt 0.871116 0.110766
vt 0.830645 0.068277
vt 0.417039 0.989450
vt 0.417039 0.377391
vt 0.500798 0.377391
vt 0.500798 0.989450
vt 0.178993 0.988969
vt 0.178993 0.374277
vt 0.226957 0.374277
vt 0.226957 0.988969
vt 0.509981 0.989259
vt 0.509981 0.377203
vt 0.593740 0.377203
vt 0.593740 0.989260
vt 0.127067 0.989293
vt 0.127067 0.376993
vt 0.171758 0.376993
vt 0.171758 0.989293
vt 0.883070 0.141104
vt 0.883070 0.109216
vt 0.981116 0.109216
vt 0.981116 0.141104
vt 0.883220 0.100277
vt 0.883220 0.068389
vt 0.981266 0.068389
vt 0.981266 0.100277
vt 0.233875 0.989026
vt 0.233875 0.372925
vt 0.317634 0.372926
vt 0.317634 0.989026
vt 0.075098 0.989203
vt 0.075099 0.377503
vt 0.120356 0.377503
vt 0.120356 0.989203
vt 0.325938 0.989266
vt 0.325938 0.373482
vt 0.409697 0.373482
vt 0.409697 0.989266
vt 0.022659 0.989139
vt 0.022659 0.377441
vt 0.067916 0.377441
vt 0.067916 0.989139
vt 0.884713 0.228044
vt 0.884713 0.196156
vt 0.982759 0.196156
vt 0.982759 0.228044
vt 0.883409 0.184526
vt 0.883409 0.152637
vt 0.981455 0.152637
vt 0.981455 0.184526
vn -0.973062 -0.166470 0.159490
vn -0.940700 -0.276282 0.196855
vn -0.420233 0.017071 0.907256
vn -0.407663 -0.101078 0.907521
vn 0.422767 0.721709 -0.548092
vn 0.409070 0.056275 -0.910766
vn -0.772871 0.511094 0.376102
vn 0.976216 0.121609 -0.179482
vn 0.455691 -0.049344 -0.888770
vn 0.954139 0.238447 -0.181003
vn -0.968138 -0.190460 0.162587
vn -0.932852 -0.300211 0.199149
vn -0.416488 0.001920 0.909139
vn -0.400255 -0.115968 0.909037
vn 0.397444 0.737538 -0.545964
vn 0.403040 0.071184 -0.912410
vn -0.784518 0.488391 0.382108
vn 0.972276 0.145658 -0.182931
vn 0.452997 -0.033448 -0.890884
vn 0.947335 0.262409 -0.183569
vn -0.984618 -0.147362 0.093878
vn -0.958125 -0.255808 0.128682
vn -0.400486 0.020438 0.916075
vn -0.393370 -0.095239 0.914434
vn 0.435802 0.740869 -0.511067
vn 0.393180 0.051406 -0.918024
vn -0.752060 0.552101 0.359986
vn 0.987845 0.103869 -0.115644
vn 0.434607 -0.053251 -0.899045
vn 0.969208 0.218116 -0.114288
vn -0.972822 -0.147899 0.178164
vn -0.941764 -0.257535 0.216234
vn -0.403987 0.032709 0.914180
vn -0.394020 -0.085573 0.915110
vn 0.429257 0.706343 -0.562866
vn 0.394382 0.040769 -0.918042
vn -0.756321 0.529842 0.383725
vn 0.974859 0.102904 -0.197636
vn 0.439063 -0.065439 -0.896070
vn 0.954791 0.219769 -0.200192
vn -0.780500 -0.125541 0.612421
vn -0.780500 -0.125541 0.612421
vn -0.780500 -0.125541 0.612421
vn -0.780500 -0.125541 0.612421
vn -0.303076 0.946972 -0.106720
vn -0.303076 0.946972 -0.106720
vn -0.303076 0.946972 -0.106720
vn -0.303076 0.946972 -0.106720
vn 0.780500 0.125541 -0.612421
vn 0.780500 0.125541 -0.612421
vn 0.780500 0.125541 -0.612421
vn 0.780500 0.125541 -0.612421
vn 0.303076 -0.946972 0.106720
vn 0.303076 -0.946972 0.106720
vn 0.303076 -0.946972 0.106720
vn 0.303076 -0.946972 0.106720
vn 0.578283 0.190608 0.793257
vn 0.578283 0.190608 0.793257
vn 0.578283 0.190608 0.793257
vn 0.578283 0.190608 0.793257
vn -0.578283 -0.190608 -0.793257
vn -0.578283 -0.190608 -0.793257
vn -0.578283 -0.190608 -0.793257
vn -0.578283 -0.190608 -0.793257
vn -0.780500 -0.125541 0.612421
vn -0.780500 -0.125541 0.612421
vn -0.780500 -0.125541 0.612421
vn -0.780500 -0.125541 0.612421
vn -0.303076 0.946972 -0.106720
vn -0.303076 0.946972 -0.106720
vn -0.303076 0.946972 -0.106720
vn -0.303076 0.946972 -0.106720
vn 0.780500 0.125541 -0.612421
vn 0.780500 0.125541 -0.612421
vn 0.780500 0.125541 -0.612421
vn 0.780500 0.125541 -0.612421
vn 0.303076 -0.946972 0.106720
vn 0.303076 -0.946972 0.106720
vn 0.303076 -0.946972 0.106720
vn 0.303076 -0.946972 0.106720
vn 0.578283 0.190608 0.793257
vn 0.578283 0.190608 0.793257
vn 0.578283 0.190608 0.793257
vn 0.578283 0.190608 0.793257
vn -0.578283 -0.190608 -0.793257
vn -0.578283 -0.190608 -0.793257
vn -0.578283 -0.190608 -0.793257
vn -0.578283 -0.190608 -0.793257
f 7/27/1 1/3/2 9/28/3
f 9/28/3 1/3/2 2/4/4
f 6/21/5 8/19/6 5/20/7
f 5/20/7 8/19/6 7/33/1
f 2/6/4 1/7/2 4/9/8
f 4/9/8 1/7/2 3/8/9
f 2/11/4 4/12/8 9/31/3
f 9/31/3 4/12/8 10/13/10
f 1/17/2 7/18/1 3/16/9
f 3/16/9 7/18/1 8/34/6
f 10/22/10 4/23/8 8/29/6
f 8/29/6 4/23/8 3/24/9
f 6/14/5 5/15/7 10/32/10
f 10/32/10 5/15/7 9/10/3
f 7/2/1 9/1/3 5/5/7
f 10/30/10 8/25/6 6/26/5
f 17/36/11 11/37/12 19/35/13
f 19/35/13 11/37/12 12/38/14
f 16/40/15 18/41/16 15/39/17
f 15/39/17 18/41/16 17/42/11
f 12/43/14 11/44/12 14/46/18
f 14/46/18 11/44/12 13/45/19
f 12/48/14 14/49/18 19/47/13
f 19/47/13 14/49/18 20/50/20
f 11/52/12 17/53/11 13/51/19
f 13/51/19 17/53/11 18/54/16
f 20/55/20 14/56/18 18/58/16
f 18/58/16 14/56/18 13/57/19
f 16/60/15 15/61/17 20/59/20
f 20/59/20 15/61/17 19/62/13
f 17/63/11 19/64/13 15/65/17
f 20/66/20 18/67/16 16/68/15
f 27/70/21 21/71/22 29/69/23
f 29/69/23 21/71/22 22/72/24
f 26/74/25 28/75/26 25/73/27
f 25/73/27 28/75/26 27/76/21
f 22/77/24 21/78/22 24/80/28
f 24/80/28 21/78/22 23/79/29
f 22/82/24 24/83/28 29/81/23
f 29/81/23 24/83/28 30/84/30
f 21/86/22 27/87/21 23/85/29
f 23/85/29 27/87/21 28/88/26
f 30/89/30 24/90/28 28/92/26
f 28/92/26 24/90/28 23/91/29
f 26/94/25 25/95/27 30/93/30
f 30/93/30 25/95/27 29/96/23
f 27/97/21 29/98/23 25/99/27
f 30/100/30 28/101/26 26/102/25
f 37/104/31 31/105/32 39/103/33
f 39/103/33 31/105/32 32/106/34
f 36/108/35 38/109/36 35/107/37
f 35/107/37 38/109/36 37/110/31
f 32/111/34 31/112/32 34/114/38
f 34/114/38 31/112/32 33/113/39
f 32/116/34 34/117/38 39/115/33
f 39/115/33 34/117/38 40/118/40
f 31/120/32 37/121/31 33/119/39
f 33/119/39 37/121/31 38/122/36
f 40/123/40 34/124/38 38/126/36
f 38/126/36 34/124/38 33/125/39
f 36/128/35 35/129/37 40/127/40
f 40/127/40 35/129/37 39/130/33
f 37/131/31 39/132/33 35/133/37
f 40/134/40 38/135/36 36/136/35
f 41/137/41 42/138/42 43/140/43
f 43/140/43 42/138/42 44/139/44
f 43/141/45 44/142/46 45/144/47
f 45/144/47 44/142/46 46/143/48
f 45/145/49 46/146/50 47/148/51
f 47/148/51 46/146/50 48/147/52
f 47/149/53 48/150/54 41/152/55
f 41/152/55 48/150/54 42/151/56
f 42/153/57 48/154/58 44/156/59
f 44/156/59 48/154/58 46/155/60
f 47/157/61 41/158/62 45/160/63
f 45/160/63 41/158/62 43/159/64
f 49/161/65 50/162/66 51/164/67
f 51/164/67 50/162/66 52/163/68
f 51/165/69 52/166/70 53/168/71
f 53/168/71 52/166/70 54/167/72
f 53/169/73 54/170/74 55/172/75
f 55/172/75 54/170/74 56/171/76
f 55/173/77 56/174/78 49/176/79
f 49/176/79 56/174/78 50/175/80
f 50/177/81 56/178/82 52/180/83
f 52/180/83 56/178/82 54/179/84
f 55/181/85 49/182/86 53/184/87
f 53/184/87 49/182/86 51/183/88
