# This file uses centimeters as units for non-parametric coordinates.

v -145.653018 168.075200 -124.548665
v -144.326709 168.573015 -124.586185
v -145.674144 168.079454 -125.256289
v -144.347835 168.577269 -125.293809
v -147.233747 176.814141 -124.491785
v -147.235452 176.827195 -125.173154
v -147.651625 175.752880 -124.456941
v -147.676291 175.770729 -125.164403
v -146.320989 176.234073 -124.494659
v -146.351375 176.273896 -125.201859
v -143.198033 168.978736 -124.719349
v -141.876333 169.493955 -124.756345
v -143.224933 169.004994 -125.426448
v -141.903233 169.520213 -125.463444
v -144.851778 177.692845 -124.458530
v -144.859119 177.727314 -125.139343
v -145.260399 176.625736 -124.443685
v -145.290952 176.665534 -125.150296
v -143.934235 177.124399 -124.481278
v -143.970690 177.186084 -125.187099
v -140.249327 170.138939 -124.650060
v -139.039202 170.542400 -124.656947
v -140.252166 170.133800 -125.357990
v -139.042041 170.537261 -125.364876
v -141.659016 178.913198 -124.715428
v -141.644749 178.915873 -125.396679
v -142.044005 177.889510 -124.681937
v -142.050021 177.898094 -125.389923
v -140.829995 178.276191 -124.688755
v -140.841148 178.306958 -125.396832
v -137.747951 171.055095 -124.638264
v -136.420081 171.542308 -124.705463
v -137.779562 171.038715 -125.345375
v -136.451692 171.525928 -125.412574
v -139.287525 179.804074 -124.736997
v -139.299287 179.797125 -125.418329
v -139.709705 178.747116 -124.674303
v -139.744790 178.744356 -125.381478
v -138.377588 179.217675 -124.741425
v -138.418287 179.236930 -125.448702
v -147.446726 173.561717 -125.211916
v -137.108820 177.441934 -125.504365
v -147.818744 174.990832 -125.194843
v -137.480838 178.871049 -125.487291
v -147.836206 174.994348 -125.779722
v -137.498300 178.874566 -126.072170
v -147.464188 173.565233 -125.796796
v -137.126282 177.445451 -126.089244
v -146.201263 168.296118 -125.271084
v -135.863357 172.176335 -125.563533
v -146.493201 169.417602 -125.257686
v -136.155296 173.297820 -125.550134
v -146.510664 169.421119 -125.842565
v -136.172758 173.301336 -126.135014
v -146.218726 168.299634 -125.855964
v -135.880820 172.179852 -126.148412
vt 0.780806 0.121878
vt 0.870100 0.121075
vt 0.602661 0.991003
vt 0.602661 0.904550
vt 0.827480 0.081304
vt 0.765231 0.126569
vt 0.765231 0.224231
vt 0.702815 0.224231
vt 0.702815 0.126569
vt 0.535364 0.274985
vt 0.091558 0.009792
vt 0.146297 0.009792
vt 0.146297 0.365468
vt 0.590104 0.313891
vt 0.537435 0.313808
vt 0.025926 0.010552
vt 0.080500 0.010552
vt 0.080500 0.364288
vt 0.538057 0.323620
vt 0.590567 0.360935
vt 0.538057 0.361017
vt 0.602523 0.428417
vt 0.986278 0.428417
vt 0.986278 0.514830
vt 0.869677 0.133872
vt 0.825792 0.173055
vt 0.985644 0.991003
vt 0.984815 0.904550
vt 0.602790 0.514830
vt 0.780423 0.134130
vt 0.091558 0.363825
vt 0.590104 0.276629
vt 0.592631 0.322994
vt 0.025926 0.364914
vt 0.984565 0.809391
vt 0.985394 0.895844
vt 0.602411 0.895844
vt 0.602411 0.809391
vt 0.587993 0.263776
vt 0.535484 0.263859
vt 0.535484 0.226461
vt 0.590058 0.225835
vt 0.762860 0.016513
vt 0.762860 0.114176
vt 0.700444 0.114176
vt 0.700444 0.016513
vt 0.215491 0.364122
vt 0.215491 0.010089
vt 0.270230 0.010089
vt 0.270230 0.365765
vt 0.153597 0.010552
vt 0.208171 0.010552
vt 0.208171 0.364288
vt 0.153597 0.364914
vt 0.601299 0.521252
vt 0.985053 0.521251
vt 0.985053 0.607665
vt 0.601566 0.607665
vt 0.592403 0.178616
vt 0.592403 0.215879
vt 0.539735 0.215795
vt 0.537664 0.176972
vt 0.779958 0.020471
vt 0.869252 0.019669
vt 0.822578 0.060242
vt 0.875480 0.135413
vt 0.875747 0.221828
vt 0.835276 0.179338
vt 0.984074 0.713425
vt 0.984904 0.799877
vt 0.601921 0.799877
vt 0.601921 0.713425
vt 0.589812 0.168948
vt 0.537303 0.169031
vt 0.537303 0.131633
vt 0.591877 0.131007
vt 0.694588 0.125972
vt 0.694588 0.223634
vt 0.632173 0.223634
vt 0.632173 0.125972
vt 0.341945 0.364122
vt 0.341945 0.010089
vt 0.396684 0.010089
vt 0.396684 0.365766
vt 0.279254 0.010816
vt 0.333829 0.010816
vt 0.333829 0.364551
vt 0.279254 0.365177
vt 0.602818 0.332230
vt 0.986573 0.332230
vt 0.986573 0.418643
vt 0.603085 0.418643
vt 0.588543 0.084440
vt 0.588543 0.121703
vt 0.535875 0.121620
vt 0.533804 0.082796
vt 0.779781 0.223944
vt 0.778951 0.137492
vt 0.820858 0.182680
vt 0.781206 0.115549
vt 0.780939 0.029136
vt 0.821410 0.071625
vt 0.984392 0.617480
vt 0.985222 0.703932
vt 0.602239 0.703932
vt 0.602239 0.617480
vt 0.586604 0.072265
vt 0.534094 0.072347
vt 0.534094 0.034950
vt 0.588669 0.034324
vt 0.693824 0.016410
vt 0.693824 0.114072
vt 0.631408 0.114072
vt 0.631408 0.016410
vt 0.469681 0.365273
vt 0.469681 0.011240
vt 0.524420 0.011240
vt 0.524420 0.366917
vt 0.406290 0.012039
vt 0.460865 0.012039
vt 0.460865 0.365774
vt 0.406290 0.366400
vt 0.602832 0.236674
vt 0.986587 0.236674
vt 0.986586 0.323088
vt 0.603099 0.323088
vt 0.977603 0.017476
vt 0.977603 0.054738
vt 0.924935 0.054655
vt 0.922864 0.015832
vt 0.874097 0.225129
vt 0.784803 0.225932
vt 0.831477 0.185359
vt 0.870849 0.024352
vt 0.871116 0.110766
vt 0.830645 0.068277
vt 0.417039 0.989450
vt 0.417039 0.377391
vt 0.500798 0.377391
vt 0.500798 0.989450
vt 0.178993 0.988969
vt 0.178993 0.374277
vt 0.226957 0.374277
vt 0.226957 0.988969
vt 0.509981 0.989259
vt 0.509981 0.377203
vt 0.593740 0.377203
vt 0.593740 0.989260
vt 0.127067 0.989293
vt 0.127067 0.376993
vt 0.171758 0.376993
vt 0.171758 0.989293
vt 0.883070 0.141104
vt 0.883070 0.109216
vt 0.981116 0.109216
vt 0.981116 0.141104
vt 0.883220 0.100277
vt 0.883220 0.068389
vt 0.981266 0.068389
vt 0.981266 0.100277
vt 0.233875 0.989026
vt 0.233875 0.372925
vt 0.317634 0.372926
vt 0.317634 0.989026
vt 0.075098 0.989203
vt 0.075099 0.377503
vt 0.120356 0.377503
vt 0.120356 0.989203
vt 0.325938 0.989266
vt 0.325938 0.373482
vt 0.409697 0.373482
vt 0.409697 0.989266
vt 0.022659 0.989139
vt 0.022659 0.377441
vt 0.067916 0.377441
vt 0.067916 0.989139
vt 0.884713 0.228044
vt 0.884713 0.196156
vt 0.982759 0.196156
vt 0.982759 0.228044
vt 0.883409 0.184526
vt 0.883409 0.152637
vt 0.981455 0.152637
vt 0.981455 0.184526
vn -0.440644 -0.087920 0.893366
vn -0.380300 -0.192397 0.904630
vn 0.470562 0.152101 0.869158
vn 0.485625 0.033976 0.873506
vn -0.240151 0.603492 -0.760346
vn -0.484628 -0.078787 -0.871165
vn -0.215222 0.607524 0.764587
vn 0.431344 0.041304 -0.901242
vn -0.432267 -0.184278 -0.882716
vn 0.404777 0.156731 -0.900883
vn -0.432736 -0.111309 0.894623
vn -0.371363 -0.215804 0.903061
vn 0.475274 0.136962 0.869112
vn 0.492172 0.019047 0.870290
vn -0.254599 0.620192 -0.741985
vn -0.490469 -0.063856 -0.869116
vn -0.215308 0.585833 0.781307
vn 0.423727 0.064726 -0.903474
vn -0.436625 -0.168427 -0.883737
vn 0.396214 0.180144 -0.900313
vn -0.501711 -0.076465 0.861649
vn -0.446895 -0.179789 0.876333
vn 0.489328 0.155390 0.858144
vn 0.499334 0.039748 0.865497
vn -0.205610 0.625569 -0.752588
vn -0.499665 -0.083574 -0.862178
vn -0.219428 0.645937 0.731175
vn 0.490916 0.030915 -0.870658
vn -0.453004 -0.188223 -0.871412
vn 0.468864 0.144139 -0.871430
vn -0.427607 -0.067469 0.901443
vn -0.367493 -0.171746 0.914031
vn 0.484938 0.167658 0.858327
vn 0.498900 0.049419 0.865250
vn -0.246484 0.586737 -0.771353
vn -0.498314 -0.094214 -0.861862
vn -0.200724 0.626779 0.752900
vn 0.418064 0.020794 -0.908179
vn -0.447135 -0.200376 -0.871734
vn 0.391872 0.136149 -0.909890
vn 0.029842 -0.004173 0.999546
vn 0.029842 -0.004173 0.999546
vn 0.029842 -0.004173 0.999546
vn 0.029842 -0.004173 0.999546
vn -0.350957 0.936253 0.016107
vn -0.350957 0.936253 0.016107
vn -0.350957 0.936253 0.016107
vn -0.350957 0.936253 0.016107
vn -0.029842 0.004173 -0.999546
vn -0.029842 0.004173 -0.999546
vn -0.029842 0.004173 -0.999546
vn -0.029842 0.004173 -0.999546
vn 0.350957 -0.936253 -0.016107
vn 0.350957 -0.936253 -0.016107
vn 0.350957 -0.936253 -0.016107
vn 0.350957 -0.936253 -0.016107
vn 0.967306 0.252130 -0.027364
vn 0.967306 0.252130 -0.027364
vn 0.967306 0.252130 -0.027364
vn 0.967306 0.252130 -0.027364
vn -0.967306 -0.252130 0.027364
vn -0.967306 -0.252130 0.027364
vn -0.967306 -0.252130 0.027364
vn -0.967306 -0.252130 0.027364
vn 0.029842 -0.004173 0.999546
vn 0.029842 -0.004173 0.999546
vn 0.029842 -0.004173 0.999546
vn 0.029842 -0.004173 0.999546
vn -0.350957 0.936253 0.016107
vn -0.350957 0.936253 0.016107
vn -0.350957 0.936253 0.016107
vn -0.350957 0.936253 0.016107
vn -0.029842 0.004173 -0.999546
vn -0.029842 0.004173 -0.999546
vn -0.029842 0.004173 -0.999546
vn -0.029842 0.004173 -0.999546
vn 0.350957 -0.936253 -0.016107
vn 0.350957 -0.936253 -0.016107
vn 0.350957 -0.936253 -0.016107
vn 0.350957 -0.936253 -0.016107
vn 0.967306 0.252130 -0.027364
vn 0.967306 0.252130 -0.027364
vn 0.967306 0.252130 -0.027364
vn 0.967306 0.252130 -0.027364
vn -0.967306 -0.252130 0.027364
vn -0.967306 -0.252130 0.027364
vn -0.967306 -0.252130 0.027364
vn -0.967306 -0.252130 0.027364
f 7/27/1 1/3/2 9/28/3
f 9/28/3 1/3/2 2/4/4
f 6/21/5 8/19/6 5/20/7
f 5/20/7 8/19/6 7/33/1
f 2/6/4 1/7/2 4/9/8
f 4/9/8 1/7/2 3/8/9
f 2/11/4 4/12/8 9/31/3
f 9/31/3 4/12/8 10/13/10
f 1/17/2 7/18/1 3/16/9
f 3/16/9 7/18/1 8/34/6
f 10/22/10 4/23/8 8/29/6
f 8/29/6 4/23/8 3/24/9
f 6/14/5 5/15/7 10/32/10
f 10/32/10 5/15/7 9/10/3
f 7/2/1 9/1/3 5/5/7
f 10/30/10 8/25/6 6/26/5
f 17/36/11 11/37/12 19/35/13
f 19/35/13 11/37/12 12/38/14
f 16/40/15 18/41/16 15/39/17
f 15/39/17 18/41/16 17/42/11
f 12/43/14 11/44/12 14/46/18
f 14/46/18 11/44/12 13/45/19
f 12/48/14 14/49/18 19/47/13
f 19/47/13 14/49/18 20/50/20
f 11/52/12 17/53/11 13/51/19
f 13/51/19 17/53/11 18/54/16
f 20/55/20 14/56/18 18/58/16
f 18/58/16 14/56/18 13/57/19
f 16/60/15 15/61/17 20/59/20
f 20/59/20 15/61/17 19/62/13
f 17/63/11 19/64/13 15/65/17
f 20/66/20 18/67/16 16/68/15
f 27/70/21 21/71/22 29/69/23
f 29/69/23 21/71/22 22/72/24
f 26/74/25 28/75/26 25/73/27
f 25/73/27 28/75/26 27/76/21
f 22/77/24 21/78/22 24/80/28
f 24/80/28 21/78/22 23/79/29
f 22/82/24 24/83/28 29/81/23
f 29/81/23 24/83/28 30/84/30
f 21/86/22 27/87/21 23/85/29
f 23/85/29 27/87/21 28/88/26
f 30/89/30 24/90/28 28/92/26
f 28/92/26 24/90/28 23/91/29
f 26/94/25 25/95/27 30/93/30
f 30/93/30 25/95/27 29/96/23
f 27/97/21 29/98/23 25/99/27
f 30/100/30 28/101/26 26/102/25
f 37/104/31 31/105/32 39/103/33
f 39/103/33 31/105/32 32/106/34
f 36/108/35 38/109/36 35/107/37
f 35/107/37 38/109/36 37/110/31
f 32/111/34 31/112/32 34/114/38
f 34/114/38 31/112/32 33/113/39
f 32/116/34 34/117/38 39/115/33
f 39/115/33 34/117/38 40/118/40
f 31/120/32 37/121/31 33/119/39
f 33/119/39 37/121/31 38/122/36
f 40/123/40 34/124/38 38/126/36
f 38/126/36 34/124/38 33/125/39
f 36/128/35 35/129/37 40/127/40
f 40/127/40 35/129/37 39/130/33
f 37/131/31 39/132/33 35/133/37
f 40/134/40 38/135/36 36/136/35
f 41/137/41 42/138/42 43/140/43
f 43/140/43 42/138/42 44/139/44
f 43/141/45 44/142/46 45/144/47
f 45/144/47 44/142/46 46/143/48
f 45/145/49 46/146/50 47/148/51
f 47/148/51 46/146/50 48/147/52
f 47/149/53 48/150/54 41/152/55
f 41/152/55 48/150/54 42/151/56
f 42/153/57 48/154/58 44/156/59
f 44/156/59 48/154/58 46/155/60
f 47/157/61 41/158/62 45/160/63
f 45/160/63 41/158/62 43/159/64
f 49/161/65 50/162/66 51/164/67
f 51/164/67 50/162/66 52/163/68
f 51/165/69 52/166/70 53/168/71
f 53/168/71 52/166/70 54/167/72
f 53/169/73 54/170/74 55/172/75
f 55/172/75 54/170/74 56/171/76
f 55/173/77 56/174/78 49/176/79
f 49/176/79 56/174/78 50/175/80
f 50/177/81 56/178/82 52/180/83
f 52/180/83 56/178/82 54/179/84
f 55/181/85 49/182/86 53/184/87
f 53/184/87 49/182/86 51/183/88
