# This file uses centimeters as units for non-parametric coordinates.

v -162.358941 148.352852 -310.733294
v -146.012374 147.992348 -291.927488
v -127.213588 147.331825 -308.276109
v -143.560135 147.692329 -327.081893
v -144.512444 162.286098 -309.564794
v -143.417466 124.837275 -323.193384
v -158.393693 124.837275 -310.545624
v -143.417466 148.518979 -323.193384
v -158.393693 148.518979 -310.545624
v -131.514628 148.518979 -309.099219
v -146.490854 148.518979 -296.451459
v -131.514628 124.837275 -309.099219
v -146.490854 124.837275 -296.451459
vt 0.389198 0.383916
vt 0.007335 0.389450
vt 0.383756 0.001991
vt 0.001893 0.007525
vt 0.080109 0.693730
vt 0.080109 0.393241
vt 0.371101 0.693730
vt 0.371101 0.393241
vt 0.665555 0.693733
vt 0.665555 0.393241
vt 0.948348 0.693733
vt 0.948348 0.393241
vt 0.001893 0.998007
vt 0.001893 0.697521
vt 0.292881 0.998007
vt 0.292881 0.697521
vt 0.376931 0.693733
vt 0.376931 0.393241
vt 0.659724 0.693733
vt 0.659724 0.393241
vt 0.300247 0.697525
vt 0.583040 0.697525
vt 0.300247 0.988516
vt 0.583040 0.988516
vt 0.589153 0.697525
vt 0.871946 0.697525
vt 0.589153 0.988516
vt 0.871946 0.988516
vt 0.783853 0.007525
vt 0.778412 0.389450
vt 0.586400 0.197726
vt 0.396548 0.383916
vt 0.401990 0.001991
vn -0.785384 -0.617025 -0.049519
vn 0.035101 -0.639684 -0.767836
vn -0.072381 -0.629336 0.773755
vn 0.755767 -0.652241 0.058287
vn 0.029490 0.999544 -0.006474
vn 0.046738 -0.493418 -0.868536
vn -0.864104 -0.493418 -0.099309
vn 0.046738 0.493418 -0.868536
vn -0.864104 0.493418 -0.099309
vn 0.864104 0.493418 0.099309
vn -0.046738 0.493418 0.868536
vn 0.864104 -0.493418 0.099309
vn -0.046738 -0.493418 0.868536
f 1/1/1 4/2/2 2/3/3
f 2/3/3 4/2/2 3/4/4
f 1/29/1 2/30/3 5/31/5
f 2/30/3 3/32/4 5/31/5
f 3/32/4 4/33/2 5/31/5
f 4/33/2 1/29/1 5/31/5
f 6/5/6 7/6/7 8/7/8
f 8/7/8 7/6/7 9/8/9
f 8/9/8 9/10/9 10/11/10
f 10/11/10 9/10/9 11/12/11
f 10/13/10 11/14/11 12/15/12
f 12/15/12 11/14/11 13/16/13
f 12/17/12 13/18/13 6/19/6
f 6/19/6 13/18/13 7/20/7
f 7/21/7 13/22/13 9/23/9
f 9/23/9 13/22/13 11/24/11
f 12/25/12 6/26/6 10/27/10
f 10/27/10 6/26/6 8/28/8
