# This file uses centimeters as units for non-parametric coordinates.

v -174.141552 149.373127 -238.630717
v -168.275627 148.946788 -262.657177
v -192.299727 148.165640 -268.516236
v -198.165645 148.591979 -244.489805
v -183.426314 165.850872 -253.760891
v -195.096743 121.563120 -246.834718
v -176.262801 121.563120 -241.951183
v -195.096743 149.569593 -246.834718
v -176.262801 149.569593 -241.951183
v -190.500835 149.569593 -264.559390
v -171.666893 149.569593 -259.675854
v -190.500835 121.563120 -264.559390
v -171.666893 121.563120 -259.675854
vt 0.389198 0.383916
vt 0.007335 0.389450
vt 0.383756 0.001991
vt 0.001893 0.007525
vt 0.080109 0.693730
vt 0.080109 0.393241
vt 0.371101 0.693730
vt 0.371101 0.393241
vt 0.665555 0.693733
vt 0.665555 0.393241
vt 0.948348 0.693733
vt 0.948348 0.393241
vt 0.001893 0.998007
vt 0.001893 0.697521
vt 0.292881 0.998007
vt 0.292881 0.697521
vt 0.376931 0.693733
vt 0.376931 0.393241
vt 0.659724 0.693733
vt 0.659724 0.393241
vt 0.300247 0.697525
vt 0.583040 0.697525
vt 0.300247 0.988516
vt 0.583040 0.988516
vt 0.589153 0.697525
vt 0.871946 0.697525
vt 0.589153 0.988516
vt 0.871946 0.988516
vt 0.783853 0.007525
vt 0.778412 0.389450
vt 0.586400 0.197726
vt 0.396548 0.383916
vt 0.401990 0.001991
vn 0.438629 -0.549722 0.710922
vn -0.690157 -0.572631 0.442467
vn 0.716696 -0.562128 -0.412745
vn -0.415981 -0.585471 -0.695833
vn -0.026586 0.999353 -0.024223
vn -0.764002 -0.429882 0.481147
vn 0.433942 -0.429881 0.791767
vn -0.764002 0.429882 0.481147
vn 0.433942 0.429881 0.791768
vn -0.433942 0.429881 -0.791768
vn 0.764002 0.429882 -0.481147
vn -0.433942 -0.429881 -0.791767
vn 0.764002 -0.429882 -0.481147
f 1/1/1 4/2/2 2/3/3
f 2/3/3 4/2/2 3/4/4
f 1/29/1 2/30/3 5/31/5
f 2/30/3 3/32/4 5/31/5
f 3/32/4 4/33/2 5/31/5
f 4/33/2 1/29/1 5/31/5
f 6/5/6 7/6/7 8/7/8
f 8/7/8 7/6/7 9/8/9
f 8/9/8 9/10/9 10/11/10
f 10/11/10 9/10/9 11/12/11
f 10/13/10 11/14/11 12/15/12
f 12/15/12 11/14/11 13/16/13
f 12/17/12 13/18/13 6/19/6
f 6/19/6 13/18/13 7/20/7
f 7/21/7 13/22/13 9/23/9
f 9/23/9 13/22/13 11/24/11
f 12/25/12 6/26/6 10/27/10
f 10/27/10 6/26/6 8/28/8
