# This file uses centimeters as units for non-parametric coordinates.

v 3.471495 184.516502 -147.849673
v 3.654649 184.492023 -147.374834
v -7.352018 183.001721 -143.729073
v -7.183436 182.798353 -143.255016
v -4.942384 185.482791 -144.569693
v -4.682565 185.449508 -144.124740
v -6.735751 184.325116 -143.919402
v -6.493136 184.280726 -143.468211
v 2.504264 178.122487 -147.705493
v 2.673478 178.099610 -147.225219
v 3.392944 183.552212 -147.853895
v 3.590171 183.700488 -147.378299
v -7.479026 181.442575 -143.735899
v -7.288146 181.512939 -143.260644
v -4.355503 178.910294 -145.031352
v -4.076825 178.874846 -144.593751
v -6.405859 180.325333 -143.643474
v -6.667438 180.350132 -144.088052
v -0.617330 174.308982 -146.030671
v -2.234752 174.429585 -145.402484
v 0.070337 186.346519 -145.864986
v -1.547086 186.467122 -145.236799
v 0.596828 186.276154 -144.500020
v -1.020593 186.396757 -143.871833
v -0.090838 174.238618 -144.665705
v -1.708260 174.359221 -144.037518
vt 0.667147 0.432955
vt 0.708860 0.408086
vt 0.708860 0.624834
vt 0.667147 0.611649
vt 0.321493 0.434237
vt 0.321493 0.039293
vt 0.047304 0.012603
vt 0.008913 0.500393
vt 0.008913 0.012603
vt 0.769998 0.015681
vt 0.769998 0.497568
vt 0.726504 0.493178
vt 0.726503 0.015681
vt 0.612746 0.971925
vt 0.572436 0.971925
vt 0.572436 0.652940
vt 0.612746 0.642884
vt 0.708965 0.018775
vt 0.668655 0.018774
vt 0.668655 0.064845
vt 0.708965 0.074900
vt 0.709323 0.390977
vt 0.667610 0.415846
vt 0.667610 0.200762
vt 0.709322 0.198960
vt 0.708839 0.090329
vt 0.708838 0.188360
vt 0.665961 0.184836
vt 0.665961 0.085864
vt 0.606777 0.011348
vt 0.340616 0.037161
vt 0.340616 0.437558
vt 0.653608 0.502457
vt 0.653608 0.011348
vt 0.768011 0.513472
vt 0.727145 0.506695
vt 0.727145 0.993367
vt 0.768011 0.992377
vt 0.716772 0.654522
vt 0.716772 0.792145
vt 0.675059 0.790949
vt 0.675059 0.641337
vt 0.665552 0.791812
vt 0.623840 0.791812
vt 0.623840 0.628878
vt 0.665552 0.630074
vt 0.264648 0.576089
vt 0.075067 0.599825
vt 0.150106 0.632839
vt 0.212450 0.632839
vt 0.520917 0.630113
vt 0.587997 0.600710
vt 0.397118 0.578035
vt 0.445197 0.630113
vt 0.558610 0.644415
vt 0.558610 0.721345
vt 0.011251 0.721345
vt 0.011250 0.644415
vt 0.620075 0.882253
vt 0.620075 0.807789
vt 0.716866 0.807789
vt 0.716866 0.882253
vt 0.558610 0.735347
vt 0.558610 0.812277
vt 0.011250 0.812277
vt 0.011250 0.735346
vt 0.620034 0.971609
vt 0.620034 0.896025
vt 0.718201 0.896025
vt 0.718201 0.971609
vt 0.558610 0.826175
vt 0.558610 0.903819
vt 0.011250 0.903819
vt 0.011251 0.826176
vt 0.558610 0.914325
vt 0.558610 0.991969
vt 0.011250 0.991969
vt 0.011250 0.914325
vn -0.647892 0.134565 -0.749752
vn -0.770141 -0.147029 -0.620698
vn 0.061817 0.041651 0.997218
vn -0.180634 -0.183509 0.966280
vn 0.406206 -0.128139 0.904752
vn 0.409316 -0.041193 0.911462
vn 0.342877 -0.110008 0.932917
vn 0.358885 0.073324 0.930497
vn 0.406438 0.500623 0.764320
vn -0.360405 0.126882 -0.924126
vn -0.224441 0.488174 -0.843393
vn -0.307653 -0.060208 -0.949592
vn -0.295557 0.022917 -0.955050
vn 0.249293 0.086496 0.964558
vn -0.461306 0.148828 -0.874670
vn -0.375369 -0.034188 -0.926245
vn -0.422779 -0.055032 -0.904560
vn 0.290814 -0.127672 0.948223
vn 0.315656 -0.097688 -0.943832
vn -0.877018 -0.035783 -0.479124
vn 0.330676 0.086649 -0.939758
vn -0.865830 0.148939 -0.477657
vn 0.877018 0.035783 0.479124
vn -0.315657 0.097688 0.943832
vn 0.865830 -0.148939 0.477656
vn -0.330676 -0.086649 0.939758
f 3/2/1 13/3/2 4/1/3
f 4/1/3 13/3/2 14/4/4
f 10/6/5 12/7/6 16/5/7
f 16/5/7 12/7/6 6/8/8
f 2/9/9 6/8/8 12/7/6
f 5/11/10 6/12/8 1/10/11
f 1/10/11 6/12/8 2/13/9
f 9/15/12 11/16/13 10/14/5
f 10/14/5 11/16/13 12/17/6
f 2/19/9 12/20/6 1/18/11
f 1/18/11 12/20/6 11/21/13
f 4/23/3 8/24/14 3/22/1
f 3/22/1 8/24/14 7/25/15
f 7/27/15 8/28/14 5/26/10
f 5/26/10 8/28/14 6/29/8
f 9/31/12 15/32/16 11/30/13
f 11/30/13 15/32/16 5/33/10
f 1/34/11 11/30/13 5/33/10
f 15/36/16 9/37/12 16/35/7
f 16/35/7 9/37/12 10/38/5
f 13/39/2 18/40/17 14/42/4
f 14/42/4 18/40/17 17/41/18
f 16/44/7 17/45/18 15/43/16
f 15/43/16 17/45/18 18/46/17
f 16/5/7 6/8/8 17/47/18
f 17/47/18 6/8/8 8/48/14
f 8/48/14 4/49/3 17/47/18
f 17/47/18 4/49/3 14/50/4
f 7/52/15 18/53/17 3/51/1
f 3/51/1 18/53/17 13/54/2
f 15/32/16 18/53/17 5/33/10
f 5/33/10 18/53/17 7/52/15
f 19/55/19 20/56/20 21/58/21
f 21/58/21 20/56/20 22/57/22
f 21/59/21 22/60/22 23/62/23
f 23/62/23 22/60/22 24/61/24
f 23/63/23 24/64/24 25/66/25
f 25/66/25 24/64/24 26/65/26
f 25/67/25 26/68/26 19/70/19
f 19/70/19 26/68/26 20/69/20
f 20/71/20 26/72/26 22/74/22
f 22/74/22 26/72/26 24/73/24
f 25/75/25 19/76/19 23/78/23
f 23/78/23 19/76/19 21/77/21
