# This file uses centimeters as units for non-parametric coordinates.

v 107.859603 185.737436 -109.934516
v 107.577858 185.737436 -109.510188
v 98.343221 182.992133 -116.253210
v 98.061476 182.812388 -115.828883
v 100.306532 185.737436 -114.949610
v 100.093609 185.737436 -114.479586
v 98.795434 184.379984 -115.952949
v 98.568014 184.366959 -115.492551
v 107.462610 179.261826 -110.198112
v 107.168351 179.261826 -109.782093
v 107.859603 184.768537 -109.934516
v 107.577858 184.942117 -109.510188
v 98.343221 181.425534 -116.253210
v 98.061476 181.520830 -115.828883
v 101.304653 179.261826 -114.286876
v 101.108659 179.261826 -113.805612
v 98.932197 180.439473 -115.250741
v 99.144170 180.430827 -115.721396
v 104.466446 175.112544 -111.507930
v 103.019219 175.047690 -112.468861
v 104.205938 187.174134 -111.680902
v 102.758712 187.109280 -112.641833
v 103.396038 187.174134 -110.461137
v 101.948811 187.109280 -111.422068
v 103.656545 175.112544 -110.288166
v 102.209319 175.047690 -111.249096
vt 0.667147 0.432955
vt 0.708860 0.408086
vt 0.708860 0.624834
vt 0.667147 0.611649
vt 0.321493 0.434237
vt 0.321493 0.039293
vt 0.047304 0.012603
vt 0.008913 0.500393
vt 0.008913 0.012603
vt 0.769998 0.015681
vt 0.769998 0.497568
vt 0.726504 0.493178
vt 0.726503 0.015681
vt 0.612746 0.971925
vt 0.572436 0.971925
vt 0.572436 0.652940
vt 0.612746 0.642884
vt 0.708965 0.018775
vt 0.668655 0.018774
vt 0.668655 0.064845
vt 0.708965 0.074900
vt 0.709323 0.390977
vt 0.667610 0.415846
vt 0.667610 0.200762
vt 0.709322 0.198960
vt 0.708839 0.090329
vt 0.708838 0.188360
vt 0.665961 0.184836
vt 0.665961 0.085864
vt 0.606777 0.011348
vt 0.340616 0.037161
vt 0.340616 0.437558
vt 0.653608 0.502457
vt 0.653608 0.011348
vt 0.768011 0.513472
vt 0.727145 0.506695
vt 0.727145 0.993367
vt 0.768011 0.992377
vt 0.716772 0.654522
vt 0.716772 0.792145
vt 0.675059 0.790949
vt 0.675059 0.641337
vt 0.665552 0.791812
vt 0.623840 0.791812
vt 0.623840 0.628878
vt 0.665552 0.630074
vt 0.264648 0.576089
vt 0.075067 0.599825
vt 0.150106 0.632839
vt 0.212450 0.632839
vt 0.520917 0.630113
vt 0.587997 0.600710
vt 0.397118 0.578035
vt 0.445197 0.630113
vt 0.558610 0.644415
vt 0.558610 0.721345
vt 0.011251 0.721345
vt 0.011250 0.644415
vt 0.620075 0.882253
vt 0.620075 0.807789
vt 0.716866 0.807789
vt 0.716866 0.882253
vt 0.558610 0.735347
vt 0.558610 0.812277
vt 0.011250 0.812277
vt 0.011250 0.735346
vt 0.620034 0.971609
vt 0.620034 0.896025
vt 0.718201 0.896025
vt 0.718201 0.971609
vt 0.558610 0.826175
vt 0.558610 0.903819
vt 0.011250 0.903819
vt 0.011251 0.826176
vt 0.558610 0.914325
vt 0.558610 0.991969
vt 0.011250 0.991969
vt 0.011250 0.914325
vn 0.231581 0.077926 -0.969689
vn 0.074446 -0.212555 -0.974309
vn -0.782028 0.050819 0.621168
vn -0.882516 -0.193223 0.428754
vn -0.497121 -0.090492 0.862950
vn -0.506935 -0.003840 0.861976
vn -0.557776 -0.077518 0.826363
vn -0.559481 0.106264 0.822003
vn -0.425552 0.538698 0.727125
vn 0.539341 0.092881 -0.836949
vn 0.527194 0.461647 -0.713406
vn 0.603531 -0.089086 -0.792347
vn 0.609129 -0.005315 -0.793054
vn -0.651013 0.110613 0.750964
vn 0.439476 0.106658 -0.891900
vn 0.543804 -0.068547 -0.836408
vn 0.500356 -0.093103 -0.860799
vn -0.598977 -0.099215 0.794596
vn 0.957698 -0.075681 -0.277644
vn -0.110154 -0.109056 -0.987913
vn 0.953244 0.109056 -0.281837
vn -0.115747 0.075681 -0.990391
vn 0.110155 0.109056 0.987913
vn -0.957698 0.075681 0.277644
vn 0.115747 -0.075681 0.990391
vn -0.953244 -0.109056 0.281837
f 3/2/1 13/3/2 4/1/3
f 4/1/3 13/3/2 14/4/4
f 10/6/5 12/7/6 16/5/7
f 16/5/7 12/7/6 6/8/8
f 2/9/9 6/8/8 12/7/6
f 5/11/10 6/12/8 1/10/11
f 1/10/11 6/12/8 2/13/9
f 9/15/12 11/16/13 10/14/5
f 10/14/5 11/16/13 12/17/6
f 2/19/9 12/20/6 1/18/11
f 1/18/11 12/20/6 11/21/13
f 4/23/3 8/24/14 3/22/1
f 3/22/1 8/24/14 7/25/15
f 7/27/15 8/28/14 5/26/10
f 5/26/10 8/28/14 6/29/8
f 9/31/12 15/32/16 11/30/13
f 11/30/13 15/32/16 5/33/10
f 1/34/11 11/30/13 5/33/10
f 15/36/16 9/37/12 16/35/7
f 16/35/7 9/37/12 10/38/5
f 13/39/2 18/40/17 14/42/4
f 14/42/4 18/40/17 17/41/18
f 16/44/7 17/45/18 15/43/16
f 15/43/16 17/45/18 18/46/17
f 16/5/7 6/8/8 17/47/18
f 17/47/18 6/8/8 8/48/14
f 8/48/14 4/49/3 17/47/18
f 17/47/18 4/49/3 14/50/4
f 7/52/15 18/53/17 3/51/1
f 3/51/1 18/53/17 13/54/2
f 15/32/16 18/53/17 5/33/10
f 5/33/10 18/53/17 7/52/15
f 19/55/19 20/56/20 21/58/21
f 21/58/21 20/56/20 22/57/22
f 21/59/21 22/60/22 23/62/23
f 23/62/23 22/60/22 24/61/24
f 23/63/23 24/64/24 25/66/25
f 25/66/25 24/64/24 26/65/26
f 25/67/25 26/68/26 19/70/19
f 19/70/19 26/68/26 20/69/20
f 20/71/20 26/72/26 22/74/22
f 22/74/22 26/72/26 24/73/24
f 25/75/25 19/76/19 23/78/23
f 23/78/23 19/76/19 21/77/21
