# This file uses centimeters as units for non-parametric coordinates.

v 247.013187 177.997715 -199.450426
v 239.358894 178.883898 -202.768650
v 231.388110 178.074606 -199.685417
v 246.964161 187.657151 -201.708542
v 239.327376 187.374821 -206.120382
v 231.228233 186.947480 -203.182223
v 246.257936 196.642830 -198.253793
v 238.890634 196.771423 -203.748603
v 230.169661 196.725321 -200.234852
v 247.174154 197.561660 -191.810375
v 237.677949 201.410259 -192.622742
v 227.440961 198.091560 -193.323040
v 245.354992 197.093871 -185.673744
v 236.610841 197.328067 -181.473334
v 228.549398 196.817603 -186.243678
v 245.377064 187.934261 -181.705405
v 237.056943 187.358796 -178.887789
v 228.998404 187.096350 -182.741857
v 245.496936 178.035729 -184.383408
v 237.492069 176.953488 -182.003906
v 230.215615 177.292638 -185.524182
v 247.783973 178.560649 -191.737371
v 238.554673 174.686993 -192.384669
v 227.775461 176.146506 -193.431107
v 224.846010 186.627759 -193.841820
v 251.328167 188.101484 -191.360841
v 240.993596 153.856380 -193.211531
v 238.312952 153.726086 -193.403716
v 240.508346 176.875892 -193.981891
v 237.004624 176.705134 -194.295218
v 240.265294 176.885225 -191.126531
v 236.776346 176.713900 -191.613435
v 240.931628 157.477505 -190.120456
v 237.498803 157.309554 -190.515520
v 240.771154 153.867596 -190.235069
v 238.010364 153.732552 -190.549003
v 239.725344 152.533361 -193.427206
v 238.756485 176.790513 -194.138558
v 238.520820 176.799563 -191.369980
v 241.149011 157.464329 -193.330176
v 237.823223 157.302614 -193.577180
v 240.277348 170.384999 -193.631524
v 237.636642 170.256178 -193.884347
v 239.497634 157.382922 -193.603473
v 238.966350 170.320158 -193.877474
v 238.721632 170.330559 -190.866327
v 239.188031 157.394417 -190.019827
v 239.419546 152.543260 -190.085314
v 237.417104 170.264853 -191.272083
v 240.068634 170.394525 -190.974281
vt 0.037013 0.861564
vt 0.027355 0.734793
vt 0.167650 0.890199
vt 0.167663 0.732067
vt 0.037013 0.611436
vt 0.167650 0.578459
vt 0.308569 0.734793
vt 0.298287 0.861564
vt 0.298287 0.611436
vt 0.639004 0.710387
vt 0.820067 0.707662
vt 0.694973 0.837159
vt 0.818259 0.888097
vt 0.692217 0.587031
vt 0.818675 0.533981
vt 0.940611 0.833378
vt 0.989729 0.706763
vt 0.943170 0.584589
vt 0.039763 0.516572
vt 0.029481 0.389957
vt 0.170401 0.547293
vt 0.170388 0.390856
vt 0.039763 0.267783
vt 0.170401 0.236600
vt 0.310695 0.389957
vt 0.301038 0.516572
vt 0.301038 0.267783
vt 0.315210 0.563716
vt 0.485193 0.564615
vt 0.364648 0.690331
vt 0.487000 0.745418
vt 0.362089 0.441542
vt 0.486585 0.390647
vt 0.610287 0.694112
vt 0.666549 0.567340
vt 0.613042 0.443983
vt 0.669370 0.335160
vt 0.682481 0.210664
vt 0.813203 0.333768
vt 0.813119 0.164276
vt 0.682481 0.461616
vt 0.813119 0.502622
vt 0.943756 0.210664
vt 0.957716 0.335160
vt 0.943756 0.461616
vt 0.633569 0.199173
vt 0.489735 0.197365
vt 0.620457 0.076820
vt 0.489820 0.030007
vt 0.620457 0.322459
vt 0.489820 0.365233
vt 0.359183 0.076820
vt 0.345223 0.199173
vt 0.359183 0.322459
vt 0.654607 0.113820
vt 0.654607 0.075817
vt 0.732044 0.112337
vt 0.732044 0.080588
vt 0.732044 0.144086
vt 0.654607 0.151822
vt 0.886920 0.085291
vt 0.886920 0.110666
vt 0.964357 0.085223
vt 0.964358 0.110477
vt 0.964358 0.135731
vt 0.886920 0.136041
vt 0.027867 0.081350
vt 0.105305 0.081417
vt 0.027867 0.106604
vt 0.105305 0.106959
vt 0.260181 0.075281
vt 0.260181 0.108399
vt 0.260181 0.141517
vt 0.105305 0.132501
vt 0.027867 0.131859
vt 0.337618 0.069079
vt 0.337618 0.109485
vt 0.337619 0.149891
vt 0.131509 0.230883
vt 0.088308 0.232280
vt 0.134767 0.170666
vt 0.088833 0.168174
vt 0.045106 0.233677
vt 0.042899 0.165682
vt 0.411757 0.801450
vt 0.334319 0.801070
vt 0.411757 0.751434
vt 0.334319 0.748101
vt 0.644071 0.808110
vt 0.566633 0.804971
vt 0.644071 0.769496
vt 0.566633 0.762132
vt 0.334089 0.893362
vt 0.334089 0.833551
vt 0.411527 0.887959
vt 0.411527 0.834764
vt 0.566402 0.876430
vt 0.566402 0.832583
vt 0.643841 0.829190
vt 0.643840 0.870303
vn 0.682989 -0.586387 -0.435518
vn 0.049761 -0.565384 -0.823325
vn 0.672784 0.031159 -0.739183
vn 0.091005 -0.061143 -0.993972
vn -0.496654 -0.594328 -0.632542
vn -0.530426 -0.071973 -0.844670
vn 0.088528 0.535061 -0.840162
vn 0.689314 0.590912 -0.419129
vn -0.606712 0.517717 -0.603216
vn 0.028841 0.999344 -0.021905
vn 0.711558 0.702052 0.028439
vn -0.757776 0.646633 -0.087414
vn 0.614192 0.612312 0.497837
vn -0.056389 0.553313 0.831063
vn -0.716247 0.534065 0.449182
vn 0.546799 0.036307 0.836477
vn -0.059904 -0.020394 0.997996
vn -0.659757 -0.040090 0.750409
vn -0.031491 -0.570526 0.820676
vn 0.643876 -0.588368 0.489129
vn -0.636759 -0.611547 0.469627
vn 0.077819 -0.995538 -0.053365
vn 0.734645 -0.674188 0.075945
vn -0.667473 -0.734268 -0.123817
vn -0.991698 -0.048108 -0.119254
vn 0.996004 0.044345 0.077527
vn 0.086841 -0.804469 -0.587613
vn -0.721595 -0.290810 -0.628275
vn 0.080100 -0.028234 -0.996387
vn -0.793131 -0.064046 -0.605674
vn 0.883160 0.012682 -0.468901
vn 0.840073 -0.219671 -0.496007
vn -0.560861 -0.070083 -0.824938
vn 0.096417 -0.027044 -0.994974
vn -0.636012 -0.110970 -0.763659
vn 0.094250 -0.046323 -0.994470
vn 0.765890 -0.061794 -0.639995
vn 0.698074 -0.020471 -0.715733
vn -0.929676 -0.073051 0.361063
vn -0.817328 0.005590 0.576146
vn -0.126939 0.053088 0.990489
vn -0.148441 0.064801 0.986796
vn -0.829890 -0.050794 0.555610
vn -0.085803 0.010195 0.996260
vn 0.815253 0.004904 0.579084
vn 0.586857 0.068385 0.806798
vn 0.848938 -0.014546 0.528293
vn -0.763015 -0.442293 0.471365
vn -0.060785 -0.573360 0.817046
vn 0.691614 -0.383190 0.612237
f 1/1/1 2/2/2 4/3/3
f 4/3/3 2/2/2 5/4/4
f 3/5/5 6/6/6 2/2/2
f 2/2/2 6/6/6 5/4/4
f 5/4/4 8/7/7 4/3/3
f 4/3/3 8/7/7 7/8/8
f 5/4/4 6/6/6 8/7/7
f 8/7/7 6/6/6 9/9/9
f 8/10/7 11/11/10 7/12/8
f 7/12/8 11/11/10 10/13/11
f 8/10/7 9/14/9 11/11/10
f 11/11/10 9/14/9 12/15/12
f 10/13/11 11/11/10 13/16/13
f 13/16/13 11/11/10 14/17/14
f 12/15/12 15/18/15 11/11/10
f 11/11/10 15/18/15 14/17/14
f 13/19/13 14/20/14 16/21/16
f 16/21/16 14/20/14 17/22/17
f 15/23/15 18/24/18 14/20/14
f 14/20/14 18/24/18 17/22/17
f 17/22/17 20/25/19 16/21/16
f 16/21/16 20/25/19 19/26/20
f 17/22/17 18/24/18 20/25/19
f 20/25/19 18/24/18 21/27/21
f 20/28/19 23/29/22 19/30/20
f 19/30/20 23/29/22 22/31/23
f 20/28/19 21/32/21 23/29/22
f 23/29/22 21/32/21 24/33/24
f 22/31/23 23/29/22 1/34/1
f 1/34/1 23/29/22 2/35/2
f 24/33/24 3/36/5 23/29/22
f 23/29/22 3/36/5 2/35/2
f 24/37/24 21/38/21 25/39/25
f 25/39/25 21/38/21 18/40/18
f 24/37/24 25/39/25 3/41/5
f 3/41/5 25/39/25 6/42/6
f 18/40/18 15/43/15 25/39/25
f 25/39/25 15/43/15 12/44/12
f 6/42/6 25/39/25 9/45/9
f 9/45/9 25/39/25 12/44/12
f 22/46/23 26/47/26 19/48/20
f 19/48/20 26/47/26 16/49/16
f 22/46/23 1/50/1 26/47/26
f 26/47/26 1/50/1 4/51/3
f 16/49/16 26/47/26 13/52/13
f 13/52/13 26/47/26 10/53/11
f 4/51/3 7/54/8 26/47/26
f 26/47/26 7/54/8 10/53/11
f 37/55/27 28/56/28 44/57/29
f 44/57/29 28/56/28 41/58/30
f 40/59/31 27/60/32 44/57/29
f 44/57/29 27/60/32 37/55/27
f 41/58/30 43/61/33 44/57/29
f 44/57/29 43/61/33 45/62/34
f 30/63/35 38/64/36 43/61/33
f 43/61/33 38/64/36 45/62/34
f 29/65/37 42/66/38 38/64/36
f 38/64/36 42/66/38 45/62/34
f 40/59/31 44/57/29 42/66/38
f 42/66/38 44/57/29 45/62/34
f 32/67/39 49/68/40 39/69/41
f 39/69/41 49/68/40 46/70/42
f 49/68/40 34/71/43 46/70/42
f 46/70/42 34/71/43 47/72/44
f 33/73/45 50/74/46 47/72/44
f 47/72/44 50/74/46 46/70/42
f 31/75/47 39/69/41 50/74/46
f 50/74/46 39/69/41 46/70/42
f 34/71/43 36/76/48 47/72/44
f 47/72/44 36/76/48 48/77/49
f 48/77/49 35/78/50 47/72/44
f 47/72/44 35/78/50 33/73/45
f 28/79/28 37/80/27 36/81/48
f 36/81/48 37/80/27 48/82/49
f 27/83/32 35/84/50 37/80/27
f 37/80/27 35/84/50 48/82/49
f 41/85/30 28/86/28 34/87/43
f 34/87/43 28/86/28 36/88/48
f 30/89/35 43/90/33 32/91/39
f 32/91/39 43/90/33 49/92/40
f 43/90/33 41/85/30 49/92/40
f 49/92/40 41/85/30 34/87/43
f 35/93/50 27/94/32 33/95/45
f 33/95/45 27/94/32 40/96/31
f 33/95/45 40/96/31 50/97/46
f 50/97/46 40/96/31 42/98/38
f 29/99/37 31/100/47 42/98/38
f 42/98/38 31/100/47 50/97/46
