# This file uses centimeters as units for non-parametric coordinates.

v 137.987460 191.878957 -85.570209
v 143.956363 192.349318 -83.357974
v 149.876615 191.834843 -86.075505
v 138.180802 199.116037 -83.539791
v 144.177114 198.645586 -80.535002
v 150.203555 198.413868 -83.135447
v 138.620635 206.110293 -85.897664
v 144.461747 205.902078 -82.045312
v 150.938094 205.984177 -85.097496
v 137.648624 207.122692 -90.719027
v 144.926180 209.954934 -90.392552
v 152.719253 207.337910 -90.419809
v 138.761206 207.049980 -95.473289
v 145.226900 207.377951 -99.038572
v 151.560314 206.714380 -95.787776
v 138.516761 200.274667 -98.786835
v 144.715563 199.923250 -101.310348
v 151.008294 199.492144 -98.746890
v 138.483370 192.619982 -97.074500
v 144.458600 191.864070 -99.268238
v 150.145809 191.910986 -96.904030
v 137.068523 192.680623 -91.373603
v 144.089924 189.650013 -91.415107
v 152.338796 190.646799 -91.045988
v 154.646233 198.580383 -90.517555
v 134.414650 199.974590 -91.189511
v 142.147638 173.784274 -91.366444
v 144.193108 173.660326 -91.342558
v 142.687409 191.249530 -90.044579
v 145.363644 191.084204 -89.966210
v 142.747730 191.391841 -92.222759
v 145.420298 191.217863 -92.011968
v 142.081557 176.685472 -93.596631
v 144.707474 176.518783 -93.452995
v 142.187021 173.933930 -93.635581
v 144.298704 173.800076 -93.522940
v 143.113299 172.760462 -91.301979
v 144.025526 191.166867 -90.005395
v 144.084014 191.304852 -92.117363
v 142.056179 176.523132 -91.150679
v 144.594302 176.368897 -91.114555
v 142.809025 186.329012 -90.534556
v 144.826796 186.203516 -90.462828
v 143.323011 176.438497 -91.018405
v 143.816006 186.260271 -90.407539
v 143.870811 186.410837 -92.704020
v 143.402181 176.616912 -93.752343
v 143.200108 172.926116 -93.852258
v 144.879832 186.333830 -92.455426
v 142.851886 186.462188 -92.560794
vt 0.037013 0.861564
vt 0.027355 0.734793
vt 0.167650 0.890199
vt 0.167663 0.732067
vt 0.037013 0.611436
vt 0.167650 0.578459
vt 0.308569 0.734793
vt 0.298287 0.861564
vt 0.298287 0.611436
vt 0.639004 0.710387
vt 0.820067 0.707662
vt 0.694973 0.837159
vt 0.818259 0.888097
vt 0.692217 0.587031
vt 0.818675 0.533981
vt 0.940611 0.833378
vt 0.989729 0.706763
vt 0.943170 0.584589
vt 0.039763 0.516572
vt 0.029481 0.389957
vt 0.170401 0.547293
vt 0.170388 0.390856
vt 0.039763 0.267783
vt 0.170401 0.236600
vt 0.310695 0.389957
vt 0.301038 0.516572
vt 0.301038 0.267783
vt 0.315210 0.563716
vt 0.485193 0.564615
vt 0.364648 0.690331
vt 0.487000 0.745418
vt 0.362089 0.441542
vt 0.486585 0.390647
vt 0.610287 0.694112
vt 0.666549 0.567340
vt 0.613042 0.443983
vt 0.669370 0.335160
vt 0.682481 0.210664
vt 0.813203 0.333768
vt 0.813119 0.164276
vt 0.682481 0.461616
vt 0.813119 0.502622
vt 0.943756 0.210664
vt 0.957716 0.335160
vt 0.943756 0.461616
vt 0.633569 0.199173
vt 0.489735 0.197365
vt 0.620457 0.076820
vt 0.489820 0.030007
vt 0.620457 0.322459
vt 0.489820 0.365233
vt 0.359183 0.076820
vt 0.345223 0.199173
vt 0.359183 0.322459
vt 0.654607 0.113820
vt 0.654607 0.075817
vt 0.732044 0.112337
vt 0.732044 0.080588
vt 0.732044 0.144086
vt 0.654607 0.151822
vt 0.886920 0.085291
vt 0.886920 0.110666
vt 0.964357 0.085223
vt 0.964358 0.110477
vt 0.964358 0.135731
vt 0.886920 0.136041
vt 0.027867 0.081350
vt 0.105305 0.081417
vt 0.027867 0.106604
vt 0.105305 0.106959
vt 0.260181 0.075281
vt 0.260181 0.108399
vt 0.260181 0.141517
vt 0.105305 0.132501
vt 0.027867 0.131859
vt 0.337618 0.069079
vt 0.337618 0.109485
vt 0.337619 0.149891
vt 0.131509 0.230883
vt 0.088308 0.232280
vt 0.134767 0.170666
vt 0.088833 0.168174
vt 0.045106 0.233677
vt 0.042899 0.165682
vt 0.411757 0.801450
vt 0.334319 0.801070
vt 0.411757 0.751434
vt 0.334319 0.748101
vt 0.644071 0.808110
vt 0.566633 0.804971
vt 0.644071 0.769496
vt 0.566633 0.762132
vt 0.334089 0.893362
vt 0.334089 0.833551
vt 0.411527 0.887959
vt 0.411527 0.834764
vt 0.566402 0.876430
vt 0.566402 0.832583
vt 0.643841 0.829190
vt 0.643840 0.870303
vn -0.666049 -0.603231 0.438739
vn -0.008989 -0.605701 0.795641
vn -0.628839 0.002445 0.777532
vn -0.034678 -0.104110 0.993961
vn 0.529526 -0.628728 0.569476
vn 0.578013 -0.111739 0.808341
vn -0.033951 0.493994 0.868802
vn -0.654899 0.573208 0.492484
vn 0.641787 0.484208 0.594687
vn -0.016253 0.996191 0.085672
vn -0.704956 0.706998 0.056489
vn 0.766902 0.636306 0.083521
vn -0.639012 0.640723 -0.425603
vn 0.015080 0.593780 -0.804486
vn 0.697848 0.551083 -0.457510
vn -0.593942 0.075747 -0.800934
vn 0.002426 0.022866 -0.999736
vn 0.615022 -0.010801 -0.788436
vn -0.021797 -0.529419 -0.848080
vn -0.673086 -0.559159 -0.484042
vn 0.599053 -0.590791 -0.540464
vn -0.085879 -0.996296 -0.004324
vn -0.743570 -0.664420 -0.075162
vn 0.666879 -0.744129 0.039309
vn 0.996556 -0.058546 0.058717
vn -0.998449 0.052986 -0.017091
vn -0.062663 -0.835783 0.545472
vn 0.756227 -0.323015 0.569019
vn -0.023251 -0.071315 0.997183
vn 0.826637 -0.094717 0.554707
vn -0.854650 -0.003089 0.519195
vn -0.814111 -0.236933 0.530176
vn 0.607294 -0.109141 0.786945
vn -0.039622 -0.069975 0.996762
vn 0.678830 -0.147838 0.719260
vn -0.037716 -0.089267 0.995293
vn -0.729211 -0.085619 0.678911
vn -0.656416 -0.047974 0.752872
vn 0.906317 -0.062129 -0.418007
vn 0.783137 0.026371 -0.621290
vn 0.070705 0.095693 -0.992897
vn 0.092564 0.107152 -0.989924
vn 0.795819 -0.030891 -0.604746
vn 0.028743 0.053230 -0.998168
vn -0.847201 0.034522 -0.530150
vn -0.632227 0.106782 -0.767390
vn -0.877914 0.013054 -0.478640
vn 0.727378 -0.423793 -0.539741
vn 0.007366 -0.532551 -0.846366
vn -0.726202 -0.350503 -0.591420
f 1/1/1 2/2/2 4/3/3
f 4/3/3 2/2/2 5/4/4
f 3/5/5 6/6/6 2/2/2
f 2/2/2 6/6/6 5/4/4
f 5/4/4 8/7/7 4/3/3
f 4/3/3 8/7/7 7/8/8
f 5/4/4 6/6/6 8/7/7
f 8/7/7 6/6/6 9/9/9
f 8/10/7 11/11/10 7/12/8
f 7/12/8 11/11/10 10/13/11
f 8/10/7 9/14/9 11/11/10
f 11/11/10 9/14/9 12/15/12
f 10/13/11 11/11/10 13/16/13
f 13/16/13 11/11/10 14/17/14
f 12/15/12 15/18/15 11/11/10
f 11/11/10 15/18/15 14/17/14
f 13/19/13 14/20/14 16/21/16
f 16/21/16 14/20/14 17/22/17
f 15/23/15 18/24/18 14/20/14
f 14/20/14 18/24/18 17/22/17
f 17/22/17 20/25/19 16/21/16
f 16/21/16 20/25/19 19/26/20
f 17/22/17 18/24/18 20/25/19
f 20/25/19 18/24/18 21/27/21
f 20/28/19 23/29/22 19/30/20
f 19/30/20 23/29/22 22/31/23
f 20/28/19 21/32/21 23/29/22
f 23/29/22 21/32/21 24/33/24
f 22/31/23 23/29/22 1/34/1
f 1/34/1 23/29/22 2/35/2
f 24/33/24 3/36/5 23/29/22
f 23/29/22 3/36/5 2/35/2
f 24/37/24 21/38/21 25/39/25
f 25/39/25 21/38/21 18/40/18
f 24/37/24 25/39/25 3/41/5
f 3/41/5 25/39/25 6/42/6
f 18/40/18 15/43/15 25/39/25
f 25/39/25 15/43/15 12/44/12
f 6/42/6 25/39/25 9/45/9
f 9/45/9 25/39/25 12/44/12
f 22/46/23 26/47/26 19/48/20
f 19/48/20 26/47/26 16/49/16
f 22/46/23 1/50/1 26/47/26
f 26/47/26 1/50/1 4/51/3
f 16/49/16 26/47/26 13/52/13
f 13/52/13 26/47/26 10/53/11
f 4/51/3 7/54/8 26/47/26
f 26/47/26 7/54/8 10/53/11
f 37/55/27 28/56/28 44/57/29
f 44/57/29 28/56/28 41/58/30
f 40/59/31 27/60/32 44/57/29
f 44/57/29 27/60/32 37/55/27
f 41/58/30 43/61/33 44/57/29
f 44/57/29 43/61/33 45/62/34
f 30/63/35 38/64/36 43/61/33
f 43/61/33 38/64/36 45/62/34
f 29/65/37 42/66/38 38/64/36
f 38/64/36 42/66/38 45/62/34
f 40/59/31 44/57/29 42/66/38
f 42/66/38 44/57/29 45/62/34
f 32/67/39 49/68/40 39/69/41
f 39/69/41 49/68/40 46/70/42
f 49/68/40 34/71/43 46/70/42
f 46/70/42 34/71/43 47/72/44
f 33/73/45 50/74/46 47/72/44
f 47/72/44 50/74/46 46/70/42
f 31/75/47 39/69/41 50/74/46
f 50/74/46 39/69/41 46/70/42
f 34/71/43 36/76/48 47/72/44
f 47/72/44 36/76/48 48/77/49
f 48/77/49 35/78/50 47/72/44
f 47/72/44 35/78/50 33/73/45
f 28/79/28 37/80/27 36/81/48
f 36/81/48 37/80/27 48/82/49
f 27/83/32 35/84/50 37/80/27
f 37/80/27 35/84/50 48/82/49
f 41/85/30 28/86/28 34/87/43
f 34/87/43 28/86/28 36/88/48
f 30/89/35 43/90/33 32/91/39
f 32/91/39 43/90/33 49/92/40
f 43/90/33 41/85/30 49/92/40
f 49/92/40 41/85/30 34/87/43
f 35/93/50 27/94/32 33/95/45
f 33/95/45 27/94/32 40/96/31
f 33/95/45 40/96/31 50/97/46
f 50/97/46 40/96/31 42/98/38
f 29/99/37 31/100/47 42/98/38
f 42/98/38 31/100/47 50/97/46
