# This file uses centimeters as units for non-parametric coordinates.

v -80.682114 160.052258 -270.508026
v -75.482811 161.747571 -263.859657
v -66.790123 162.141895 -262.831837
v -82.665390 169.727775 -268.501389
v -77.886076 170.170290 -260.866853
v -69.184956 170.960290 -259.648911
v -81.277918 179.142618 -271.336573
v -77.295494 179.903166 -262.855058
v -67.800888 181.194712 -261.862131
v -79.128216 180.337397 -277.599132
v -71.379028 185.426044 -272.351313
v -62.204337 183.343736 -266.809096
v -74.534477 180.461438 -282.269798
v -64.720469 182.081056 -281.887601
v -59.708189 182.325898 -273.725081
v -71.763669 171.397806 -285.811096
v -62.907049 172.059001 -284.377855
v -57.486438 172.609356 -277.045721
v -72.166052 161.178520 -283.392023
v -63.750269 161.258643 -281.710739
v -58.931766 162.337878 -275.057197
v -77.763485 160.979809 -277.845745
v -69.412407 158.206819 -272.829545
v -60.387968 161.023416 -266.743498
v -58.991573 172.015596 -265.034133
v -81.705105 170.224994 -279.934505
v -69.934773 136.702158 -273.126569
v -67.609457 136.906060 -271.671638
v -72.139546 160.080461 -272.333032
v -69.129730 160.342832 -270.375259
v -70.565586 160.290319 -274.795864
v -67.651455 160.539932 -272.688370
v -68.767948 140.567847 -275.909824
v -65.860832 140.819042 -273.912108
v -68.321935 136.918416 -275.708628
v -65.982142 137.120687 -274.105419
v -68.769320 135.511163 -272.318205
v -70.634638 160.211646 -271.354146
v -69.108519 160.415126 -273.742120
v -70.486907 140.336459 -273.114661
v -67.606023 140.588864 -271.301846
v -71.124753 153.543955 -272.501332
v -68.864207 153.740589 -271.010717
v -69.127922 140.451752 -272.078464
v -70.059629 153.633553 -271.652526
v -68.410253 153.853923 -274.255266
v -67.148408 140.715504 -275.167275
v -66.907949 135.758503 -275.190476
v -67.426795 153.932353 -273.265218
v -69.675752 153.737839 -274.801626
vt 0.037013 0.861564
vt 0.027355 0.734793
vt 0.167650 0.890199
vt 0.167663 0.732067
vt 0.037013 0.611436
vt 0.167650 0.578459
vt 0.308569 0.734793
vt 0.298287 0.861564
vt 0.298287 0.611436
vt 0.639004 0.710387
vt 0.820067 0.707662
vt 0.694973 0.837159
vt 0.818259 0.888097
vt 0.692217 0.587031
vt 0.818675 0.533981
vt 0.940611 0.833378
vt 0.989729 0.706763
vt 0.943170 0.584589
vt 0.039763 0.516572
vt 0.029481 0.389957
vt 0.170401 0.547293
vt 0.170388 0.390856
vt 0.039763 0.267783
vt 0.170401 0.236600
vt 0.310695 0.389957
vt 0.301038 0.516572
vt 0.301038 0.267783
vt 0.315210 0.563716
vt 0.485193 0.564615
vt 0.364648 0.690331
vt 0.487000 0.745418
vt 0.362089 0.441542
vt 0.486585 0.390647
vt 0.610287 0.694112
vt 0.666549 0.567340
vt 0.613042 0.443983
vt 0.669370 0.335160
vt 0.682481 0.210664
vt 0.813203 0.333768
vt 0.813119 0.164276
vt 0.682481 0.461616
vt 0.813119 0.502622
vt 0.943756 0.210664
vt 0.957716 0.335160
vt 0.943756 0.461616
vt 0.633569 0.199173
vt 0.489735 0.197365
vt 0.620457 0.076820
vt 0.489820 0.030007
vt 0.620457 0.322459
vt 0.489820 0.365233
vt 0.359183 0.076820
vt 0.345223 0.199173
vt 0.359183 0.322459
vt 0.654607 0.113820
vt 0.654607 0.075817
vt 0.732044 0.112337
vt 0.732044 0.080588
vt 0.732044 0.144086
vt 0.654607 0.151822
vt 0.886920 0.085291
vt 0.886920 0.110666
vt 0.964357 0.085223
vt 0.964358 0.110477
vt 0.964358 0.135731
vt 0.886920 0.136041
vt 0.027867 0.081350
vt 0.105305 0.081417
vt 0.027867 0.106604
vt 0.105305 0.106959
vt 0.260181 0.075281
vt 0.260181 0.108399
vt 0.260181 0.141517
vt 0.105305 0.132501
vt 0.027867 0.131859
vt 0.337618 0.069079
vt 0.337618 0.109485
vt 0.337619 0.149891
vt 0.131509 0.230883
vt 0.088308 0.232280
vt 0.134767 0.170666
vt 0.088833 0.168174
vt 0.045106 0.233677
vt 0.042899 0.165682
vt 0.411757 0.801450
vt 0.334319 0.801070
vt 0.411757 0.751434
vt 0.334319 0.748101
vt 0.644071 0.808110
vt 0.566633 0.804971
vt 0.644071 0.769496
vt 0.566633 0.762132
vt 0.334089 0.893362
vt 0.334089 0.833551
vt 0.411527 0.887959
vt 0.411527 0.834764
vt 0.566402 0.876430
vt 0.566402 0.832583
vt 0.643841 0.829190
vt 0.643840 0.870303
vn -0.735353 -0.673857 0.071924
vn -0.350933 -0.604265 0.715339
vn -0.939079 -0.058072 0.338759
vn -0.534606 -0.108896 0.838056
vn 0.223138 -0.568717 0.791688
vn 0.082644 -0.058683 0.994850
vn -0.537492 0.484945 0.689877
vn -0.865236 0.499558 0.042517
vn 0.180924 0.546706 0.817545
vn -0.173846 0.984770 -0.002313
vn -0.695542 0.623692 -0.356693
vn 0.543977 0.718191 0.433924
vn -0.388861 0.568415 -0.725046
vn 0.362153 0.593118 -0.719066
vn 0.778530 0.623924 -0.067894
vn -0.095872 0.021506 -0.995161
vn 0.519608 0.025141 -0.854035
vn 0.933768 0.048483 -0.354579
vn 0.484133 -0.525871 -0.699340
vn -0.257959 -0.626993 -0.735076
vn 0.845716 -0.522128 -0.110215
vn 0.045519 -0.998783 0.018977
vn -0.524917 -0.744558 -0.412427
vn 0.619227 -0.663471 0.419957
vn 0.821369 0.034789 0.569336
vn -0.844171 -0.040589 -0.534535
vn -0.239760 -0.838109 0.489987
vn 0.379742 -0.249326 0.890861
vn -0.530356 -0.075233 0.844430
vn 0.422934 -0.018065 0.905980
vn -0.996449 -0.084192 0.001460
vn -0.947688 -0.315568 0.047992
vn 0.118246 -0.053330 0.991551
vn -0.544210 -0.075434 0.835551
vn 0.218201 -0.084784 0.972214
vn -0.539599 -0.094429 0.836610
vn -0.965497 -0.155268 0.209061
vn -0.945145 -0.110895 0.307252
vn 0.992964 0.023842 0.115987
vn 0.986692 0.100948 -0.127470
vn 0.565682 0.103909 -0.818050
vn 0.581434 0.117353 -0.805085
vn 0.993696 0.044997 -0.102685
vn 0.537628 0.057774 -0.841200
vn -0.447019 -0.043697 -0.893456
vn -0.149239 0.048623 -0.987605
vn -0.497795 -0.068073 -0.864619
vn 0.935952 -0.347738 -0.055425
vn 0.508005 -0.525925 -0.682154
vn -0.270490 -0.419416 -0.866560
f 1/1/1 2/2/2 4/3/3
f 4/3/3 2/2/2 5/4/4
f 3/5/5 6/6/6 2/2/2
f 2/2/2 6/6/6 5/4/4
f 5/4/4 8/7/7 4/3/3
f 4/3/3 8/7/7 7/8/8
f 5/4/4 6/6/6 8/7/7
f 8/7/7 6/6/6 9/9/9
f 8/10/7 11/11/10 7/12/8
f 7/12/8 11/11/10 10/13/11
f 8/10/7 9/14/9 11/11/10
f 11/11/10 9/14/9 12/15/12
f 10/13/11 11/11/10 13/16/13
f 13/16/13 11/11/10 14/17/14
f 12/15/12 15/18/15 11/11/10
f 11/11/10 15/18/15 14/17/14
f 13/19/13 14/20/14 16/21/16
f 16/21/16 14/20/14 17/22/17
f 15/23/15 18/24/18 14/20/14
f 14/20/14 18/24/18 17/22/17
f 17/22/17 20/25/19 16/21/16
f 16/21/16 20/25/19 19/26/20
f 17/22/17 18/24/18 20/25/19
f 20/25/19 18/24/18 21/27/21
f 20/28/19 23/29/22 19/30/20
f 19/30/20 23/29/22 22/31/23
f 20/28/19 21/32/21 23/29/22
f 23/29/22 21/32/21 24/33/24
f 22/31/23 23/29/22 1/34/1
f 1/34/1 23/29/22 2/35/2
f 24/33/24 3/36/5 23/29/22
f 23/29/22 3/36/5 2/35/2
f 24/37/24 21/38/21 25/39/25
f 25/39/25 21/38/21 18/40/18
f 24/37/24 25/39/25 3/41/5
f 3/41/5 25/39/25 6/42/6
f 18/40/18 15/43/15 25/39/25
f 25/39/25 15/43/15 12/44/12
f 6/42/6 25/39/25 9/45/9
f 9/45/9 25/39/25 12/44/12
f 22/46/23 26/47/26 19/48/20
f 19/48/20 26/47/26 16/49/16
f 22/46/23 1/50/1 26/47/26
f 26/47/26 1/50/1 4/51/3
f 16/49/16 26/47/26 13/52/13
f 13/52/13 26/47/26 10/53/11
f 4/51/3 7/54/8 26/47/26
f 26/47/26 7/54/8 10/53/11
f 37/55/27 28/56/28 44/57/29
f 44/57/29 28/56/28 41/58/30
f 40/59/31 27/60/32 44/57/29
f 44/57/29 27/60/32 37/55/27
f 41/58/30 43/61/33 44/57/29
f 44/57/29 43/61/33 45/62/34
f 30/63/35 38/64/36 43/61/33
f 43/61/33 38/64/36 45/62/34
f 29/65/37 42/66/38 38/64/36
f 38/64/36 42/66/38 45/62/34
f 40/59/31 44/57/29 42/66/38
f 42/66/38 44/57/29 45/62/34
f 32/67/39 49/68/40 39/69/41
f 39/69/41 49/68/40 46/70/42
f 49/68/40 34/71/43 46/70/42
f 46/70/42 34/71/43 47/72/44
f 33/73/45 50/74/46 47/72/44
f 47/72/44 50/74/46 46/70/42
f 31/75/47 39/69/41 50/74/46
f 50/74/46 39/69/41 46/70/42
f 34/71/43 36/76/48 47/72/44
f 47/72/44 36/76/48 48/77/49
f 48/77/49 35/78/50 47/72/44
f 47/72/44 35/78/50 33/73/45
f 28/79/28 37/80/27 36/81/48
f 36/81/48 37/80/27 48/82/49
f 27/83/32 35/84/50 37/80/27
f 37/80/27 35/84/50 48/82/49
f 41/85/30 28/86/28 34/87/43
f 34/87/43 28/86/28 36/88/48
f 30/89/35 43/90/33 32/91/39
f 32/91/39 43/90/33 49/92/40
f 43/90/33 41/85/30 49/92/40
f 49/92/40 41/85/30 34/87/43
f 35/93/50 27/94/32 33/95/45
f 33/95/45 27/94/32 40/96/31
f 33/95/45 40/96/31 50/97/46
f 50/97/46 40/96/31 42/98/38
f 29/99/37 31/100/47 42/98/38
f 42/98/38 31/100/47 50/97/46
