# This file uses centimeters as units for non-parametric coordinates.

v 286.403156 178.415368 15.948403
v 292.380934 178.859349 13.906601
v 295.230694 178.302886 8.108678
v 287.830932 185.604186 17.352483
v 294.325680 185.118396 15.907808
v 297.330743 184.842437 10.131957
v 286.697721 192.529686 15.228199
v 293.604546 192.308997 14.531343
v 296.672801 192.339713 8.124510
v 282.929251 193.516440 12.124107
v 288.733780 196.287393 7.799895
v 294.708207 193.647365 2.907914
v 280.805176 193.415315 7.770597
v 283.543876 193.687571 0.974570
v 290.451908 193.009479 -0.491204
v 278.534312 186.678771 5.409343
v 281.720056 186.283460 -0.414757
v 288.166220 185.832939 -2.384847
v 279.574947 179.092675 6.785726
v 282.795054 178.298879 1.357416
v 288.651045 178.325043 -0.388822
v 282.059832 179.188046 12.056810
v 287.431439 176.141919 7.639585
v 294.008112 177.086639 2.748637
v 296.121158 184.947497 1.669048
v 280.140609 186.440331 13.825008
v 285.953799 160.412016 8.974041
v 287.541886 160.277752 7.711071
v 287.213142 177.743244 9.564643
v 289.320475 177.564671 7.948467
v 285.894495 177.873663 7.850847
v 288.081995 177.687161 6.338861
v 284.507818 163.280081 7.285601
v 286.617356 163.100749 5.751164
v 284.562046 160.549403 7.203374
v 286.256676 160.405367 5.967220
v 286.735997 159.391181 8.423556
v 288.266808 177.653958 8.756556
v 286.988244 177.780412 7.094854
v 286.021150 163.130879 9.183545
v 287.995792 162.963878 7.621379
v 286.995161 172.858397 9.136301
v 288.591924 172.722980 7.927499
v 287.078333 163.040479 8.491739
v 287.849205 172.785190 8.603230
v 286.452175 172.923263 6.801863
v 285.425894 163.203949 6.338504
v 285.204529 159.542828 6.406854
v 287.383979 172.842426 6.361060
v 285.758305 172.980578 7.550355
vt 0.037013 0.861564
vt 0.027355 0.734793
vt 0.167650 0.890199
vt 0.167663 0.732067
vt 0.037013 0.611436
vt 0.167650 0.578459
vt 0.308569 0.734793
vt 0.298287 0.861564
vt 0.298287 0.611436
vt 0.639004 0.710387
vt 0.820067 0.707662
vt 0.694973 0.837159
vt 0.818259 0.888097
vt 0.692217 0.587031
vt 0.818675 0.533981
vt 0.940611 0.833378
vt 0.989729 0.706763
vt 0.943170 0.584589
vt 0.039763 0.516572
vt 0.029481 0.389957
vt 0.170401 0.547293
vt 0.170388 0.390856
vt 0.039763 0.267783
vt 0.170401 0.236600
vt 0.310695 0.389957
vt 0.301038 0.516572
vt 0.301038 0.267783
vt 0.315210 0.563716
vt 0.485193 0.564615
vt 0.364648 0.690331
vt 0.487000 0.745418
vt 0.362089 0.441542
vt 0.486585 0.390647
vt 0.610287 0.694112
vt 0.666549 0.567340
vt 0.613042 0.443983
vt 0.669370 0.335160
vt 0.682481 0.210664
vt 0.813203 0.333768
vt 0.813119 0.164276
vt 0.682481 0.461616
vt 0.813119 0.502622
vt 0.943756 0.210664
vt 0.957716 0.335160
vt 0.943756 0.461616
vt 0.633569 0.199173
vt 0.489735 0.197365
vt 0.620457 0.076820
vt 0.489820 0.030007
vt 0.620457 0.322459
vt 0.489820 0.365233
vt 0.359183 0.076820
vt 0.345223 0.199173
vt 0.359183 0.322459
vt 0.654607 0.113820
vt 0.654607 0.075817
vt 0.732044 0.112337
vt 0.732044 0.080588
vt 0.732044 0.144086
vt 0.654607 0.151822
vt 0.886920 0.085291
vt 0.886920 0.110666
vt 0.964357 0.085223
vt 0.964358 0.110477
vt 0.964358 0.135731
vt 0.886920 0.136041
vt 0.027867 0.081350
vt 0.105305 0.081417
vt 0.027867 0.106604
vt 0.105305 0.106959
vt 0.260181 0.075281
vt 0.260181 0.108399
vt 0.260181 0.141517
vt 0.105305 0.132501
vt 0.027867 0.131859
vt 0.337618 0.069079
vt 0.337618 0.109485
vt 0.337619 0.149891
vt 0.131509 0.230883
vt 0.088308 0.232280
vt 0.134767 0.170666
vt 0.088833 0.168174
vt 0.045106 0.233677
vt 0.042899 0.165682
vt 0.411757 0.801450
vt 0.334319 0.801070
vt 0.411757 0.751434
vt 0.334319 0.748101
vt 0.644071 0.808110
vt 0.566633 0.804971
vt 0.644071 0.769496
vt 0.566633 0.762132
vt 0.334089 0.893362
vt 0.334089 0.833551
vt 0.411527 0.887959
vt 0.411527 0.834764
vt 0.566402 0.876430
vt 0.566402 0.832583
vt 0.643841 0.829190
vt 0.643840 0.870303
vn -0.239703 -0.598502 0.764420
vn 0.494494 -0.602551 0.626425
vn 0.003692 0.007507 0.999965
vn 0.600777 -0.100623 0.793059
vn 0.769444 -0.628898 0.111552
vn 0.958546 -0.111279 0.262311
vn 0.523498 0.497361 0.691796
vn -0.196040 0.578019 0.792126
vn 0.873721 0.483635 0.052054
vn 0.042827 0.996668 0.069423
vn -0.510346 0.710574 0.484388
vn 0.647608 0.633099 -0.424016
vn -0.763613 0.641968 0.069076
vn -0.495374 0.590586 -0.637034
vn 0.252426 0.546252 -0.798680
vn -0.966272 0.075376 -0.246247
vn -0.629607 0.019502 -0.776669
vn -0.021303 -0.015846 -0.999648
vn -0.553680 -0.532510 -0.640212
vn -0.828077 -0.558005 0.054016
vn 0.122338 -0.595574 -0.793930
vn -0.070596 -0.995808 0.058156
vn -0.624285 -0.661244 0.415962
vn 0.541267 -0.747187 -0.385670
vn 0.809634 -0.062244 -0.583626
vn -0.784806 0.056830 0.617130
vn 0.294682 -0.833054 0.468170
vn 0.945403 -0.324100 -0.034245
vn 0.611743 -0.067871 0.788140
vn 0.991160 -0.096086 -0.091482
vn -0.334558 0.001988 0.942373
vn -0.296349 -0.231854 0.926510
vn 0.967741 -0.108868 0.227212
vn 0.598789 -0.066469 0.798144
vn 0.980416 -0.148074 0.129841
vn 0.599296 -0.085769 0.795920
vn -0.136506 -0.080480 0.987365
vn -0.033326 -0.042881 0.998524
vn 0.438508 -0.067076 -0.896221
vn 0.214646 0.021229 -0.976461
vn -0.572196 0.092071 -0.814933
vn -0.553349 0.103451 -0.826501
vn 0.234883 -0.036027 -0.971356
vn -0.608148 0.049765 -0.792262
vn -0.991634 0.036051 0.123946
vn -0.974727 0.106673 -0.196288
vn -0.982920 0.014875 0.183433
vn 0.222553 -0.428807 -0.875554
vn -0.529994 -0.535768 -0.657312
vn -0.936895 -0.349599 0.002821
f 1/1/1 2/2/2 4/3/3
f 4/3/3 2/2/2 5/4/4
f 3/5/5 6/6/6 2/2/2
f 2/2/2 6/6/6 5/4/4
f 5/4/4 8/7/7 4/3/3
f 4/3/3 8/7/7 7/8/8
f 5/4/4 6/6/6 8/7/7
f 8/7/7 6/6/6 9/9/9
f 8/10/7 11/11/10 7/12/8
f 7/12/8 11/11/10 10/13/11
f 8/10/7 9/14/9 11/11/10
f 11/11/10 9/14/9 12/15/12
f 10/13/11 11/11/10 13/16/13
f 13/16/13 11/11/10 14/17/14
f 12/15/12 15/18/15 11/11/10
f 11/11/10 15/18/15 14/17/14
f 13/19/13 14/20/14 16/21/16
f 16/21/16 14/20/14 17/22/17
f 15/23/15 18/24/18 14/20/14
f 14/20/14 18/24/18 17/22/17
f 17/22/17 20/25/19 16/21/16
f 16/21/16 20/25/19 19/26/20
f 17/22/17 18/24/18 20/25/19
f 20/25/19 18/24/18 21/27/21
f 20/28/19 23/29/22 19/30/20
f 19/30/20 23/29/22 22/31/23
f 20/28/19 21/32/21 23/29/22
f 23/29/22 21/32/21 24/33/24
f 22/31/23 23/29/22 1/34/1
f 1/34/1 23/29/22 2/35/2
f 24/33/24 3/36/5 23/29/22
f 23/29/22 3/36/5 2/35/2
f 24/37/24 21/38/21 25/39/25
f 25/39/25 21/38/21 18/40/18
f 24/37/24 25/39/25 3/41/5
f 3/41/5 25/39/25 6/42/6
f 18/40/18 15/43/15 25/39/25
f 25/39/25 15/43/15 12/44/12
f 6/42/6 25/39/25 9/45/9
f 9/45/9 25/39/25 12/44/12
f 22/46/23 26/47/26 19/48/20
f 19/48/20 26/47/26 16/49/16
f 22/46/23 1/50/1 26/47/26
f 26/47/26 1/50/1 4/51/3
f 16/49/16 26/47/26 13/52/13
f 13/52/13 26/47/26 10/53/11
f 4/51/3 7/54/8 26/47/26
f 26/47/26 7/54/8 10/53/11
f 37/55/27 28/56/28 44/57/29
f 44/57/29 28/56/28 41/58/30
f 40/59/31 27/60/32 44/57/29
f 44/57/29 27/60/32 37/55/27
f 41/58/30 43/61/33 44/57/29
f 44/57/29 43/61/33 45/62/34
f 30/63/35 38/64/36 43/61/33
f 43/61/33 38/64/36 45/62/34
f 29/65/37 42/66/38 38/64/36
f 38/64/36 42/66/38 45/62/34
f 40/59/31 44/57/29 42/66/38
f 42/66/38 44/57/29 45/62/34
f 32/67/39 49/68/40 39/69/41
f 39/69/41 49/68/40 46/70/42
f 49/68/40 34/71/43 46/70/42
f 46/70/42 34/71/43 47/72/44
f 33/73/45 50/74/46 47/72/44
f 47/72/44 50/74/46 46/70/42
f 31/75/47 39/69/41 50/74/46
f 50/74/46 39/69/41 46/70/42
f 34/71/43 36/76/48 47/72/44
f 47/72/44 36/76/48 48/77/49
f 48/77/49 35/78/50 47/72/44
f 47/72/44 35/78/50 33/73/45
f 28/79/28 37/80/27 36/81/48
f 36/81/48 37/80/27 48/82/49
f 27/83/32 35/84/50 37/80/27
f 37/80/27 35/84/50 48/82/49
f 41/85/30 28/86/28 34/87/43
f 34/87/43 28/86/28 36/88/48
f 30/89/35 43/90/33 32/91/39
f 32/91/39 43/90/33 49/92/40
f 43/90/33 41/85/30 49/92/40
f 49/92/40 41/85/30 34/87/43
f 35/93/50 27/94/32 33/95/45
f 33/95/45 27/94/32 40/96/31
f 33/95/45 40/96/31 50/97/46
f 50/97/46 40/96/31 42/98/38
f 29/99/37 31/100/47 42/98/38
f 42/98/38 31/100/47 50/97/46
