# This file uses centimeters as units for non-parametric coordinates.

v 249.711760 196.982538 -22.836560
v 251.894860 198.151298 -31.454646
v 247.190992 198.059414 -39.307937
v 252.688348 207.081690 -22.959050
v 255.948875 206.916259 -31.797133
v 251.398862 207.227359 -39.798295
v 249.505617 216.973439 -22.763815
v 253.977451 217.139331 -31.499865
v 248.736812 217.943602 -40.037640
v 242.959407 218.418621 -20.603857
v 242.372147 223.064701 -30.602708
v 241.080362 220.139851 -41.610474
v 236.161945 218.540499 -21.424304
v 230.213847 219.700730 -29.852578
v 233.761044 219.290753 -39.209986
v 231.416180 209.114873 -21.003662
v 226.944150 209.272813 -29.264160
v 229.545303 209.201519 -38.444278
v 233.621096 198.353130 -21.707010
v 229.632935 197.915428 -29.732841
v 232.060522 198.460936 -38.009189
v 241.783702 198.162172 -20.612526
v 240.579806 194.585601 -30.570383
v 239.858924 196.753117 -42.044146
v 240.436414 208.064926 -44.833218
v 242.623304 208.117232 -16.484363
v 240.557480 172.189607 -28.882005
v 240.275401 172.209229 -31.740293
v 242.743002 196.657865 -28.728103
v 242.439532 196.677945 -32.475258
v 239.701638 196.916999 -28.467388
v 239.583060 196.921326 -32.230391
v 237.530177 176.300295 -28.262207
v 237.325313 176.312079 -31.949477
v 237.392718 172.459306 -28.577666
v 237.223982 172.469122 -31.542403
v 240.474904 170.846207 -30.300870
v 242.591269 196.667905 -30.601681
v 239.642347 196.919162 -30.348889
v 240.938902 176.009770 -28.614087
v 240.597920 176.033347 -32.161821
v 241.921638 189.793225 -29.134243
v 241.710425 189.806866 -31.961445
v 240.927741 176.007981 -30.402931
v 241.943210 189.789208 -30.559627
v 238.738011 190.062320 -30.272473
v 237.109835 176.333271 -30.080518
v 236.911476 171.149787 -30.018199
v 238.928509 190.043898 -31.719954
v 239.094460 190.034138 -28.873219
vt 0.037013 0.861564
vt 0.027355 0.734793
vt 0.167650 0.890199
vt 0.167663 0.732067
vt 0.037013 0.611436
vt 0.167650 0.578459
vt 0.308569 0.734793
vt 0.298287 0.861564
vt 0.298287 0.611436
vt 0.639004 0.710387
vt 0.820067 0.707662
vt 0.694973 0.837159
vt 0.818259 0.888097
vt 0.692217 0.587031
vt 0.818675 0.533981
vt 0.940611 0.833378
vt 0.989729 0.706763
vt 0.943170 0.584589
vt 0.039763 0.516572
vt 0.029481 0.389957
vt 0.170401 0.547293
vt 0.170388 0.390856
vt 0.039763 0.267783
vt 0.170401 0.236600
vt 0.310695 0.389957
vt 0.301038 0.516572
vt 0.301038 0.267783
vt 0.315210 0.563716
vt 0.485193 0.564615
vt 0.364648 0.690331
vt 0.487000 0.745418
vt 0.362089 0.441542
vt 0.486585 0.390647
vt 0.610287 0.694112
vt 0.666549 0.567340
vt 0.613042 0.443983
vt 0.669370 0.335160
vt 0.682481 0.210664
vt 0.813203 0.333768
vt 0.813119 0.164276
vt 0.682481 0.461616
vt 0.813119 0.502622
vt 0.943756 0.210664
vt 0.957716 0.335160
vt 0.943756 0.461616
vt 0.633569 0.199173
vt 0.489735 0.197365
vt 0.620457 0.076820
vt 0.489820 0.030007
vt 0.620457 0.322459
vt 0.489820 0.365233
vt 0.359183 0.076820
vt 0.345223 0.199173
vt 0.359183 0.322459
vt 0.654607 0.113820
vt 0.654607 0.075817
vt 0.732044 0.112337
vt 0.732044 0.080588
vt 0.732044 0.144086
vt 0.654607 0.151822
vt 0.886920 0.085291
vt 0.886920 0.110666
vt 0.964357 0.085223
vt 0.964358 0.110477
vt 0.964358 0.135731
vt 0.886920 0.136041
vt 0.027867 0.081350
vt 0.105305 0.081417
vt 0.027867 0.106604
vt 0.105305 0.106959
vt 0.260181 0.075281
vt 0.260181 0.108399
vt 0.260181 0.141517
vt 0.105305 0.132501
vt 0.027867 0.131859
vt 0.337618 0.069079
vt 0.337618 0.109485
vt 0.337619 0.149891
vt 0.131509 0.230883
vt 0.088308 0.232280
vt 0.134767 0.170666
vt 0.088833 0.168174
vt 0.045106 0.233677
vt 0.042899 0.165682
vt 0.411757 0.801450
vt 0.334319 0.801070
vt 0.411757 0.751434
vt 0.334319 0.748101
vt 0.644071 0.808110
vt 0.566633 0.804971
vt 0.644071 0.769496
vt 0.566633 0.762132
vt 0.334089 0.893362
vt 0.334089 0.833551
vt 0.411527 0.887959
vt 0.411527 0.834764
vt 0.566402 0.876430
vt 0.566402 0.832583
vt 0.643841 0.829190
vt 0.643840 0.870303
vn 0.498337 -0.645166 0.579155
vn 0.778479 -0.616425 -0.118286
vn 0.841523 -0.036645 0.538977
vn 0.989665 -0.117886 -0.081644
vn 0.490050 -0.606729 -0.625885
vn 0.737040 -0.094324 -0.669235
vn 0.877041 0.479511 -0.029483
vn 0.569885 0.530587 0.627462
vn 0.535824 0.508600 -0.673957
vn 0.111678 0.991165 0.071551
vn 0.149031 0.665022 0.731803
vn 0.015575 0.676789 -0.736013
vn -0.334977 0.610571 0.717631
vn -0.788303 0.604928 0.112428
vn -0.521807 0.594121 -0.612159
vn -0.729036 0.057599 0.682047
vn -0.993421 0.035265 0.108953
vn -0.850940 0.027783 -0.524528
vn -0.851704 -0.517863 0.080117
vn -0.424400 -0.587471 0.689030
vn -0.611664 -0.550096 -0.568561
vn -0.019904 -0.999586 0.020776
vn -0.010464 -0.704203 0.709922
vn -0.051651 -0.704871 -0.707453
vn -0.051592 -0.012419 -0.998591
vn 0.093009 0.006272 0.995646
vn 0.529628 -0.846610 -0.052394
vn 0.473218 -0.292858 -0.830842
vn 0.992233 -0.084610 -0.091188
vn 0.458392 -0.062550 -0.886546
vn 0.609310 -0.049594 0.791379
vn 0.612731 -0.282681 0.738006
vn 0.712638 -0.090093 -0.695722
vn 0.993651 -0.084037 -0.074801
vn 0.636319 -0.124437 -0.761323
vn 0.991612 -0.103209 -0.077799
vn 0.753492 -0.128299 0.644817
vn 0.819489 -0.088063 0.566288
vn -0.515263 -0.014352 -0.856912
vn -0.702744 0.070781 -0.707914
vn -0.992774 0.111159 0.045200
vn -0.992042 0.123612 0.023915
vn -0.688335 0.013938 -0.725259
vn -0.994168 0.066811 0.084656
vn -0.433649 0.001259 0.901081
vn -0.690542 0.086328 0.718122
vn -0.379791 -0.022250 0.924805
vn -0.621671 -0.379525 -0.685190
vn -0.852975 -0.519471 0.050834
vn -0.519650 -0.378271 0.766078
f 1/1/1 2/2/2 4/3/3
f 4/3/3 2/2/2 5/4/4
f 3/5/5 6/6/6 2/2/2
f 2/2/2 6/6/6 5/4/4
f 5/4/4 8/7/7 4/3/3
f 4/3/3 8/7/7 7/8/8
f 5/4/4 6/6/6 8/7/7
f 8/7/7 6/6/6 9/9/9
f 8/10/7 11/11/10 7/12/8
f 7/12/8 11/11/10 10/13/11
f 8/10/7 9/14/9 11/11/10
f 11/11/10 9/14/9 12/15/12
f 10/13/11 11/11/10 13/16/13
f 13/16/13 11/11/10 14/17/14
f 12/15/12 15/18/15 11/11/10
f 11/11/10 15/18/15 14/17/14
f 13/19/13 14/20/14 16/21/16
f 16/21/16 14/20/14 17/22/17
f 15/23/15 18/24/18 14/20/14
f 14/20/14 18/24/18 17/22/17
f 17/22/17 20/25/19 16/21/16
f 16/21/16 20/25/19 19/26/20
f 17/22/17 18/24/18 20/25/19
f 20/25/19 18/24/18 21/27/21
f 20/28/19 23/29/22 19/30/20
f 19/30/20 23/29/22 22/31/23
f 20/28/19 21/32/21 23/29/22
f 23/29/22 21/32/21 24/33/24
f 22/31/23 23/29/22 1/34/1
f 1/34/1 23/29/22 2/35/2
f 24/33/24 3/36/5 23/29/22
f 23/29/22 3/36/5 2/35/2
f 24/37/24 21/38/21 25/39/25
f 25/39/25 21/38/21 18/40/18
f 24/37/24 25/39/25 3/41/5
f 3/41/5 25/39/25 6/42/6
f 18/40/18 15/43/15 25/39/25
f 25/39/25 15/43/15 12/44/12
f 6/42/6 25/39/25 9/45/9
f 9/45/9 25/39/25 12/44/12
f 22/46/23 26/47/26 19/48/20
f 19/48/20 26/47/26 16/49/16
f 22/46/23 1/50/1 26/47/26
f 26/47/26 1/50/1 4/51/3
f 16/49/16 26/47/26 13/52/13
f 13/52/13 26/47/26 10/53/11
f 4/51/3 7/54/8 26/47/26
f 26/47/26 7/54/8 10/53/11
f 37/55/27 28/56/28 44/57/29
f 44/57/29 28/56/28 41/58/30
f 40/59/31 27/60/32 44/57/29
f 44/57/29 27/60/32 37/55/27
f 41/58/30 43/61/33 44/57/29
f 44/57/29 43/61/33 45/62/34
f 30/63/35 38/64/36 43/61/33
f 43/61/33 38/64/36 45/62/34
f 29/65/37 42/66/38 38/64/36
f 38/64/36 42/66/38 45/62/34
f 40/59/31 44/57/29 42/66/38
f 42/66/38 44/57/29 45/62/34
f 32/67/39 49/68/40 39/69/41
f 39/69/41 49/68/40 46/70/42
f 49/68/40 34/71/43 46/70/42
f 46/70/42 34/71/43 47/72/44
f 33/73/45 50/74/46 47/72/44
f 47/72/44 50/74/46 46/70/42
f 31/75/47 39/69/41 50/74/46
f 50/74/46 39/69/41 46/70/42
f 34/71/43 36/76/48 47/72/44
f 47/72/44 36/76/48 48/77/49
f 48/77/49 35/78/50 47/72/44
f 47/72/44 35/78/50 33/73/45
f 28/79/28 37/80/27 36/81/48
f 36/81/48 37/80/27 48/82/49
f 27/83/32 35/84/50 37/80/27
f 37/80/27 35/84/50 48/82/49
f 41/85/30 28/86/28 34/87/43
f 34/87/43 28/86/28 36/88/48
f 30/89/35 43/90/33 32/91/39
f 32/91/39 43/90/33 49/92/40
f 43/90/33 41/85/30 49/92/40
f 49/92/40 41/85/30 34/87/43
f 35/93/50 27/94/32 33/95/45
f 33/95/45 27/94/32 40/96/31
f 33/95/45 40/96/31 50/97/46
f 50/97/46 40/96/31 42/98/38
f 29/99/37 31/100/47 42/98/38
f 42/98/38 31/100/47 50/97/46
