# This file uses centimeters as units for non-parametric coordinates.

v -2.598788 193.243268 -136.606788
v -5.922563 194.607648 -131.155454
v -4.543148 194.014809 -124.680946
v -3.585338 200.904881 -137.020724
v -7.827897 201.484561 -131.687901
v -6.544248 201.206064 -125.139556
v -0.353116 207.481386 -136.251119
v -5.357394 208.478041 -131.259018
v -3.677453 208.459852 -124.175041
v 4.721026 207.474748 -136.216953
v 3.319939 210.935469 -129.121040
v 1.373763 208.908661 -121.306089
v 9.146033 206.554869 -134.098868
v 11.366919 206.681461 -126.922359
v 6.786186 207.141918 -121.302095
v 11.468254 199.100098 -133.474151
v 12.623885 198.730069 -126.767947
v 8.759211 199.285387 -121.047641
v 8.690692 191.766766 -133.686635
v 9.510244 191.039099 -127.262993
v 6.033947 191.987506 -122.113736
v 3.397303 192.837003 -136.306065
v 1.563364 190.333787 -129.245134
v -0.343294 192.039283 -121.148551
v -0.188824 200.266516 -119.158725
v 4.812744 199.974301 -139.158986
v -0.376791 174.303280 -130.803335
v -0.836802 174.341220 -128.772296
v 0.737028 192.096751 -130.969055
v 0.088492 192.152472 -128.321646
v 2.881697 191.816624 -130.449583
v 2.102778 191.889374 -127.833754
v 2.242970 176.766434 -130.464997
v 1.540521 176.829721 -127.881439
v 1.862441 174.011055 -130.285520
v 1.300392 174.061579 -128.207297
v -0.785457 173.364817 -129.832510
v 0.412760 192.124611 -129.645350
v 2.492238 191.852999 -129.141668
v -0.174389 177.081720 -131.006166
v -0.751617 177.129634 -128.487318
v 0.482523 187.081761 -130.625345
v -0.018967 187.125404 -128.631973
v -0.575658 177.120382 -129.773048
v 0.141893 187.115316 -129.649776
v 2.404922 186.819824 -129.110847
v 2.115483 176.768839 -129.117592
v 1.722135 173.037111 -129.208187
v 1.943433 186.869106 -128.158891
v 2.480416 186.820948 -130.155301
vt 0.037013 0.861564
vt 0.027355 0.734793
vt 0.167650 0.890199
vt 0.167663 0.732067
vt 0.037013 0.611436
vt 0.167650 0.578459
vt 0.308569 0.734793
vt 0.298287 0.861564
vt 0.298287 0.611436
vt 0.639004 0.710387
vt 0.820067 0.707662
vt 0.694973 0.837159
vt 0.818259 0.888097
vt 0.692217 0.587031
vt 0.818675 0.533981
vt 0.940611 0.833378
vt 0.989729 0.706763
vt 0.943170 0.584589
vt 0.039763 0.516572
vt 0.029481 0.389957
vt 0.170401 0.547293
vt 0.170388 0.390856
vt 0.039763 0.267783
vt 0.170401 0.236600
vt 0.310695 0.389957
vt 0.301038 0.516572
vt 0.301038 0.267783
vt 0.315210 0.563716
vt 0.485193 0.564615
vt 0.364648 0.690331
vt 0.487000 0.745418
vt 0.362089 0.441542
vt 0.486585 0.390647
vt 0.610287 0.694112
vt 0.666549 0.567340
vt 0.613042 0.443983
vt 0.669370 0.335160
vt 0.682481 0.210664
vt 0.813203 0.333768
vt 0.813119 0.164276
vt 0.682481 0.461616
vt 0.813119 0.502622
vt 0.943756 0.210664
vt 0.957716 0.335160
vt 0.943756 0.461616
vt 0.633569 0.199173
vt 0.489735 0.197365
vt 0.620457 0.076820
vt 0.489820 0.030007
vt 0.620457 0.322459
vt 0.489820 0.365233
vt 0.359183 0.076820
vt 0.345223 0.199173
vt 0.359183 0.322459
vt 0.654607 0.113820
vt 0.654607 0.075817
vt 0.732044 0.112337
vt 0.732044 0.080588
vt 0.732044 0.144086
vt 0.654607 0.151822
vt 0.886920 0.085291
vt 0.886920 0.110666
vt 0.964357 0.085223
vt 0.964358 0.110477
vt 0.964358 0.135731
vt 0.886920 0.136041
vt 0.027867 0.081350
vt 0.105305 0.081417
vt 0.027867 0.106604
vt 0.105305 0.106959
vt 0.260181 0.075281
vt 0.260181 0.108399
vt 0.260181 0.141517
vt 0.105305 0.132501
vt 0.027867 0.131859
vt 0.337618 0.069079
vt 0.337618 0.109485
vt 0.337619 0.149891
vt 0.131509 0.230883
vt 0.088308 0.232280
vt 0.134767 0.170666
vt 0.088833 0.168174
vt 0.045106 0.233677
vt 0.042899 0.165682
vt 0.411757 0.801450
vt 0.334319 0.801070
vt 0.411757 0.751434
vt 0.334319 0.748101
vt 0.644071 0.808110
vt 0.566633 0.804971
vt 0.644071 0.769496
vt 0.566633 0.762132
vt 0.334089 0.893362
vt 0.334089 0.833551
vt 0.411527 0.887959
vt 0.411527 0.834764
vt 0.566402 0.876430
vt 0.566402 0.832583
vt 0.643841 0.829190
vt 0.643840 0.870303
vn -0.408981 -0.565613 -0.716112
vn -0.865745 -0.477391 -0.150281
vn -0.623668 0.073620 -0.778215
vn -0.970944 0.028735 -0.237575
vn -0.762925 -0.501038 0.408543
vn -0.916575 0.028540 0.398843
vn -0.749868 0.617341 -0.237882
vn -0.227403 0.599712 -0.767224
vn -0.619603 0.605725 0.499189
vn 0.124019 0.989968 -0.067695
vn 0.229168 0.658958 -0.716419
vn -0.106177 0.686614 0.719227
vn 0.653337 0.526944 -0.543582
vn 0.870863 0.465323 0.158340
vn 0.410317 0.514216 0.753141
vn 0.907299 -0.063886 -0.415604
vn 0.971074 -0.111582 0.211105
vn 0.635487 -0.084078 0.767520
vn 0.734644 -0.654410 0.179015
vn 0.500499 -0.667500 -0.551311
vn 0.282414 -0.628242 0.724951
vn -0.181405 -0.982197 -0.048801
vn 0.087412 -0.712025 -0.696692
vn -0.319109 -0.681631 0.658444
vn -0.269011 0.002568 0.963134
vn 0.228165 -0.002568 -0.973619
vn -0.665495 -0.732641 -0.142667
vn -0.756642 -0.199422 0.622675
vn -0.971523 0.062116 -0.228659
vn -0.719513 0.024419 0.694050
vn -0.329441 0.021606 -0.943929
vn -0.394739 -0.204493 -0.895747
vn -0.901466 0.029772 0.431825
vn -0.967599 0.062522 -0.244628
vn -0.856595 -0.013516 0.515813
vn -0.969423 0.043379 -0.241530
vn -0.524861 -0.031652 -0.850599
vn -0.603637 0.019110 -0.797031
vn 0.208115 -0.069585 0.975626
vn 0.447001 -0.016107 0.894388
vn 0.961405 -0.034992 0.272903
vn 0.955848 -0.022166 0.293025
vn 0.417186 -0.069686 0.906146
vn 0.968687 -0.079851 0.235096
vn 0.689813 -0.081643 -0.719370
vn 0.887285 -0.030787 -0.460193
vn 0.642410 -0.097604 -0.760120
vn 0.289140 -0.453943 0.842813
vn 0.725969 -0.655520 0.207998
vn 0.658372 -0.472204 -0.586149
f 1/1/1 2/2/2 4/3/3
f 4/3/3 2/2/2 5/4/4
f 3/5/5 6/6/6 2/2/2
f 2/2/2 6/6/6 5/4/4
f 5/4/4 8/7/7 4/3/3
f 4/3/3 8/7/7 7/8/8
f 5/4/4 6/6/6 8/7/7
f 8/7/7 6/6/6 9/9/9
f 8/10/7 11/11/10 7/12/8
f 7/12/8 11/11/10 10/13/11
f 8/10/7 9/14/9 11/11/10
f 11/11/10 9/14/9 12/15/12
f 10/13/11 11/11/10 13/16/13
f 13/16/13 11/11/10 14/17/14
f 12/15/12 15/18/15 11/11/10
f 11/11/10 15/18/15 14/17/14
f 13/19/13 14/20/14 16/21/16
f 16/21/16 14/20/14 17/22/17
f 15/23/15 18/24/18 14/20/14
f 14/20/14 18/24/18 17/22/17
f 17/22/17 20/25/19 16/21/16
f 16/21/16 20/25/19 19/26/20
f 17/22/17 18/24/18 20/25/19
f 20/25/19 18/24/18 21/27/21
f 20/28/19 23/29/22 19/30/20
f 19/30/20 23/29/22 22/31/23
f 20/28/19 21/32/21 23/29/22
f 23/29/22 21/32/21 24/33/24
f 22/31/23 23/29/22 1/34/1
f 1/34/1 23/29/22 2/35/2
f 24/33/24 3/36/5 23/29/22
f 23/29/22 3/36/5 2/35/2
f 24/37/24 21/38/21 25/39/25
f 25/39/25 21/38/21 18/40/18
f 24/37/24 25/39/25 3/41/5
f 3/41/5 25/39/25 6/42/6
f 18/40/18 15/43/15 25/39/25
f 25/39/25 15/43/15 12/44/12
f 6/42/6 25/39/25 9/45/9
f 9/45/9 25/39/25 12/44/12
f 22/46/23 26/47/26 19/48/20
f 19/48/20 26/47/26 16/49/16
f 22/46/23 1/50/1 26/47/26
f 26/47/26 1/50/1 4/51/3
f 16/49/16 26/47/26 13/52/13
f 13/52/13 26/47/26 10/53/11
f 4/51/3 7/54/8 26/47/26
f 26/47/26 7/54/8 10/53/11
f 37/55/27 28/56/28 44/57/29
f 44/57/29 28/56/28 41/58/30
f 40/59/31 27/60/32 44/57/29
f 44/57/29 27/60/32 37/55/27
f 41/58/30 43/61/33 44/57/29
f 44/57/29 43/61/33 45/62/34
f 30/63/35 38/64/36 43/61/33
f 43/61/33 38/64/36 45/62/34
f 29/65/37 42/66/38 38/64/36
f 38/64/36 42/66/38 45/62/34
f 40/59/31 44/57/29 42/66/38
f 42/66/38 44/57/29 45/62/34
f 32/67/39 49/68/40 39/69/41
f 39/69/41 49/68/40 46/70/42
f 49/68/40 34/71/43 46/70/42
f 46/70/42 34/71/43 47/72/44
f 33/73/45 50/74/46 47/72/44
f 47/72/44 50/74/46 46/70/42
f 31/75/47 39/69/41 50/74/46
f 50/74/46 39/69/41 46/70/42
f 34/71/43 36/76/48 47/72/44
f 47/72/44 36/76/48 48/77/49
f 48/77/49 35/78/50 47/72/44
f 47/72/44 35/78/50 33/73/45
f 28/79/28 37/80/27 36/81/48
f 36/81/48 37/80/27 48/82/49
f 27/83/32 35/84/50 37/80/27
f 37/80/27 35/84/50 48/82/49
f 41/85/30 28/86/28 34/87/43
f 34/87/43 28/86/28 36/88/48
f 30/89/35 43/90/33 32/91/39
f 32/91/39 43/90/33 49/92/40
f 43/90/33 41/85/30 49/92/40
f 49/92/40 41/85/30 34/87/43
f 35/93/50 27/94/32 33/95/45
f 33/95/45 27/94/32 40/96/31
f 33/95/45 40/96/31 50/97/46
f 50/97/46 40/96/31 42/98/38
f 29/99/37 31/100/47 42/98/38
f 42/98/38 31/100/47 50/97/46
