# This file uses centimeters as units for non-parametric coordinates.

v -1.495956 160.127354 -308.130455
v 2.173595 161.609607 -301.663218
v 9.612680 161.865552 -299.627334
v -3.404004 168.686279 -306.680097
v -0.240471 169.077036 -299.404366
v 7.184373 169.682759 -297.203287
v -1.742697 176.942203 -309.002913
v 0.618285 177.628269 -301.095410
v 8.768036 178.665084 -298.987959
v 0.962261 177.924695 -314.179475
v 7.065556 182.356534 -308.609921
v 14.310335 180.458394 -302.569401
v 5.577564 177.947875 -317.644345
v 14.088518 179.265587 -316.028098
v 17.383910 179.483420 -308.261145
v 8.378289 169.907801 -320.330189
v 15.909184 170.399870 -317.920670
v 19.671879 170.876128 -310.824467
v 7.622693 160.929139 -318.237300
v 14.732101 160.916231 -315.667458
v 18.064051 161.860232 -309.243410
v 2.017606 160.857948 -314.141398
v 8.608255 158.357029 -308.664618
v 15.692669 160.779312 -302.188798
v 16.778372 170.457332 -300.558283
v -1.061828 169.030430 -316.513679
v 8.008324 139.420306 -308.910245
v 9.844165 139.584008 -307.338286
v 6.183936 160.041862 -308.597626
v 8.550384 160.252925 -306.497987
v 7.879996 160.190956 -310.536657
v 10.143336 160.392955 -308.319140
v 9.423159 142.791626 -311.195738
v 11.694824 142.994302 -309.074764
v 9.753955 139.573730 -310.948032
v 11.582917 139.736906 -309.245019
v 8.906988 138.363933 -308.048523
v 7.367159 160.147393 -307.547805
v 9.011667 160.291955 -309.427900
v 7.556987 142.627626 -308.986231
v 9.830099 142.830326 -307.029750
v 7.033928 154.271995 -308.586030
v 8.808604 154.430291 -306.991475
v 8.605459 142.721234 -307.905607
v 7.850854 154.344954 -307.707137
v 9.631062 154.501435 -309.758154
v 10.737402 142.908649 -310.336763
v 10.907460 138.539805 -310.306542
v 10.358224 154.566509 -308.766930
v 8.599667 154.409618 -310.399856
vt 0.037013 0.861564
vt 0.027355 0.734793
vt 0.167650 0.890199
vt 0.167663 0.732067
vt 0.037013 0.611436
vt 0.167650 0.578459
vt 0.308569 0.734793
vt 0.298287 0.861564
vt 0.298287 0.611436
vt 0.639004 0.710387
vt 0.820067 0.707662
vt 0.694973 0.837159
vt 0.818259 0.888097
vt 0.692217 0.587031
vt 0.818675 0.533981
vt 0.940611 0.833378
vt 0.989729 0.706763
vt 0.943170 0.584589
vt 0.039763 0.516572
vt 0.029481 0.389957
vt 0.170401 0.547293
vt 0.170388 0.390856
vt 0.039763 0.267783
vt 0.170401 0.236600
vt 0.310695 0.389957
vt 0.301038 0.516572
vt 0.301038 0.267783
vt 0.315210 0.563716
vt 0.485193 0.564615
vt 0.364648 0.690331
vt 0.487000 0.745418
vt 0.362089 0.441542
vt 0.486585 0.390647
vt 0.610287 0.694112
vt 0.666549 0.567340
vt 0.613042 0.443983
vt 0.669370 0.335160
vt 0.682481 0.210664
vt 0.813203 0.333768
vt 0.813119 0.164276
vt 0.682481 0.461616
vt 0.813119 0.502622
vt 0.943756 0.210664
vt 0.957716 0.335160
vt 0.943756 0.461616
vt 0.633569 0.199173
vt 0.489735 0.197365
vt 0.620457 0.076820
vt 0.489820 0.030007
vt 0.620457 0.322459
vt 0.489820 0.365233
vt 0.359183 0.076820
vt 0.345223 0.199173
vt 0.359183 0.322459
vt 0.654607 0.113820
vt 0.654607 0.075817
vt 0.732044 0.112337
vt 0.732044 0.080588
vt 0.732044 0.144086
vt 0.654607 0.151822
vt 0.886920 0.085291
vt 0.886920 0.110666
vt 0.964357 0.085223
vt 0.964358 0.110477
vt 0.964358 0.135731
vt 0.886920 0.136041
vt 0.027867 0.081350
vt 0.105305 0.081417
vt 0.027867 0.106604
vt 0.105305 0.106959
vt 0.260181 0.075281
vt 0.260181 0.108399
vt 0.260181 0.141517
vt 0.105305 0.132501
vt 0.027867 0.131859
vt 0.337618 0.069079
vt 0.337618 0.109485
vt 0.337619 0.149891
vt 0.131509 0.230883
vt 0.088308 0.232280
vt 0.134767 0.170666
vt 0.088833 0.168174
vt 0.045106 0.233677
vt 0.042899 0.165682
vt 0.411757 0.801450
vt 0.334319 0.801070
vt 0.411757 0.751434
vt 0.334319 0.748101
vt 0.644071 0.808110
vt 0.566633 0.804971
vt 0.644071 0.769496
vt 0.566633 0.762132
vt 0.334089 0.893362
vt 0.334089 0.833551
vt 0.411527 0.887959
vt 0.411527 0.834764
vt 0.566402 0.876430
vt 0.566402 0.832583
vt 0.643841 0.829190
vt 0.643840 0.870303
vn -0.745682 -0.665417 -0.034319
vn -0.461212 -0.595838 0.657466
vn -0.979604 -0.047705 0.195193
vn -0.654786 -0.099264 0.749267
vn 0.094569 -0.565784 0.819112
vn -0.067435 -0.053728 0.996276
vn -0.628708 0.494594 0.600085
vn -0.856367 0.508412 -0.090290
vn 0.064684 0.550111 0.832583
vn -0.157871 0.986862 -0.034359
vn -0.626526 0.628554 -0.460853
vn 0.482832 0.715184 0.505358
vn -0.268382 0.567611 -0.778324
vn 0.472686 0.584594 -0.659407
vn 0.787033 0.615264 0.045035
vn 0.053888 0.016676 -0.998408
vn 0.641401 0.015601 -0.767048
vn 0.976620 0.038077 -0.211574
vn 0.576722 -0.535199 -0.617214
vn -0.154304 -0.629150 -0.761814
vn 0.846937 -0.531300 0.020458
vn 0.028209 -0.999097 0.031761
vn -0.467565 -0.741566 -0.481106
vn 0.540855 -0.667171 0.512210
vn 0.727684 0.030677 0.685227
vn -0.755485 -0.036072 -0.654172
vn -0.321254 -0.831560 0.453104
vn 0.239108 -0.247572 0.938901
vn -0.651158 -0.065629 0.756099
vn 0.282836 -0.016677 0.959023
vn -0.986327 -0.075223 -0.146630
vn -0.947460 -0.306407 -0.091843
vn -0.031671 -0.048714 0.998311
vn -0.663530 -0.065757 0.745255
vn 0.069591 -0.081167 0.994268
vn -0.659343 -0.084773 0.747048
vn -0.987338 -0.145314 0.063616
vn -0.981411 -0.100613 0.163431
vn 0.964767 0.015603 0.262644
vn 0.995609 0.091332 0.020510
vn 0.682458 0.094117 -0.724840
vn 0.696240 0.107480 -0.709717
vn 0.998292 0.035495 0.046410
vn 0.657669 0.048134 -0.751768
vn -0.309391 -0.044794 -0.949879
vn 0.000376 0.044309 -0.999018
vn -0.364235 -0.068548 -0.928781
vn 0.930076 -0.356894 0.087091
vn 0.597821 -0.535384 -0.596636
vn -0.144173 -0.422104 -0.895010
f 1/1/1 2/2/2 4/3/3
f 4/3/3 2/2/2 5/4/4
f 3/5/5 6/6/6 2/2/2
f 2/2/2 6/6/6 5/4/4
f 5/4/4 8/7/7 4/3/3
f 4/3/3 8/7/7 7/8/8
f 5/4/4 6/6/6 8/7/7
f 8/7/7 6/6/6 9/9/9
f 8/10/7 11/11/10 7/12/8
f 7/12/8 11/11/10 10/13/11
f 8/10/7 9/14/9 11/11/10
f 11/11/10 9/14/9 12/15/12
f 10/13/11 11/11/10 13/16/13
f 13/16/13 11/11/10 14/17/14
f 12/15/12 15/18/15 11/11/10
f 11/11/10 15/18/15 14/17/14
f 13/19/13 14/20/14 16/21/16
f 16/21/16 14/20/14 17/22/17
f 15/23/15 18/24/18 14/20/14
f 14/20/14 18/24/18 17/22/17
f 17/22/17 20/25/19 16/21/16
f 16/21/16 20/25/19 19/26/20
f 17/22/17 18/24/18 20/25/19
f 20/25/19 18/24/18 21/27/21
f 20/28/19 23/29/22 19/30/20
f 19/30/20 23/29/22 22/31/23
f 20/28/19 21/32/21 23/29/22
f 23/29/22 21/32/21 24/33/24
f 22/31/23 23/29/22 1/34/1
f 1/34/1 23/29/22 2/35/2
f 24/33/24 3/36/5 23/29/22
f 23/29/22 3/36/5 2/35/2
f 24/37/24 21/38/21 25/39/25
f 25/39/25 21/38/21 18/40/18
f 24/37/24 25/39/25 3/41/5
f 3/41/5 25/39/25 6/42/6
f 18/40/18 15/43/15 25/39/25
f 25/39/25 15/43/15 12/44/12
f 6/42/6 25/39/25 9/45/9
f 9/45/9 25/39/25 12/44/12
f 22/46/23 26/47/26 19/48/20
f 19/48/20 26/47/26 16/49/16
f 22/46/23 1/50/1 26/47/26
f 26/47/26 1/50/1 4/51/3
f 16/49/16 26/47/26 13/52/13
f 13/52/13 26/47/26 10/53/11
f 4/51/3 7/54/8 26/47/26
f 26/47/26 7/54/8 10/53/11
f 37/55/27 28/56/28 44/57/29
f 44/57/29 28/56/28 41/58/30
f 40/59/31 27/60/32 44/57/29
f 44/57/29 27/60/32 37/55/27
f 41/58/30 43/61/33 44/57/29
f 44/57/29 43/61/33 45/62/34
f 30/63/35 38/64/36 43/61/33
f 43/61/33 38/64/36 45/62/34
f 29/65/37 42/66/38 38/64/36
f 38/64/36 42/66/38 45/62/34
f 40/59/31 44/57/29 42/66/38
f 42/66/38 44/57/29 45/62/34
f 32/67/39 49/68/40 39/69/41
f 39/69/41 49/68/40 46/70/42
f 49/68/40 34/71/43 46/70/42
f 46/70/42 34/71/43 47/72/44
f 33/73/45 50/74/46 47/72/44
f 47/72/44 50/74/46 46/70/42
f 31/75/47 39/69/41 50/74/46
f 50/74/46 39/69/41 46/70/42
f 34/71/43 36/76/48 47/72/44
f 47/72/44 36/76/48 48/77/49
f 48/77/49 35/78/50 47/72/44
f 47/72/44 35/78/50 33/73/45
f 28/79/28 37/80/27 36/81/48
f 36/81/48 37/80/27 48/82/49
f 27/83/32 35/84/50 37/80/27
f 37/80/27 35/84/50 48/82/49
f 41/85/30 28/86/28 34/87/43
f 34/87/43 28/86/28 36/88/48
f 30/89/35 43/90/33 32/91/39
f 32/91/39 43/90/33 49/92/40
f 43/90/33 41/85/30 49/92/40
f 49/92/40 41/85/30 34/87/43
f 35/93/50 27/94/32 33/95/45
f 33/95/45 27/94/32 40/96/31
f 33/95/45 40/96/31 50/97/46
f 50/97/46 40/96/31 42/98/38
f 29/99/37 31/100/47 42/98/38
f 42/98/38 31/100/47 50/97/46
