# This file uses centimeters as units for non-parametric coordinates.

v -224.593494 155.534080 -193.899400
v -218.287081 157.052295 -197.420894
v -216.232005 157.211228 -204.638917
v -223.333604 163.924839 -192.137893
v -216.229557 164.408623 -195.144915
v -214.019298 164.911652 -202.351857
v -225.701092 171.872498 -193.883222
v -217.995593 172.672056 -196.106884
v -215.875282 173.579104 -204.025394
v -230.722193 172.664204 -196.580179
v -225.308064 176.986952 -202.515835
v -219.327236 175.143187 -209.476044
v -234.043595 172.526167 -201.105356
v -232.401491 173.688959 -209.383849
v -224.815648 174.013054 -212.511852
v -236.503583 164.596431 -203.754509
v -234.087730 164.991618 -211.060999
v -227.153251 165.543697 -214.653749
v -234.339099 155.924332 -202.883269
v -231.764082 155.839611 -209.771694
v -225.495049 156.839523 -212.958382
v -230.413705 156.047632 -197.388240
v -224.978922 153.617026 -203.710320
v -218.642299 155.987642 -210.565253
v -217.192518 165.416403 -211.728117
v -232.878286 163.999134 -194.521855
v -224.935395 135.205583 -202.887387
v -223.389525 135.366282 -204.658928
v -224.965156 155.301118 -201.373101
v -222.901153 155.509933 -203.655908
v -226.835372 155.372357 -203.044699
v -224.657678 155.576841 -205.225889
v -227.194713 138.408027 -204.330194
v -225.110838 138.610879 -206.520483
v -226.901211 135.277947 -204.608280
v -225.227942 135.441162 -206.371776
v -224.071639 134.180982 -203.739109
v -223.933153 155.405525 -202.514502
v -225.746528 155.474599 -204.135295
v -225.062999 138.331373 -202.490150
v -223.139095 138.530578 -204.683538
v -224.856877 149.674459 -202.126019
v -223.289598 149.831512 -203.837772
v -224.002286 138.427314 -203.500011
v -223.994509 149.750054 -202.912488
v -225.972867 149.824468 -204.667189
v -226.347117 138.517003 -205.601149
v -226.249297 134.265669 -205.710434
v -225.002075 149.896512 -205.365083
v -226.606527 149.739684 -203.669430
vt 0.037013 0.861564
vt 0.027355 0.734793
vt 0.167650 0.890199
vt 0.167663 0.732067
vt 0.037013 0.611436
vt 0.167650 0.578459
vt 0.308569 0.734793
vt 0.298287 0.861564
vt 0.298287 0.611436
vt 0.639004 0.710387
vt 0.820067 0.707662
vt 0.694973 0.837159
vt 0.818259 0.888097
vt 0.692217 0.587031
vt 0.818675 0.533981
vt 0.940611 0.833378
vt 0.989729 0.706763
vt 0.943170 0.584589
vt 0.039763 0.516572
vt 0.029481 0.389957
vt 0.170401 0.547293
vt 0.170388 0.390856
vt 0.039763 0.267783
vt 0.170401 0.236600
vt 0.310695 0.389957
vt 0.301038 0.516572
vt 0.301038 0.267783
vt 0.315210 0.563716
vt 0.485193 0.564615
vt 0.364648 0.690331
vt 0.487000 0.745418
vt 0.362089 0.441542
vt 0.486585 0.390647
vt 0.610287 0.694112
vt 0.666549 0.567340
vt 0.613042 0.443983
vt 0.669370 0.335160
vt 0.682481 0.210664
vt 0.813203 0.333768
vt 0.813119 0.164276
vt 0.682481 0.461616
vt 0.813119 0.502622
vt 0.943756 0.210664
vt 0.957716 0.335160
vt 0.943756 0.461616
vt 0.633569 0.199173
vt 0.489735 0.197365
vt 0.620457 0.076820
vt 0.489820 0.030007
vt 0.620457 0.322459
vt 0.489820 0.365233
vt 0.359183 0.076820
vt 0.345223 0.199173
vt 0.359183 0.322459
vt 0.654607 0.113820
vt 0.654607 0.075817
vt 0.732044 0.112337
vt 0.732044 0.080588
vt 0.732044 0.144086
vt 0.654607 0.151822
vt 0.886920 0.085291
vt 0.886920 0.110666
vt 0.964357 0.085223
vt 0.964358 0.110477
vt 0.964358 0.135731
vt 0.886920 0.136041
vt 0.027867 0.081350
vt 0.105305 0.081417
vt 0.027867 0.106604
vt 0.105305 0.106959
vt 0.260181 0.075281
vt 0.260181 0.108399
vt 0.260181 0.141517
vt 0.105305 0.132501
vt 0.027867 0.131859
vt 0.337618 0.069079
vt 0.337618 0.109485
vt 0.337619 0.149891
vt 0.131509 0.230883
vt 0.088308 0.232280
vt 0.134767 0.170666
vt 0.088833 0.168174
vt 0.045106 0.233677
vt 0.042899 0.165682
vt 0.411757 0.801450
vt 0.334319 0.801070
vt 0.411757 0.751434
vt 0.334319 0.748101
vt 0.644071 0.808110
vt 0.566633 0.804971
vt 0.644071 0.769496
vt 0.566633 0.762132
vt 0.334089 0.893362
vt 0.334089 0.833551
vt 0.411527 0.887959
vt 0.411527 0.834764
vt 0.566402 0.876430
vt 0.566402 0.832583
vt 0.643841 0.829190
vt 0.643840 0.870303
vn -0.027341 -0.654322 0.755722
vn 0.662903 -0.576818 0.477327
vn 0.185499 -0.031896 0.982127
vn 0.743603 -0.078833 0.663958
vn 0.830290 -0.552268 -0.074950
vn 0.996187 -0.037069 0.078973
vn 0.584196 0.514081 0.628041
vn -0.111316 0.519049 0.847465
vn 0.823127 0.563956 -0.066447
vn -0.058378 0.988586 0.138889
vn -0.481845 0.629310 0.609750
vn 0.494592 0.717045 -0.491147
vn -0.792113 0.557368 0.248794
vn -0.664484 0.565468 -0.488577
vn 0.039609 0.604021 -0.795983
vn -0.997900 0.000182 -0.064773
vn -0.760193 -0.004850 -0.649679
vn -0.201699 0.022055 -0.979199
vn -0.601165 -0.554545 -0.575396
vn -0.751182 -0.640774 0.158534
vn 0.041779 -0.543143 -0.838600
vn 0.054603 -0.998468 -0.008972
vn -0.469551 -0.743212 0.476610
vn 0.532840 -0.665628 -0.522513
vn 0.692315 0.032073 -0.720883
vn -0.661441 -0.036614 0.749103
vn 0.466309 -0.816551 0.340296
vn 0.945685 -0.235452 -0.224148
vn 0.749934 -0.045187 0.659968
vn 0.962202 -0.005170 -0.272289
vn -0.155594 -0.064712 0.985699
vn -0.095092 -0.295059 0.950735
vn 0.998540 -0.032491 0.043157
vn 0.738964 -0.045326 0.672218
vn 0.996144 -0.066287 -0.057476
vn 0.741105 -0.064342 0.668299
vn 0.056076 -0.131354 0.989748
vn 0.154873 -0.085222 0.984252
vn 0.272730 0.007246 -0.962063
vn 0.029278 0.078685 -0.996470
vn -0.718817 0.073723 -0.691279
vn -0.703778 0.087122 -0.705058
vn 0.056466 0.023274 -0.998133
vn -0.745257 0.027695 -0.666202
vn -0.952247 -0.055806 0.300186
vn -0.999525 0.028484 -0.011801
vn -0.931283 -0.078520 0.355735
vn 0.105438 -0.368087 -0.923794
vn -0.580265 -0.554673 -0.596348
vn -0.888880 -0.435261 0.142970
f 1/1/1 2/2/2 4/3/3
f 4/3/3 2/2/2 5/4/4
f 3/5/5 6/6/6 2/2/2
f 2/2/2 6/6/6 5/4/4
f 5/4/4 8/7/7 4/3/3
f 4/3/3 8/7/7 7/8/8
f 5/4/4 6/6/6 8/7/7
f 8/7/7 6/6/6 9/9/9
f 8/10/7 11/11/10 7/12/8
f 7/12/8 11/11/10 10/13/11
f 8/10/7 9/14/9 11/11/10
f 11/11/10 9/14/9 12/15/12
f 10/13/11 11/11/10 13/16/13
f 13/16/13 11/11/10 14/17/14
f 12/15/12 15/18/15 11/11/10
f 11/11/10 15/18/15 14/17/14
f 13/19/13 14/20/14 16/21/16
f 16/21/16 14/20/14 17/22/17
f 15/23/15 18/24/18 14/20/14
f 14/20/14 18/24/18 17/22/17
f 17/22/17 20/25/19 16/21/16
f 16/21/16 20/25/19 19/26/20
f 17/22/17 18/24/18 20/25/19
f 20/25/19 18/24/18 21/27/21
f 20/28/19 23/29/22 19/30/20
f 19/30/20 23/29/22 22/31/23
f 20/28/19 21/32/21 23/29/22
f 23/29/22 21/32/21 24/33/24
f 22/31/23 23/29/22 1/34/1
f 1/34/1 23/29/22 2/35/2
f 24/33/24 3/36/5 23/29/22
f 23/29/22 3/36/5 2/35/2
f 24/37/24 21/38/21 25/39/25
f 25/39/25 21/38/21 18/40/18
f 24/37/24 25/39/25 3/41/5
f 3/41/5 25/39/25 6/42/6
f 18/40/18 15/43/15 25/39/25
f 25/39/25 15/43/15 12/44/12
f 6/42/6 25/39/25 9/45/9
f 9/45/9 25/39/25 12/44/12
f 22/46/23 26/47/26 19/48/20
f 19/48/20 26/47/26 16/49/16
f 22/46/23 1/50/1 26/47/26
f 26/47/26 1/50/1 4/51/3
f 16/49/16 26/47/26 13/52/13
f 13/52/13 26/47/26 10/53/11
f 4/51/3 7/54/8 26/47/26
f 26/47/26 7/54/8 10/53/11
f 37/55/27 28/56/28 44/57/29
f 44/57/29 28/56/28 41/58/30
f 40/59/31 27/60/32 44/57/29
f 44/57/29 27/60/32 37/55/27
f 41/58/30 43/61/33 44/57/29
f 44/57/29 43/61/33 45/62/34
f 30/63/35 38/64/36 43/61/33
f 43/61/33 38/64/36 45/62/34
f 29/65/37 42/66/38 38/64/36
f 38/64/36 42/66/38 45/62/34
f 40/59/31 44/57/29 42/66/38
f 42/66/38 44/57/29 45/62/34
f 32/67/39 49/68/40 39/69/41
f 39/69/41 49/68/40 46/70/42
f 49/68/40 34/71/43 46/70/42
f 46/70/42 34/71/43 47/72/44
f 33/73/45 50/74/46 47/72/44
f 47/72/44 50/74/46 46/70/42
f 31/75/47 39/69/41 50/74/46
f 50/74/46 39/69/41 46/70/42
f 34/71/43 36/76/48 47/72/44
f 47/72/44 36/76/48 48/77/49
f 48/77/49 35/78/50 47/72/44
f 47/72/44 35/78/50 33/73/45
f 28/79/28 37/80/27 36/81/48
f 36/81/48 37/80/27 48/82/49
f 27/83/32 35/84/50 37/80/27
f 37/80/27 35/84/50 48/82/49
f 41/85/30 28/86/28 34/87/43
f 34/87/43 28/86/28 36/88/48
f 30/89/35 43/90/33 32/91/39
f 32/91/39 43/90/33 49/92/40
f 43/90/33 41/85/30 49/92/40
f 49/92/40 41/85/30 34/87/43
f 35/93/50 27/94/32 33/95/45
f 33/95/45 27/94/32 40/96/31
f 33/95/45 40/96/31 50/97/46
f 50/97/46 40/96/31 42/98/38
f 29/99/37 31/100/47 42/98/38
f 42/98/38 31/100/47 50/97/46
