# This file uses centimeters as units for non-parametric coordinates.

v 235.935746 178.685174 -56.196610
v 230.072880 179.201479 -52.833323
v 228.261593 178.661508 -46.156674
v 234.162995 186.375125 -57.420993
v 227.633214 185.894068 -54.574249
v 225.654789 185.654829 -47.890676
v 235.800994 193.798506 -55.459701
v 228.686061 193.597389 -53.316026
v 226.770700 193.691372 -45.958335
v 240.396215 194.861507 -52.973426
v 235.186026 197.884683 -47.260660
v 229.902652 195.121409 -40.886039
v 243.516724 194.776583 -48.832523
v 242.027564 195.130569 -41.134582
v 235.067482 194.445634 -38.180203
v 246.371623 187.574202 -46.777193
v 244.212984 187.208363 -40.005353
v 237.841607 186.768766 -36.616706
v 244.982320 179.448962 -47.967861
v 242.705977 178.653814 -41.602583
v 236.909900 178.720193 -38.572330
v 241.295336 179.522438 -52.999112
v 236.547598 176.318361 -47.244074
v 230.638275 177.394474 -40.767871
v 228.654032 185.825224 -39.246652
v 242.964957 187.263119 -55.289818
v 237.796762 159.466147 -48.858773
v 236.385847 159.338743 -47.206804
v 236.386990 178.016958 -49.320285
v 234.502553 177.847013 -47.190948
v 238.122665 178.163634 -47.789671
v 236.132716 177.984773 -45.753380
v 239.666426 162.542212 -47.396293
v 237.762982 162.370855 -45.352377
v 239.620887 159.620392 -47.283365
v 238.092534 159.482789 -45.637760
v 237.085344 158.381032 -48.114907
v 235.444770 177.931985 -48.255619
v 237.127693 178.074204 -46.771525
v 237.688556 162.374899 -49.080526
v 235.932522 162.216362 -47.035098
v 236.693902 172.790915 -48.887101
v 235.262810 172.661912 -47.290261
v 236.718893 162.287882 -48.137308
v 235.905298 172.720237 -48.152225
v 237.741233 172.875421 -46.545646
v 238.895081 162.471771 -46.213331
v 239.106531 158.551772 -46.309609
v 236.852069 172.796224 -45.891796
v 238.317529 172.928176 -47.474055
vt 0.037013 0.861564
vt 0.027355 0.734793
vt 0.167650 0.890199
vt 0.167663 0.732067
vt 0.037013 0.611436
vt 0.167650 0.578459
vt 0.308569 0.734793
vt 0.298287 0.861564
vt 0.298287 0.611436
vt 0.639004 0.710387
vt 0.820067 0.707662
vt 0.694973 0.837159
vt 0.818259 0.888097
vt 0.692217 0.587031
vt 0.818675 0.533981
vt 0.940611 0.833378
vt 0.989729 0.706763
vt 0.943170 0.584589
vt 0.039763 0.516572
vt 0.029481 0.389957
vt 0.170401 0.547293
vt 0.170388 0.390856
vt 0.039763 0.267783
vt 0.170401 0.236600
vt 0.310695 0.389957
vt 0.301038 0.516572
vt 0.301038 0.267783
vt 0.315210 0.563716
vt 0.485193 0.564615
vt 0.364648 0.690331
vt 0.487000 0.745418
vt 0.362089 0.441542
vt 0.486585 0.390647
vt 0.610287 0.694112
vt 0.666549 0.567340
vt 0.613042 0.443983
vt 0.669370 0.335160
vt 0.682481 0.210664
vt 0.813203 0.333768
vt 0.813119 0.164276
vt 0.682481 0.461616
vt 0.813119 0.502622
vt 0.943756 0.210664
vt 0.957716 0.335160
vt 0.943756 0.461616
vt 0.633569 0.199173
vt 0.489735 0.197365
vt 0.620457 0.076820
vt 0.489820 0.030007
vt 0.620457 0.322459
vt 0.489820 0.365233
vt 0.359183 0.076820
vt 0.345223 0.199173
vt 0.359183 0.322459
vt 0.654607 0.113820
vt 0.654607 0.075817
vt 0.732044 0.112337
vt 0.732044 0.080588
vt 0.732044 0.144086
vt 0.654607 0.151822
vt 0.886920 0.085291
vt 0.886920 0.110666
vt 0.964357 0.085223
vt 0.964358 0.110477
vt 0.964358 0.135731
vt 0.886920 0.136041
vt 0.027867 0.081350
vt 0.105305 0.081417
vt 0.027867 0.106604
vt 0.105305 0.106959
vt 0.260181 0.075281
vt 0.260181 0.108399
vt 0.260181 0.141517
vt 0.105305 0.132501
vt 0.027867 0.131859
vt 0.337618 0.069079
vt 0.337618 0.109485
vt 0.337619 0.149891
vt 0.131509 0.230883
vt 0.088308 0.232280
vt 0.134767 0.170666
vt 0.088833 0.168174
vt 0.045106 0.233677
vt 0.042899 0.165682
vt 0.411757 0.801450
vt 0.334319 0.801070
vt 0.411757 0.751434
vt 0.334319 0.748101
vt 0.644071 0.808110
vt 0.566633 0.804971
vt 0.644071 0.769496
vt 0.566633 0.762132
vt 0.334089 0.893362
vt 0.334089 0.833551
vt 0.411527 0.887959
vt 0.411527 0.834764
vt 0.566402 0.876430
vt 0.566402 0.832583
vt 0.643841 0.829190
vt 0.643840 0.870303
vn 0.087982 -0.603561 -0.792448
vn -0.606774 -0.604446 -0.516207
vn -0.194381 0.002673 -0.980922
vn -0.741381 -0.102786 -0.663166
vn -0.777899 -0.626981 0.042056
vn -0.991207 -0.109848 -0.073775
vn -0.644288 0.495264 -0.582759
vn 0.042789 0.572980 -0.818452
vn -0.866730 0.486052 0.111949
vn -0.052651 0.996325 -0.067562
vn 0.409946 0.705944 -0.577570
vn -0.553742 0.637645 0.535518
vn 0.737582 0.639027 -0.218216
vn 0.609635 0.592527 0.526552
vn -0.094075 0.551425 0.828903
vn 0.995650 0.073851 0.056808
vn 0.766283 0.021497 0.642144
vn 0.211582 -0.011063 0.977298
vn 0.664005 -0.530758 0.526681
vn 0.801596 -0.560935 -0.206874
vn 0.029776 -0.590724 0.806324
vn 0.055589 -0.996466 -0.062980
vn 0.532296 -0.665726 -0.522944
vn -0.459201 -0.742954 0.486984
vn -0.683486 -0.057135 0.727724
vn 0.652719 0.051630 -0.755839
vn -0.380985 -0.834911 -0.397208
vn -0.921987 -0.321143 0.216351
vn -0.751097 -0.069974 -0.656473
vn -0.955624 -0.092846 0.279576
vn 0.148627 -0.003516 -0.988887
vn 0.113592 -0.237299 -0.964773
vn -0.993522 -0.107242 -0.037588
vn -0.740286 -0.068657 -0.668777
vn -0.987431 -0.145928 0.060698
vn -0.740424 -0.087947 -0.666362
vn -0.054599 -0.085660 -0.994827
vn -0.157919 -0.047815 -0.986294
vn -0.259603 -0.061493 0.963756
vn -0.024354 0.026563 0.999350
vn 0.717473 0.094420 0.690158
vn 0.701219 0.105910 0.705035
vn -0.045339 -0.030659 0.998501
vn 0.748295 0.051897 0.661333
vn 0.949816 0.032664 -0.311098
vn 0.994468 0.104877 0.005919
vn 0.929886 0.011226 -0.367676
vn -0.052505 -0.423544 0.904352
vn 0.643991 -0.533845 0.547982
vn 0.918597 -0.352379 -0.178908
f 1/1/1 2/2/2 4/3/3
f 4/3/3 2/2/2 5/4/4
f 3/5/5 6/6/6 2/2/2
f 2/2/2 6/6/6 5/4/4
f 5/4/4 8/7/7 4/3/3
f 4/3/3 8/7/7 7/8/8
f 5/4/4 6/6/6 8/7/7
f 8/7/7 6/6/6 9/9/9
f 8/10/7 11/11/10 7/12/8
f 7/12/8 11/11/10 10/13/11
f 8/10/7 9/14/9 11/11/10
f 11/11/10 9/14/9 12/15/12
f 10/13/11 11/11/10 13/16/13
f 13/16/13 11/11/10 14/17/14
f 12/15/12 15/18/15 11/11/10
f 11/11/10 15/18/15 14/17/14
f 13/19/13 14/20/14 16/21/16
f 16/21/16 14/20/14 17/22/17
f 15/23/15 18/24/18 14/20/14
f 14/20/14 18/24/18 17/22/17
f 17/22/17 20/25/19 16/21/16
f 16/21/16 20/25/19 19/26/20
f 17/22/17 18/24/18 20/25/19
f 20/25/19 18/24/18 21/27/21
f 20/28/19 23/29/22 19/30/20
f 19/30/20 23/29/22 22/31/23
f 20/28/19 21/32/21 23/29/22
f 23/29/22 21/32/21 24/33/24
f 22/31/23 23/29/22 1/34/1
f 1/34/1 23/29/22 2/35/2
f 24/33/24 3/36/5 23/29/22
f 23/29/22 3/36/5 2/35/2
f 24/37/24 21/38/21 25/39/25
f 25/39/25 21/38/21 18/40/18
f 24/37/24 25/39/25 3/41/5
f 3/41/5 25/39/25 6/42/6
f 18/40/18 15/43/15 25/39/25
f 25/39/25 15/43/15 12/44/12
f 6/42/6 25/39/25 9/45/9
f 9/45/9 25/39/25 12/44/12
f 22/46/23 26/47/26 19/48/20
f 19/48/20 26/47/26 16/49/16
f 22/46/23 1/50/1 26/47/26
f 26/47/26 1/50/1 4/51/3
f 16/49/16 26/47/26 13/52/13
f 13/52/13 26/47/26 10/53/11
f 4/51/3 7/54/8 26/47/26
f 26/47/26 7/54/8 10/53/11
f 37/55/27 28/56/28 44/57/29
f 44/57/29 28/56/28 41/58/30
f 40/59/31 27/60/32 44/57/29
f 44/57/29 27/60/32 37/55/27
f 41/58/30 43/61/33 44/57/29
f 44/57/29 43/61/33 45/62/34
f 30/63/35 38/64/36 43/61/33
f 43/61/33 38/64/36 45/62/34
f 29/65/37 42/66/38 38/64/36
f 38/64/36 42/66/38 45/62/34
f 40/59/31 44/57/29 42/66/38
f 42/66/38 44/57/29 45/62/34
f 32/67/39 49/68/40 39/69/41
f 39/69/41 49/68/40 46/70/42
f 49/68/40 34/71/43 46/70/42
f 46/70/42 34/71/43 47/72/44
f 33/73/45 50/74/46 47/72/44
f 47/72/44 50/74/46 46/70/42
f 31/75/47 39/69/41 50/74/46
f 50/74/46 39/69/41 46/70/42
f 34/71/43 36/76/48 47/72/44
f 47/72/44 36/76/48 48/77/49
f 48/77/49 35/78/50 47/72/44
f 47/72/44 35/78/50 33/73/45
f 28/79/28 37/80/27 36/81/48
f 36/81/48 37/80/27 48/82/49
f 27/83/32 35/84/50 37/80/27
f 37/80/27 35/84/50 48/82/49
f 41/85/30 28/86/28 34/87/43
f 34/87/43 28/86/28 36/88/48
f 30/89/35 43/90/33 32/91/39
f 32/91/39 43/90/33 49/92/40
f 43/90/33 41/85/30 49/92/40
f 49/92/40 41/85/30 34/87/43
f 35/93/50 27/94/32 33/95/45
f 33/95/45 27/94/32 40/96/31
f 33/95/45 40/96/31 50/97/46
f 50/97/46 40/96/31 42/98/38
f 29/99/37 31/100/47 42/98/38
f 42/98/38 31/100/47 50/97/46
