# This file uses centimeters as units for non-parametric coordinates.

v -218.414836 151.244524 -283.622885
v -223.864890 152.604428 -279.741917
v -225.048810 152.598136 -272.897426
v -219.699598 159.055030 -284.991138
v -225.939751 159.474162 -281.521249
v -227.265631 159.787360 -274.666468
v -217.305819 166.354860 -283.495192
v -224.174311 167.087461 -280.682238
v -225.345532 167.757682 -273.175401
v -212.417122 166.997237 -281.493650
v -216.794198 170.891644 -275.435915
v -221.626993 169.060610 -268.474820
v -208.918790 166.747263 -277.657894
v -209.613315 167.643158 -269.862782
v -216.285875 167.914513 -266.236844
v -206.440275 159.336203 -275.583469
v -207.946199 159.548515 -268.618616
v -213.972630 160.016485 -264.625407
v -208.565778 151.344993 -276.306255
v -210.261754 151.123754 -269.717814
v -215.713072 152.011566 -266.156499
v -212.714876 151.606923 -280.975356
v -217.110926 149.244436 -274.663860
v -222.257846 151.316955 -267.700002
v -223.425399 160.022049 -266.343221
v -210.682974 159.015171 -283.731728
v -217.334493 132.229292 -275.699651
v -218.582754 132.346240 -273.915889
v -217.342862 150.856053 -276.786920
v -219.017609 151.008768 -274.481288
v -215.457944 150.873153 -275.431134
v -217.247275 151.024829 -273.207920
v -215.096398 135.146396 -274.544354
v -216.798517 135.295822 -272.321985
v -215.356776 132.245764 -274.307859
v -216.723040 132.365946 -272.518982
v -218.051708 131.266763 -274.847181
v -218.180237 150.932410 -275.634105
v -216.352608 150.948991 -274.319525
v -217.238455 135.129618 -276.029581
v -218.793088 135.274692 -273.820088
v -217.400303 145.633692 -276.170082
v -218.674136 145.748755 -274.439285
v -218.115168 135.201312 -274.995104
v -218.116472 145.690543 -275.360873
v -216.123894 145.708069 -273.939175
v -215.751380 135.222974 -273.290344
v -215.854483 131.287711 -273.245549
v -216.948519 145.764275 -273.200890
v -215.638906 145.648841 -274.920511
vt 0.037013 0.861564
vt 0.027355 0.734793
vt 0.167650 0.890199
vt 0.167663 0.732067
vt 0.037013 0.611436
vt 0.167650 0.578459
vt 0.308569 0.734793
vt 0.298287 0.861564
vt 0.298287 0.611436
vt 0.639004 0.710387
vt 0.820067 0.707662
vt 0.694973 0.837159
vt 0.818259 0.888097
vt 0.692217 0.587031
vt 0.818675 0.533981
vt 0.940611 0.833378
vt 0.989729 0.706763
vt 0.943170 0.584589
vt 0.039763 0.516572
vt 0.029481 0.389957
vt 0.170401 0.547293
vt 0.170388 0.390856
vt 0.039763 0.267783
vt 0.170401 0.236600
vt 0.310695 0.389957
vt 0.301038 0.516572
vt 0.301038 0.267783
vt 0.315210 0.563716
vt 0.485193 0.564615
vt 0.364648 0.690331
vt 0.487000 0.745418
vt 0.362089 0.441542
vt 0.486585 0.390647
vt 0.610287 0.694112
vt 0.666549 0.567340
vt 0.613042 0.443983
vt 0.669370 0.335160
vt 0.682481 0.210664
vt 0.813203 0.333768
vt 0.813119 0.164276
vt 0.682481 0.461616
vt 0.813119 0.502622
vt 0.943756 0.210664
vt 0.957716 0.335160
vt 0.943756 0.461616
vt 0.633569 0.199173
vt 0.489735 0.197365
vt 0.620457 0.076820
vt 0.489820 0.030007
vt 0.620457 0.322459
vt 0.489820 0.365233
vt 0.359183 0.076820
vt 0.345223 0.199173
vt 0.359183 0.322459
vt 0.654607 0.113820
vt 0.654607 0.075817
vt 0.732044 0.112337
vt 0.732044 0.080588
vt 0.732044 0.144086
vt 0.654607 0.151822
vt 0.886920 0.085291
vt 0.886920 0.110666
vt 0.964357 0.085223
vt 0.964358 0.110477
vt 0.964358 0.135731
vt 0.886920 0.136041
vt 0.027867 0.081350
vt 0.105305 0.081417
vt 0.027867 0.106604
vt 0.105305 0.106959
vt 0.260181 0.075281
vt 0.260181 0.108399
vt 0.260181 0.141517
vt 0.105305 0.132501
vt 0.027867 0.131859
vt 0.337618 0.069079
vt 0.337618 0.109485
vt 0.337619 0.149891
vt 0.131509 0.230883
vt 0.088308 0.232280
vt 0.134767 0.170666
vt 0.088833 0.168174
vt 0.045106 0.233677
vt 0.042899 0.165682
vt 0.411757 0.801450
vt 0.334319 0.801070
vt 0.411757 0.751434
vt 0.334319 0.748101
vt 0.644071 0.808110
vt 0.566633 0.804971
vt 0.644071 0.769496
vt 0.566633 0.762132
vt 0.334089 0.893362
vt 0.334089 0.833551
vt 0.411527 0.887959
vt 0.411527 0.834764
vt 0.566402 0.876430
vt 0.566402 0.832583
vt 0.643841 0.829190
vt 0.643840 0.870303
vn -0.058198 -0.638966 -0.767030
vn -0.712668 -0.564104 -0.417003
vn -0.288524 -0.014251 -0.957367
vn -0.809933 -0.064234 -0.582995
vn -0.822024 -0.549582 0.149116
vn -0.999165 -0.031465 0.026053
vn -0.644780 0.528818 -0.551915
vn 0.025684 0.534724 -0.844637
vn -0.807005 0.566505 0.166775
vn 0.052013 0.991323 -0.120721
vn 0.421109 0.639052 -0.643646
vn -0.432754 0.709121 0.556661
vn 0.766342 0.558246 -0.317931
vn 0.715329 0.552593 0.427722
vn 0.049856 0.588299 0.807105
vn 0.999136 -0.005174 -0.041237
vn 0.824625 -0.019228 0.565353
vn 0.304258 0.004395 0.952579
vn 0.655784 -0.568576 0.496658
vn 0.724679 -0.641166 -0.252478
vn 0.042543 -0.559137 0.827983
vn -0.062030 -0.998032 -0.009175
vn 0.409199 -0.735350 -0.540201
vn -0.481314 -0.673473 0.561044
vn -0.611845 0.022643 0.790653
vn 0.578110 -0.026567 -0.815526
vn -0.505327 -0.806243 -0.307600
vn -0.918686 -0.235215 0.317316
vn -0.815687 -0.030659 -0.577681
vn -0.928039 -0.005747 0.372439
vn 0.049913 -0.048433 -0.997579
vn -0.008520 -0.278528 -0.960390
vn -0.997696 -0.027494 0.062018
vn -0.806076 -0.030635 -0.591019
vn -0.984942 -0.063015 0.160993
vn -0.807857 -0.049694 -0.587281
vn -0.161403 -0.114003 -0.980282
vn -0.258659 -0.067622 -0.963599
vn -0.169409 -0.008097 0.985513
vn 0.076892 0.061668 0.995131
vn 0.788159 0.058765 0.612660
vn 0.774712 0.071977 0.628205
vn 0.049585 0.006387 0.998749
vn 0.811634 0.013090 0.584019
vn 0.914633 -0.054694 -0.400568
vn 0.995340 0.024022 -0.093391
vn 0.887676 -0.076357 -0.454094
vn -0.010399 -0.384375 0.923118
vn 0.637204 -0.569014 0.519803
vn 0.865172 -0.436595 -0.246701
f 1/1/1 2/2/2 4/3/3
f 4/3/3 2/2/2 5/4/4
f 3/5/5 6/6/6 2/2/2
f 2/2/2 6/6/6 5/4/4
f 5/4/4 8/7/7 4/3/3
f 4/3/3 8/7/7 7/8/8
f 5/4/4 6/6/6 8/7/7
f 8/7/7 6/6/6 9/9/9
f 8/10/7 11/11/10 7/12/8
f 7/12/8 11/11/10 10/13/11
f 8/10/7 9/14/9 11/11/10
f 11/11/10 9/14/9 12/15/12
f 10/13/11 11/11/10 13/16/13
f 13/16/13 11/11/10 14/17/14
f 12/15/12 15/18/15 11/11/10
f 11/11/10 15/18/15 14/17/14
f 13/19/13 14/20/14 16/21/16
f 16/21/16 14/20/14 17/22/17
f 15/23/15 18/24/18 14/20/14
f 14/20/14 18/24/18 17/22/17
f 17/22/17 20/25/19 16/21/16
f 16/21/16 20/25/19 19/26/20
f 17/22/17 18/24/18 20/25/19
f 20/25/19 18/24/18 21/27/21
f 20/28/19 23/29/22 19/30/20
f 19/30/20 23/29/22 22/31/23
f 20/28/19 21/32/21 23/29/22
f 23/29/22 21/32/21 24/33/24
f 22/31/23 23/29/22 1/34/1
f 1/34/1 23/29/22 2/35/2
f 24/33/24 3/36/5 23/29/22
f 23/29/22 3/36/5 2/35/2
f 24/37/24 21/38/21 25/39/25
f 25/39/25 21/38/21 18/40/18
f 24/37/24 25/39/25 3/41/5
f 3/41/5 25/39/25 6/42/6
f 18/40/18 15/43/15 25/39/25
f 25/39/25 15/43/15 12/44/12
f 6/42/6 25/39/25 9/45/9
f 9/45/9 25/39/25 12/44/12
f 22/46/23 26/47/26 19/48/20
f 19/48/20 26/47/26 16/49/16
f 22/46/23 1/50/1 26/47/26
f 26/47/26 1/50/1 4/51/3
f 16/49/16 26/47/26 13/52/13
f 13/52/13 26/47/26 10/53/11
f 4/51/3 7/54/8 26/47/26
f 26/47/26 7/54/8 10/53/11
f 37/55/27 28/56/28 44/57/29
f 44/57/29 28/56/28 41/58/30
f 40/59/31 27/60/32 44/57/29
f 44/57/29 27/60/32 37/55/27
f 41/58/30 43/61/33 44/57/29
f 44/57/29 43/61/33 45/62/34
f 30/63/35 38/64/36 43/61/33
f 43/61/33 38/64/36 45/62/34
f 29/65/37 42/66/38 38/64/36
f 38/64/36 42/66/38 45/62/34
f 40/59/31 44/57/29 42/66/38
f 42/66/38 44/57/29 45/62/34
f 32/67/39 49/68/40 39/69/41
f 39/69/41 49/68/40 46/70/42
f 49/68/40 34/71/43 46/70/42
f 46/70/42 34/71/43 47/72/44
f 33/73/45 50/74/46 47/72/44
f 47/72/44 50/74/46 46/70/42
f 31/75/47 39/69/41 50/74/46
f 50/74/46 39/69/41 46/70/42
f 34/71/43 36/76/48 47/72/44
f 47/72/44 36/76/48 48/77/49
f 48/77/49 35/78/50 47/72/44
f 47/72/44 35/78/50 33/73/45
f 28/79/28 37/80/27 36/81/48
f 36/81/48 37/80/27 48/82/49
f 27/83/32 35/84/50 37/80/27
f 37/80/27 35/84/50 48/82/49
f 41/85/30 28/86/28 34/87/43
f 34/87/43 28/86/28 36/88/48
f 30/89/35 43/90/33 32/91/39
f 32/91/39 43/90/33 49/92/40
f 43/90/33 41/85/30 49/92/40
f 49/92/40 41/85/30 34/87/43
f 35/93/50 27/94/32 33/95/45
f 33/95/45 27/94/32 40/96/31
f 33/95/45 40/96/31 50/97/46
f 50/97/46 40/96/31 42/98/38
f 29/99/37 31/100/47 42/98/38
f 42/98/38 31/100/47 50/97/46
