# This file uses centimeters as units for non-parametric coordinates.

v 204.249755 197.022107 -72.765088
v 206.319095 198.426386 -65.632179
v 213.047839 198.380191 -61.896857
v 202.334192 205.657554 -71.829355
v 203.687089 206.007493 -64.030834
v 210.374182 206.312845 -60.139536
v 204.758074 213.780773 -73.702808
v 205.193859 214.469328 -65.482984
v 212.618839 215.170964 -61.511444
v 208.634211 214.568713 -78.079218
v 213.367278 218.792736 -71.245159
v 218.890495 216.663461 -63.671458
v 213.923839 214.339541 -80.342426
v 221.823861 215.298369 -76.761771
v 223.182565 215.476900 -68.455703
v 217.012889 206.164638 -82.264681
v 223.749655 206.354892 -78.146059
v 225.727918 206.761037 -70.379639
v 215.497115 197.277760 -80.397867
v 221.771602 196.985571 -76.222794
v 223.506996 197.867714 -69.210667
v 209.098229 197.511633 -77.757760
v 214.102208 194.802730 -70.884092
v 219.506016 196.992852 -62.935347
v 220.482338 206.613642 -61.117711
v 206.941152 205.760943 -80.802658
v 212.970631 175.951178 -71.226091
v 214.381181 176.054770 -69.268203
v 211.793292 196.590334 -71.397212
v 213.594167 196.724927 -68.802382
v 213.899297 196.637030 -72.874229
v 215.572143 196.768784 -70.189609
v 214.989990 179.217216 -73.111953
v 216.693773 179.347942 -70.518901
v 215.148152 175.998631 -72.787053
v 216.520998 176.103814 -70.703817
v 213.602732 174.870376 -70.176029
v 212.693729 196.657630 -70.099797
v 214.735721 196.702907 -71.531920
v 212.654762 179.166935 -71.413161
v 214.398894 179.295348 -68.979144
v 212.427986 190.801875 -71.172874
v 213.773797 190.903100 -69.207576
v 213.417057 179.228740 -70.117817
v 213.013198 190.850565 -70.127822
v 215.227427 190.899350 -71.693412
v 216.062833 179.287527 -71.968415
v 216.079854 174.925873 -71.890014
v 215.698877 190.945709 -70.560789
v 214.377806 190.844640 -72.559442
vt 0.037013 0.861564
vt 0.027355 0.734793
vt 0.167650 0.890199
vt 0.167663 0.732067
vt 0.037013 0.611436
vt 0.167650 0.578459
vt 0.308569 0.734793
vt 0.298287 0.861564
vt 0.298287 0.611436
vt 0.639004 0.710387
vt 0.820067 0.707662
vt 0.694973 0.837159
vt 0.818259 0.888097
vt 0.692217 0.587031
vt 0.818675 0.533981
vt 0.940611 0.833378
vt 0.989729 0.706763
vt 0.943170 0.584589
vt 0.039763 0.516572
vt 0.029481 0.389957
vt 0.170401 0.547293
vt 0.170388 0.390856
vt 0.039763 0.267783
vt 0.170401 0.236600
vt 0.310695 0.389957
vt 0.301038 0.516572
vt 0.301038 0.267783
vt 0.315210 0.563716
vt 0.485193 0.564615
vt 0.364648 0.690331
vt 0.487000 0.745418
vt 0.362089 0.441542
vt 0.486585 0.390647
vt 0.610287 0.694112
vt 0.666549 0.567340
vt 0.613042 0.443983
vt 0.669370 0.335160
vt 0.682481 0.210664
vt 0.813203 0.333768
vt 0.813119 0.164276
vt 0.682481 0.461616
vt 0.813119 0.502622
vt 0.943756 0.210664
vt 0.957716 0.335160
vt 0.943756 0.461616
vt 0.633569 0.199173
vt 0.489735 0.197365
vt 0.620457 0.076820
vt 0.489820 0.030007
vt 0.620457 0.322459
vt 0.489820 0.365233
vt 0.359183 0.076820
vt 0.345223 0.199173
vt 0.359183 0.322459
vt 0.654607 0.113820
vt 0.654607 0.075817
vt 0.732044 0.112337
vt 0.732044 0.080588
vt 0.732044 0.144086
vt 0.654607 0.151822
vt 0.886920 0.085291
vt 0.886920 0.110666
vt 0.964357 0.085223
vt 0.964358 0.110477
vt 0.964358 0.135731
vt 0.886920 0.136041
vt 0.027867 0.081350
vt 0.105305 0.081417
vt 0.027867 0.106604
vt 0.105305 0.106959
vt 0.260181 0.075281
vt 0.260181 0.108399
vt 0.260181 0.141517
vt 0.105305 0.132501
vt 0.027867 0.131859
vt 0.337618 0.069079
vt 0.337618 0.109485
vt 0.337619 0.149891
vt 0.131509 0.230883
vt 0.088308 0.232280
vt 0.134767 0.170666
vt 0.088833 0.168174
vt 0.045106 0.233677
vt 0.042899 0.165682
vt 0.411757 0.801450
vt 0.334319 0.801070
vt 0.411757 0.751434
vt 0.334319 0.748101
vt 0.644071 0.808110
vt 0.566633 0.804971
vt 0.644071 0.769496
vt 0.566633 0.762132
vt 0.334089 0.893362
vt 0.334089 0.833551
vt 0.411527 0.887959
vt 0.411527 0.834764
vt 0.566402 0.876430
vt 0.566402 0.832583
vt 0.643841 0.829190
vt 0.643840 0.870303
vn -0.741614 -0.638020 -0.207217
vn -0.628002 -0.571761 0.527923
vn -0.998953 -0.015581 -0.043021
vn -0.817178 -0.071718 0.571906
vn -0.128721 -0.559646 0.818674
vn -0.304350 -0.042012 0.951634
vn -0.733803 0.522277 0.434465
vn -0.790776 0.536667 -0.294383
vn -0.109450 0.556473 0.823625
vn -0.099439 0.992297 -0.073885
vn -0.471479 0.645571 -0.600787
vn 0.380654 0.702309 0.601551
vn -0.049420 0.568021 -0.821529
vn 0.639028 0.560223 -0.527062
vn 0.776813 0.587197 0.227512
vn 0.290046 0.005395 -0.956997
vn 0.805347 -0.011567 -0.592691
vn 0.999633 0.005900 0.026440
vn 0.685311 -0.561677 -0.463538
vn 0.001846 -0.631619 -0.775277
vn 0.797449 -0.560249 0.224047
vn -0.026532 -0.998829 0.040460
vn -0.372822 -0.728784 -0.574349
vn 0.373681 -0.680686 0.630102
vn 0.545020 0.014809 0.838292
vn -0.579594 -0.019043 -0.814683
vn -0.455521 -0.812297 0.364245
vn -0.002258 -0.245674 0.969350
vn -0.814051 -0.038204 0.579535
vn 0.046128 -0.016157 0.998805
vn -0.925350 -0.046132 -0.376297
vn -0.908746 -0.276835 -0.312318
vn -0.269906 -0.038087 0.962133
vn -0.823481 -0.038055 0.566066
vn -0.172174 -0.073665 0.982308
vn -0.820539 -0.057144 0.568727
vn -0.978468 -0.113949 -0.172096
vn -0.994888 -0.068625 -0.074080
vn 0.874815 -0.011626 0.484318
vn 0.964775 0.060702 0.255979
vn 0.838016 0.065965 -0.541643
vn 0.848265 0.079013 -0.523644
vn 0.959365 0.005135 0.282122
vn 0.818699 0.020579 -0.573853
vn -0.076927 -0.044361 -0.996049
vn 0.239507 0.034646 -0.970276
vn -0.136263 -0.066199 -0.988459
vn 0.869460 -0.386204 0.308035
vn 0.701065 -0.562382 -0.438444
vn 0.052942 -0.426260 -0.903050
f 1/1/1 2/2/2 4/3/3
f 4/3/3 2/2/2 5/4/4
f 3/5/5 6/6/6 2/2/2
f 2/2/2 6/6/6 5/4/4
f 5/4/4 8/7/7 4/3/3
f 4/3/3 8/7/7 7/8/8
f 5/4/4 6/6/6 8/7/7
f 8/7/7 6/6/6 9/9/9
f 8/10/7 11/11/10 7/12/8
f 7/12/8 11/11/10 10/13/11
f 8/10/7 9/14/9 11/11/10
f 11/11/10 9/14/9 12/15/12
f 10/13/11 11/11/10 13/16/13
f 13/16/13 11/11/10 14/17/14
f 12/15/12 15/18/15 11/11/10
f 11/11/10 15/18/15 14/17/14
f 13/19/13 14/20/14 16/21/16
f 16/21/16 14/20/14 17/22/17
f 15/23/15 18/24/18 14/20/14
f 14/20/14 18/24/18 17/22/17
f 17/22/17 20/25/19 16/21/16
f 16/21/16 20/25/19 19/26/20
f 17/22/17 18/24/18 20/25/19
f 20/25/19 18/24/18 21/27/21
f 20/28/19 23/29/22 19/30/20
f 19/30/20 23/29/22 22/31/23
f 20/28/19 21/32/21 23/29/22
f 23/29/22 21/32/21 24/33/24
f 22/31/23 23/29/22 1/34/1
f 1/34/1 23/29/22 2/35/2
f 24/33/24 3/36/5 23/29/22
f 23/29/22 3/36/5 2/35/2
f 24/37/24 21/38/21 25/39/25
f 25/39/25 21/38/21 18/40/18
f 24/37/24 25/39/25 3/41/5
f 3/41/5 25/39/25 6/42/6
f 18/40/18 15/43/15 25/39/25
f 25/39/25 15/43/15 12/44/12
f 6/42/6 25/39/25 9/45/9
f 9/45/9 25/39/25 12/44/12
f 22/46/23 26/47/26 19/48/20
f 19/48/20 26/47/26 16/49/16
f 22/46/23 1/50/1 26/47/26
f 26/47/26 1/50/1 4/51/3
f 16/49/16 26/47/26 13/52/13
f 13/52/13 26/47/26 10/53/11
f 4/51/3 7/54/8 26/47/26
f 26/47/26 7/54/8 10/53/11
f 37/55/27 28/56/28 44/57/29
f 44/57/29 28/56/28 41/58/30
f 40/59/31 27/60/32 44/57/29
f 44/57/29 27/60/32 37/55/27
f 41/58/30 43/61/33 44/57/29
f 44/57/29 43/61/33 45/62/34
f 30/63/35 38/64/36 43/61/33
f 43/61/33 38/64/36 45/62/34
f 29/65/37 42/66/38 38/64/36
f 38/64/36 42/66/38 45/62/34
f 40/59/31 44/57/29 42/66/38
f 42/66/38 44/57/29 45/62/34
f 32/67/39 49/68/40 39/69/41
f 39/69/41 49/68/40 46/70/42
f 49/68/40 34/71/43 46/70/42
f 46/70/42 34/71/43 47/72/44
f 33/73/45 50/74/46 47/72/44
f 47/72/44 50/74/46 46/70/42
f 31/75/47 39/69/41 50/74/46
f 50/74/46 39/69/41 46/70/42
f 34/71/43 36/76/48 47/72/44
f 47/72/44 36/76/48 48/77/49
f 48/77/49 35/78/50 47/72/44
f 47/72/44 35/78/50 33/73/45
f 28/79/28 37/80/27 36/81/48
f 36/81/48 37/80/27 48/82/49
f 27/83/32 35/84/50 37/80/27
f 37/80/27 35/84/50 48/82/49
f 41/85/30 28/86/28 34/87/43
f 34/87/43 28/86/28 36/88/48
f 30/89/35 43/90/33 32/91/39
f 32/91/39 43/90/33 49/92/40
f 43/90/33 41/85/30 49/92/40
f 49/92/40 41/85/30 34/87/43
f 35/93/50 27/94/32 33/95/45
f 33/95/45 27/94/32 40/96/31
f 33/95/45 40/96/31 50/97/46
f 50/97/46 40/96/31 42/98/38
f 29/99/37 31/100/47 42/98/38
f 42/98/38 31/100/47 50/97/46
