# This file uses centimeters as units for non-parametric coordinates.

v 201.184098 199.391013 -76.414151
v 207.003407 200.817753 -80.328271
v 208.513159 200.445772 -87.444418
v 202.247996 207.703747 -75.273761
v 208.905597 208.206082 -78.687098
v 210.555086 208.174038 -85.822551
v 199.588699 215.144936 -77.246529
v 206.869066 216.043100 -79.962489
v 208.371997 216.338008 -87.801507
v 194.531008 215.479097 -79.552884
v 199.239218 219.377604 -85.895092
v 204.626659 217.250298 -92.916339
v 191.027236 214.829007 -83.687076
v 192.035927 215.321410 -91.855487
v 199.156666 215.678687 -95.409363
v 188.729845 206.838431 -85.628672
v 190.575100 206.702059 -92.868115
v 197.028185 207.214124 -96.839154
v 191.158895 198.614792 -84.444882
v 193.200873 198.056135 -91.264484
v 199.022618 199.008464 -94.823593
v 195.310724 199.356979 -79.414790
v 200.230764 196.693945 -85.749739
v 205.833655 198.664818 -92.931755
v 206.856381 207.742138 -94.685745
v 192.859308 207.187079 -76.929628
v 200.918724 178.963249 -83.917836
v 202.292531 179.031881 -85.742123
v 200.342926 198.520055 -83.589810
v 202.182776 198.613097 -85.945585
v 198.422596 198.371989 -85.080118
v 200.379191 198.474032 -87.345290
v 198.536422 181.846239 -85.337773
v 200.401740 181.942128 -87.605254
v 198.902696 178.808231 -85.449276
v 200.400148 178.885145 -87.274606
v 201.731219 177.935754 -84.740844
v 201.262850 198.566576 -84.767697
v 199.400893 198.423010 -86.212704
v 200.720830 182.013895 -83.702360
v 202.431354 182.099503 -85.961749
v 200.579263 193.020539 -84.005963
v 201.977808 193.091559 -85.773784
v 201.677402 182.064493 -84.754751
v 201.359311 193.062266 -84.828068
v 199.328867 192.905869 -86.391404
v 199.269390 181.878761 -86.628421
v 199.493536 177.762924 -86.500298
v 200.219675 192.956038 -87.135192
v 198.784124 192.882367 -85.380390
vt 0.037013 0.861564
vt 0.027355 0.734793
vt 0.167650 0.890199
vt 0.167663 0.732067
vt 0.037013 0.611436
vt 0.167650 0.578459
vt 0.308569 0.734793
vt 0.298287 0.861564
vt 0.298287 0.611436
vt 0.639004 0.710387
vt 0.820067 0.707662
vt 0.694973 0.837159
vt 0.818259 0.888097
vt 0.692217 0.587031
vt 0.818675 0.533981
vt 0.940611 0.833378
vt 0.989729 0.706763
vt 0.943170 0.584589
vt 0.039763 0.516572
vt 0.029481 0.389957
vt 0.170401 0.547293
vt 0.170388 0.390856
vt 0.039763 0.267783
vt 0.170401 0.236600
vt 0.310695 0.389957
vt 0.301038 0.516572
vt 0.301038 0.267783
vt 0.315210 0.563716
vt 0.485193 0.564615
vt 0.364648 0.690331
vt 0.487000 0.745418
vt 0.362089 0.441542
vt 0.486585 0.390647
vt 0.610287 0.694112
vt 0.666549 0.567340
vt 0.613042 0.443983
vt 0.669370 0.335160
vt 0.682481 0.210664
vt 0.813203 0.333768
vt 0.813119 0.164276
vt 0.682481 0.461616
vt 0.813119 0.502622
vt 0.943756 0.210664
vt 0.957716 0.335160
vt 0.943756 0.461616
vt 0.633569 0.199173
vt 0.489735 0.197365
vt 0.620457 0.076820
vt 0.489820 0.030007
vt 0.620457 0.322459
vt 0.489820 0.365233
vt 0.359183 0.076820
vt 0.345223 0.199173
vt 0.359183 0.322459
vt 0.654607 0.113820
vt 0.654607 0.075817
vt 0.732044 0.112337
vt 0.732044 0.080588
vt 0.732044 0.144086
vt 0.654607 0.151822
vt 0.886920 0.085291
vt 0.886920 0.110666
vt 0.964357 0.085223
vt 0.964358 0.110477
vt 0.964358 0.135731
vt 0.886920 0.136041
vt 0.027867 0.081350
vt 0.105305 0.081417
vt 0.027867 0.106604
vt 0.105305 0.106959
vt 0.260181 0.075281
vt 0.260181 0.108399
vt 0.260181 0.141517
vt 0.105305 0.132501
vt 0.027867 0.131859
vt 0.337618 0.069079
vt 0.337618 0.109485
vt 0.337619 0.149891
vt 0.131509 0.230883
vt 0.088308 0.232280
vt 0.134767 0.170666
vt 0.088833 0.168174
vt 0.045106 0.233677
vt 0.042899 0.165682
vt 0.411757 0.801450
vt 0.334319 0.801070
vt 0.411757 0.751434
vt 0.334319 0.748101
vt 0.644071 0.808110
vt 0.566633 0.804971
vt 0.644071 0.769496
vt 0.566633 0.762132
vt 0.334089 0.893362
vt 0.334089 0.833551
vt 0.411527 0.887959
vt 0.411527 0.834764
vt 0.566402 0.876430
vt 0.566402 0.832583
vt 0.643841 0.829190
vt 0.643840 0.870303
vn 0.054271 -0.599578 0.798474
vn 0.712025 -0.520578 0.471188
vn 0.252733 0.032924 0.966976
vn 0.788859 -0.016844 0.614343
vn 0.844748 -0.528199 -0.086056
vn 0.999925 -0.003235 0.011809
vn 0.607997 0.574652 0.547827
vn -0.079440 0.571672 0.816627
vn 0.792816 0.584699 -0.171961
vn -0.096160 0.993589 0.059454
vn -0.472025 0.653944 0.591228
vn 0.423383 0.695612 -0.580406
vn -0.797597 0.546279 0.255769
vn -0.713862 0.508729 -0.481243
vn -0.042534 0.548338 -0.835174
vn -0.999449 -0.032731 0.005533
vn -0.802238 -0.066228 -0.593320
vn -0.268293 -0.043040 -0.962375
vn -0.619701 -0.612907 -0.490219
vn -0.709644 -0.652835 0.264975
vn 0.011116 -0.597982 -0.801432
vn 0.101299 -0.992328 0.070876
vn -0.398216 -0.721573 0.566354
vn 0.529902 -0.682373 -0.503559
vn 0.639873 0.008534 -0.768433
vn -0.606943 -0.010458 0.794676
vn 0.520146 -0.769928 0.369675
vn 0.937509 -0.220429 -0.269235
vn 0.794015 0.016607 0.607671
vn 0.941119 0.006353 -0.338015
vn -0.085431 -0.009472 0.996299
vn -0.016448 -0.237884 0.971154
vn 0.999703 -0.000768 -0.024371
vn 0.783917 0.016890 0.620637
vn 0.991769 -0.040579 -0.121438
vn 0.786284 -0.002231 0.617861
vn 0.128615 -0.069323 0.989269
vn 0.224550 -0.020959 0.974237
vn 0.206703 -0.042986 -0.977459
vn -0.041761 0.019063 -0.998946
vn -0.765882 0.010830 -0.642890
vn -0.752193 0.023766 -0.658514
vn -0.012179 -0.035461 -0.999297
vn -0.789318 -0.034293 -0.613026
vn -0.926629 -0.065174 0.370284
vn -0.998431 -0.001360 0.055974
vn -0.900837 -0.083849 0.425983
vn 0.060888 -0.423434 -0.903879
vn -0.600129 -0.613815 -0.512909
vn -0.858369 -0.452433 0.241883
f 1/1/1 2/2/2 4/3/3
f 4/3/3 2/2/2 5/4/4
f 3/5/5 6/6/6 2/2/2
f 2/2/2 6/6/6 5/4/4
f 5/4/4 8/7/7 4/3/3
f 4/3/3 8/7/7 7/8/8
f 5/4/4 6/6/6 8/7/7
f 8/7/7 6/6/6 9/9/9
f 8/10/7 11/11/10 7/12/8
f 7/12/8 11/11/10 10/13/11
f 8/10/7 9/14/9 11/11/10
f 11/11/10 9/14/9 12/15/12
f 10/13/11 11/11/10 13/16/13
f 13/16/13 11/11/10 14/17/14
f 12/15/12 15/18/15 11/11/10
f 11/11/10 15/18/15 14/17/14
f 13/19/13 14/20/14 16/21/16
f 16/21/16 14/20/14 17/22/17
f 15/23/15 18/24/18 14/20/14
f 14/20/14 18/24/18 17/22/17
f 17/22/17 20/25/19 16/21/16
f 16/21/16 20/25/19 19/26/20
f 17/22/17 18/24/18 20/25/19
f 20/25/19 18/24/18 21/27/21
f 20/28/19 23/29/22 19/30/20
f 19/30/20 23/29/22 22/31/23
f 20/28/19 21/32/21 23/29/22
f 23/29/22 21/32/21 24/33/24
f 22/31/23 23/29/22 1/34/1
f 1/34/1 23/29/22 2/35/2
f 24/33/24 3/36/5 23/29/22
f 23/29/22 3/36/5 2/35/2
f 24/37/24 21/38/21 25/39/25
f 25/39/25 21/38/21 18/40/18
f 24/37/24 25/39/25 3/41/5
f 3/41/5 25/39/25 6/42/6
f 18/40/18 15/43/15 25/39/25
f 25/39/25 15/43/15 12/44/12
f 6/42/6 25/39/25 9/45/9
f 9/45/9 25/39/25 12/44/12
f 22/46/23 26/47/26 19/48/20
f 19/48/20 26/47/26 16/49/16
f 22/46/23 1/50/1 26/47/26
f 26/47/26 1/50/1 4/51/3
f 16/49/16 26/47/26 13/52/13
f 13/52/13 26/47/26 10/53/11
f 4/51/3 7/54/8 26/47/26
f 26/47/26 7/54/8 10/53/11
f 37/55/27 28/56/28 44/57/29
f 44/57/29 28/56/28 41/58/30
f 40/59/31 27/60/32 44/57/29
f 44/57/29 27/60/32 37/55/27
f 41/58/30 43/61/33 44/57/29
f 44/57/29 43/61/33 45/62/34
f 30/63/35 38/64/36 43/61/33
f 43/61/33 38/64/36 45/62/34
f 29/65/37 42/66/38 38/64/36
f 38/64/36 42/66/38 45/62/34
f 40/59/31 44/57/29 42/66/38
f 42/66/38 44/57/29 45/62/34
f 32/67/39 49/68/40 39/69/41
f 39/69/41 49/68/40 46/70/42
f 49/68/40 34/71/43 46/70/42
f 46/70/42 34/71/43 47/72/44
f 33/73/45 50/74/46 47/72/44
f 47/72/44 50/74/46 46/70/42
f 31/75/47 39/69/41 50/74/46
f 50/74/46 39/69/41 46/70/42
f 34/71/43 36/76/48 47/72/44
f 47/72/44 36/76/48 48/77/49
f 48/77/49 35/78/50 47/72/44
f 47/72/44 35/78/50 33/73/45
f 28/79/28 37/80/27 36/81/48
f 36/81/48 37/80/27 48/82/49
f 27/83/32 35/84/50 37/80/27
f 37/80/27 35/84/50 48/82/49
f 41/85/30 28/86/28 34/87/43
f 34/87/43 28/86/28 36/88/48
f 30/89/35 43/90/33 32/91/39
f 32/91/39 43/90/33 49/92/40
f 43/90/33 41/85/30 49/92/40
f 49/92/40 41/85/30 34/87/43
f 35/93/50 27/94/32 33/95/45
f 33/95/45 27/94/32 40/96/31
f 33/95/45 40/96/31 50/97/46
f 50/97/46 40/96/31 42/98/38
f 29/99/37 31/100/47 42/98/38
f 42/98/38 31/100/47 50/97/46
