# This file uses centimeters as units for non-parametric coordinates.

v 187.361906 203.181743 -27.617761
v 186.898796 204.312914 -36.024836
v 180.439304 204.105577 -41.808926
v 189.872192 212.810244 -28.537721
v 190.341409 212.700066 -37.450019
v 183.973655 212.877309 -43.410032
v 186.903303 222.112145 -27.440744
v 188.492026 222.341805 -36.600079
v 181.341617 222.970089 -42.850282
v 181.567446 223.347338 -23.644017
v 178.159651 227.709613 -32.512893
v 173.941981 224.883414 -42.116858
v 175.186508 223.316110 -22.476693
v 167.421707 224.266784 -28.428166
v 168.007942 223.929736 -37.891483
v 171.149791 214.288694 -20.788264
v 164.781971 214.321859 -27.005216
v 164.557296 214.285938 -36.041507
v 173.104196 204.140664 -22.072613
v 167.248697 203.620556 -28.214754
v 167.111855 204.167488 -36.382985
v 180.797967 204.136199 -23.375635
v 176.964245 200.697295 -32.056146
v 173.057568 202.705322 -42.228488
v 172.630969 213.424502 -44.883878
v 182.571307 213.593756 -19.850067
v 177.746063 179.488573 -30.582070
v 176.687752 179.493778 -33.088752
v 179.408132 202.710820 -30.991463
v 178.080791 202.713710 -34.296317
v 176.726484 202.892260 -29.900635
v 175.562166 202.884120 -33.271802
v 175.121633 183.319280 -29.160051
v 173.900428 183.316563 -32.438444
v 174.964893 179.677508 -29.417086
v 173.979353 179.675561 -32.051939
v 177.292483 178.210736 -31.846140
v 178.744463 202.712265 -32.643891
v 176.144324 202.888190 -31.586218
v 178.110430 183.115684 -30.436626
v 176.805120 183.121602 -33.550512
v 178.651543 196.190387 -31.146506
v 177.666157 196.191514 -33.644987
v 177.597889 183.109133 -32.051908
v 178.270738 196.183360 -32.442157
v 175.448113 196.374624 -31.281354
v 174.230180 183.336879 -30.686970
v 174.144114 178.423230 -30.588692
v 175.214115 196.357489 -32.644483
v 176.163993 196.359125 -30.115608
vt 0.037013 0.861564
vt 0.027355 0.734793
vt 0.167650 0.890199
vt 0.167663 0.732067
vt 0.037013 0.611436
vt 0.167650 0.578459
vt 0.308569 0.734793
vt 0.298287 0.861564
vt 0.298287 0.611436
vt 0.639004 0.710387
vt 0.820067 0.707662
vt 0.694973 0.837159
vt 0.818259 0.888097
vt 0.692217 0.587031
vt 0.818675 0.533981
vt 0.940611 0.833378
vt 0.989729 0.706763
vt 0.943170 0.584589
vt 0.039763 0.516572
vt 0.029481 0.389957
vt 0.170401 0.547293
vt 0.170388 0.390856
vt 0.039763 0.267783
vt 0.170401 0.236600
vt 0.310695 0.389957
vt 0.301038 0.516572
vt 0.301038 0.267783
vt 0.315210 0.563716
vt 0.485193 0.564615
vt 0.364648 0.690331
vt 0.487000 0.745418
vt 0.362089 0.441542
vt 0.486585 0.390647
vt 0.610287 0.694112
vt 0.666549 0.567340
vt 0.613042 0.443983
vt 0.669370 0.335160
vt 0.682481 0.210664
vt 0.813203 0.333768
vt 0.813119 0.164276
vt 0.682481 0.461616
vt 0.813119 0.502622
vt 0.943756 0.210664
vt 0.957716 0.335160
vt 0.943756 0.461616
vt 0.633569 0.199173
vt 0.489735 0.197365
vt 0.620457 0.076820
vt 0.489820 0.030007
vt 0.620457 0.322459
vt 0.489820 0.365233
vt 0.359183 0.076820
vt 0.345223 0.199173
vt 0.359183 0.322459
vt 0.654607 0.113820
vt 0.654607 0.075817
vt 0.732044 0.112337
vt 0.732044 0.080588
vt 0.732044 0.144086
vt 0.654607 0.151822
vt 0.886920 0.085291
vt 0.886920 0.110666
vt 0.964357 0.085223
vt 0.964358 0.110477
vt 0.964358 0.135731
vt 0.886920 0.136041
vt 0.027867 0.081350
vt 0.105305 0.081417
vt 0.027867 0.106604
vt 0.105305 0.106959
vt 0.260181 0.075281
vt 0.260181 0.108399
vt 0.260181 0.141517
vt 0.105305 0.132501
vt 0.027867 0.131859
vt 0.337618 0.069079
vt 0.337618 0.109485
vt 0.337619 0.149891
vt 0.131509 0.230883
vt 0.088308 0.232280
vt 0.134767 0.170666
vt 0.088833 0.168174
vt 0.045106 0.233677
vt 0.042899 0.165682
vt 0.411757 0.801450
vt 0.334319 0.801070
vt 0.411757 0.751434
vt 0.334319 0.748101
vt 0.644071 0.808110
vt 0.566633 0.804971
vt 0.644071 0.769496
vt 0.566633 0.762132
vt 0.334089 0.893362
vt 0.334089 0.833551
vt 0.411527 0.887959
vt 0.411527 0.834764
vt 0.566402 0.876430
vt 0.566402 0.832583
vt 0.643841 0.829190
vt 0.643840 0.870303
vn 0.660245 -0.634583 0.401723
vn 0.719651 -0.602462 -0.345169
vn 0.963978 -0.022496 0.265031
vn 0.922712 -0.102516 -0.371608
vn 0.295327 -0.599124 -0.744199
vn 0.507223 -0.084052 -0.857706
vn 0.820412 0.494475 -0.287087
vn 0.720094 0.541839 0.433445
vn 0.300958 0.516400 -0.801720
vn 0.105881 0.993603 0.039267
vn 0.344857 0.669318 0.658094
vn -0.218335 0.675263 -0.704521
vn -0.120524 0.605955 0.786316
vn -0.730492 0.590851 0.342456
vn -0.691291 0.583302 -0.426468
vn -0.495053 0.047504 0.867563
vn -0.916877 0.019976 0.398670
vn -0.968539 0.013519 -0.248492
vn -0.780324 -0.532499 0.327931
vn -0.188121 -0.593481 0.782554
vn -0.742302 -0.562056 -0.364802
vn 0.009393 -0.999721 0.021693
vn 0.216085 -0.702613 0.677969
vn -0.243556 -0.707334 -0.663596
vn -0.345082 -0.015112 -0.938451
vn 0.383891 0.009606 0.923328
vn 0.507454 -0.835734 -0.209857
vn 0.211857 -0.286788 -0.934275
vn 0.921800 -0.069264 -0.381427
vn 0.176194 -0.057063 -0.982700
vn 0.817380 -0.038581 0.574806
vn 0.809095 -0.271318 0.521298
vn 0.476005 -0.080256 -0.875773
vn 0.928000 -0.068639 -0.366204
vn 0.384446 -0.115885 -0.915845
vn 0.925473 -0.087824 -0.368492
vn 0.912885 -0.115229 0.391617
vn 0.951887 -0.074164 0.297340
vn -0.745822 -0.024006 -0.665713
vn -0.882183 0.058453 -0.467265
vn -0.936365 0.095682 0.337737
vn -0.942169 0.108086 0.317229
vn -0.872576 0.001832 -0.488476
vn -0.925297 0.051442 0.375738
vn -0.146920 -0.003795 0.989141
vn -0.448205 0.076882 0.890619
vn -0.087940 -0.026417 0.995775
vn -0.789787 -0.391170 -0.472464
vn -0.790236 -0.534202 0.300260
vn -0.260913 -0.385280 0.885146
f 1/1/1 2/2/2 4/3/3
f 4/3/3 2/2/2 5/4/4
f 3/5/5 6/6/6 2/2/2
f 2/2/2 6/6/6 5/4/4
f 5/4/4 8/7/7 4/3/3
f 4/3/3 8/7/7 7/8/8
f 5/4/4 6/6/6 8/7/7
f 8/7/7 6/6/6 9/9/9
f 8/10/7 11/11/10 7/12/8
f 7/12/8 11/11/10 10/13/11
f 8/10/7 9/14/9 11/11/10
f 11/11/10 9/14/9 12/15/12
f 10/13/11 11/11/10 13/16/13
f 13/16/13 11/11/10 14/17/14
f 12/15/12 15/18/15 11/11/10
f 11/11/10 15/18/15 14/17/14
f 13/19/13 14/20/14 16/21/16
f 16/21/16 14/20/14 17/22/17
f 15/23/15 18/24/18 14/20/14
f 14/20/14 18/24/18 17/22/17
f 17/22/17 20/25/19 16/21/16
f 16/21/16 20/25/19 19/26/20
f 17/22/17 18/24/18 20/25/19
f 20/25/19 18/24/18 21/27/21
f 20/28/19 23/29/22 19/30/20
f 19/30/20 23/29/22 22/31/23
f 20/28/19 21/32/21 23/29/22
f 23/29/22 21/32/21 24/33/24
f 22/31/23 23/29/22 1/34/1
f 1/34/1 23/29/22 2/35/2
f 24/33/24 3/36/5 23/29/22
f 23/29/22 3/36/5 2/35/2
f 24/37/24 21/38/21 25/39/25
f 25/39/25 21/38/21 18/40/18
f 24/37/24 25/39/25 3/41/5
f 3/41/5 25/39/25 6/42/6
f 18/40/18 15/43/15 25/39/25
f 25/39/25 15/43/15 12/44/12
f 6/42/6 25/39/25 9/45/9
f 9/45/9 25/39/25 12/44/12
f 22/46/23 26/47/26 19/48/20
f 19/48/20 26/47/26 16/49/16
f 22/46/23 1/50/1 26/47/26
f 26/47/26 1/50/1 4/51/3
f 16/49/16 26/47/26 13/52/13
f 13/52/13 26/47/26 10/53/11
f 4/51/3 7/54/8 26/47/26
f 26/47/26 7/54/8 10/53/11
f 37/55/27 28/56/28 44/57/29
f 44/57/29 28/56/28 41/58/30
f 40/59/31 27/60/32 44/57/29
f 44/57/29 27/60/32 37/55/27
f 41/58/30 43/61/33 44/57/29
f 44/57/29 43/61/33 45/62/34
f 30/63/35 38/64/36 43/61/33
f 43/61/33 38/64/36 45/62/34
f 29/65/37 42/66/38 38/64/36
f 38/64/36 42/66/38 45/62/34
f 40/59/31 44/57/29 42/66/38
f 42/66/38 44/57/29 45/62/34
f 32/67/39 49/68/40 39/69/41
f 39/69/41 49/68/40 46/70/42
f 49/68/40 34/71/43 46/70/42
f 46/70/42 34/71/43 47/72/44
f 33/73/45 50/74/46 47/72/44
f 47/72/44 50/74/46 46/70/42
f 31/75/47 39/69/41 50/74/46
f 50/74/46 39/69/41 46/70/42
f 34/71/43 36/76/48 47/72/44
f 47/72/44 36/76/48 48/77/49
f 48/77/49 35/78/50 47/72/44
f 47/72/44 35/78/50 33/73/45
f 28/79/28 37/80/27 36/81/48
f 36/81/48 37/80/27 48/82/49
f 27/83/32 35/84/50 37/80/27
f 37/80/27 35/84/50 48/82/49
f 41/85/30 28/86/28 34/87/43
f 34/87/43 28/86/28 36/88/48
f 30/89/35 43/90/33 32/91/39
f 32/91/39 43/90/33 49/92/40
f 43/90/33 41/85/30 49/92/40
f 49/92/40 41/85/30 34/87/43
f 35/93/50 27/94/32 33/95/45
f 33/95/45 27/94/32 40/96/31
f 33/95/45 40/96/31 50/97/46
f 50/97/46 40/96/31 42/98/38
f 29/99/37 31/100/47 42/98/38
f 42/98/38 31/100/47 50/97/46
