# This file uses centimeters as units for non-parametric coordinates.

v 182.666893 199.053921 -9.773626
v 183.523927 200.072005 -15.694147
v 179.856598 199.855688 -20.670972
v 184.284811 206.024099 -9.921301
v 185.899378 206.204463 -16.076209
v 182.310770 206.270035 -21.157324
v 181.798574 212.515127 -9.459645
v 184.220371 212.983406 -15.620119
v 180.115102 213.350718 -21.011133
v 177.494814 213.104877 -7.565925
v 176.274778 216.333666 -14.191801
v 174.794196 214.434549 -21.545760
v 172.875797 212.827651 -7.676387
v 168.289946 213.394947 -12.943546
v 170.071808 213.432818 -19.469222
v 170.065624 206.211257 -7.205364
v 166.517978 206.181205 -12.467806
v 167.664258 206.393552 -18.808841
v 171.894476 199.087228 -7.956350
v 168.708753 198.679028 -13.099816
v 169.775133 199.285939 -18.814242
v 177.449933 199.388654 -7.750805
v 176.121079 197.041488 -14.412788
v 174.805838 198.611604 -22.052837
v 174.594765 206.303012 -23.822867
v 177.917888 206.090386 -4.904321
v 177.039913 181.924080 -13.558254
v 176.662621 181.958945 -15.461430
v 177.617040 198.532041 -13.287999
v 177.167129 198.577556 -15.787383
v 175.583992 198.537774 -12.912765
v 175.257674 198.582940 -15.434959
v 174.898267 184.521782 -12.894011
v 174.518747 184.566297 -15.359615
v 174.926541 181.929652 -13.145577
v 174.618684 181.965455 -15.127774
v 176.940904 181.032531 -14.523753
v 177.392085 198.554798 -14.537691
v 175.420833 198.560357 -14.173862
v 177.172974 184.516067 -13.354689
v 176.710836 184.559316 -15.717530
v 177.291641 193.865995 -13.594379
v 176.964157 193.900284 -15.481315
v 177.048323 184.537407 -14.556654
v 177.212855 193.882910 -14.554130
v 175.071100 193.888804 -14.150349
v 174.495869 184.544662 -14.088887
v 174.557381 181.039520 -14.099435
v 175.104734 193.905492 -15.136061
v 175.402992 193.871102 -13.233018
vt 0.037013 0.861564
vt 0.027355 0.734793
vt 0.167650 0.890199
vt 0.167663 0.732067
vt 0.037013 0.611436
vt 0.167650 0.578459
vt 0.308569 0.734793
vt 0.298287 0.861564
vt 0.298287 0.611436
vt 0.639004 0.710387
vt 0.820067 0.707662
vt 0.694973 0.837159
vt 0.818259 0.888097
vt 0.692217 0.587031
vt 0.818675 0.533981
vt 0.940611 0.833378
vt 0.989729 0.706763
vt 0.943170 0.584589
vt 0.039763 0.516572
vt 0.029481 0.389957
vt 0.170401 0.547293
vt 0.170388 0.390856
vt 0.039763 0.267783
vt 0.170401 0.236600
vt 0.310695 0.389957
vt 0.301038 0.516572
vt 0.301038 0.267783
vt 0.315210 0.563716
vt 0.485193 0.564615
vt 0.364648 0.690331
vt 0.487000 0.745418
vt 0.362089 0.441542
vt 0.486585 0.390647
vt 0.610287 0.694112
vt 0.666549 0.567340
vt 0.613042 0.443983
vt 0.669370 0.335160
vt 0.682481 0.210664
vt 0.813203 0.333768
vt 0.813119 0.164276
vt 0.682481 0.461616
vt 0.813119 0.502622
vt 0.943756 0.210664
vt 0.957716 0.335160
vt 0.943756 0.461616
vt 0.633569 0.199173
vt 0.489735 0.197365
vt 0.620457 0.076820
vt 0.489820 0.030007
vt 0.620457 0.322459
vt 0.489820 0.365233
vt 0.359183 0.076820
vt 0.345223 0.199173
vt 0.359183 0.322459
vt 0.654607 0.113820
vt 0.654607 0.075817
vt 0.732044 0.112337
vt 0.732044 0.080588
vt 0.732044 0.144086
vt 0.654607 0.151822
vt 0.886920 0.085291
vt 0.886920 0.110666
vt 0.964357 0.085223
vt 0.964358 0.110477
vt 0.964358 0.135731
vt 0.886920 0.136041
vt 0.027867 0.081350
vt 0.105305 0.081417
vt 0.027867 0.106604
vt 0.105305 0.106959
vt 0.260181 0.075281
vt 0.260181 0.108399
vt 0.260181 0.141517
vt 0.105305 0.132501
vt 0.027867 0.131859
vt 0.337618 0.069079
vt 0.337618 0.109485
vt 0.337619 0.149891
vt 0.131509 0.230883
vt 0.088308 0.232280
vt 0.134767 0.170666
vt 0.088833 0.168174
vt 0.045106 0.233677
vt 0.042899 0.165682
vt 0.411757 0.801450
vt 0.334319 0.801070
vt 0.411757 0.751434
vt 0.334319 0.748101
vt 0.644071 0.808110
vt 0.566633 0.804971
vt 0.644071 0.769496
vt 0.566633 0.762132
vt 0.334089 0.893362
vt 0.334089 0.833551
vt 0.411527 0.887959
vt 0.411527 0.834764
vt 0.566402 0.876430
vt 0.566402 0.832583
vt 0.643841 0.829190
vt 0.643840 0.870303
vn 0.598028 -0.619707 0.508258
vn 0.800284 -0.563020 -0.206286
vn 0.890642 0.003353 0.454694
vn 0.982001 -0.061011 -0.178751
vn 0.469018 -0.564134 -0.679540
vn 0.673427 -0.043892 -0.737950
vn 0.839638 0.533574 -0.101518
vn 0.588404 0.555817 0.587237
vn 0.430718 0.551181 -0.714619
vn 0.040253 0.995375 0.087230
vn 0.166748 0.661463 0.731206
vn -0.109244 0.687707 -0.717722
vn -0.308508 0.576350 0.756732
vn -0.809697 0.551289 0.201175
vn -0.620586 0.568388 -0.540192
vn -0.661915 0.007593 0.749541
vn -0.978637 -0.021846 0.204434
vn -0.898039 -0.012913 -0.439726
vn -0.806700 -0.571854 0.149056
vn -0.311243 -0.624225 0.716569
vn -0.623448 -0.579089 -0.525327
vn 0.060533 -0.998157 -0.004247
vn 0.113937 -0.714416 0.690383
vn -0.064534 -0.694913 -0.716192
vn -0.147123 -0.001991 -0.989116
vn 0.188455 -0.001785 0.982080
vn 0.580419 -0.804805 -0.124105
vn 0.410438 -0.253466 -0.875954
vn 0.981830 -0.027641 -0.187737
vn 0.373883 -0.024941 -0.927140
vn 0.685510 -0.025904 0.727602
vn 0.700172 -0.256777 0.666202
vn 0.646406 -0.040693 -0.761908
vn 0.984795 -0.027209 -0.171575
vn 0.566692 -0.078249 -0.820205
vn 0.983514 -0.046361 -0.174789
vn 0.819563 -0.094257 0.565183
vn 0.874678 -0.049479 0.482172
vn -0.593829 -0.031752 -0.803964
vn -0.771567 0.040682 -0.634846
vn -0.988256 0.054635 0.142706
vn -0.990269 0.067336 0.121795
vn -0.755060 -0.014959 -0.655484
vn -0.983427 0.009893 0.181033
vn -0.343461 -0.035004 0.938515
vn -0.622089 0.037883 0.782030
vn -0.285901 -0.055782 0.956634
vn -0.656948 -0.406024 -0.635266
vn -0.810684 -0.573127 0.119653
vn -0.414935 -0.419459 0.807393
f 1/1/1 2/2/2 4/3/3
f 4/3/3 2/2/2 5/4/4
f 3/5/5 6/6/6 2/2/2
f 2/2/2 6/6/6 5/4/4
f 5/4/4 8/7/7 4/3/3
f 4/3/3 8/7/7 7/8/8
f 5/4/4 6/6/6 8/7/7
f 8/7/7 6/6/6 9/9/9
f 8/10/7 11/11/10 7/12/8
f 7/12/8 11/11/10 10/13/11
f 8/10/7 9/14/9 11/11/10
f 11/11/10 9/14/9 12/15/12
f 10/13/11 11/11/10 13/16/13
f 13/16/13 11/11/10 14/17/14
f 12/15/12 15/18/15 11/11/10
f 11/11/10 15/18/15 14/17/14
f 13/19/13 14/20/14 16/21/16
f 16/21/16 14/20/14 17/22/17
f 15/23/15 18/24/18 14/20/14
f 14/20/14 18/24/18 17/22/17
f 17/22/17 20/25/19 16/21/16
f 16/21/16 20/25/19 19/26/20
f 17/22/17 18/24/18 20/25/19
f 20/25/19 18/24/18 21/27/21
f 20/28/19 23/29/22 19/30/20
f 19/30/20 23/29/22 22/31/23
f 20/28/19 21/32/21 23/29/22
f 23/29/22 21/32/21 24/33/24
f 22/31/23 23/29/22 1/34/1
f 1/34/1 23/29/22 2/35/2
f 24/33/24 3/36/5 23/29/22
f 23/29/22 3/36/5 2/35/2
f 24/37/24 21/38/21 25/39/25
f 25/39/25 21/38/21 18/40/18
f 24/37/24 25/39/25 3/41/5
f 3/41/5 25/39/25 6/42/6
f 18/40/18 15/43/15 25/39/25
f 25/39/25 15/43/15 12/44/12
f 6/42/6 25/39/25 9/45/9
f 9/45/9 25/39/25 12/44/12
f 22/46/23 26/47/26 19/48/20
f 19/48/20 26/47/26 16/49/16
f 22/46/23 1/50/1 26/47/26
f 26/47/26 1/50/1 4/51/3
f 16/49/16 26/47/26 13/52/13
f 13/52/13 26/47/26 10/53/11
f 4/51/3 7/54/8 26/47/26
f 26/47/26 7/54/8 10/53/11
f 37/55/27 28/56/28 44/57/29
f 44/57/29 28/56/28 41/58/30
f 40/59/31 27/60/32 44/57/29
f 44/57/29 27/60/32 37/55/27
f 41/58/30 43/61/33 44/57/29
f 44/57/29 43/61/33 45/62/34
f 30/63/35 38/64/36 43/61/33
f 43/61/33 38/64/36 45/62/34
f 29/65/37 42/66/38 38/64/36
f 38/64/36 42/66/38 45/62/34
f 40/59/31 44/57/29 42/66/38
f 42/66/38 44/57/29 45/62/34
f 32/67/39 49/68/40 39/69/41
f 39/69/41 49/68/40 46/70/42
f 49/68/40 34/71/43 46/70/42
f 46/70/42 34/71/43 47/72/44
f 33/73/45 50/74/46 47/72/44
f 47/72/44 50/74/46 46/70/42
f 31/75/47 39/69/41 50/74/46
f 50/74/46 39/69/41 46/70/42
f 34/71/43 36/76/48 47/72/44
f 47/72/44 36/76/48 48/77/49
f 48/77/49 35/78/50 47/72/44
f 47/72/44 35/78/50 33/73/45
f 28/79/28 37/80/27 36/81/48
f 36/81/48 37/80/27 48/82/49
f 27/83/32 35/84/50 37/80/27
f 37/80/27 35/84/50 48/82/49
f 41/85/30 28/86/28 34/87/43
f 34/87/43 28/86/28 36/88/48
f 30/89/35 43/90/33 32/91/39
f 32/91/39 43/90/33 49/92/40
f 43/90/33 41/85/30 49/92/40
f 49/92/40 41/85/30 34/87/43
f 35/93/50 27/94/32 33/95/45
f 33/95/45 27/94/32 40/96/31
f 33/95/45 40/96/31 50/97/46
f 50/97/46 40/96/31 42/98/38
f 29/99/37 31/100/47 42/98/38
f 42/98/38 31/100/47 50/97/46
