# This file uses centimeters as units for non-parametric coordinates.

v 111.180387 242.047670 -46.975786
v 119.511724 243.181325 -50.173073
v 123.293066 242.556092 -58.527860
v 112.818777 252.378961 -45.122247
v 121.969734 252.252128 -47.490814
v 125.954350 252.038450 -55.824614
v 110.674626 262.049917 -48.138488
v 120.429137 262.347657 -49.470250
v 124.452685 262.563757 -58.704244
v 105.125592 263.058015 -52.357721
v 112.952563 267.434450 -58.802007
v 121.331966 264.154477 -66.010674
v 101.910395 262.653348 -58.420267
v 105.433095 263.175551 -68.191498
v 115.180020 262.813247 -70.608929
v 99.003022 252.871195 -61.592156
v 103.248459 252.503983 -70.002329
v 112.302454 252.414235 -73.113399
v 101.020668 242.244354 -59.625267
v 105.359357 241.322328 -67.472649
v 113.559206 241.858125 -70.241189
v 104.792267 242.688162 -52.280340
v 112.367505 238.786534 -58.782314
v 121.374027 240.637155 -66.052012
v 123.817150 251.941671 -67.758810
v 101.707724 252.814031 -49.743603
v 111.330811 216.399909 -56.675209
v 113.524359 216.332279 -58.543505
v 112.053156 241.065635 -56.057565
v 114.966900 240.976279 -58.452052
v 110.093923 241.103977 -58.421480
v 113.126768 241.012290 -60.672265
v 109.020556 220.304001 -59.021505
v 111.941506 220.215089 -61.300258
v 109.264847 216.440623 -59.116139
v 111.611124 216.369175 -60.951681
v 112.474759 215.015792 -57.485375
v 113.510030 241.020957 -57.254805
v 111.610342 241.058133 -59.546875
v 111.265619 220.259554 -56.406192
v 113.993516 220.175516 -58.717584
v 112.030461 234.121636 -56.609649
v 114.239035 234.054032 -58.401607
v 112.733292 220.215494 -57.438801
v 113.217398 234.086209 -57.407280
v 111.142408 234.126922 -59.891455
v 110.277822 220.263505 -60.409081
v 110.197991 215.060152 -60.268119
v 112.444447 234.089177 -60.562144
v 110.193813 234.157739 -58.796413
vt 0.037013 0.861564
vt 0.027355 0.734793
vt 0.167650 0.890199
vt 0.167663 0.732067
vt 0.037013 0.611436
vt 0.167650 0.578459
vt 0.308569 0.734793
vt 0.298287 0.861564
vt 0.298287 0.611436
vt 0.639004 0.710387
vt 0.820067 0.707662
vt 0.694973 0.837159
vt 0.818259 0.888097
vt 0.692217 0.587031
vt 0.818675 0.533981
vt 0.940611 0.833378
vt 0.989729 0.706763
vt 0.943170 0.584589
vt 0.039763 0.516572
vt 0.029481 0.389957
vt 0.170401 0.547293
vt 0.170388 0.390856
vt 0.039763 0.267783
vt 0.170401 0.236600
vt 0.310695 0.389957
vt 0.301038 0.516572
vt 0.301038 0.267783
vt 0.315210 0.563716
vt 0.485193 0.564615
vt 0.364648 0.690331
vt 0.487000 0.745418
vt 0.362089 0.441542
vt 0.486585 0.390647
vt 0.610287 0.694112
vt 0.666549 0.567340
vt 0.613042 0.443983
vt 0.669370 0.335160
vt 0.682481 0.210664
vt 0.813203 0.333768
vt 0.813119 0.164276
vt 0.682481 0.461616
vt 0.813119 0.502622
vt 0.943756 0.210664
vt 0.957716 0.335160
vt 0.943756 0.461616
vt 0.633569 0.199173
vt 0.489735 0.197365
vt 0.620457 0.076820
vt 0.489820 0.030007
vt 0.620457 0.322459
vt 0.489820 0.365233
vt 0.359183 0.076820
vt 0.345223 0.199173
vt 0.359183 0.322459
vt 0.654607 0.113820
vt 0.654607 0.075817
vt 0.732044 0.112337
vt 0.732044 0.080588
vt 0.732044 0.144086
vt 0.654607 0.151822
vt 0.886920 0.085291
vt 0.886920 0.110666
vt 0.964357 0.085223
vt 0.964358 0.110477
vt 0.964358 0.135731
vt 0.886920 0.136041
vt 0.027867 0.081350
vt 0.105305 0.081417
vt 0.027867 0.106604
vt 0.105305 0.106959
vt 0.260181 0.075281
vt 0.260181 0.108399
vt 0.260181 0.141517
vt 0.105305 0.132501
vt 0.027867 0.131859
vt 0.337618 0.069079
vt 0.337618 0.109485
vt 0.337619 0.149891
vt 0.131509 0.230883
vt 0.088308 0.232280
vt 0.134767 0.170666
vt 0.088833 0.168174
vt 0.045106 0.233677
vt 0.042899 0.165682
vt 0.411757 0.801450
vt 0.334319 0.801070
vt 0.411757 0.751434
vt 0.334319 0.748101
vt 0.644071 0.808110
vt 0.566633 0.804971
vt 0.644071 0.769496
vt 0.566633 0.762132
vt 0.334089 0.893362
vt 0.334089 0.833551
vt 0.411527 0.887959
vt 0.411527 0.834764
vt 0.566402 0.876430
vt 0.566402 0.832583
vt 0.643841 0.829190
vt 0.643840 0.870303
vn -0.174526 -0.602735 0.778621
vn 0.549877 -0.570867 0.609710
vn 0.038092 0.015570 0.999153
vn 0.632877 -0.067649 0.771291
vn 0.804228 -0.587590 0.089192
vn 0.971166 -0.066689 0.228884
vn 0.518087 0.528501 0.672513
vn -0.204728 0.574345 0.792600
vn 0.850122 0.526316 0.016859
vn -0.018447 0.998101 0.058766
vn -0.534525 0.686736 0.492622
vn 0.595219 0.661944 -0.455571
vn -0.793236 0.602329 0.089308
vn -0.550424 0.558948 -0.620170
vn 0.189378 0.550802 -0.812867
vn -0.976699 0.030709 -0.212406
vn -0.656646 -0.014412 -0.754061
vn -0.055126 -0.024671 -0.998175
vn -0.544685 -0.565118 -0.619644
vn -0.796048 -0.598631 0.089153
vn 0.132400 -0.595608 -0.792289
vn -0.004881 -0.997552 0.069766
vn -0.570255 -0.689271 0.446894
vn 0.570369 -0.720222 -0.394917
vn 0.791101 -0.031075 -0.610896
vn -0.764895 0.027033 0.643588
vn 0.361242 -0.809925 0.462088
vn 0.957644 -0.280681 -0.064309
vn 0.641849 -0.034557 0.766052
vn 0.990695 -0.052922 -0.125393
vn -0.301134 -0.005303 0.953567
vn -0.248771 -0.237381 0.939023
vn 0.978994 -0.064162 0.193531
vn 0.629208 -0.033650 0.776508
vn 0.989976 -0.103378 0.096227
vn 0.630691 -0.052888 0.774230
vn -0.096643 -0.078563 0.992214
vn 0.004312 -0.036385 0.999329
vn 0.410500 -0.054728 -0.910217
vn 0.178795 0.022933 -0.983619
vn -0.604698 0.060215 -0.794175
vn -0.586958 0.072294 -0.806383
vn 0.202811 -0.033307 -0.978651
vn -0.637423 0.016621 -0.770335
vn -0.987330 -0.006714 0.158536
vn -0.984777 0.061913 -0.162420
vn -0.975589 -0.027011 0.217938
vn 0.218778 -0.425028 -0.878344
vn -0.521176 -0.567373 -0.637545
vn -0.918707 -0.392972 0.039392
f 1/1/1 2/2/2 4/3/3
f 4/3/3 2/2/2 5/4/4
f 3/5/5 6/6/6 2/2/2
f 2/2/2 6/6/6 5/4/4
f 5/4/4 8/7/7 4/3/3
f 4/3/3 8/7/7 7/8/8
f 5/4/4 6/6/6 8/7/7
f 8/7/7 6/6/6 9/9/9
f 8/10/7 11/11/10 7/12/8
f 7/12/8 11/11/10 10/13/11
f 8/10/7 9/14/9 11/11/10
f 11/11/10 9/14/9 12/15/12
f 10/13/11 11/11/10 13/16/13
f 13/16/13 11/11/10 14/17/14
f 12/15/12 15/18/15 11/11/10
f 11/11/10 15/18/15 14/17/14
f 13/19/13 14/20/14 16/21/16
f 16/21/16 14/20/14 17/22/17
f 15/23/15 18/24/18 14/20/14
f 14/20/14 18/24/18 17/22/17
f 17/22/17 20/25/19 16/21/16
f 16/21/16 20/25/19 19/26/20
f 17/22/17 18/24/18 20/25/19
f 20/25/19 18/24/18 21/27/21
f 20/28/19 23/29/22 19/30/20
f 19/30/20 23/29/22 22/31/23
f 20/28/19 21/32/21 23/29/22
f 23/29/22 21/32/21 24/33/24
f 22/31/23 23/29/22 1/34/1
f 1/34/1 23/29/22 2/35/2
f 24/33/24 3/36/5 23/29/22
f 23/29/22 3/36/5 2/35/2
f 24/37/24 21/38/21 25/39/25
f 25/39/25 21/38/21 18/40/18
f 24/37/24 25/39/25 3/41/5
f 3/41/5 25/39/25 6/42/6
f 18/40/18 15/43/15 25/39/25
f 25/39/25 15/43/15 12/44/12
f 6/42/6 25/39/25 9/45/9
f 9/45/9 25/39/25 12/44/12
f 22/46/23 26/47/26 19/48/20
f 19/48/20 26/47/26 16/49/16
f 22/46/23 1/50/1 26/47/26
f 26/47/26 1/50/1 4/51/3
f 16/49/16 26/47/26 13/52/13
f 13/52/13 26/47/26 10/53/11
f 4/51/3 7/54/8 26/47/26
f 26/47/26 7/54/8 10/53/11
f 37/55/27 28/56/28 44/57/29
f 44/57/29 28/56/28 41/58/30
f 40/59/31 27/60/32 44/57/29
f 44/57/29 27/60/32 37/55/27
f 41/58/30 43/61/33 44/57/29
f 44/57/29 43/61/33 45/62/34
f 30/63/35 38/64/36 43/61/33
f 43/61/33 38/64/36 45/62/34
f 29/65/37 42/66/38 38/64/36
f 38/64/36 42/66/38 45/62/34
f 40/59/31 44/57/29 42/66/38
f 42/66/38 44/57/29 45/62/34
f 32/67/39 49/68/40 39/69/41
f 39/69/41 49/68/40 46/70/42
f 49/68/40 34/71/43 46/70/42
f 46/70/42 34/71/43 47/72/44
f 33/73/45 50/74/46 47/72/44
f 47/72/44 50/74/46 46/70/42
f 31/75/47 39/69/41 50/74/46
f 50/74/46 39/69/41 46/70/42
f 34/71/43 36/76/48 47/72/44
f 47/72/44 36/76/48 48/77/49
f 48/77/49 35/78/50 47/72/44
f 47/72/44 35/78/50 33/73/45
f 28/79/28 37/80/27 36/81/48
f 36/81/48 37/80/27 48/82/49
f 27/83/32 35/84/50 37/80/27
f 37/80/27 35/84/50 48/82/49
f 41/85/30 28/86/28 34/87/43
f 34/87/43 28/86/28 36/88/48
f 30/89/35 43/90/33 32/91/39
f 32/91/39 43/90/33 49/92/40
f 43/90/33 41/85/30 49/92/40
f 49/92/40 41/85/30 34/87/43
f 35/93/50 27/94/32 33/95/45
f 33/95/45 27/94/32 40/96/31
f 33/95/45 40/96/31 50/97/46
f 50/97/46 40/96/31 42/98/38
f 29/99/37 31/100/47 42/98/38
f 42/98/38 31/100/47 50/97/46
