# This file uses centimeters as units for non-parametric coordinates.

v 241.191645 171.601935 -97.095602
v 235.044561 172.778831 -95.397157
v 231.757454 172.668210 -89.669314
v 240.404796 179.030471 -98.691032
v 233.696152 179.309023 -97.622719
v 230.275414 179.500329 -91.930088
v 241.976124 185.979204 -96.532293
v 234.916842 186.557023 -96.253712
v 231.417940 187.080964 -89.926171
v 245.683685 186.621406 -93.147608
v 239.758280 190.191834 -89.140419
v 233.193872 188.301568 -84.508116
v 247.561561 186.374461 -88.582827
v 244.392078 187.114793 -81.841134
v 237.247984 187.245655 -80.775205
v 249.180277 179.330496 -85.965285
v 245.563964 179.422296 -80.233594
v 238.875210 179.742886 -78.627902
v 247.604231 171.717398 -87.350010
v 243.945503 171.399737 -82.018999
v 237.906565 172.132020 -80.609230
v 245.416434 171.979024 -92.871158
v 239.459531 169.597269 -88.679862
v 232.571149 171.414455 -84.124764
v 230.991531 179.658819 -83.242721
v 248.048613 179.082829 -94.628007
v 239.782500 153.431569 -89.776835
v 238.085192 153.504340 -88.589630
v 239.926440 171.154829 -90.642452
v 237.677796 171.249641 -89.127871
v 241.168196 171.175493 -88.817073
v 238.844065 171.269048 -87.413457
v 241.373456 156.216186 -87.998588
v 239.127523 156.308648 -86.567319
v 241.095421 153.452258 -87.889058
v 239.291010 153.526638 -86.735719
v 238.874655 152.496677 -89.254704
v 238.802117 171.202235 -89.885164
v 240.006132 171.222270 -88.115263
v 239.944186 156.194493 -90.023380
v 237.834231 156.284737 -88.555575
v 239.731041 166.180943 -90.140554
v 238.028168 166.252320 -89.009003
v 238.823328 156.238565 -89.384640
v 238.827128 166.215789 -89.650799
v 240.143569 166.237261 -87.731460
v 240.379077 156.264624 -87.091468
v 240.315234 152.521448 -87.107934
v 239.165893 166.271146 -87.340403
v 240.897090 166.199692 -88.450315
vt 0.037013 0.861564
vt 0.027355 0.734793
vt 0.167650 0.890199
vt 0.167663 0.732067
vt 0.037013 0.611436
vt 0.167650 0.578459
vt 0.308569 0.734793
vt 0.298287 0.861564
vt 0.298287 0.611436
vt 0.639004 0.710387
vt 0.820067 0.707662
vt 0.694973 0.837159
vt 0.818259 0.888097
vt 0.692217 0.587031
vt 0.818675 0.533981
vt 0.940611 0.833378
vt 0.989729 0.706763
vt 0.943170 0.584589
vt 0.039763 0.516572
vt 0.029481 0.389957
vt 0.170401 0.547293
vt 0.170388 0.390856
vt 0.039763 0.267783
vt 0.170401 0.236600
vt 0.310695 0.389957
vt 0.301038 0.516572
vt 0.301038 0.267783
vt 0.315210 0.563716
vt 0.485193 0.564615
vt 0.364648 0.690331
vt 0.487000 0.745418
vt 0.362089 0.441542
vt 0.486585 0.390647
vt 0.610287 0.694112
vt 0.666549 0.567340
vt 0.613042 0.443983
vt 0.669370 0.335160
vt 0.682481 0.210664
vt 0.813203 0.333768
vt 0.813119 0.164276
vt 0.682481 0.461616
vt 0.813119 0.502622
vt 0.943756 0.210664
vt 0.957716 0.335160
vt 0.943756 0.461616
vt 0.633569 0.199173
vt 0.489735 0.197365
vt 0.620457 0.076820
vt 0.489820 0.030007
vt 0.620457 0.322459
vt 0.489820 0.365233
vt 0.359183 0.076820
vt 0.345223 0.199173
vt 0.359183 0.322459
vt 0.654607 0.113820
vt 0.654607 0.075817
vt 0.732044 0.112337
vt 0.732044 0.080588
vt 0.732044 0.144086
vt 0.654607 0.151822
vt 0.886920 0.085291
vt 0.886920 0.110666
vt 0.964357 0.085223
vt 0.964358 0.110477
vt 0.964358 0.135731
vt 0.886920 0.136041
vt 0.027867 0.081350
vt 0.105305 0.081417
vt 0.027867 0.106604
vt 0.105305 0.106959
vt 0.260181 0.075281
vt 0.260181 0.108399
vt 0.260181 0.141517
vt 0.105305 0.132501
vt 0.027867 0.131859
vt 0.337618 0.069079
vt 0.337618 0.109485
vt 0.337619 0.149891
vt 0.131509 0.230883
vt 0.088308 0.232280
vt 0.134767 0.170666
vt 0.088833 0.168174
vt 0.045106 0.233677
vt 0.042899 0.165682
vt 0.411757 0.801450
vt 0.334319 0.801070
vt 0.411757 0.751434
vt 0.334319 0.748101
vt 0.644071 0.808110
vt 0.566633 0.804971
vt 0.644071 0.769496
vt 0.566633 0.762132
vt 0.334089 0.893362
vt 0.334089 0.833551
vt 0.411527 0.887959
vt 0.411527 0.834764
vt 0.566402 0.876430
vt 0.566402 0.832583
vt 0.643841 0.829190
vt 0.643840 0.870303
vn 0.218228 -0.630746 -0.744671
vn -0.517563 -0.566468 -0.641282
vn 0.057201 -0.007492 -0.998335
vn -0.560057 -0.065607 -0.825852
vn -0.815910 -0.559235 -0.146791
vn -0.947135 -0.040373 -0.318286
vn -0.425290 0.528467 -0.734745
vn 0.305293 0.544122 -0.781491
vn -0.822799 0.556643 -0.114678
vn 0.073924 0.993470 -0.086909
vn 0.607250 0.650652 -0.455961
vn -0.607195 0.697914 0.379776
vn 0.821572 0.569251 -0.031182
vn 0.516564 0.554856 0.652148
vn -0.238929 0.579748 0.778977
vn 0.952777 0.003878 0.303645
vn 0.581250 -0.017549 0.813536
vn -0.040619 -0.002179 0.999172
vn 0.455137 -0.567494 0.686149
vn 0.775910 -0.630819 0.005527
vn -0.234932 -0.567770 0.788951
vn -0.038677 -0.998503 -0.038671
vn 0.579943 -0.724434 -0.372641
vn -0.635055 -0.684931 0.357176
vn -0.845933 0.009696 0.533201
vn 0.822813 -0.013671 -0.568147
vn -0.356180 -0.807922 -0.469466
vn -0.968960 -0.246498 -0.018861
vn -0.567827 -0.032136 -0.822521
vn -0.999344 -0.017385 0.031761
vn 0.389388 -0.038343 -0.920275
vn 0.325263 -0.268984 -0.906560
vn -0.958134 -0.036735 -0.283954
vn -0.554227 -0.031899 -0.831754
vn -0.979647 -0.073116 -0.186938
vn -0.556873 -0.051008 -0.829030
vn 0.186040 -0.105869 -0.976822
vn 0.088255 -0.060526 -0.994257
vn -0.496682 -0.019092 0.867723
vn -0.269664 0.052694 0.961512
vn 0.529521 0.059663 0.846196
vn 0.511343 0.072606 0.856304
vn -0.295703 -0.002839 0.955276
vn 0.562131 0.014472 0.826921
vn 0.997073 -0.042882 -0.063294
vn 0.966717 0.033546 0.253638
vn 0.990328 -0.064245 -0.122977
vn -0.320190 -0.393948 0.861559
vn 0.429808 -0.568371 0.701583
vn 0.902743 -0.425862 0.060805
f 1/1/1 2/2/2 4/3/3
f 4/3/3 2/2/2 5/4/4
f 3/5/5 6/6/6 2/2/2
f 2/2/2 6/6/6 5/4/4
f 5/4/4 8/7/7 4/3/3
f 4/3/3 8/7/7 7/8/8
f 5/4/4 6/6/6 8/7/7
f 8/7/7 6/6/6 9/9/9
f 8/10/7 11/11/10 7/12/8
f 7/12/8 11/11/10 10/13/11
f 8/10/7 9/14/9 11/11/10
f 11/11/10 9/14/9 12/15/12
f 10/13/11 11/11/10 13/16/13
f 13/16/13 11/11/10 14/17/14
f 12/15/12 15/18/15 11/11/10
f 11/11/10 15/18/15 14/17/14
f 13/19/13 14/20/14 16/21/16
f 16/21/16 14/20/14 17/22/17
f 15/23/15 18/24/18 14/20/14
f 14/20/14 18/24/18 17/22/17
f 17/22/17 20/25/19 16/21/16
f 16/21/16 20/25/19 19/26/20
f 17/22/17 18/24/18 20/25/19
f 20/25/19 18/24/18 21/27/21
f 20/28/19 23/29/22 19/30/20
f 19/30/20 23/29/22 22/31/23
f 20/28/19 21/32/21 23/29/22
f 23/29/22 21/32/21 24/33/24
f 22/31/23 23/29/22 1/34/1
f 1/34/1 23/29/22 2/35/2
f 24/33/24 3/36/5 23/29/22
f 23/29/22 3/36/5 2/35/2
f 24/37/24 21/38/21 25/39/25
f 25/39/25 21/38/21 18/40/18
f 24/37/24 25/39/25 3/41/5
f 3/41/5 25/39/25 6/42/6
f 18/40/18 15/43/15 25/39/25
f 25/39/25 15/43/15 12/44/12
f 6/42/6 25/39/25 9/45/9
f 9/45/9 25/39/25 12/44/12
f 22/46/23 26/47/26 19/48/20
f 19/48/20 26/47/26 16/49/16
f 22/46/23 1/50/1 26/47/26
f 26/47/26 1/50/1 4/51/3
f 16/49/16 26/47/26 13/52/13
f 13/52/13 26/47/26 10/53/11
f 4/51/3 7/54/8 26/47/26
f 26/47/26 7/54/8 10/53/11
f 37/55/27 28/56/28 44/57/29
f 44/57/29 28/56/28 41/58/30
f 40/59/31 27/60/32 44/57/29
f 44/57/29 27/60/32 37/55/27
f 41/58/30 43/61/33 44/57/29
f 44/57/29 43/61/33 45/62/34
f 30/63/35 38/64/36 43/61/33
f 43/61/33 38/64/36 45/62/34
f 29/65/37 42/66/38 38/64/36
f 38/64/36 42/66/38 45/62/34
f 40/59/31 44/57/29 42/66/38
f 42/66/38 44/57/29 45/62/34
f 32/67/39 49/68/40 39/69/41
f 39/69/41 49/68/40 46/70/42
f 49/68/40 34/71/43 46/70/42
f 46/70/42 34/71/43 47/72/44
f 33/73/45 50/74/46 47/72/44
f 47/72/44 50/74/46 46/70/42
f 31/75/47 39/69/41 50/74/46
f 50/74/46 39/69/41 46/70/42
f 34/71/43 36/76/48 47/72/44
f 47/72/44 36/76/48 48/77/49
f 48/77/49 35/78/50 47/72/44
f 47/72/44 35/78/50 33/73/45
f 28/79/28 37/80/27 36/81/48
f 36/81/48 37/80/27 48/82/49
f 27/83/32 35/84/50 37/80/27
f 37/80/27 35/84/50 48/82/49
f 41/85/30 28/86/28 34/87/43
f 34/87/43 28/86/28 36/88/48
f 30/89/35 43/90/33 32/91/39
f 32/91/39 43/90/33 49/92/40
f 43/90/33 41/85/30 49/92/40
f 49/92/40 41/85/30 34/87/43
f 35/93/50 27/94/32 33/95/45
f 33/95/45 27/94/32 40/96/31
f 33/95/45 40/96/31 50/97/46
f 50/97/46 40/96/31 42/98/38
f 29/99/37 31/100/47 42/98/38
f 42/98/38 31/100/47 50/97/46
