# This file uses centimeters as units for non-parametric coordinates.

v 201.972078 167.133775 -196.674404
v 200.239672 168.262797 -190.790108
v 203.138325 167.637476 -185.161866
v 200.832977 174.440722 -196.694586
v 198.235160 174.794905 -190.702845
v 201.058664 174.466443 -184.977763
v 203.903324 180.811406 -196.688768
v 200.510189 181.547993 -190.815703
v 203.829091 181.471700 -184.690586
v 208.598585 180.948248 -197.921164
v 209.018136 184.112246 -190.964718
v 209.202849 182.000940 -183.291707
v 213.228935 180.161829 -197.080734
v 217.068197 180.237954 -191.002673
v 214.231664 180.464198 -184.662987
v 215.650912 173.087395 -197.195384
v 218.397040 172.665380 -191.293984
v 216.245295 173.001139 -185.038798
v 213.151772 165.997276 -196.811311
v 215.522831 165.227893 -191.092656
v 213.580970 165.959241 -185.455737
v 207.591865 166.910460 -197.896279
v 207.699927 164.357960 -190.954991
v 207.930661 165.813651 -182.974931
v 208.435812 173.657824 -181.050239
v 208.071489 173.820561 -200.775730
v 205.780069 148.992558 -192.154812
v 205.861176 148.985294 -190.163481
v 206.478015 166.046819 -192.314845
v 206.538444 166.041961 -189.706914
v 208.593019 165.831797 -192.373430
v 208.524874 165.840011 -189.761937
v 208.244081 151.417779 -192.457353
v 208.238666 151.419592 -189.894862
v 207.982207 148.768666 -192.238664
v 207.980632 148.769841 -190.178141
v 205.660037 148.068711 -191.170486
v 206.508229 166.044390 -191.010880
v 208.558949 165.835904 -191.067683
v 205.871225 151.659036 -192.350356
v 205.965573 151.650663 -189.879063
v 206.410262 161.237390 -192.010179
v 206.443571 161.234973 -190.043230
v 205.807546 151.666120 -191.110726
v 206.338440 161.245177 -191.023647
v 208.567874 161.018517 -191.093973
v 208.462375 151.396218 -191.180895
v 208.137186 147.816880 -191.223334
v 208.378274 161.038281 -190.098906
v 208.377065 161.037429 -192.077575
vt 0.037013 0.861564
vt 0.027355 0.734793
vt 0.167650 0.890199
vt 0.167663 0.732067
vt 0.037013 0.611436
vt 0.167650 0.578459
vt 0.308569 0.734793
vt 0.298287 0.861564
vt 0.298287 0.611436
vt 0.639004 0.710387
vt 0.820067 0.707662
vt 0.694973 0.837159
vt 0.818259 0.888097
vt 0.692217 0.587031
vt 0.818675 0.533981
vt 0.940611 0.833378
vt 0.989729 0.706763
vt 0.943170 0.584589
vt 0.039763 0.516572
vt 0.029481 0.389957
vt 0.170401 0.547293
vt 0.170388 0.390856
vt 0.039763 0.267783
vt 0.170401 0.236600
vt 0.310695 0.389957
vt 0.301038 0.516572
vt 0.301038 0.267783
vt 0.315210 0.563716
vt 0.485193 0.564615
vt 0.364648 0.690331
vt 0.487000 0.745418
vt 0.362089 0.441542
vt 0.486585 0.390647
vt 0.610287 0.694112
vt 0.666549 0.567340
vt 0.613042 0.443983
vt 0.669370 0.335160
vt 0.682481 0.210664
vt 0.813203 0.333768
vt 0.813119 0.164276
vt 0.682481 0.461616
vt 0.813119 0.502622
vt 0.943756 0.210664
vt 0.957716 0.335160
vt 0.943756 0.461616
vt 0.633569 0.199173
vt 0.489735 0.197365
vt 0.620457 0.076820
vt 0.489820 0.030007
vt 0.620457 0.322459
vt 0.489820 0.365233
vt 0.359183 0.076820
vt 0.345223 0.199173
vt 0.359183 0.322459
vt 0.654607 0.113820
vt 0.654607 0.075817
vt 0.732044 0.112337
vt 0.732044 0.080588
vt 0.732044 0.144086
vt 0.654607 0.151822
vt 0.886920 0.085291
vt 0.886920 0.110666
vt 0.964357 0.085223
vt 0.964358 0.110477
vt 0.964358 0.135731
vt 0.886920 0.136041
vt 0.027867 0.081350
vt 0.105305 0.081417
vt 0.027867 0.106604
vt 0.105305 0.106959
vt 0.260181 0.075281
vt 0.260181 0.108399
vt 0.260181 0.141517
vt 0.105305 0.132501
vt 0.027867 0.131859
vt 0.337618 0.069079
vt 0.337618 0.109485
vt 0.337619 0.149891
vt 0.131509 0.230883
vt 0.088308 0.232280
vt 0.134767 0.170666
vt 0.088833 0.168174
vt 0.045106 0.233677
vt 0.042899 0.165682
vt 0.411757 0.801450
vt 0.334319 0.801070
vt 0.411757 0.751434
vt 0.334319 0.748101
vt 0.644071 0.808110
vt 0.566633 0.804971
vt 0.644071 0.769496
vt 0.566633 0.762132
vt 0.334089 0.893362
vt 0.334089 0.833551
vt 0.411527 0.887959
vt 0.411527 0.834764
vt 0.566402 0.876430
vt 0.566402 0.832583
vt 0.643841 0.829190
vt 0.643840 0.870303
vn -0.567622 -0.566040 -0.597833
vn -0.866073 -0.495050 0.069592
vn -0.806515 0.069252 -0.587143
vn -0.999646 0.011358 0.024042
vn -0.620417 -0.523331 0.584130
vn -0.781293 0.005340 0.624142
vn -0.798108 0.602174 -0.020261
vn -0.434559 0.603726 -0.668336
vn -0.480444 0.584491 0.653869
vn 0.077922 0.994128 -0.075079
vn 0.018388 0.673648 -0.738823
vn 0.067972 0.674241 0.735376
vn 0.478186 0.548582 -0.685854
vn 0.873365 0.482924 -0.063394
vn 0.579772 0.514236 0.632001
vn 0.768561 -0.040659 -0.638483
vn 0.994258 -0.093808 -0.051485
vn 0.815364 -0.079342 0.573486
vn 0.768841 -0.638574 -0.033254
vn 0.354029 -0.647836 -0.674516
vn 0.477183 -0.630424 0.612259
vn -0.163969 -0.986211 -0.022386
vn -0.079558 -0.700247 -0.709454
vn -0.120182 -0.697960 0.705980
vn -0.008665 -0.013468 0.999872
vn -0.033495 0.012743 -0.999358
vn -0.664156 -0.747357 0.018814
vn -0.564298 -0.222145 0.795122
vn -0.998441 0.044600 0.033553
vn -0.514104 0.002051 0.857726
vn -0.564576 0.025123 -0.824999
vn -0.609393 -0.202725 -0.766513
vn -0.758137 0.006521 0.652063
vn -0.998828 0.045260 0.017132
vn -0.692193 -0.036752 0.720776
vn -0.999457 0.026065 0.020162
vn -0.727562 -0.033150 -0.685240
vn -0.790839 0.015389 -0.611830
vn 0.456980 -0.075938 0.886230
vn 0.664981 -0.016669 0.746674
vn 0.999758 -0.018192 0.012396
vn 0.999421 -0.005707 0.033560
vn 0.640602 -0.070971 0.764586
vn 0.997683 -0.062441 -0.027006
vn 0.479976 -0.059546 -0.875258
vn 0.737076 -0.007518 -0.675768
vn 0.423972 -0.076009 -0.902480
vn 0.510198 -0.457298 0.728407
vn 0.768155 -0.640257 -0.003158
vn 0.492236 -0.450258 -0.744964
f 1/1/1 2/2/2 4/3/3
f 4/3/3 2/2/2 5/4/4
f 3/5/5 6/6/6 2/2/2
f 2/2/2 6/6/6 5/4/4
f 5/4/4 8/7/7 4/3/3
f 4/3/3 8/7/7 7/8/8
f 5/4/4 6/6/6 8/7/7
f 8/7/7 6/6/6 9/9/9
f 8/10/7 11/11/10 7/12/8
f 7/12/8 11/11/10 10/13/11
f 8/10/7 9/14/9 11/11/10
f 11/11/10 9/14/9 12/15/12
f 10/13/11 11/11/10 13/16/13
f 13/16/13 11/11/10 14/17/14
f 12/15/12 15/18/15 11/11/10
f 11/11/10 15/18/15 14/17/14
f 13/19/13 14/20/14 16/21/16
f 16/21/16 14/20/14 17/22/17
f 15/23/15 18/24/18 14/20/14
f 14/20/14 18/24/18 17/22/17
f 17/22/17 20/25/19 16/21/16
f 16/21/16 20/25/19 19/26/20
f 17/22/17 18/24/18 20/25/19
f 20/25/19 18/24/18 21/27/21
f 20/28/19 23/29/22 19/30/20
f 19/30/20 23/29/22 22/31/23
f 20/28/19 21/32/21 23/29/22
f 23/29/22 21/32/21 24/33/24
f 22/31/23 23/29/22 1/34/1
f 1/34/1 23/29/22 2/35/2
f 24/33/24 3/36/5 23/29/22
f 23/29/22 3/36/5 2/35/2
f 24/37/24 21/38/21 25/39/25
f 25/39/25 21/38/21 18/40/18
f 24/37/24 25/39/25 3/41/5
f 3/41/5 25/39/25 6/42/6
f 18/40/18 15/43/15 25/39/25
f 25/39/25 15/43/15 12/44/12
f 6/42/6 25/39/25 9/45/9
f 9/45/9 25/39/25 12/44/12
f 22/46/23 26/47/26 19/48/20
f 19/48/20 26/47/26 16/49/16
f 22/46/23 1/50/1 26/47/26
f 26/47/26 1/50/1 4/51/3
f 16/49/16 26/47/26 13/52/13
f 13/52/13 26/47/26 10/53/11
f 4/51/3 7/54/8 26/47/26
f 26/47/26 7/54/8 10/53/11
f 37/55/27 28/56/28 44/57/29
f 44/57/29 28/56/28 41/58/30
f 40/59/31 27/60/32 44/57/29
f 44/57/29 27/60/32 37/55/27
f 41/58/30 43/61/33 44/57/29
f 44/57/29 43/61/33 45/62/34
f 30/63/35 38/64/36 43/61/33
f 43/61/33 38/64/36 45/62/34
f 29/65/37 42/66/38 38/64/36
f 38/64/36 42/66/38 45/62/34
f 40/59/31 44/57/29 42/66/38
f 42/66/38 44/57/29 45/62/34
f 32/67/39 49/68/40 39/69/41
f 39/69/41 49/68/40 46/70/42
f 49/68/40 34/71/43 46/70/42
f 46/70/42 34/71/43 47/72/44
f 33/73/45 50/74/46 47/72/44
f 47/72/44 50/74/46 46/70/42
f 31/75/47 39/69/41 50/74/46
f 50/74/46 39/69/41 46/70/42
f 34/71/43 36/76/48 47/72/44
f 47/72/44 36/76/48 48/77/49
f 48/77/49 35/78/50 47/72/44
f 47/72/44 35/78/50 33/73/45
f 28/79/28 37/80/27 36/81/48
f 36/81/48 37/80/27 48/82/49
f 27/83/32 35/84/50 37/80/27
f 37/80/27 35/84/50 48/82/49
f 41/85/30 28/86/28 34/87/43
f 34/87/43 28/86/28 36/88/48
f 30/89/35 43/90/33 32/91/39
f 32/91/39 43/90/33 49/92/40
f 43/90/33 41/85/30 49/92/40
f 49/92/40 41/85/30 34/87/43
f 35/93/50 27/94/32 33/95/45
f 33/95/45 27/94/32 40/96/31
f 33/95/45 40/96/31 50/97/46
f 50/97/46 40/96/31 42/98/38
f 29/99/37 31/100/47 42/98/38
f 42/98/38 31/100/47 50/97/46
