# This file uses centimeters as units for non-parametric coordinates.

v -143.726522 206.519591 -41.605427
v -140.447694 207.894812 -34.666533
v -133.027737 207.319697 -31.873175
v -145.032164 215.590062 -40.528103
v -142.442459 215.952407 -32.780787
v -135.020644 215.745201 -29.828769
v -142.378034 223.712903 -42.965554
v -140.638153 224.510015 -34.655849
v -132.429660 224.647848 -31.741482
v -139.053960 224.119921 -48.034914
v -132.944435 228.161742 -41.859600
v -126.286586 225.605951 -34.925552
v -134.026737 223.389462 -51.141980
v -125.379289 223.744763 -48.703547
v -122.716074 223.937941 -40.435776
v -131.650123 214.675941 -53.412962
v -124.149680 214.349422 -50.234224
v -120.924807 214.714774 -42.615545
v -133.424939 205.687927 -51.105063
v -126.414649 204.905817 -47.789262
v -123.524684 205.770708 -40.912866
v -139.523844 206.525432 -47.445305
v -133.535403 203.407343 -41.135743
v -126.690762 205.314209 -33.884872
v -124.859564 215.161183 -32.364934
v -141.706157 215.158294 -50.386495
v -135.835768 184.094083 -40.946518
v -134.094201 184.108166 -39.164096
v -135.861057 205.440385 -41.344272
v -133.622890 205.462228 -38.971549
v -133.939519 205.282718 -43.171810
v -131.818167 205.314147 -40.687987
v -133.877801 187.251764 -43.240823
v -131.738998 187.278039 -40.855124
v -133.854190 183.929690 -42.870582
v -132.131770 183.950612 -40.954548
v -135.094466 182.942645 -39.949598
v -134.741974 205.451307 -40.157910
v -132.878843 205.298432 -41.929899
v -135.999072 187.429069 -41.152132
v -133.843620 187.447014 -38.934814
v -135.516944 199.429838 -41.098885
v -133.840310 199.447225 -39.299048
v -135.021294 187.446314 -39.946841
v -134.758503 199.445133 -40.121952
v -132.740176 199.278850 -42.056330
v -132.606498 187.248440 -42.237698
v -132.830723 182.758142 -42.075403
v -132.084326 199.302978 -40.972730
v -133.740860 199.283089 -42.810367
vt 0.037013 0.861564
vt 0.027355 0.734793
vt 0.167650 0.890199
vt 0.167663 0.732067
vt 0.037013 0.611436
vt 0.167650 0.578459
vt 0.308569 0.734793
vt 0.298287 0.861564
vt 0.298287 0.611436
vt 0.639004 0.710387
vt 0.820067 0.707662
vt 0.694973 0.837159
vt 0.818259 0.888097
vt 0.692217 0.587031
vt 0.818675 0.533981
vt 0.940611 0.833378
vt 0.989729 0.706763
vt 0.943170 0.584589
vt 0.039763 0.516572
vt 0.029481 0.389957
vt 0.170401 0.547293
vt 0.170388 0.390856
vt 0.039763 0.267783
vt 0.170401 0.236600
vt 0.310695 0.389957
vt 0.301038 0.516572
vt 0.301038 0.267783
vt 0.315210 0.563716
vt 0.485193 0.564615
vt 0.364648 0.690331
vt 0.487000 0.745418
vt 0.362089 0.441542
vt 0.486585 0.390647
vt 0.610287 0.694112
vt 0.666549 0.567340
vt 0.613042 0.443983
vt 0.669370 0.335160
vt 0.682481 0.210664
vt 0.813203 0.333768
vt 0.813119 0.164276
vt 0.682481 0.461616
vt 0.813119 0.502622
vt 0.943756 0.210664
vt 0.957716 0.335160
vt 0.943756 0.461616
vt 0.633569 0.199173
vt 0.489735 0.197365
vt 0.620457 0.076820
vt 0.489820 0.030007
vt 0.620457 0.322459
vt 0.489820 0.365233
vt 0.359183 0.076820
vt 0.345223 0.199173
vt 0.359183 0.322459
vt 0.654607 0.113820
vt 0.654607 0.075817
vt 0.732044 0.112337
vt 0.732044 0.080588
vt 0.732044 0.144086
vt 0.654607 0.151822
vt 0.886920 0.085291
vt 0.886920 0.110666
vt 0.964357 0.085223
vt 0.964358 0.110477
vt 0.964358 0.135731
vt 0.886920 0.136041
vt 0.027867 0.081350
vt 0.105305 0.081417
vt 0.027867 0.106604
vt 0.105305 0.106959
vt 0.260181 0.075281
vt 0.260181 0.108399
vt 0.260181 0.141517
vt 0.105305 0.132501
vt 0.027867 0.131859
vt 0.337618 0.069079
vt 0.337618 0.109485
vt 0.337619 0.149891
vt 0.131509 0.230883
vt 0.088308 0.232280
vt 0.134767 0.170666
vt 0.088833 0.168174
vt 0.045106 0.233677
vt 0.042899 0.165682
vt 0.411757 0.801450
vt 0.334319 0.801070
vt 0.411757 0.751434
vt 0.334319 0.748101
vt 0.644071 0.808110
vt 0.566633 0.804971
vt 0.644071 0.769496
vt 0.566633 0.762132
vt 0.334089 0.893362
vt 0.334089 0.833551
vt 0.411527 0.887959
vt 0.411527 0.834764
vt 0.566402 0.876430
vt 0.566402 0.832583
vt 0.643841 0.829190
vt 0.643840 0.870303
vn -0.804849 -0.588359 -0.077790
vn -0.581723 -0.522633 0.623260
vn -0.993606 0.042457 0.104614
vn -0.726646 -0.017813 0.686781
vn -0.050962 -0.539964 0.840144
vn -0.162737 -0.014270 0.986566
vn -0.624269 0.574746 0.529109
vn -0.788429 0.584547 -0.191532
vn 0.059293 0.571882 0.818190
vn -0.028603 0.995928 -0.085493
vn -0.504668 0.669119 -0.545518
vn 0.518793 0.680778 0.517103
vn -0.124115 0.560003 -0.819141
vn 0.591737 0.510656 -0.623761
vn 0.838526 0.536703 0.093935
vn 0.144930 -0.021470 -0.989209
vn 0.706543 -0.064822 -0.704695
vn 0.991286 -0.052341 -0.120885
vn 0.568356 -0.611983 -0.549953
vn -0.164499 -0.639291 -0.751163
vn 0.783197 -0.609887 0.120997
vn -0.100999 -0.992358 0.070881
vn -0.509151 -0.707097 -0.490693
vn 0.408474 -0.697181 0.589141
vn 0.663055 -0.008448 0.748523
vn -0.693988 0.006491 -0.719957
vn -0.456236 -0.771105 0.444123
vn 0.121237 -0.234638 0.964493
vn -0.720292 0.015488 0.693498
vn 0.192084 -0.008497 0.981342
vn -0.972018 0.004221 -0.234869
vn -0.959961 -0.224947 -0.166952
vn -0.126900 -0.012263 0.991840
vn -0.731579 0.016050 0.681568
vn -0.030388 -0.053231 0.998120
vn -0.729500 -0.003129 0.683973
vn -0.998039 -0.058084 -0.023352
vn -0.997150 -0.011014 0.074632
vn 0.934576 -0.057802 0.351036
vn 0.993939 0.006757 0.109722
vn 0.751294 0.011177 -0.659873
vn 0.764873 0.023759 -0.643743
vn 0.989259 -0.048101 0.138035
vn 0.724592 -0.033291 -0.688374
vn -0.227008 -0.050042 -0.972606
vn 0.095435 0.010525 -0.995380
vn -0.286191 -0.068274 -0.955737
vn 0.879584 -0.436584 0.189014
vn 0.587891 -0.613483 -0.527279
vn -0.116299 -0.438546 -0.891152
f 1/1/1 2/2/2 4/3/3
f 4/3/3 2/2/2 5/4/4
f 3/5/5 6/6/6 2/2/2
f 2/2/2 6/6/6 5/4/4
f 5/4/4 8/7/7 4/3/3
f 4/3/3 8/7/7 7/8/8
f 5/4/4 6/6/6 8/7/7
f 8/7/7 6/6/6 9/9/9
f 8/10/7 11/11/10 7/12/8
f 7/12/8 11/11/10 10/13/11
f 8/10/7 9/14/9 11/11/10
f 11/11/10 9/14/9 12/15/12
f 10/13/11 11/11/10 13/16/13
f 13/16/13 11/11/10 14/17/14
f 12/15/12 15/18/15 11/11/10
f 11/11/10 15/18/15 14/17/14
f 13/19/13 14/20/14 16/21/16
f 16/21/16 14/20/14 17/22/17
f 15/23/15 18/24/18 14/20/14
f 14/20/14 18/24/18 17/22/17
f 17/22/17 20/25/19 16/21/16
f 16/21/16 20/25/19 19/26/20
f 17/22/17 18/24/18 20/25/19
f 20/25/19 18/24/18 21/27/21
f 20/28/19 23/29/22 19/30/20
f 19/30/20 23/29/22 22/31/23
f 20/28/19 21/32/21 23/29/22
f 23/29/22 21/32/21 24/33/24
f 22/31/23 23/29/22 1/34/1
f 1/34/1 23/29/22 2/35/2
f 24/33/24 3/36/5 23/29/22
f 23/29/22 3/36/5 2/35/2
f 24/37/24 21/38/21 25/39/25
f 25/39/25 21/38/21 18/40/18
f 24/37/24 25/39/25 3/41/5
f 3/41/5 25/39/25 6/42/6
f 18/40/18 15/43/15 25/39/25
f 25/39/25 15/43/15 12/44/12
f 6/42/6 25/39/25 9/45/9
f 9/45/9 25/39/25 12/44/12
f 22/46/23 26/47/26 19/48/20
f 19/48/20 26/47/26 16/49/16
f 22/46/23 1/50/1 26/47/26
f 26/47/26 1/50/1 4/51/3
f 16/49/16 26/47/26 13/52/13
f 13/52/13 26/47/26 10/53/11
f 4/51/3 7/54/8 26/47/26
f 26/47/26 7/54/8 10/53/11
f 37/55/27 28/56/28 44/57/29
f 44/57/29 28/56/28 41/58/30
f 40/59/31 27/60/32 44/57/29
f 44/57/29 27/60/32 37/55/27
f 41/58/30 43/61/33 44/57/29
f 44/57/29 43/61/33 45/62/34
f 30/63/35 38/64/36 43/61/33
f 43/61/33 38/64/36 45/62/34
f 29/65/37 42/66/38 38/64/36
f 38/64/36 42/66/38 45/62/34
f 40/59/31 44/57/29 42/66/38
f 42/66/38 44/57/29 45/62/34
f 32/67/39 49/68/40 39/69/41
f 39/69/41 49/68/40 46/70/42
f 49/68/40 34/71/43 46/70/42
f 46/70/42 34/71/43 47/72/44
f 33/73/45 50/74/46 47/72/44
f 47/72/44 50/74/46 46/70/42
f 31/75/47 39/69/41 50/74/46
f 50/74/46 39/69/41 46/70/42
f 34/71/43 36/76/48 47/72/44
f 47/72/44 36/76/48 48/77/49
f 48/77/49 35/78/50 47/72/44
f 47/72/44 35/78/50 33/73/45
f 28/79/28 37/80/27 36/81/48
f 36/81/48 37/80/27 48/82/49
f 27/83/32 35/84/50 37/80/27
f 37/80/27 35/84/50 48/82/49
f 41/85/30 28/86/28 34/87/43
f 34/87/43 28/86/28 36/88/48
f 30/89/35 43/90/33 32/91/39
f 32/91/39 43/90/33 49/92/40
f 43/90/33 41/85/30 49/92/40
f 49/92/40 41/85/30 34/87/43
f 35/93/50 27/94/32 33/95/45
f 33/95/45 27/94/32 40/96/31
f 33/95/45 40/96/31 50/97/46
f 50/97/46 40/96/31 42/98/38
f 29/99/37 31/100/47 42/98/38
f 42/98/38 31/100/47 50/97/46
