# This file uses centimeters as units for non-parametric coordinates.

v 254.877100 185.787867 47.458866
v 263.184069 186.854246 47.725003
v 269.422700 186.605484 41.873520
v 255.605261 195.285678 49.997473
v 264.323571 195.125999 51.224293
v 270.728803 195.255776 45.477780
v 254.820454 204.463982 46.978045
v 263.686787 204.639978 49.326086
v 270.446302 205.211757 42.834943
v 251.552414 205.695836 41.406749
v 260.579480 209.942344 38.815927
v 270.368963 207.091442 35.497937
v 250.953123 205.661312 35.035200
v 257.473150 206.551870 27.914305
v 266.722019 206.165365 29.303637
v 249.603295 196.758454 30.929903
v 256.260461 196.744598 25.205510
v 265.160545 196.656317 25.760956
v 250.655909 186.742644 32.969038
v 257.193270 186.184231 27.742172
v 265.235070 186.676150 28.308915
v 251.275648 186.743327 40.642552
v 260.122062 183.293952 37.623077
v 270.463337 185.209481 34.655755
v 273.153848 195.768395 34.456156
v 247.697314 196.097096 42.075134
v 258.518861 162.380274 38.281517
v 261.073371 162.369112 37.456712
v 258.874055 185.290603 39.931932
v 262.236111 185.272080 38.911283
v 258.033069 185.471528 37.202507
v 261.446252 185.442005 36.347791
v 257.362489 166.163411 35.577011
v 260.689401 166.139684 34.658409
v 257.613576 162.568859 35.447913
v 260.287772 162.550017 34.705642
v 259.794899 161.111535 37.945323
v 260.555083 185.281342 39.421607
v 259.739660 185.456766 36.775149
v 258.359554 165.960055 38.624281
v 261.532043 165.945665 37.608876
v 259.064574 178.855708 39.206785
v 261.604743 178.840690 38.452951
v 259.991059 165.943369 38.259305
v 260.370627 178.840625 38.943830
v 259.473023 179.031415 36.069837
v 258.939796 166.170440 34.832026
v 258.830377 161.323294 34.742868
v 260.832742 179.006209 35.956968
v 258.265766 179.024071 36.673289
vt 0.037013 0.861564
vt 0.027355 0.734793
vt 0.167650 0.890199
vt 0.167663 0.732067
vt 0.037013 0.611436
vt 0.167650 0.578459
vt 0.308569 0.734793
vt 0.298287 0.861564
vt 0.298287 0.611436
vt 0.639004 0.710387
vt 0.820067 0.707662
vt 0.694973 0.837159
vt 0.818259 0.888097
vt 0.692217 0.587031
vt 0.818675 0.533981
vt 0.940611 0.833378
vt 0.989729 0.706763
vt 0.943170 0.584589
vt 0.039763 0.516572
vt 0.029481 0.389957
vt 0.170401 0.547293
vt 0.170388 0.390856
vt 0.039763 0.267783
vt 0.170401 0.236600
vt 0.310695 0.389957
vt 0.301038 0.516572
vt 0.301038 0.267783
vt 0.315210 0.563716
vt 0.485193 0.564615
vt 0.364648 0.690331
vt 0.487000 0.745418
vt 0.362089 0.441542
vt 0.486585 0.390647
vt 0.610287 0.694112
vt 0.666549 0.567340
vt 0.613042 0.443983
vt 0.669370 0.335160
vt 0.682481 0.210664
vt 0.813203 0.333768
vt 0.813119 0.164276
vt 0.682481 0.461616
vt 0.813119 0.502622
vt 0.943756 0.210664
vt 0.957716 0.335160
vt 0.943756 0.461616
vt 0.633569 0.199173
vt 0.489735 0.197365
vt 0.620457 0.076820
vt 0.489820 0.030007
vt 0.620457 0.322459
vt 0.489820 0.365233
vt 0.359183 0.076820
vt 0.345223 0.199173
vt 0.359183 0.322459
vt 0.654607 0.113820
vt 0.654607 0.075817
vt 0.732044 0.112337
vt 0.732044 0.080588
vt 0.732044 0.144086
vt 0.654607 0.151822
vt 0.886920 0.085291
vt 0.886920 0.110666
vt 0.964357 0.085223
vt 0.964358 0.110477
vt 0.964358 0.135731
vt 0.886920 0.136041
vt 0.027867 0.081350
vt 0.105305 0.081417
vt 0.027867 0.106604
vt 0.105305 0.106959
vt 0.260181 0.075281
vt 0.260181 0.108399
vt 0.260181 0.141517
vt 0.105305 0.132501
vt 0.027867 0.131859
vt 0.337618 0.069079
vt 0.337618 0.109485
vt 0.337619 0.149891
vt 0.131509 0.230883
vt 0.088308 0.232280
vt 0.134767 0.170666
vt 0.088833 0.168174
vt 0.045106 0.233677
vt 0.042899 0.165682
vt 0.411757 0.801450
vt 0.334319 0.801070
vt 0.411757 0.751434
vt 0.334319 0.748101
vt 0.644071 0.808110
vt 0.566633 0.804971
vt 0.644071 0.769496
vt 0.566633 0.762132
vt 0.334089 0.893362
vt 0.334089 0.833551
vt 0.411527 0.887959
vt 0.411527 0.834764
vt 0.566402 0.876430
vt 0.566402 0.832583
vt 0.643841 0.829190
vt 0.643840 0.870303
vn -0.461180 -0.631743 0.623068
vn 0.277619 -0.603123 0.747777
vn -0.348078 -0.020296 0.937246
vn 0.289246 -0.102968 0.951701
vn 0.712558 -0.602244 0.359948
vn 0.809861 -0.086979 0.580138
vn 0.217524 0.494220 0.841683
vn -0.491538 0.544776 0.679419
vn 0.775050 0.513124 0.368783
vn -0.042370 0.993991 0.100930
vn -0.682210 0.673011 0.285737
vn 0.724230 0.671497 -0.156792
vn -0.769817 0.609522 -0.189383
vn -0.274040 0.591482 -0.758322
vn 0.488217 0.580372 -0.651777
vn -0.820923 0.050480 -0.568804
vn -0.317204 0.020544 -0.948135
vn 0.331949 0.011381 -0.943229
vn -0.261915 -0.532000 -0.805218
vn -0.766164 -0.590033 -0.254664
vn 0.424910 -0.564727 -0.707485
vn -0.028434 -0.999559 0.008616
vn -0.697770 -0.698929 0.156893
vn 0.678654 -0.710981 -0.184211
vn 0.964860 -0.019348 -0.262051
vn -0.953197 0.013825 0.302034
vn 0.159870 -0.836073 0.524809
vn 0.910959 -0.290490 0.292863
vn 0.299306 -0.069756 0.951604
vn 0.963368 -0.060881 0.261181
vn -0.643979 -0.035283 0.764229
vn -0.591171 -0.268149 0.760666
vn 0.830601 -0.083293 0.550603
vn 0.283604 -0.069061 0.956451
vn 0.878337 -0.119202 0.462942
vn 0.285989 -0.088259 0.954160
vn -0.470235 -0.112555 0.875335
vn -0.379500 -0.071840 0.922398
vn 0.727997 -0.027591 -0.685025
vn 0.542603 0.055517 -0.838153
vn -0.254353 0.095979 -0.962337
vn -0.233343 0.108292 -0.966346
vn 0.562596 -0.001175 -0.826731
vn -0.293439 0.051906 -0.954567
vn -0.972601 0.000078 -0.232483
vn -0.847832 0.080011 -0.524194
vn -0.984442 -0.022447 -0.174271
vn 0.537340 -0.394204 -0.745566
vn -0.233507 -0.533842 -0.812703
vn -0.860890 -0.381745 -0.336362
f 1/1/1 2/2/2 4/3/3
f 4/3/3 2/2/2 5/4/4
f 3/5/5 6/6/6 2/2/2
f 2/2/2 6/6/6 5/4/4
f 5/4/4 8/7/7 4/3/3
f 4/3/3 8/7/7 7/8/8
f 5/4/4 6/6/6 8/7/7
f 8/7/7 6/6/6 9/9/9
f 8/10/7 11/11/10 7/12/8
f 7/12/8 11/11/10 10/13/11
f 8/10/7 9/14/9 11/11/10
f 11/11/10 9/14/9 12/15/12
f 10/13/11 11/11/10 13/16/13
f 13/16/13 11/11/10 14/17/14
f 12/15/12 15/18/15 11/11/10
f 11/11/10 15/18/15 14/17/14
f 13/19/13 14/20/14 16/21/16
f 16/21/16 14/20/14 17/22/17
f 15/23/15 18/24/18 14/20/14
f 14/20/14 18/24/18 17/22/17
f 17/22/17 20/25/19 16/21/16
f 16/21/16 20/25/19 19/26/20
f 17/22/17 18/24/18 20/25/19
f 20/25/19 18/24/18 21/27/21
f 20/28/19 23/29/22 19/30/20
f 19/30/20 23/29/22 22/31/23
f 20/28/19 21/32/21 23/29/22
f 23/29/22 21/32/21 24/33/24
f 22/31/23 23/29/22 1/34/1
f 1/34/1 23/29/22 2/35/2
f 24/33/24 3/36/5 23/29/22
f 23/29/22 3/36/5 2/35/2
f 24/37/24 21/38/21 25/39/25
f 25/39/25 21/38/21 18/40/18
f 24/37/24 25/39/25 3/41/5
f 3/41/5 25/39/25 6/42/6
f 18/40/18 15/43/15 25/39/25
f 25/39/25 15/43/15 12/44/12
f 6/42/6 25/39/25 9/45/9
f 9/45/9 25/39/25 12/44/12
f 22/46/23 26/47/26 19/48/20
f 19/48/20 26/47/26 16/49/16
f 22/46/23 1/50/1 26/47/26
f 26/47/26 1/50/1 4/51/3
f 16/49/16 26/47/26 13/52/13
f 13/52/13 26/47/26 10/53/11
f 4/51/3 7/54/8 26/47/26
f 26/47/26 7/54/8 10/53/11
f 37/55/27 28/56/28 44/57/29
f 44/57/29 28/56/28 41/58/30
f 40/59/31 27/60/32 44/57/29
f 44/57/29 27/60/32 37/55/27
f 41/58/30 43/61/33 44/57/29
f 44/57/29 43/61/33 45/62/34
f 30/63/35 38/64/36 43/61/33
f 43/61/33 38/64/36 45/62/34
f 29/65/37 42/66/38 38/64/36
f 38/64/36 42/66/38 45/62/34
f 40/59/31 44/57/29 42/66/38
f 42/66/38 44/57/29 45/62/34
f 32/67/39 49/68/40 39/69/41
f 39/69/41 49/68/40 46/70/42
f 49/68/40 34/71/43 46/70/42
f 46/70/42 34/71/43 47/72/44
f 33/73/45 50/74/46 47/72/44
f 47/72/44 50/74/46 46/70/42
f 31/75/47 39/69/41 50/74/46
f 50/74/46 39/69/41 46/70/42
f 34/71/43 36/76/48 47/72/44
f 47/72/44 36/76/48 48/77/49
f 48/77/49 35/78/50 47/72/44
f 47/72/44 35/78/50 33/73/45
f 28/79/28 37/80/27 36/81/48
f 36/81/48 37/80/27 48/82/49
f 27/83/32 35/84/50 37/80/27
f 37/80/27 35/84/50 48/82/49
f 41/85/30 28/86/28 34/87/43
f 34/87/43 28/86/28 36/88/48
f 30/89/35 43/90/33 32/91/39
f 32/91/39 43/90/33 49/92/40
f 43/90/33 41/85/30 49/92/40
f 49/92/40 41/85/30 34/87/43
f 35/93/50 27/94/32 33/95/45
f 33/95/45 27/94/32 40/96/31
f 33/95/45 40/96/31 50/97/46
f 50/97/46 40/96/31 42/98/38
f 29/99/37 31/100/47 42/98/38
f 42/98/38 31/100/47 50/97/46
