# This file uses centimeters as units for non-parametric coordinates.

v -16.316702 194.175701 -148.313003
v -22.416570 194.891120 -146.084523
v -25.244111 194.462760 -140.048061
v -17.609572 201.633559 -149.756417
v -24.281336 201.410110 -148.128823
v -27.261197 201.277046 -142.112879
v -16.197642 208.729486 -147.617300
v -23.302032 208.792883 -146.752555
v -26.324704 208.981184 -140.086244
v -12.222314 209.602986 -144.502114
v -18.028115 212.718361 -139.934161
v -24.152888 210.269860 -134.757424
v -9.945242 209.430034 -140.060736
v -12.613288 209.855165 -133.001261
v -19.715767 209.450941 -131.342490
v -7.750745 202.407250 -137.650547
v -10.919091 202.158991 -131.580619
v -17.528633 201.972219 -129.412796
v -9.070491 194.630407 -139.018517
v -12.294132 193.971336 -133.354201
v -18.286908 194.249984 -131.431278
v -11.738808 194.808313 -144.397722
v -17.264577 191.914275 -139.721382
v -23.906189 193.183267 -134.546357
v -25.832575 201.373093 -133.418616
v -9.590751 202.190548 -146.287247
v -16.224939 175.644346 -141.068984
v -17.837415 175.577870 -139.733573
v -17.034510 193.545922 -141.715546
v -19.175492 193.457019 -140.005063
v -15.636339 193.633089 -139.977994
v -17.862317 193.538887 -138.373137
v -14.617204 178.545975 -139.370442
v -16.762214 178.456013 -137.744130
v -14.750062 175.735905 -139.274390
v -16.473111 175.663678 -137.964325
v -17.048204 174.627899 -140.481432
v -18.105002 193.501471 -140.860306
v -16.749326 193.585989 -139.175563
v -16.220326 178.446735 -141.293563
v -18.225477 178.363982 -139.641582
v -16.941820 188.507205 -141.260582
v -18.564414 188.439659 -139.980795
v -17.296944 178.400758 -140.558062
v -17.812113 188.469764 -140.692989
v -16.331133 188.561948 -138.866880
v -15.544724 178.510055 -138.374877
v -15.423804 174.729440 -138.436328
v -17.283690 188.519468 -138.392693
v -15.630826 188.588717 -139.652997
vt 0.037013 0.861564
vt 0.027355 0.734793
vt 0.167650 0.890199
vt 0.167663 0.732067
vt 0.037013 0.611436
vt 0.167650 0.578459
vt 0.308569 0.734793
vt 0.298287 0.861564
vt 0.298287 0.611436
vt 0.639004 0.710387
vt 0.820067 0.707662
vt 0.694973 0.837159
vt 0.818259 0.888097
vt 0.692217 0.587031
vt 0.818675 0.533981
vt 0.940611 0.833378
vt 0.989729 0.706763
vt 0.943170 0.584589
vt 0.039763 0.516572
vt 0.029481 0.389957
vt 0.170401 0.547293
vt 0.170388 0.390856
vt 0.039763 0.267783
vt 0.170401 0.236600
vt 0.310695 0.389957
vt 0.301038 0.516572
vt 0.301038 0.267783
vt 0.315210 0.563716
vt 0.485193 0.564615
vt 0.364648 0.690331
vt 0.487000 0.745418
vt 0.362089 0.441542
vt 0.486585 0.390647
vt 0.610287 0.694112
vt 0.666549 0.567340
vt 0.613042 0.443983
vt 0.669370 0.335160
vt 0.682481 0.210664
vt 0.813203 0.333768
vt 0.813119 0.164276
vt 0.682481 0.461616
vt 0.813119 0.502622
vt 0.943756 0.210664
vt 0.957716 0.335160
vt 0.943756 0.461616
vt 0.633569 0.199173
vt 0.489735 0.197365
vt 0.620457 0.076820
vt 0.489820 0.030007
vt 0.620457 0.322459
vt 0.489820 0.365233
vt 0.359183 0.076820
vt 0.345223 0.199173
vt 0.359183 0.322459
vt 0.654607 0.113820
vt 0.654607 0.075817
vt 0.732044 0.112337
vt 0.732044 0.080588
vt 0.732044 0.144086
vt 0.654607 0.151822
vt 0.886920 0.085291
vt 0.886920 0.110666
vt 0.964357 0.085223
vt 0.964358 0.110477
vt 0.964358 0.135731
vt 0.886920 0.136041
vt 0.027867 0.081350
vt 0.105305 0.081417
vt 0.027867 0.106604
vt 0.105305 0.106959
vt 0.260181 0.075281
vt 0.260181 0.108399
vt 0.260181 0.141517
vt 0.105305 0.132501
vt 0.027867 0.131859
vt 0.337618 0.069079
vt 0.337618 0.109485
vt 0.337619 0.149891
vt 0.131509 0.230883
vt 0.088308 0.232280
vt 0.134767 0.170666
vt 0.088833 0.168174
vt 0.045106 0.233677
vt 0.042899 0.165682
vt 0.411757 0.801450
vt 0.334319 0.801070
vt 0.411757 0.751434
vt 0.334319 0.748101
vt 0.644071 0.808110
vt 0.566633 0.804971
vt 0.644071 0.769496
vt 0.566633 0.762132
vt 0.334089 0.893362
vt 0.334089 0.833551
vt 0.411527 0.887959
vt 0.411527 0.834764
vt 0.566402 0.876430
vt 0.566402 0.832583
vt 0.643841 0.829190
vt 0.643840 0.870303
vn 0.200091 -0.608615 -0.767822
vn -0.529606 -0.588340 -0.611043
vn -0.024015 0.004565 -0.999701
vn -0.620355 -0.086071 -0.779584
vn -0.791852 -0.603753 -0.091944
vn -0.966605 -0.085025 -0.241756
vn -0.518734 0.511052 -0.685376
vn 0.202420 0.568597 -0.797323
vn -0.859148 0.510398 -0.036850
vn -0.004062 0.997270 -0.073735
vn 0.525967 0.690925 -0.495965
vn -0.616180 0.655744 0.436260
vn 0.782700 0.616215 -0.087521
vn 0.530256 0.576467 0.621703
vn -0.214219 0.556691 0.802624
vn 0.972936 0.048938 0.225834
vn 0.645873 0.004190 0.763433
vn 0.041268 -0.013395 0.999058
vn 0.546722 -0.547519 0.633497
vn 0.808521 -0.584471 -0.068465
vn -0.129658 -0.588438 0.798079
vn 0.029231 -0.998089 -0.054441
vn 0.591793 -0.683363 -0.427548
vn -0.559954 -0.726448 0.398402
vn -0.799043 -0.037699 0.600091
vn 0.773391 0.032888 -0.633076
vn -0.336784 -0.823535 -0.456471
vn -0.953534 -0.296203 0.055100
vn -0.630013 -0.053046 -0.774771
vn -0.991369 -0.067878 0.112162
vn 0.314946 -0.010265 -0.949054
vn 0.267971 -0.243132 -0.932244
vn -0.974976 -0.082256 -0.206531
vn -0.617235 -0.052040 -0.785056
vn -0.986713 -0.120685 -0.108774
vn -0.618397 -0.071291 -0.782626
vn 0.112817 -0.087288 -0.989774
vn 0.010974 -0.046832 -0.998842
vn -0.422216 -0.051990 0.905003
vn -0.193500 0.030211 0.980635
vn 0.591970 0.078404 0.802137
vn 0.573818 0.090331 0.813986
vn -0.216086 -0.026460 0.976016
vn 0.625853 0.035075 0.779152
vn 0.989490 0.007832 -0.144390
vn 0.981238 0.079776 0.175520
vn 0.978962 -0.013267 -0.203613
vn -0.221222 -0.418940 0.880653
vn 0.523120 -0.549981 0.651050
vn 0.925883 -0.377265 -0.020285
f 1/1/1 2/2/2 4/3/3
f 4/3/3 2/2/2 5/4/4
f 3/5/5 6/6/6 2/2/2
f 2/2/2 6/6/6 5/4/4
f 5/4/4 8/7/7 4/3/3
f 4/3/3 8/7/7 7/8/8
f 5/4/4 6/6/6 8/7/7
f 8/7/7 6/6/6 9/9/9
f 8/10/7 11/11/10 7/12/8
f 7/12/8 11/11/10 10/13/11
f 8/10/7 9/14/9 11/11/10
f 11/11/10 9/14/9 12/15/12
f 10/13/11 11/11/10 13/16/13
f 13/16/13 11/11/10 14/17/14
f 12/15/12 15/18/15 11/11/10
f 11/11/10 15/18/15 14/17/14
f 13/19/13 14/20/14 16/21/16
f 16/21/16 14/20/14 17/22/17
f 15/23/15 18/24/18 14/20/14
f 14/20/14 18/24/18 17/22/17
f 17/22/17 20/25/19 16/21/16
f 16/21/16 20/25/19 19/26/20
f 17/22/17 18/24/18 20/25/19
f 20/25/19 18/24/18 21/27/21
f 20/28/19 23/29/22 19/30/20
f 19/30/20 23/29/22 22/31/23
f 20/28/19 21/32/21 23/29/22
f 23/29/22 21/32/21 24/33/24
f 22/31/23 23/29/22 1/34/1
f 1/34/1 23/29/22 2/35/2
f 24/33/24 3/36/5 23/29/22
f 23/29/22 3/36/5 2/35/2
f 24/37/24 21/38/21 25/39/25
f 25/39/25 21/38/21 18/40/18
f 24/37/24 25/39/25 3/41/5
f 3/41/5 25/39/25 6/42/6
f 18/40/18 15/43/15 25/39/25
f 25/39/25 15/43/15 12/44/12
f 6/42/6 25/39/25 9/45/9
f 9/45/9 25/39/25 12/44/12
f 22/46/23 26/47/26 19/48/20
f 19/48/20 26/47/26 16/49/16
f 22/46/23 1/50/1 26/47/26
f 26/47/26 1/50/1 4/51/3
f 16/49/16 26/47/26 13/52/13
f 13/52/13 26/47/26 10/53/11
f 4/51/3 7/54/8 26/47/26
f 26/47/26 7/54/8 10/53/11
f 37/55/27 28/56/28 44/57/29
f 44/57/29 28/56/28 41/58/30
f 40/59/31 27/60/32 44/57/29
f 44/57/29 27/60/32 37/55/27
f 41/58/30 43/61/33 44/57/29
f 44/57/29 43/61/33 45/62/34
f 30/63/35 38/64/36 43/61/33
f 43/61/33 38/64/36 45/62/34
f 29/65/37 42/66/38 38/64/36
f 38/64/36 42/66/38 45/62/34
f 40/59/31 44/57/29 42/66/38
f 42/66/38 44/57/29 45/62/34
f 32/67/39 49/68/40 39/69/41
f 39/69/41 49/68/40 46/70/42
f 49/68/40 34/71/43 46/70/42
f 46/70/42 34/71/43 47/72/44
f 33/73/45 50/74/46 47/72/44
f 47/72/44 50/74/46 46/70/42
f 31/75/47 39/69/41 50/74/46
f 50/74/46 39/69/41 46/70/42
f 34/71/43 36/76/48 47/72/44
f 47/72/44 36/76/48 48/77/49
f 48/77/49 35/78/50 47/72/44
f 47/72/44 35/78/50 33/73/45
f 28/79/28 37/80/27 36/81/48
f 36/81/48 37/80/27 48/82/49
f 27/83/32 35/84/50 37/80/27
f 37/80/27 35/84/50 48/82/49
f 41/85/30 28/86/28 34/87/43
f 34/87/43 28/86/28 36/88/48
f 30/89/35 43/90/33 32/91/39
f 32/91/39 43/90/33 49/92/40
f 43/90/33 41/85/30 49/92/40
f 49/92/40 41/85/30 34/87/43
f 35/93/50 27/94/32 33/95/45
f 33/95/45 27/94/32 40/96/31
f 33/95/45 40/96/31 50/97/46
f 50/97/46 40/96/31 42/98/38
f 29/99/37 31/100/47 42/98/38
f 42/98/38 31/100/47 50/97/46
