# This file uses centimeters as units for non-parametric coordinates.

v 4.904519 163.827135 -325.009894
v 13.186501 164.780324 -323.866148
v 20.043256 164.302764 -329.035828
v 5.473565 173.414982 -322.536169
v 14.048581 173.152556 -320.370535
v 21.065039 173.055154 -325.423036
v 5.124051 182.576740 -325.771904
v 13.730612 182.675052 -322.475408
v 21.186197 182.999227 -328.240069
v 2.472438 183.734877 -331.706318
v 11.818588 187.806024 -333.385603
v 21.919041 184.719853 -335.604393
v 2.557280 183.562701 -338.134235
v 9.845066 184.196187 -344.558367
v 18.929879 183.701728 -342.169982
v 1.542567 174.545750 -342.248443
v 8.806577 174.300817 -347.249628
v 17.636077 174.091963 -345.736065
v 2.254741 164.516200 -339.950654
v 9.339134 163.737496 -344.459762
v 17.317071 164.124522 -343.035815
v 2.050177 164.684002 -332.219625
v 11.169370 161.017626 -334.232899
v 21.840662 162.719062 -336.112425
v 24.676528 173.280519 -336.178200
v -1.565501 174.166068 -331.311782
v 9.245882 140.049306 -333.439009
v 11.885942 139.980978 -333.987849
v 9.698940 163.094935 -332.090528
v 13.166584 163.002648 -332.747990
v 9.154024 163.226497 -334.909831
v 12.654793 163.126212 -335.395908
v 8.426552 143.804508 -336.320540
v 11.848074 143.709865 -336.879786
v 8.648006 140.187130 -336.369416
v 11.398674 140.111196 -336.822833
v 10.541332 138.748093 -333.618804
v 11.432759 163.048791 -332.419255
v 10.904405 163.176355 -335.152872
v 9.092993 143.655387 -333.166643
v 12.370765 143.570205 -333.839314
v 9.889728 156.611688 -332.699320
v 12.507797 156.541333 -333.178768
v 10.761654 143.605867 -333.355413
v 11.222366 156.570985 -332.821239
v 10.636532 156.709980 -335.791188
v 10.082151 143.770884 -336.895053
v 9.924154 138.901602 -336.924337
v 12.006549 156.661756 -335.757271
v 9.365759 156.734507 -335.318224
vt 0.037013 0.861564
vt 0.027355 0.734793
vt 0.167650 0.890199
vt 0.167663 0.732067
vt 0.037013 0.611436
vt 0.167650 0.578459
vt 0.308569 0.734793
vt 0.298287 0.861564
vt 0.298287 0.611436
vt 0.639004 0.710387
vt 0.820067 0.707662
vt 0.694973 0.837159
vt 0.818259 0.888097
vt 0.692217 0.587031
vt 0.818675 0.533981
vt 0.940611 0.833378
vt 0.989729 0.706763
vt 0.943170 0.584589
vt 0.039763 0.516572
vt 0.029481 0.389957
vt 0.170401 0.547293
vt 0.170388 0.390856
vt 0.039763 0.267783
vt 0.170401 0.236600
vt 0.310695 0.389957
vt 0.301038 0.516572
vt 0.301038 0.267783
vt 0.315210 0.563716
vt 0.485193 0.564615
vt 0.364648 0.690331
vt 0.487000 0.745418
vt 0.362089 0.441542
vt 0.486585 0.390647
vt 0.610287 0.694112
vt 0.666549 0.567340
vt 0.613042 0.443983
vt 0.669370 0.335160
vt 0.682481 0.210664
vt 0.813203 0.333768
vt 0.813119 0.164276
vt 0.682481 0.461616
vt 0.813119 0.502622
vt 0.943756 0.210664
vt 0.957716 0.335160
vt 0.943756 0.461616
vt 0.633569 0.199173
vt 0.489735 0.197365
vt 0.620457 0.076820
vt 0.489820 0.030007
vt 0.620457 0.322459
vt 0.489820 0.365233
vt 0.359183 0.076820
vt 0.345223 0.199173
vt 0.359183 0.322459
vt 0.654607 0.113820
vt 0.654607 0.075817
vt 0.732044 0.112337
vt 0.732044 0.080588
vt 0.732044 0.144086
vt 0.654607 0.151822
vt 0.886920 0.085291
vt 0.886920 0.110666
vt 0.964357 0.085223
vt 0.964358 0.110477
vt 0.964358 0.135731
vt 0.886920 0.136041
vt 0.027867 0.081350
vt 0.105305 0.081417
vt 0.027867 0.106604
vt 0.105305 0.106959
vt 0.260181 0.075281
vt 0.260181 0.108399
vt 0.260181 0.141517
vt 0.105305 0.132501
vt 0.027867 0.131859
vt 0.337618 0.069079
vt 0.337618 0.109485
vt 0.337619 0.149891
vt 0.131509 0.230883
vt 0.088308 0.232280
vt 0.134767 0.170666
vt 0.088833 0.168174
vt 0.045106 0.233677
vt 0.042899 0.165682
vt 0.411757 0.801450
vt 0.334319 0.801070
vt 0.411757 0.751434
vt 0.334319 0.748101
vt 0.644071 0.808110
vt 0.566633 0.804971
vt 0.644071 0.769496
vt 0.566633 0.762132
vt 0.334089 0.893362
vt 0.334089 0.833551
vt 0.411527 0.887959
vt 0.411527 0.834764
vt 0.566402 0.876430
vt 0.566402 0.832583
vt 0.643841 0.829190
vt 0.643840 0.870303
vn -0.533768 -0.614423 0.581012
vn 0.185281 -0.592525 0.783955
vn -0.446482 -0.001808 0.894791
vn 0.184025 -0.090762 0.978722
vn 0.659838 -0.603965 0.447034
vn 0.741645 -0.086098 0.665244
vn 0.135184 0.506444 0.851610
vn -0.553991 0.562660 0.613603
vn 0.739600 0.510586 0.438512
vn -0.035809 0.996553 0.074828
vn -0.699552 0.686763 0.197440
vn 0.746113 0.659397 -0.092252
vn -0.735547 0.615096 -0.283951
vn -0.180807 0.580708 -0.793780
vn 0.562799 0.562628 -0.605564
vn -0.754497 0.049905 -0.654403
vn -0.213700 0.008750 -0.976860
vn 0.430966 -0.007033 -0.902341
vn -0.183969 -0.543229 -0.819181
vn -0.743888 -0.585408 -0.322379
vn 0.490199 -0.582483 -0.648397
vn -0.046396 -0.998567 0.026658
vn -0.720337 -0.686983 0.095752
vn 0.684234 -0.722954 -0.095711
vn 0.987062 -0.033473 -0.156810
vn -0.979804 0.028464 0.197923
vn 0.088247 -0.827081 0.555112
vn 0.869886 -0.295345 0.395056
vn 0.194638 -0.057692 0.979177
vn 0.928956 -0.066673 0.364136
vn -0.722320 -0.016481 0.691362
vn -0.672209 -0.249374 0.697100
vn 0.765503 -0.083099 0.638044
vn 0.178526 -0.056758 0.982297
vn 0.821785 -0.120896 0.556825
vn 0.180792 -0.075997 0.980581
vn -0.562464 -0.093685 0.821497
vn -0.476820 -0.053223 0.877388
vn 0.796696 -0.045996 -0.602627
vn 0.629694 0.036571 -0.775982
vn -0.148340 0.083250 -0.985426
vn -0.126813 0.095266 -0.987341
vn 0.647673 -0.020118 -0.761653
vn -0.188816 0.039748 -0.981208
vn -0.942106 0.006426 -0.335253
vn -0.785527 0.080418 -0.613580
vn -0.960418 -0.015045 -0.278157
vn 0.608934 -0.412761 -0.677368
vn -0.154907 -0.545547 -0.823640
vn -0.826016 -0.377871 -0.418223
f 1/1/1 2/2/2 4/3/3
f 4/3/3 2/2/2 5/4/4
f 3/5/5 6/6/6 2/2/2
f 2/2/2 6/6/6 5/4/4
f 5/4/4 8/7/7 4/3/3
f 4/3/3 8/7/7 7/8/8
f 5/4/4 6/6/6 8/7/7
f 8/7/7 6/6/6 9/9/9
f 8/10/7 11/11/10 7/12/8
f 7/12/8 11/11/10 10/13/11
f 8/10/7 9/14/9 11/11/10
f 11/11/10 9/14/9 12/15/12
f 10/13/11 11/11/10 13/16/13
f 13/16/13 11/11/10 14/17/14
f 12/15/12 15/18/15 11/11/10
f 11/11/10 15/18/15 14/17/14
f 13/19/13 14/20/14 16/21/16
f 16/21/16 14/20/14 17/22/17
f 15/23/15 18/24/18 14/20/14
f 14/20/14 18/24/18 17/22/17
f 17/22/17 20/25/19 16/21/16
f 16/21/16 20/25/19 19/26/20
f 17/22/17 18/24/18 20/25/19
f 20/25/19 18/24/18 21/27/21
f 20/28/19 23/29/22 19/30/20
f 19/30/20 23/29/22 22/31/23
f 20/28/19 21/32/21 23/29/22
f 23/29/22 21/32/21 24/33/24
f 22/31/23 23/29/22 1/34/1
f 1/34/1 23/29/22 2/35/2
f 24/33/24 3/36/5 23/29/22
f 23/29/22 3/36/5 2/35/2
f 24/37/24 21/38/21 25/39/25
f 25/39/25 21/38/21 18/40/18
f 24/37/24 25/39/25 3/41/5
f 3/41/5 25/39/25 6/42/6
f 18/40/18 15/43/15 25/39/25
f 25/39/25 15/43/15 12/44/12
f 6/42/6 25/39/25 9/45/9
f 9/45/9 25/39/25 12/44/12
f 22/46/23 26/47/26 19/48/20
f 19/48/20 26/47/26 16/49/16
f 22/46/23 1/50/1 26/47/26
f 26/47/26 1/50/1 4/51/3
f 16/49/16 26/47/26 13/52/13
f 13/52/13 26/47/26 10/53/11
f 4/51/3 7/54/8 26/47/26
f 26/47/26 7/54/8 10/53/11
f 37/55/27 28/56/28 44/57/29
f 44/57/29 28/56/28 41/58/30
f 40/59/31 27/60/32 44/57/29
f 44/57/29 27/60/32 37/55/27
f 41/58/30 43/61/33 44/57/29
f 44/57/29 43/61/33 45/62/34
f 30/63/35 38/64/36 43/61/33
f 43/61/33 38/64/36 45/62/34
f 29/65/37 42/66/38 38/64/36
f 38/64/36 42/66/38 45/62/34
f 40/59/31 44/57/29 42/66/38
f 42/66/38 44/57/29 45/62/34
f 32/67/39 49/68/40 39/69/41
f 39/69/41 49/68/40 46/70/42
f 49/68/40 34/71/43 46/70/42
f 46/70/42 34/71/43 47/72/44
f 33/73/45 50/74/46 47/72/44
f 47/72/44 50/74/46 46/70/42
f 31/75/47 39/69/41 50/74/46
f 50/74/46 39/69/41 46/70/42
f 34/71/43 36/76/48 47/72/44
f 47/72/44 36/76/48 48/77/49
f 48/77/49 35/78/50 47/72/44
f 47/72/44 35/78/50 33/73/45
f 28/79/28 37/80/27 36/81/48
f 36/81/48 37/80/27 48/82/49
f 27/83/32 35/84/50 37/80/27
f 37/80/27 35/84/50 48/82/49
f 41/85/30 28/86/28 34/87/43
f 34/87/43 28/86/28 36/88/48
f 30/89/35 43/90/33 32/91/39
f 32/91/39 43/90/33 49/92/40
f 43/90/33 41/85/30 49/92/40
f 49/92/40 41/85/30 34/87/43
f 35/93/50 27/94/32 33/95/45
f 33/95/45 27/94/32 40/96/31
f 33/95/45 40/96/31 50/97/46
f 50/97/46 40/96/31 42/98/38
f 29/99/37 31/100/47 42/98/38
f 42/98/38 31/100/47 50/97/46
