# This file uses centimeters as units for non-parametric coordinates.

v 244.702264 171.828301 -61.770423
v 246.253674 173.308056 -53.830374
v 253.052000 172.400401 -48.994946
v 243.444507 181.482252 -61.113149
v 244.038190 181.953740 -52.521701
v 250.810801 181.438147 -47.527695
v 247.120783 189.832645 -62.975679
v 246.715781 190.822137 -54.041651
v 254.314061 190.628428 -48.879745
v 251.874008 189.944164 -67.265133
v 256.620013 194.065337 -59.376449
v 261.461458 191.229595 -50.499325
v 257.796405 188.826149 -69.086428
v 265.977391 188.825219 -64.295235
v 266.500864 189.129696 -55.151429
v 260.477609 179.458685 -70.679506
v 267.265339 178.819878 -65.431982
v 268.540869 179.258107 -56.802354
v 257.697875 170.147810 -68.705641
v 263.931397 169.058240 -63.444344
v 265.082766 170.018600 -55.666540
v 250.540206 171.449726 -66.607471
v 254.843037 168.038105 -58.540276
v 259.967662 169.903236 -49.336103
v 261.820768 180.226379 -47.398402
v 249.440274 180.572063 -70.279502
v 251.681499 147.815722 -58.761728
v 252.983359 147.792185 -56.478712
v 252.608304 170.293696 -59.394450
v 254.259707 170.269757 -56.376765
v 255.047039 169.975962 -60.744751
v 256.550186 169.971339 -57.644979
v 254.413044 150.975353 -60.612730
v 255.959877 150.961575 -57.608361
v 254.206850 147.485029 -60.194425
v 255.453922 147.473532 -57.780267
v 252.126357 146.593223 -57.534964
v 253.434005 170.281726 -57.885607
v 255.798614 169.973650 -59.194866
v 251.702008 151.331588 -59.049473
v 253.310271 151.303327 -56.212368
v 252.655401 163.950983 -58.990295
v 253.886564 163.934773 -56.706867
v 252.378874 151.334105 -57.559080
v 253.169331 163.956166 -57.791384
v 255.734814 163.621291 -59.224780
v 255.442098 150.935256 -59.250079
v 254.992220 146.220995 -59.098004
v 256.116137 163.644138 -57.944501
v 254.915419 163.655587 -60.261106
vt 0.037013 0.861564
vt 0.027355 0.734793
vt 0.167650 0.890199
vt 0.167663 0.732067
vt 0.037013 0.611436
vt 0.167650 0.578459
vt 0.308569 0.734793
vt 0.298287 0.861564
vt 0.298287 0.611436
vt 0.639004 0.710387
vt 0.820067 0.707662
vt 0.694973 0.837159
vt 0.818259 0.888097
vt 0.692217 0.587031
vt 0.818675 0.533981
vt 0.940611 0.833378
vt 0.989729 0.706763
vt 0.943170 0.584589
vt 0.039763 0.516572
vt 0.029481 0.389957
vt 0.170401 0.547293
vt 0.170388 0.390856
vt 0.039763 0.267783
vt 0.170401 0.236600
vt 0.310695 0.389957
vt 0.301038 0.516572
vt 0.301038 0.267783
vt 0.315210 0.563716
vt 0.485193 0.564615
vt 0.364648 0.690331
vt 0.487000 0.745418
vt 0.362089 0.441542
vt 0.486585 0.390647
vt 0.610287 0.694112
vt 0.666549 0.567340
vt 0.613042 0.443983
vt 0.669370 0.335160
vt 0.682481 0.210664
vt 0.813203 0.333768
vt 0.813119 0.164276
vt 0.682481 0.461616
vt 0.813119 0.502622
vt 0.943756 0.210664
vt 0.957716 0.335160
vt 0.943756 0.461616
vt 0.633569 0.199173
vt 0.489735 0.197365
vt 0.620457 0.076820
vt 0.489820 0.030007
vt 0.620457 0.322459
vt 0.489820 0.365233
vt 0.359183 0.076820
vt 0.345223 0.199173
vt 0.359183 0.322459
vt 0.654607 0.113820
vt 0.654607 0.075817
vt 0.732044 0.112337
vt 0.732044 0.080588
vt 0.732044 0.144086
vt 0.654607 0.151822
vt 0.886920 0.085291
vt 0.886920 0.110666
vt 0.964357 0.085223
vt 0.964358 0.110477
vt 0.964358 0.135731
vt 0.886920 0.136041
vt 0.027867 0.081350
vt 0.105305 0.081417
vt 0.027867 0.106604
vt 0.105305 0.106959
vt 0.260181 0.075281
vt 0.260181 0.108399
vt 0.260181 0.141517
vt 0.105305 0.132501
vt 0.027867 0.131859
vt 0.337618 0.069079
vt 0.337618 0.109485
vt 0.337619 0.149891
vt 0.131509 0.230883
vt 0.088308 0.232280
vt 0.134767 0.170666
vt 0.088833 0.168174
vt 0.045106 0.233677
vt 0.042899 0.165682
vt 0.411757 0.801450
vt 0.334319 0.801070
vt 0.411757 0.751434
vt 0.334319 0.748101
vt 0.644071 0.808110
vt 0.566633 0.804971
vt 0.644071 0.769496
vt 0.566633 0.762132
vt 0.334089 0.893362
vt 0.334089 0.833551
vt 0.411527 0.887959
vt 0.411527 0.834764
vt 0.566402 0.876430
vt 0.566402 0.832583
vt 0.643841 0.829190
vt 0.643840 0.870303
vn -0.784991 -0.558167 -0.268773
vn -0.742508 -0.487034 0.459869
vn -0.985456 0.078174 -0.150884
vn -0.876584 0.019882 0.480838
vn -0.289172 -0.519502 0.804051
vn -0.406892 0.009979 0.913422
vn -0.711419 0.610197 0.348630
vn -0.686198 0.610631 -0.395301
vn -0.118457 0.586695 0.801097
vn 0.047821 0.993439 -0.103888
vn -0.314556 0.676373 -0.666014
vn 0.406898 0.670546 0.620324
vn 0.116618 0.546479 -0.829314
vn 0.751674 0.474855 -0.457711
vn 0.810845 0.506292 0.293597
vn 0.388554 -0.045142 -0.920320
vn 0.858354 -0.102225 -0.502770
vn 0.986944 -0.088301 0.134702
vn 0.660249 -0.646223 -0.382711
vn -0.004192 -0.648729 -0.761008
vn 0.698025 -0.637626 0.325874
vn -0.168825 -0.984005 0.056852
vn -0.405602 -0.696486 -0.591942
vn 0.208612 -0.699517 0.683489
vn 0.451699 -0.016733 0.892014
vn -0.488914 0.016369 -0.872179
vn -0.589933 -0.740277 0.322442
vn -0.138575 -0.219884 0.965634
vn -0.870810 0.053089 0.488744
vn -0.062293 0.003611 0.998051
vn -0.880310 0.032741 -0.473268
vn -0.895543 -0.194773 -0.400083
vn -0.373479 0.010868 0.927575
vn -0.878697 0.053808 0.474337
vn -0.283886 -0.033198 0.958283
vn -0.878053 0.034603 0.477310
vn -0.961394 -0.024594 -0.274075
vn -0.983385 0.024241 -0.179907
vn 0.812341 -0.082847 0.577268
vn 0.933571 -0.024888 0.357527
vn 0.893365 -0.026840 -0.448529
vn 0.902916 -0.014422 -0.429575
vn 0.919611 -0.079056 0.384793
vn 0.872969 -0.070952 -0.482587
vn 0.023168 -0.060752 -0.997884
vn 0.343867 -0.011604 -0.938946
vn -0.039298 -0.076640 -0.996284
vn 0.782905 -0.464735 0.413619
vn 0.673495 -0.648024 -0.355626
vn 0.088806 -0.452133 -0.887519
f 1/1/1 2/2/2 4/3/3
f 4/3/3 2/2/2 5/4/4
f 3/5/5 6/6/6 2/2/2
f 2/2/2 6/6/6 5/4/4
f 5/4/4 8/7/7 4/3/3
f 4/3/3 8/7/7 7/8/8
f 5/4/4 6/6/6 8/7/7
f 8/7/7 6/6/6 9/9/9
f 8/10/7 11/11/10 7/12/8
f 7/12/8 11/11/10 10/13/11
f 8/10/7 9/14/9 11/11/10
f 11/11/10 9/14/9 12/15/12
f 10/13/11 11/11/10 13/16/13
f 13/16/13 11/11/10 14/17/14
f 12/15/12 15/18/15 11/11/10
f 11/11/10 15/18/15 14/17/14
f 13/19/13 14/20/14 16/21/16
f 16/21/16 14/20/14 17/22/17
f 15/23/15 18/24/18 14/20/14
f 14/20/14 18/24/18 17/22/17
f 17/22/17 20/25/19 16/21/16
f 16/21/16 20/25/19 19/26/20
f 17/22/17 18/24/18 20/25/19
f 20/25/19 18/24/18 21/27/21
f 20/28/19 23/29/22 19/30/20
f 19/30/20 23/29/22 22/31/23
f 20/28/19 21/32/21 23/29/22
f 23/29/22 21/32/21 24/33/24
f 22/31/23 23/29/22 1/34/1
f 1/34/1 23/29/22 2/35/2
f 24/33/24 3/36/5 23/29/22
f 23/29/22 3/36/5 2/35/2
f 24/37/24 21/38/21 25/39/25
f 25/39/25 21/38/21 18/40/18
f 24/37/24 25/39/25 3/41/5
f 3/41/5 25/39/25 6/42/6
f 18/40/18 15/43/15 25/39/25
f 25/39/25 15/43/15 12/44/12
f 6/42/6 25/39/25 9/45/9
f 9/45/9 25/39/25 12/44/12
f 22/46/23 26/47/26 19/48/20
f 19/48/20 26/47/26 16/49/16
f 22/46/23 1/50/1 26/47/26
f 26/47/26 1/50/1 4/51/3
f 16/49/16 26/47/26 13/52/13
f 13/52/13 26/47/26 10/53/11
f 4/51/3 7/54/8 26/47/26
f 26/47/26 7/54/8 10/53/11
f 37/55/27 28/56/28 44/57/29
f 44/57/29 28/56/28 41/58/30
f 40/59/31 27/60/32 44/57/29
f 44/57/29 27/60/32 37/55/27
f 41/58/30 43/61/33 44/57/29
f 44/57/29 43/61/33 45/62/34
f 30/63/35 38/64/36 43/61/33
f 43/61/33 38/64/36 45/62/34
f 29/65/37 42/66/38 38/64/36
f 38/64/36 42/66/38 45/62/34
f 40/59/31 44/57/29 42/66/38
f 42/66/38 44/57/29 45/62/34
f 32/67/39 49/68/40 39/69/41
f 39/69/41 49/68/40 46/70/42
f 49/68/40 34/71/43 46/70/42
f 46/70/42 34/71/43 47/72/44
f 33/73/45 50/74/46 47/72/44
f 47/72/44 50/74/46 46/70/42
f 31/75/47 39/69/41 50/74/46
f 50/74/46 39/69/41 46/70/42
f 34/71/43 36/76/48 47/72/44
f 47/72/44 36/76/48 48/77/49
f 48/77/49 35/78/50 47/72/44
f 47/72/44 35/78/50 33/73/45
f 28/79/28 37/80/27 36/81/48
f 36/81/48 37/80/27 48/82/49
f 27/83/32 35/84/50 37/80/27
f 37/80/27 35/84/50 48/82/49
f 41/85/30 28/86/28 34/87/43
f 34/87/43 28/86/28 36/88/48
f 30/89/35 43/90/33 32/91/39
f 32/91/39 43/90/33 49/92/40
f 43/90/33 41/85/30 49/92/40
f 49/92/40 41/85/30 34/87/43
f 35/93/50 27/94/32 33/95/45
f 33/95/45 27/94/32 40/96/31
f 33/95/45 40/96/31 50/97/46
f 50/97/46 40/96/31 42/98/38
f 29/99/37 31/100/47 42/98/38
f 42/98/38 31/100/47 50/97/46
