# This file uses centimeters as units for non-parametric coordinates.

v 250.805540 193.143403 -14.717982
v 247.640583 194.543189 -21.200685
v 240.565941 194.714771 -23.626141
v 252.679188 201.460755 -16.007716
v 250.061133 201.807686 -23.241286
v 243.007880 202.318527 -25.825837
v 250.870527 209.447143 -13.865127
v 249.065530 210.088710 -21.660943
v 241.302092 211.009988 -24.199461
v 247.929404 210.371185 -9.022499
v 242.333671 214.605267 -14.786790
v 235.707659 212.690971 -21.074252
v 243.251662 210.345680 -5.952648
v 235.106668 211.535497 -8.038117
v 232.392352 211.713475 -15.754980
v 240.434962 202.521994 -3.522365
v 233.292682 202.921579 -6.315047
v 230.083316 203.345199 -13.411631
v 241.358422 193.825573 -5.497672
v 234.637370 193.739969 -8.419474
v 231.800254 194.621421 -14.839511
v 247.032788 193.814810 -9.117459
v 241.009454 191.322838 -14.819185
v 234.534340 193.598710 -21.519653
v 233.514488 202.970107 -23.167447
v 249.808463 201.769215 -6.636686
v 241.710360 172.970651 -14.537573
v 240.029231 173.110573 -16.171015
v 243.347082 192.981233 -14.736197
v 241.184552 193.161650 -16.912708
v 241.586305 193.108074 -12.963980
v 239.530816 193.280779 -15.248228
v 240.177400 176.224169 -12.414140
v 238.107942 176.397435 -14.605488
v 239.895543 173.101168 -12.672840
v 238.229097 173.240665 -14.432661
v 240.901209 171.937359 -15.425966
v 242.265817 193.071442 -15.824453
v 240.558560 193.194427 -14.106103
v 242.119436 176.084661 -14.437638
v 240.038504 176.257919 -16.469917
v 242.566697 187.378822 -14.797261
v 240.946163 187.514137 -16.448821
v 241.170517 176.164704 -15.547441
v 241.829595 187.441215 -15.697698
v 239.980492 187.574337 -13.822283
v 238.957604 176.324146 -13.325769
v 238.826181 172.086986 -13.363759
v 239.337177 187.630023 -14.825902
v 240.939752 187.495900 -13.138207
vt 0.037013 0.861564
vt 0.027355 0.734793
vt 0.167650 0.890199
vt 0.167663 0.732067
vt 0.037013 0.611436
vt 0.167650 0.578459
vt 0.308569 0.734793
vt 0.298287 0.861564
vt 0.298287 0.611436
vt 0.639004 0.710387
vt 0.820067 0.707662
vt 0.694973 0.837159
vt 0.818259 0.888097
vt 0.692217 0.587031
vt 0.818675 0.533981
vt 0.940611 0.833378
vt 0.989729 0.706763
vt 0.943170 0.584589
vt 0.039763 0.516572
vt 0.029481 0.389957
vt 0.170401 0.547293
vt 0.170388 0.390856
vt 0.039763 0.267783
vt 0.170401 0.236600
vt 0.310695 0.389957
vt 0.301038 0.516572
vt 0.301038 0.267783
vt 0.315210 0.563716
vt 0.485193 0.564615
vt 0.364648 0.690331
vt 0.487000 0.745418
vt 0.362089 0.441542
vt 0.486585 0.390647
vt 0.610287 0.694112
vt 0.666549 0.567340
vt 0.613042 0.443983
vt 0.669370 0.335160
vt 0.682481 0.210664
vt 0.813203 0.333768
vt 0.813119 0.164276
vt 0.682481 0.461616
vt 0.813119 0.502622
vt 0.943756 0.210664
vt 0.957716 0.335160
vt 0.943756 0.461616
vt 0.633569 0.199173
vt 0.489735 0.197365
vt 0.620457 0.076820
vt 0.489820 0.030007
vt 0.620457 0.322459
vt 0.489820 0.365233
vt 0.359183 0.076820
vt 0.345223 0.199173
vt 0.359183 0.322459
vt 0.654607 0.113820
vt 0.654607 0.075817
vt 0.732044 0.112337
vt 0.732044 0.080588
vt 0.732044 0.144086
vt 0.654607 0.151822
vt 0.886920 0.085291
vt 0.886920 0.110666
vt 0.964357 0.085223
vt 0.964358 0.110477
vt 0.964358 0.135731
vt 0.886920 0.136041
vt 0.027867 0.081350
vt 0.105305 0.081417
vt 0.027867 0.106604
vt 0.105305 0.106959
vt 0.260181 0.075281
vt 0.260181 0.108399
vt 0.260181 0.141517
vt 0.105305 0.132501
vt 0.027867 0.131859
vt 0.337618 0.069079
vt 0.337618 0.109485
vt 0.337619 0.149891
vt 0.131509 0.230883
vt 0.088308 0.232280
vt 0.134767 0.170666
vt 0.088833 0.168174
vt 0.045106 0.233677
vt 0.042899 0.165682
vt 0.411757 0.801450
vt 0.334319 0.801070
vt 0.411757 0.751434
vt 0.334319 0.748101
vt 0.644071 0.808110
vt 0.566633 0.804971
vt 0.644071 0.769496
vt 0.566633 0.762132
vt 0.334089 0.893362
vt 0.334089 0.833551
vt 0.411527 0.887959
vt 0.411527 0.834764
vt 0.566402 0.876430
vt 0.566402 0.832583
vt 0.643841 0.829190
vt 0.643840 0.870303
vn 0.747863 -0.658820 0.081592
vn 0.507670 -0.591819 -0.626116
vn 0.990306 -0.040443 -0.132886
vn 0.701687 -0.094346 -0.706212
vn -0.036632 -0.566487 -0.823256
vn 0.130793 -0.053153 -0.989984
vn 0.660749 0.499776 -0.560030
vn 0.844717 0.515446 0.144115
vn -0.017809 0.549614 -0.835229
vn 0.144962 0.988471 0.043725
vn 0.590211 0.633931 0.499783
vn -0.457020 0.710831 -0.534652
vn 0.212744 0.569786 0.793778
vn -0.519111 0.580498 0.627332
vn -0.787887 0.608470 -0.094853
vn -0.117016 0.016203 0.992998
vn -0.688689 0.010803 0.724976
vn -0.988291 0.030839 0.149430
vn -0.609462 -0.540033 0.580448
vn 0.112524 -0.627849 0.770158
vn -0.839506 -0.538327 -0.073717
vn -0.015528 -0.999337 -0.032917
vn 0.443609 -0.737289 0.509525
vn -0.500892 -0.671883 -0.545602
vn -0.683203 0.025347 -0.729788
vn 0.712954 -0.030533 0.700545
vn 0.357738 -0.828382 -0.431054
vn -0.176720 -0.249306 -0.952164
vn 0.698192 -0.060750 -0.713329
vn -0.221513 -0.018696 -0.974978
vn 0.975633 -0.067925 0.208628
vn 0.942107 -0.299120 0.151533
vn 0.095179 -0.048404 -0.994283
vn 0.709851 -0.060787 -0.701724
vn -0.005787 -0.081606 -0.996648
vn 0.705960 -0.079827 -0.703739
vn 0.990439 -0.137944 -0.001047
vn 0.990497 -0.093314 -0.101031
vn -0.946344 0.008492 -0.323050
vn -0.992976 0.083948 -0.083379
vn -0.727702 0.088998 0.680095
vn -0.740613 0.102254 0.664106
vn -0.993603 0.028116 -0.109378
vn -0.704254 0.043212 0.708631
vn 0.249231 -0.042574 0.967508
vn -0.063945 0.044231 0.996973
vn 0.305535 -0.065916 0.949896
vn -0.919889 -0.364144 -0.145616
vn -0.629259 -0.540393 0.558577
vn 0.091818 -0.421008 0.902398
f 1/1/1 2/2/2 4/3/3
f 4/3/3 2/2/2 5/4/4
f 3/5/5 6/6/6 2/2/2
f 2/2/2 6/6/6 5/4/4
f 5/4/4 8/7/7 4/3/3
f 4/3/3 8/7/7 7/8/8
f 5/4/4 6/6/6 8/7/7
f 8/7/7 6/6/6 9/9/9
f 8/10/7 11/11/10 7/12/8
f 7/12/8 11/11/10 10/13/11
f 8/10/7 9/14/9 11/11/10
f 11/11/10 9/14/9 12/15/12
f 10/13/11 11/11/10 13/16/13
f 13/16/13 11/11/10 14/17/14
f 12/15/12 15/18/15 11/11/10
f 11/11/10 15/18/15 14/17/14
f 13/19/13 14/20/14 16/21/16
f 16/21/16 14/20/14 17/22/17
f 15/23/15 18/24/18 14/20/14
f 14/20/14 18/24/18 17/22/17
f 17/22/17 20/25/19 16/21/16
f 16/21/16 20/25/19 19/26/20
f 17/22/17 18/24/18 20/25/19
f 20/25/19 18/24/18 21/27/21
f 20/28/19 23/29/22 19/30/20
f 19/30/20 23/29/22 22/31/23
f 20/28/19 21/32/21 23/29/22
f 23/29/22 21/32/21 24/33/24
f 22/31/23 23/29/22 1/34/1
f 1/34/1 23/29/22 2/35/2
f 24/33/24 3/36/5 23/29/22
f 23/29/22 3/36/5 2/35/2
f 24/37/24 21/38/21 25/39/25
f 25/39/25 21/38/21 18/40/18
f 24/37/24 25/39/25 3/41/5
f 3/41/5 25/39/25 6/42/6
f 18/40/18 15/43/15 25/39/25
f 25/39/25 15/43/15 12/44/12
f 6/42/6 25/39/25 9/45/9
f 9/45/9 25/39/25 12/44/12
f 22/46/23 26/47/26 19/48/20
f 19/48/20 26/47/26 16/49/16
f 22/46/23 1/50/1 26/47/26
f 26/47/26 1/50/1 4/51/3
f 16/49/16 26/47/26 13/52/13
f 13/52/13 26/47/26 10/53/11
f 4/51/3 7/54/8 26/47/26
f 26/47/26 7/54/8 10/53/11
f 37/55/27 28/56/28 44/57/29
f 44/57/29 28/56/28 41/58/30
f 40/59/31 27/60/32 44/57/29
f 44/57/29 27/60/32 37/55/27
f 41/58/30 43/61/33 44/57/29
f 44/57/29 43/61/33 45/62/34
f 30/63/35 38/64/36 43/61/33
f 43/61/33 38/64/36 45/62/34
f 29/65/37 42/66/38 38/64/36
f 38/64/36 42/66/38 45/62/34
f 40/59/31 44/57/29 42/66/38
f 42/66/38 44/57/29 45/62/34
f 32/67/39 49/68/40 39/69/41
f 39/69/41 49/68/40 46/70/42
f 49/68/40 34/71/43 46/70/42
f 46/70/42 34/71/43 47/72/44
f 33/73/45 50/74/46 47/72/44
f 47/72/44 50/74/46 46/70/42
f 31/75/47 39/69/41 50/74/46
f 50/74/46 39/69/41 46/70/42
f 34/71/43 36/76/48 47/72/44
f 47/72/44 36/76/48 48/77/49
f 48/77/49 35/78/50 47/72/44
f 47/72/44 35/78/50 33/73/45
f 28/79/28 37/80/27 36/81/48
f 36/81/48 37/80/27 48/82/49
f 27/83/32 35/84/50 37/80/27
f 37/80/27 35/84/50 48/82/49
f 41/85/30 28/86/28 34/87/43
f 34/87/43 28/86/28 36/88/48
f 30/89/35 43/90/33 32/91/39
f 32/91/39 43/90/33 49/92/40
f 43/90/33 41/85/30 49/92/40
f 49/92/40 41/85/30 34/87/43
f 35/93/50 27/94/32 33/95/45
f 33/95/45 27/94/32 40/96/31
f 33/95/45 40/96/31 50/97/46
f 50/97/46 40/96/31 42/98/38
f 29/99/37 31/100/47 42/98/38
f 42/98/38 31/100/47 50/97/46
