# This file uses centimeters as units for non-parametric coordinates.

v -280.938148 188.431540 -90.326980
v -282.810402 189.488929 -99.033343
v -290.478475 188.946232 -104.023709
v -278.729516 198.677267 -91.749089
v -279.676965 198.451842 -101.126510
v -287.288208 198.316082 -106.317560
v -281.902526 208.401922 -90.177315
v -281.731152 208.573631 -99.995739
v -290.218080 208.880640 -105.365600
v -286.889533 209.560306 -85.358011
v -291.996398 213.912100 -94.088415
v -297.871595 210.634209 -103.413461
v -293.357283 209.305259 -83.106649
v -302.445701 209.933884 -88.067132
v -303.353932 209.465497 -98.037301
v -297.050611 199.647931 -80.638866
v -304.699519 199.356411 -86.097252
v -306.392957 199.181665 -95.492205
v -294.943282 188.989400 -82.237120
v -302.030563 188.134011 -87.697151
v -303.507953 188.590210 -96.203658
v -287.126811 189.253943 -84.842401
v -292.435578 185.356697 -93.262210
v -298.209542 187.185903 -103.258749
v -299.374991 198.448557 -106.023137
v -284.964113 199.354816 -81.504274
v -290.805295 163.016623 -91.727723
v -292.314578 162.946909 -94.172779
v -289.768584 187.588937 -92.558149
v -291.687446 187.495373 -95.792728
v -292.395021 187.695685 -90.986613
v -294.154216 187.595631 -94.316729
v -293.417713 166.982787 -89.840846
v -295.221414 166.887649 -93.064955
v -293.523785 163.128614 -90.062723
v -294.977662 163.052251 -92.653292
v -291.448021 161.632668 -92.966287
v -290.728014 187.542155 -94.175439
v -293.274619 187.645658 -92.651671
v -290.500237 166.861497 -91.655839
v -292.365339 166.774669 -94.694683
v -290.405757 180.674746 -92.559858
v -291.837524 180.603572 -95.008132
v -291.295776 166.812454 -93.258775
v -291.012200 180.634671 -93.850502
v -293.774679 180.747511 -92.183170
v -294.594948 166.946323 -91.290364
v -294.535309 161.757110 -91.145482
v -294.238588 180.701297 -93.567946
v -292.839031 180.774492 -91.082217
vt 0.037013 0.861564
vt 0.027355 0.734793
vt 0.167650 0.890199
vt 0.167663 0.732067
vt 0.037013 0.611436
vt 0.167650 0.578459
vt 0.308569 0.734793
vt 0.298287 0.861564
vt 0.298287 0.611436
vt 0.639004 0.710387
vt 0.820067 0.707662
vt 0.694973 0.837159
vt 0.818259 0.888097
vt 0.692217 0.587031
vt 0.818675 0.533981
vt 0.940611 0.833378
vt 0.989729 0.706763
vt 0.943170 0.584589
vt 0.039763 0.516572
vt 0.029481 0.389957
vt 0.170401 0.547293
vt 0.170388 0.390856
vt 0.039763 0.267783
vt 0.170401 0.236600
vt 0.310695 0.389957
vt 0.301038 0.516572
vt 0.301038 0.267783
vt 0.315210 0.563716
vt 0.485193 0.564615
vt 0.364648 0.690331
vt 0.487000 0.745418
vt 0.362089 0.441542
vt 0.486585 0.390647
vt 0.610287 0.694112
vt 0.666549 0.567340
vt 0.613042 0.443983
vt 0.669370 0.335160
vt 0.682481 0.210664
vt 0.813203 0.333768
vt 0.813119 0.164276
vt 0.682481 0.461616
vt 0.813119 0.502622
vt 0.943756 0.210664
vt 0.957716 0.335160
vt 0.943756 0.461616
vt 0.633569 0.199173
vt 0.489735 0.197365
vt 0.620457 0.076820
vt 0.489820 0.030007
vt 0.620457 0.322459
vt 0.489820 0.365233
vt 0.359183 0.076820
vt 0.345223 0.199173
vt 0.359183 0.322459
vt 0.654607 0.113820
vt 0.654607 0.075817
vt 0.732044 0.112337
vt 0.732044 0.080588
vt 0.732044 0.144086
vt 0.654607 0.151822
vt 0.886920 0.085291
vt 0.886920 0.110666
vt 0.964357 0.085223
vt 0.964358 0.110477
vt 0.964358 0.135731
vt 0.886920 0.136041
vt 0.027867 0.081350
vt 0.105305 0.081417
vt 0.027867 0.106604
vt 0.105305 0.106959
vt 0.260181 0.075281
vt 0.260181 0.108399
vt 0.260181 0.141517
vt 0.105305 0.132501
vt 0.027867 0.131859
vt 0.337618 0.069079
vt 0.337618 0.109485
vt 0.337619 0.149891
vt 0.131509 0.230883
vt 0.088308 0.232280
vt 0.134767 0.170666
vt 0.088833 0.168174
vt 0.045106 0.233677
vt 0.042899 0.165682
vt 0.411757 0.801450
vt 0.334319 0.801070
vt 0.411757 0.751434
vt 0.334319 0.748101
vt 0.644071 0.808110
vt 0.566633 0.804971
vt 0.644071 0.769496
vt 0.566633 0.762132
vt 0.334089 0.893362
vt 0.334089 0.833551
vt 0.411527 0.887959
vt 0.411527 0.834764
vt 0.566402 0.876430
vt 0.566402 0.832583
vt 0.643841 0.829190
vt 0.643840 0.870303
vn 0.733043 -0.610877 0.299126
vn 0.677742 -0.585430 -0.444903
vn 0.993435 0.003697 0.114340
vn 0.857686 -0.083181 -0.507400
vn 0.200038 -0.598420 -0.775808
vn 0.372860 -0.079537 -0.924472
vn 0.750995 0.513686 -0.414889
vn 0.761487 0.566294 0.315355
vn 0.155484 0.516012 -0.842351
vn 0.073852 0.997160 0.014770
vn 0.418282 0.686542 0.594727
vn -0.347198 0.660589 -0.665640
vn -0.021242 0.610704 0.791574
vn -0.688395 0.573580 0.443980
vn -0.765579 0.559038 -0.318379
vn -0.358009 0.043409 0.932709
vn -0.845326 0.001143 0.534250
vn -0.995181 -0.012628 -0.097239
vn -0.703527 -0.550439 0.449518
vn -0.044084 -0.590041 0.806169
vn -0.772358 -0.586608 -0.243627
vn 0.049620 -0.998380 0.027857
vn 0.341926 -0.688088 0.640017
vn -0.317052 -0.721858 -0.615142
vn -0.483936 -0.032365 -0.874505
vn 0.520150 0.027673 0.853626
vn 0.498117 -0.821523 -0.277450
vn 0.077006 -0.290289 -0.953836
vn 0.854297 -0.050100 -0.517365
vn 0.025830 -0.061891 -0.997749
vn 0.896463 -0.013086 0.442925
vn 0.886468 -0.245719 0.392170
vn 0.339138 -0.076684 -0.937606
vn 0.862721 -0.049180 -0.503283
vn 0.243922 -0.114925 -0.962961
vn 0.860448 -0.068419 -0.504923
vn 0.964742 -0.088959 0.247709
vn 0.987761 -0.047906 0.148434
vn -0.837957 -0.048574 -0.543570
vn -0.944526 0.032347 -0.326840
vn -0.876117 0.075707 0.476117
vn -0.885332 0.087750 0.456604
vn -0.936795 -0.024194 -0.349042
vn -0.858086 0.032161 0.512497
vn 0.006329 0.001836 0.999978
vn -0.309296 0.074137 0.948071
vn 0.066435 -0.019260 0.997605
vn -0.841423 -0.416562 -0.344213
vn -0.717636 -0.552726 0.423666
vn -0.108002 -0.383101 0.917371
f 1/1/1 2/2/2 4/3/3
f 4/3/3 2/2/2 5/4/4
f 3/5/5 6/6/6 2/2/2
f 2/2/2 6/6/6 5/4/4
f 5/4/4 8/7/7 4/3/3
f 4/3/3 8/7/7 7/8/8
f 5/4/4 6/6/6 8/7/7
f 8/7/7 6/6/6 9/9/9
f 8/10/7 11/11/10 7/12/8
f 7/12/8 11/11/10 10/13/11
f 8/10/7 9/14/9 11/11/10
f 11/11/10 9/14/9 12/15/12
f 10/13/11 11/11/10 13/16/13
f 13/16/13 11/11/10 14/17/14
f 12/15/12 15/18/15 11/11/10
f 11/11/10 15/18/15 14/17/14
f 13/19/13 14/20/14 16/21/16
f 16/21/16 14/20/14 17/22/17
f 15/23/15 18/24/18 14/20/14
f 14/20/14 18/24/18 17/22/17
f 17/22/17 20/25/19 16/21/16
f 16/21/16 20/25/19 19/26/20
f 17/22/17 18/24/18 20/25/19
f 20/25/19 18/24/18 21/27/21
f 20/28/19 23/29/22 19/30/20
f 19/30/20 23/29/22 22/31/23
f 20/28/19 21/32/21 23/29/22
f 23/29/22 21/32/21 24/33/24
f 22/31/23 23/29/22 1/34/1
f 1/34/1 23/29/22 2/35/2
f 24/33/24 3/36/5 23/29/22
f 23/29/22 3/36/5 2/35/2
f 24/37/24 21/38/21 25/39/25
f 25/39/25 21/38/21 18/40/18
f 24/37/24 25/39/25 3/41/5
f 3/41/5 25/39/25 6/42/6
f 18/40/18 15/43/15 25/39/25
f 25/39/25 15/43/15 12/44/12
f 6/42/6 25/39/25 9/45/9
f 9/45/9 25/39/25 12/44/12
f 22/46/23 26/47/26 19/48/20
f 19/48/20 26/47/26 16/49/16
f 22/46/23 1/50/1 26/47/26
f 26/47/26 1/50/1 4/51/3
f 16/49/16 26/47/26 13/52/13
f 13/52/13 26/47/26 10/53/11
f 4/51/3 7/54/8 26/47/26
f 26/47/26 7/54/8 10/53/11
f 37/55/27 28/56/28 44/57/29
f 44/57/29 28/56/28 41/58/30
f 40/59/31 27/60/32 44/57/29
f 44/57/29 27/60/32 37/55/27
f 41/58/30 43/61/33 44/57/29
f 44/57/29 43/61/33 45/62/34
f 30/63/35 38/64/36 43/61/33
f 43/61/33 38/64/36 45/62/34
f 29/65/37 42/66/38 38/64/36
f 38/64/36 42/66/38 45/62/34
f 40/59/31 44/57/29 42/66/38
f 42/66/38 44/57/29 45/62/34
f 32/67/39 49/68/40 39/69/41
f 39/69/41 49/68/40 46/70/42
f 49/68/40 34/71/43 46/70/42
f 46/70/42 34/71/43 47/72/44
f 33/73/45 50/74/46 47/72/44
f 47/72/44 50/74/46 46/70/42
f 31/75/47 39/69/41 50/74/46
f 50/74/46 39/69/41 46/70/42
f 34/71/43 36/76/48 47/72/44
f 47/72/44 36/76/48 48/77/49
f 48/77/49 35/78/50 47/72/44
f 47/72/44 35/78/50 33/73/45
f 28/79/28 37/80/27 36/81/48
f 36/81/48 37/80/27 48/82/49
f 27/83/32 35/84/50 37/80/27
f 37/80/27 35/84/50 48/82/49
f 41/85/30 28/86/28 34/87/43
f 34/87/43 28/86/28 36/88/48
f 30/89/35 43/90/33 32/91/39
f 32/91/39 43/90/33 49/92/40
f 43/90/33 41/85/30 49/92/40
f 49/92/40 41/85/30 34/87/43
f 35/93/50 27/94/32 33/95/45
f 33/95/45 27/94/32 40/96/31
f 33/95/45 40/96/31 50/97/46
f 50/97/46 40/96/31 42/98/38
f 29/99/37 31/100/47 42/98/38
f 42/98/38 31/100/47 50/97/46
