# This file uses centimeters as units for non-parametric coordinates.

v -43.811436 161.090269 -319.708449
v -50.609243 162.448410 -314.888577
v -52.186125 161.704494 -306.448827
v -45.280964 170.919185 -320.814958
v -53.063260 171.176164 -316.587467
v -54.812098 170.828725 -308.112430
v -42.245043 179.725932 -318.366966
v -50.791324 180.455688 -314.936373
v -52.354401 180.473970 -305.625709
v -36.211455 180.200258 -315.771420
v -41.682107 184.427332 -308.049977
v -47.805542 181.488254 -299.661280
v -31.941537 179.395988 -310.998892
v -32.915678 179.651652 -301.307490
v -41.238162 179.717308 -296.905004
v -28.999060 169.958526 -308.971174
v -30.974048 169.477789 -300.370587
v -38.499298 169.732778 -295.489475
v -31.723864 160.206282 -310.513186
v -33.933875 159.235366 -302.414048
v -40.734188 160.045647 -298.025662
v -36.786601 161.130777 -316.324228
v -42.365287 157.598390 -308.772815
v -48.827799 159.488895 -300.083832
v -50.184324 170.118459 -297.752142
v -34.129437 170.550686 -319.127874
v -42.844463 136.692120 -311.370434
v -44.418270 136.663488 -309.175723
v -42.597879 159.830138 -311.275257
v -44.708049 159.796267 -308.439234
v -40.283867 159.663268 -309.570585
v -42.534706 159.639541 -306.838189
v -40.052333 140.124020 -309.684250
v -42.195124 140.095872 -306.951776
v -40.416052 136.518629 -309.619940
v -42.136114 136.495775 -307.420410
v -43.759201 135.422372 -310.402030
v -43.652967 159.813203 -309.857248
v -41.409284 159.651404 -308.204385
v -42.682878 140.310774 -311.552667
v -44.642772 140.275741 -308.834251
v -42.746102 153.309521 -310.917286
v -44.350769 153.284947 -308.788548
v -43.784868 140.301994 -310.281832
v -43.645742 153.304208 -309.923580
v -41.199383 153.128405 -308.135828
v -40.883042 140.092494 -308.138465
v -41.062114 135.226754 -308.388628
v -42.232279 153.132325 -307.231425
v -40.583462 153.154487 -309.345849
vt 0.037013 0.861564
vt 0.027355 0.734793
vt 0.167650 0.890199
vt 0.167663 0.732067
vt 0.037013 0.611436
vt 0.167650 0.578459
vt 0.308569 0.734793
vt 0.298287 0.861564
vt 0.298287 0.611436
vt 0.639004 0.710387
vt 0.820067 0.707662
vt 0.694973 0.837159
vt 0.818259 0.888097
vt 0.692217 0.587031
vt 0.818675 0.533981
vt 0.940611 0.833378
vt 0.989729 0.706763
vt 0.943170 0.584589
vt 0.039763 0.516572
vt 0.029481 0.389957
vt 0.170401 0.547293
vt 0.170388 0.390856
vt 0.039763 0.267783
vt 0.170401 0.236600
vt 0.310695 0.389957
vt 0.301038 0.516572
vt 0.301038 0.267783
vt 0.315210 0.563716
vt 0.485193 0.564615
vt 0.364648 0.690331
vt 0.487000 0.745418
vt 0.362089 0.441542
vt 0.486585 0.390647
vt 0.610287 0.694112
vt 0.666549 0.567340
vt 0.613042 0.443983
vt 0.669370 0.335160
vt 0.682481 0.210664
vt 0.813203 0.333768
vt 0.813119 0.164276
vt 0.682481 0.461616
vt 0.813119 0.502622
vt 0.943756 0.210664
vt 0.957716 0.335160
vt 0.943756 0.461616
vt 0.633569 0.199173
vt 0.489735 0.197365
vt 0.620457 0.076820
vt 0.489820 0.030007
vt 0.620457 0.322459
vt 0.489820 0.365233
vt 0.359183 0.076820
vt 0.345223 0.199173
vt 0.359183 0.322459
vt 0.654607 0.113820
vt 0.654607 0.075817
vt 0.732044 0.112337
vt 0.732044 0.080588
vt 0.732044 0.144086
vt 0.654607 0.151822
vt 0.886920 0.085291
vt 0.886920 0.110666
vt 0.964357 0.085223
vt 0.964358 0.110477
vt 0.964358 0.135731
vt 0.886920 0.136041
vt 0.027867 0.081350
vt 0.105305 0.081417
vt 0.027867 0.106604
vt 0.105305 0.106959
vt 0.260181 0.075281
vt 0.260181 0.108399
vt 0.260181 0.141517
vt 0.105305 0.132501
vt 0.027867 0.131859
vt 0.337618 0.069079
vt 0.337618 0.109485
vt 0.337619 0.149891
vt 0.131509 0.230883
vt 0.088308 0.232280
vt 0.134767 0.170666
vt 0.088833 0.168174
vt 0.045106 0.233677
vt 0.042899 0.165682
vt 0.411757 0.801450
vt 0.334319 0.801070
vt 0.411757 0.751434
vt 0.334319 0.748101
vt 0.644071 0.808110
vt 0.566633 0.804971
vt 0.644071 0.769496
vt 0.566633 0.762132
vt 0.334089 0.893362
vt 0.334089 0.833551
vt 0.411527 0.887959
vt 0.411527 0.834764
vt 0.566402 0.876430
vt 0.566402 0.832583
vt 0.643841 0.829190
vt 0.643840 0.870303
vn -0.057035 -0.580946 -0.811941
vn -0.709550 -0.524140 -0.470974
vn -0.276424 0.048577 -0.959807
vn -0.802546 -0.018739 -0.596296
vn -0.831738 -0.547911 0.089476
vn -0.999699 -0.021849 0.011180
vn -0.635799 0.574389 -0.515593
vn 0.045175 0.592888 -0.804017
vn -0.799974 0.563082 0.207319
vn 0.068501 0.997175 -0.030827
vn 0.443229 0.679145 -0.585073
vn -0.425189 0.670800 0.607653
vn 0.780539 0.569225 -0.258344
vn 0.711900 0.512083 0.480593
vn 0.047573 0.529031 0.847268
vn 0.999467 -0.013738 -0.029611
vn 0.817544 -0.063584 0.572346
vn 0.292157 -0.058302 0.954592
vn 0.646889 -0.610940 0.456384
vn 0.716356 -0.630031 -0.299825
vn 0.023770 -0.617549 0.786173
vn -0.076674 -0.992100 -0.099294
vn 0.401202 -0.697351 -0.593919
vn -0.502776 -0.706985 0.497382
vn -0.621630 -0.019775 0.783062
vn 0.588130 0.017785 -0.808571
vn -0.508526 -0.771895 -0.381550
vn -0.927023 -0.244255 0.284548
vn -0.808402 0.014454 -0.588453
vn -0.932862 -0.018546 0.359757
vn 0.062069 0.013191 -0.997985
vn -0.000242 -0.216468 -0.976290
vn -0.998672 -0.020143 0.047413
vn -0.798626 0.015201 -0.601636
vn -0.987778 -0.061860 0.143067
vn -0.800432 -0.004011 -0.599410
vn -0.150043 -0.050787 -0.987374
vn -0.246902 -0.004604 -0.969029
vn -0.182445 -0.067548 0.980893
vn 0.064861 -0.001261 0.997893
vn 0.780407 0.011691 0.625163
vn 0.766751 0.024032 0.641494
vn 0.036765 -0.056343 0.997734
vn 0.804291 -0.032331 0.593356
vn 0.918572 -0.039810 -0.393244
vn 0.996697 0.018660 -0.079036
vn 0.891783 -0.057762 -0.448760
vn -0.028385 -0.445132 0.895015
vn 0.628039 -0.612835 0.479583
vn 0.860565 -0.429075 -0.274449
f 1/1/1 2/2/2 4/3/3
f 4/3/3 2/2/2 5/4/4
f 3/5/5 6/6/6 2/2/2
f 2/2/2 6/6/6 5/4/4
f 5/4/4 8/7/7 4/3/3
f 4/3/3 8/7/7 7/8/8
f 5/4/4 6/6/6 8/7/7
f 8/7/7 6/6/6 9/9/9
f 8/10/7 11/11/10 7/12/8
f 7/12/8 11/11/10 10/13/11
f 8/10/7 9/14/9 11/11/10
f 11/11/10 9/14/9 12/15/12
f 10/13/11 11/11/10 13/16/13
f 13/16/13 11/11/10 14/17/14
f 12/15/12 15/18/15 11/11/10
f 11/11/10 15/18/15 14/17/14
f 13/19/13 14/20/14 16/21/16
f 16/21/16 14/20/14 17/22/17
f 15/23/15 18/24/18 14/20/14
f 14/20/14 18/24/18 17/22/17
f 17/22/17 20/25/19 16/21/16
f 16/21/16 20/25/19 19/26/20
f 17/22/17 18/24/18 20/25/19
f 20/25/19 18/24/18 21/27/21
f 20/28/19 23/29/22 19/30/20
f 19/30/20 23/29/22 22/31/23
f 20/28/19 21/32/21 23/29/22
f 23/29/22 21/32/21 24/33/24
f 22/31/23 23/29/22 1/34/1
f 1/34/1 23/29/22 2/35/2
f 24/33/24 3/36/5 23/29/22
f 23/29/22 3/36/5 2/35/2
f 24/37/24 21/38/21 25/39/25
f 25/39/25 21/38/21 18/40/18
f 24/37/24 25/39/25 3/41/5
f 3/41/5 25/39/25 6/42/6
f 18/40/18 15/43/15 25/39/25
f 25/39/25 15/43/15 12/44/12
f 6/42/6 25/39/25 9/45/9
f 9/45/9 25/39/25 12/44/12
f 22/46/23 26/47/26 19/48/20
f 19/48/20 26/47/26 16/49/16
f 22/46/23 1/50/1 26/47/26
f 26/47/26 1/50/1 4/51/3
f 16/49/16 26/47/26 13/52/13
f 13/52/13 26/47/26 10/53/11
f 4/51/3 7/54/8 26/47/26
f 26/47/26 7/54/8 10/53/11
f 37/55/27 28/56/28 44/57/29
f 44/57/29 28/56/28 41/58/30
f 40/59/31 27/60/32 44/57/29
f 44/57/29 27/60/32 37/55/27
f 41/58/30 43/61/33 44/57/29
f 44/57/29 43/61/33 45/62/34
f 30/63/35 38/64/36 43/61/33
f 43/61/33 38/64/36 45/62/34
f 29/65/37 42/66/38 38/64/36
f 38/64/36 42/66/38 45/62/34
f 40/59/31 44/57/29 42/66/38
f 42/66/38 44/57/29 45/62/34
f 32/67/39 49/68/40 39/69/41
f 39/69/41 49/68/40 46/70/42
f 49/68/40 34/71/43 46/70/42
f 46/70/42 34/71/43 47/72/44
f 33/73/45 50/74/46 47/72/44
f 47/72/44 50/74/46 46/70/42
f 31/75/47 39/69/41 50/74/46
f 50/74/46 39/69/41 46/70/42
f 34/71/43 36/76/48 47/72/44
f 47/72/44 36/76/48 48/77/49
f 48/77/49 35/78/50 47/72/44
f 47/72/44 35/78/50 33/73/45
f 28/79/28 37/80/27 36/81/48
f 36/81/48 37/80/27 48/82/49
f 27/83/32 35/84/50 37/80/27
f 37/80/27 35/84/50 48/82/49
f 41/85/30 28/86/28 34/87/43
f 34/87/43 28/86/28 36/88/48
f 30/89/35 43/90/33 32/91/39
f 32/91/39 43/90/33 49/92/40
f 43/90/33 41/85/30 49/92/40
f 49/92/40 41/85/30 34/87/43
f 35/93/50 27/94/32 33/95/45
f 33/95/45 27/94/32 40/96/31
f 33/95/45 40/96/31 50/97/46
f 50/97/46 40/96/31 42/98/38
f 29/99/37 31/100/47 42/98/38
f 42/98/38 31/100/47 50/97/46
